<svg width="36" height="36" viewBox="0 0 36 36" fill="none" xmlns="http://www.w3.org/2000/svg">
<path d="M19.1364 1.30444L19.1371 1.30488L31.8634 8.6673C32.5673 9.07418 33 9.82528 33 10.6378V25.3623C33 26.1738 32.5677 26.9256 31.8637 27.3327L19.1364 1.30444ZM19.1364 1.30444C18.4333 0.898519 17.5667 0.898519 16.8636 1.30444L16.8629 1.30487L4.13562 8.66747L4.13528 8.66767C3.43246 9.07461 3 9.82548 3 10.6378V25.3623C3 26.1737 3.43221 26.9254 4.13528 27.3325L4.13566 27.3327L16.8626 34.6944C16.8627 34.6945 16.8628 34.6946 16.8629 34.6947C17.5664 35.1018 18.4336 35.1018 19.1371 34.6946C19.1372 34.6946 19.1373 34.6945 19.1374 34.6944L31.8634 27.3329L19.1364 1.30444Z" stroke="black" stroke-width="2"/>
<path d="M18 18.25C19.24 18.25 20.25 17.24 20.25 16C20.25 14.76 19.24 13.75 18 13.75C16.76 13.75 15.75 14.76 15.75 16C15.75 17.24 16.76 18.25 18 18.25ZM22.5 22.25C22.5 20.75 19.5 20 18 20C16.5 20 13.5 20.75 13.5 22.25V23H22.5V22.25ZM25 9H11C9.9 9 9 9.9 9 11V25C9 26.1 9.9 27 11 27H25C26.1 27 27 26.1 27 25V11C27 9.9 26.1 9 25 9ZM25 25H11V11H25V25Z" fill="black"/>
</svg>
