<svg width="36" height="36" viewBox="0 0 36 36" fill="none" xmlns="http://www.w3.org/2000/svg">
<path d="M31.8564 8.8453L19 1.42265C18.3812 1.06538 17.6188 1.06538 17 1.42265L4.14359 8.8453C3.52479 9.20257 3.14359 9.86282 3.14359 10.5774V25.4226C3.14359 26.1372 3.52479 26.7974 4.14359 27.1547L17 34.5774C17.6188 34.9346 18.3812 34.9346 19 34.5774L31.8564 27.1547C32.4752 26.7974 32.8564 26.1372 32.8564 25.4226V10.5774C32.8564 9.86282 32.4752 9.20256 31.8564 8.8453Z" stroke="black" stroke-width="2"/>
<path d="M18 18.25C19.24 18.25 20.25 17.24 20.25 16C20.25 14.76 19.24 13.75 18 13.75C16.76 13.75 15.75 14.76 15.75 16C15.75 17.24 16.76 18.25 18 18.25ZM22.5 22.25C22.5 20.75 19.5 20 18 20C16.5 20 13.5 20.75 13.5 22.25V23H22.5V22.25ZM25 9H11C9.9 9 9 9.9 9 11V25C9 26.1 9.9 27 11 27H25C26.1 27 27 26.1 27 25V11C27 9.9 26.1 9 25 9ZM25 25H11V11H25V25Z" fill="black"/>
</svg>
