<svg width="36" height="36" viewBox="0 0 36 36" fill="none" xmlns="http://www.w3.org/2000/svg">
<path d="M19.1364 1.30444L19.1371 1.30488L31.8634 8.6673C32.5673 9.07418 33 9.82528 33 10.6378V25.3623C33 26.1738 32.5677 26.9256 31.8637 27.3327L19.1364 1.30444ZM19.1364 1.30444C18.4333 0.898519 17.5667 0.898519 16.8636 1.30444L16.8629 1.30487L4.13562 8.66747L4.13528 8.66767C3.43246 9.07461 3 9.82548 3 10.6378V25.3623C3 26.1737 3.43221 26.9254 4.13528 27.3325L4.13566 27.3327L16.8626 34.6944C16.8627 34.6945 16.8628 34.6946 16.8629 34.6947C17.5664 35.1018 18.4336 35.1018 19.1371 34.6946C19.1372 34.6946 19.1373 34.6945 19.1374 34.6944L31.8634 27.3329L19.1364 1.30444Z" stroke="black" stroke-width="2"/>
<path d="M22.1667 8.84165L13.8333 8.83331C12.9167 8.83331 12.1667 9.58331 12.1667 10.5V25.5C12.1667 26.4166 12.9167 27.1666 13.8333 27.1666H22.1667C23.0833 27.1666 23.8333 26.4166 23.8333 25.5V10.5C23.8333 9.58331 23.0833 8.84165 22.1667 8.84165ZM22.1667 23.8333H13.8333V12.1666H22.1667V23.8333Z" fill="black"/>
</svg>
