<svg width="36" height="36" viewBox="0 0 36 36" fill="none" xmlns="http://www.w3.org/2000/svg">
<path d="M19.1371 1.30488L19.1364 1.30444C18.4333 0.898519 17.5667 0.898519 16.8636 1.30444L16.8629 1.30487L4.13562 8.66747L4.13528 8.66767C3.43246 9.07461 3 9.82548 3 10.6378V25.3623C3 26.1737 3.43221 26.9254 4.13528 27.3325L4.13566 27.3327L16.8626 34.6944C17.5662 35.1019 18.4338 35.1019 19.1374 34.6944L31.8634 27.3329C31.8635 27.3328 31.8636 27.3328 31.8637 27.3327C32.5677 26.9256 33 26.1738 33 25.3623V10.6378C33 9.8254 32.5674 9.0744 31.8637 8.66748C31.8636 8.66742 31.8635 8.66736 31.8634 8.6673L19.1371 1.30488Z" stroke="black" stroke-width="2"/>
<path fill-rule="evenodd" clip-rule="evenodd" d="M10 12H22C22.55 12 23 12.45 23 13V16.5L26.1464 13.3536C26.4614 13.0386 27 13.2617 27 13.7071V22.2929C27 22.7383 26.4614 22.9614 26.1464 22.6464L23 19.5V23C23 23.55 22.55 24 22 24H10C9.45 24 9 23.55 9 23V13C9 12.45 9.45 12 10 12ZM11 22H21V14H11V22Z" fill="black"/>
</svg>
