<svg width="36" height="36" viewBox="0 0 36 36" fill="none" xmlns="http://www.w3.org/2000/svg">
<path d="M31.8564 8.8453L19 1.42265C18.3812 1.06538 17.6188 1.06538 17 1.42265L4.14359 8.8453C3.52479 9.20257 3.14359 9.86282 3.14359 10.5774V25.4226C3.14359 26.1372 3.52479 26.7974 4.14359 27.1547L17 34.5774C17.6188 34.9346 18.3812 34.9346 19 34.5774L31.8564 27.1547C32.4752 26.7974 32.8564 26.1372 32.8564 25.4226V10.5774C32.8564 9.86282 32.4752 9.20256 31.8564 8.8453Z" stroke="black" stroke-width="2"/>
<path fill-rule="evenodd" clip-rule="evenodd" d="M18.7071 8.9771L23.66 13.93C26.78 17.05 26.78 22.12 23.66 25.24C22.1 26.8 20.05 27.58 18 27.58C15.95 27.58 13.9 26.8 12.34 25.24C9.22 22.12 9.22 17.05 12.34 13.93L17.2929 8.9771C17.6834 8.58657 18.3166 8.58657 18.7071 8.9771ZM18.7079 11.8096C18.3172 11.418 17.6828 11.418 17.2921 11.8096L13.76 15.35C12.62 16.48 12 17.99 12 19.59C12 21.19 12.62 22.69 13.76 23.83C14.89 24.97 16.4 25.59 18 25.59C19.6 25.59 21.11 24.97 22.24 23.83C23.38 22.69 24 21.19 24 19.59C24 17.99 23.38 16.48 22.24 15.35L18.7079 11.8096Z" fill="black"/>
</svg>
