<svg width="36" height="36" viewBox="0 0 36 36" fill="none" xmlns="http://www.w3.org/2000/svg">
<path d="M19.1371 1.30488L19.1364 1.30444C18.4333 0.898519 17.5667 0.898519 16.8636 1.30444L16.8629 1.30487L4.13562 8.66747L4.13528 8.66767C3.43246 9.07461 3 9.82548 3 10.6378V25.3623C3 26.1737 3.43221 26.9254 4.13528 27.3325L4.13566 27.3327L16.8626 34.6944C17.5662 35.1019 18.4338 35.1019 19.1374 34.6944L31.8634 27.3329C31.8635 27.3328 31.8636 27.3328 31.8637 27.3327C32.5677 26.9256 33 26.1738 33 25.3623V10.6378C33 9.8254 32.5674 9.0744 31.8637 8.66748C31.8636 8.66742 31.8635 8.66736 31.8634 8.6673L19.1371 1.30488Z" stroke="black" stroke-width="2"/>
<path fill-rule="evenodd" clip-rule="evenodd" d="M22.4558 15.3675C22.1836 14.5509 21.4193 14 20.5585 14L15.4415 14C14.5807 14 13.8164 14.5509 13.5442 15.3675L10.8775 23.3675C10.4458 24.6626 11.4097 26 12.7749 26H23.2251C24.5903 26 25.5542 24.6626 25.1225 23.3675L22.4558 15.3675Z" stroke="black" stroke-width="2"/>
<path fill-rule="evenodd" clip-rule="evenodd" d="M18 13C19.1046 13 20 12.1046 20 11C20 9.89543 19.1046 9 18 9C16.8954 9 16 9.89543 16 11C16 12.1046 16.8954 13 18 13Z" stroke="black" stroke-width="2"/>
</svg>
