<svg width="36" height="36" viewBox="0 0 36 36" fill="none" xmlns="http://www.w3.org/2000/svg">
<path fill-rule="evenodd" clip-rule="evenodd" d="M16.2733 22.379C15.7978 22.379 15.4103 21.9916 15.4103 21.516C15.4103 21.0395 15.7978 20.652 16.2733 20.652C16.7488 20.652 17.1363 21.0395 17.1363 21.516C17.1363 21.9916 16.7488 22.379 16.2733 22.379ZM18.105 19.6833C17.8677 19.4461 17.5901 19.2596 17.2813 19.1291C16.9622 18.9934 16.6224 18.926 16.2733 18.926C15.9242 18.926 15.5844 18.9934 15.2642 19.1291C14.9565 19.2596 14.6789 19.4461 14.4416 19.6833C14.2034 19.9216 14.0169 20.1993 13.8863 20.507C13.7517 20.8271 13.6833 21.1669 13.6833 21.516C13.6833 21.8652 13.7517 22.205 13.8863 22.5241C14.0169 22.8328 14.2034 23.1094 14.4416 23.3477C14.6789 23.5849 14.9565 23.7714 15.2642 23.902C15.5844 24.0377 15.9242 24.1061 16.2733 24.1061C16.6224 24.1061 16.9622 24.0377 17.2813 23.902C17.5901 23.7714 17.8677 23.5849 18.105 23.3477C18.3422 23.1094 18.5287 22.8328 18.6592 22.5241C18.7949 22.205 18.8633 21.8652 18.8633 21.516C18.8633 21.1669 18.7949 20.8271 18.6592 20.507C18.5287 20.1993 18.3422 19.9216 18.105 19.6833Z" fill="black"/>
<path fill-rule="evenodd" clip-rule="evenodd" d="M23.1808 20.652C23.6563 20.652 24.0438 21.0395 24.0438 21.515C24.0438 21.9916 23.6563 22.379 23.1808 22.379C22.7042 22.379 22.3167 21.9916 22.3167 21.515C22.3167 21.0395 22.7042 20.652 23.1808 20.652ZM21.3481 23.3477C21.5864 23.5849 21.864 23.7714 22.1717 23.902C22.4918 24.0377 22.8316 24.1061 23.1808 24.1061C23.5299 24.1061 23.8697 24.0377 24.1898 23.902C24.4975 23.7714 24.7741 23.5849 25.0124 23.3477C25.2497 23.1094 25.4372 22.8328 25.5677 22.5241C25.7024 22.205 25.7708 21.8652 25.7708 21.515C25.7708 21.1669 25.7024 20.8271 25.5677 20.507C25.4372 20.1993 25.2497 19.9216 25.0124 19.6833C24.7741 19.4461 24.4975 19.2596 24.1898 19.1291C23.8697 18.9934 23.5299 18.925 23.1808 18.925C22.8316 18.925 22.4918 18.9934 22.1717 19.1291C21.864 19.2596 21.5864 19.4461 21.3481 19.6833C21.1119 19.9216 20.9244 20.1993 20.7938 20.507C20.6581 20.8271 20.5908 21.1669 20.5908 21.515C20.5908 21.8652 20.6581 22.205 20.7938 22.5241C20.9244 22.8328 21.1119 23.1094 21.3481 23.3477Z" fill="black"/>
<path fill-rule="evenodd" clip-rule="evenodd" d="M11.0922 18.9255C10.6157 18.9255 10.2292 19.3119 10.2292 19.7885V23.2425C10.2292 23.7191 10.6157 24.1055 11.0922 24.1055C11.5688 24.1055 11.9552 23.7191 11.9552 23.2425V19.7885C11.9552 19.3119 11.5688 18.9255 11.0922 18.9255Z" fill="black"/>
<path fill-rule="evenodd" clip-rule="evenodd" d="M12.8193 15.4715C12.3437 15.4715 11.9563 15.084 11.9563 14.6085C11.9563 14.1319 12.3437 13.7444 12.8193 13.7444C13.2948 13.7444 13.6823 14.1319 13.6823 14.6085C13.6823 15.084 13.2948 15.4715 12.8193 15.4715ZM14.6509 16.4401C14.8892 16.2019 15.0757 15.9252 15.2062 15.6165C15.3409 15.2974 15.4093 14.9576 15.4093 14.6085C15.4093 14.2593 15.3409 13.9195 15.2062 13.5994C15.0757 13.2917 14.8892 13.0141 14.6509 12.7758C14.4137 12.5385 14.136 12.3521 13.8283 12.2215C13.5082 12.0858 13.1684 12.0185 12.8193 12.0185C12.4701 12.0185 12.1303 12.0858 11.8102 12.2215C11.5025 12.3521 11.2248 12.5385 10.9876 12.7758C10.7504 13.0141 10.5639 13.2917 10.4333 13.5994C10.2976 13.9195 10.2292 14.2593 10.2292 14.6085C10.2292 14.9576 10.2976 15.2974 10.4333 15.6165C10.5639 15.9252 10.7504 16.2019 10.9876 16.4401C11.2248 16.6774 11.5025 16.8639 11.8102 16.9944C12.1303 17.1301 12.4701 17.1985 12.8193 17.1985C13.1684 17.1985 13.5082 17.1301 13.8283 16.9944C14.136 16.8639 14.4137 16.6774 14.6509 16.4401Z" fill="black"/>
<path fill-rule="evenodd" clip-rule="evenodd" d="M23.1808 13.7444C23.6563 13.7444 24.0438 14.1319 24.0438 14.6074C24.0438 15.084 23.6563 15.4715 23.1808 15.4715C22.7042 15.4715 22.3167 15.084 22.3167 14.6074C22.3167 14.1319 22.7042 13.7444 23.1808 13.7444ZM21.3481 16.4401C21.5864 16.6774 21.864 16.8639 22.1717 16.9944C22.4918 17.1301 22.8316 17.1985 23.1808 17.1985C23.5299 17.1985 23.8697 17.1301 24.1898 16.9944C24.4975 16.8639 24.7741 16.6774 25.0124 16.4401C25.2497 16.2019 25.4372 15.9252 25.5677 15.6165C25.7024 15.2974 25.7708 14.9576 25.7708 14.6074C25.7708 14.2593 25.7024 13.9195 25.5677 13.5994C25.4372 13.2917 25.2497 13.0141 25.0124 12.7758C24.7741 12.5385 24.4975 12.3521 24.1898 12.2215C23.8697 12.0858 23.5299 12.0174 23.1808 12.0174C22.8316 12.0174 22.4918 12.0858 22.1717 12.2215C21.864 12.3521 21.5864 12.5385 21.3481 12.7758C21.1119 13.0141 20.9244 13.2917 20.7938 13.5994C20.6581 13.9195 20.5908 14.2593 20.5908 14.6074C20.5908 14.9576 20.6581 15.2974 20.7938 15.6165C20.9244 15.9252 21.1119 16.2019 21.3481 16.4401Z" fill="black"/>
<path fill-rule="evenodd" clip-rule="evenodd" d="M17.1367 12.8809V16.335C17.1367 16.8115 17.5231 17.198 17.9997 17.198C18.4763 17.198 18.8637 16.8115 18.8637 16.335V12.8809C18.8637 12.4044 18.4763 12.0179 17.9997 12.0179C17.5231 12.0179 17.1367 12.4044 17.1367 12.8809Z" fill="black"/>
<rect x="2" y="2" width="32" height="32" rx="16" stroke="black" stroke-width="2"/>
</svg>
