<svg width="36" height="36" viewBox="0 0 36 36" fill="none" xmlns="http://www.w3.org/2000/svg">
<path fill-rule="evenodd" clip-rule="evenodd" d="M12.9814 12.2072H10.4725C10.0108 12.2072 9.63647 12.5815 9.63647 13.0431C9.63647 13.5048 10.0108 13.8801 10.4725 13.8801H12.9814C13.443 13.8801 13.8174 13.5048 13.8174 13.0431C13.8174 12.5815 13.443 12.2072 12.9814 12.2072Z" fill="black"/>
<path fill-rule="evenodd" clip-rule="evenodd" d="M15.4908 13.0431C15.4908 13.5048 15.8652 13.8791 16.3268 13.8791H25.5276C25.9903 13.8791 26.3646 13.5048 26.3646 13.0431C26.3646 12.5815 25.9903 12.2072 25.5276 12.2072H16.3268C15.8652 12.2072 15.4908 12.5815 15.4908 13.0431Z" fill="black"/>
<path fill-rule="evenodd" clip-rule="evenodd" d="M12.9814 15.5526H10.4725C10.0108 15.5526 9.63647 15.9269 9.63647 16.3885C9.63647 16.8512 10.0108 17.2255 10.4725 17.2255H12.9814C13.443 17.2255 13.8174 16.8512 13.8174 16.3885C13.8174 15.9269 13.443 15.5526 12.9814 15.5526Z" fill="black"/>
<path fill-rule="evenodd" clip-rule="evenodd" d="M25.5275 15.5526H16.3278C15.8651 15.5526 15.4908 15.9269 15.4908 16.3885C15.4908 16.8512 15.8651 17.2255 16.3278 17.2255H25.5275C25.9902 17.2255 26.3645 16.8512 26.3645 16.3885C26.3645 15.9269 25.9902 15.5526 25.5275 15.5526Z" fill="black"/>
<path fill-rule="evenodd" clip-rule="evenodd" d="M12.9814 18.8985H10.4725C10.0108 18.8985 9.63647 19.2728 9.63647 19.7344C9.63647 20.1961 10.0108 20.5714 10.4725 20.5714H12.9814C13.443 20.5714 13.8174 20.1961 13.8174 19.7344C13.8174 19.2728 13.443 18.8985 12.9814 18.8985Z" fill="black"/>
<path fill-rule="evenodd" clip-rule="evenodd" d="M25.5275 18.8985H16.3278C15.8651 18.8985 15.4908 19.2728 15.4908 19.7344C15.4908 20.1961 15.8651 20.5714 16.3278 20.5714H25.5275C25.9902 20.5714 26.3645 20.1961 26.3645 19.7344C26.3645 19.2728 25.9902 18.8985 25.5275 18.8985Z" fill="black"/>
<path fill-rule="evenodd" clip-rule="evenodd" d="M12.9814 22.2439H10.4725C10.0108 22.2439 9.63647 22.6182 9.63647 23.0799C9.63647 23.5425 10.0108 23.9169 10.4725 23.9169H12.9814C13.443 23.9169 13.8174 23.5425 13.8174 23.0799C13.8174 22.6182 13.443 22.2439 12.9814 22.2439Z" fill="black"/>
<path fill-rule="evenodd" clip-rule="evenodd" d="M25.5275 22.2439H16.3278C15.8651 22.2439 15.4908 22.6182 15.4908 23.0799C15.4908 23.5425 15.8651 23.9169 16.3278 23.9169H25.5275C25.9902 23.9169 26.3645 23.5425 26.3645 23.0799C26.3645 22.6182 25.9902 22.2439 25.5275 22.2439Z" fill="black"/>
<rect x="2" y="2" width="32" height="32" rx="16" stroke="black" stroke-width="2"/>
</svg>
