<svg width="36" height="36" viewBox="0 0 36 36" fill="none" xmlns="http://www.w3.org/2000/svg">
<path d="M19.1371 1.30488L19.1364 1.30444C18.4333 0.898519 17.5667 0.898519 16.8636 1.30444L16.8629 1.30487L4.13562 8.66747L4.13528 8.66767C3.43246 9.07461 3 9.82548 3 10.6378V25.3623C3 26.1737 3.43221 26.9254 4.13528 27.3325L4.13566 27.3327L16.8626 34.6944C17.5662 35.1019 18.4338 35.1019 19.1374 34.6944L31.8634 27.3329C31.8635 27.3328 31.8636 27.3328 31.8637 27.3327C32.5677 26.9256 33 26.1738 33 25.3623V10.6378C33 9.8254 32.5674 9.0744 31.8637 8.66748C31.8636 8.66742 31.8635 8.66736 31.8634 8.6673L19.1371 1.30488Z" fill="black" stroke="black" stroke-width="2"/>
<path fill-rule="evenodd" clip-rule="evenodd" d="M27.6611 24.9668L13.8251 11.1308L11.1661 13.7888L25.0021 27.6248C25.3931 28.0158 26.0261 28.0158 26.4161 27.6248L27.6611 26.3798C28.0511 25.9888 28.0511 25.3568 27.6611 24.9668Z" fill="white"/>
<mask id="mask0" mask-type="alpha" maskUnits="userSpaceOnUse" x="14" y="8" width="8" height="8">
<path fill-rule="evenodd" clip-rule="evenodd" d="M14.711 8H21.7512V15.0399H14.711V8Z" fill="white"/>
</mask>
<g mask="url(#mask0)">
<path fill-rule="evenodd" clip-rule="evenodd" d="M21.458 13.0879C21.849 12.6979 21.849 12.0659 21.458 11.6749L18.076 8.29291C17.686 7.90191 17.053 7.90191 16.663 8.29291L14.711 10.2439L19.506 15.0399L21.458 13.0879Z" fill="white"/>
</g>
<path fill-rule="evenodd" clip-rule="evenodd" d="M11.7109 21.4219C12.1009 21.8129 12.7339 21.8129 13.1249 21.4219L15.0759 19.4709L10.2799 14.6749L8.32891 16.6269C7.93891 17.0169 7.93891 17.6499 8.32891 18.0399L11.7109 21.4219Z" fill="white"/>
<mask id="mask1" mask-type="alpha" maskUnits="userSpaceOnUse" x="8" y="26" width="11" height="2">
<path fill-rule="evenodd" clip-rule="evenodd" d="M8 26.001H18.9946V28H8V26.001Z" fill="white"/>
</mask>
<g mask="url(#mask1)">
<path fill-rule="evenodd" clip-rule="evenodd" d="M17.9946 26.001H8.9996C8.4476 26.001 7.9996 26.448 7.9996 27.001C7.9996 27.553 8.4476 28 8.9996 28H17.9946C18.5466 28 18.9946 27.553 18.9946 27.001C18.9946 26.448 18.5466 26.001 17.9946 26.001Z" fill="white"/>
</g>
</svg>
