<svg width="36" height="36" viewBox="0 0 36 36" fill="none" xmlns="http://www.w3.org/2000/svg">
<path d="M19.1371 1.30488L19.1364 1.30444C18.4333 0.898519 17.5667 0.898519 16.8636 1.30444L16.8629 1.30487L4.13562 8.66747L4.13528 8.66767C3.43246 9.07461 3 9.82548 3 10.6378V25.3623C3 26.1737 3.43221 26.9254 4.13528 27.3325L4.13566 27.3327L16.8626 34.6944C17.5662 35.1019 18.4338 35.1019 19.1374 34.6944L31.8634 27.3329C31.8635 27.3328 31.8636 27.3328 31.8637 27.3327C32.5677 26.9256 33 26.1738 33 25.3623V10.6378C33 9.8254 32.5674 9.0744 31.8637 8.66748C31.8636 8.66742 31.8635 8.66736 31.8634 8.6673L19.1371 1.30488Z" fill="black" stroke="black" stroke-width="2"/>
<mask id="mask0" mask-type="alpha" maskUnits="userSpaceOnUse" x="9" y="9" width="18" height="18">
<path fill-rule="evenodd" clip-rule="evenodd" d="M9 9H26.9999V27H9V9Z" fill="white"/>
</mask>
<g mask="url(#mask0)">
<path fill-rule="evenodd" clip-rule="evenodd" d="M25.7139 15H20.9999V10.286C20.9999 9.576 20.4249 9 19.7139 9H16.2859C15.5749 9 14.9999 9.576 14.9999 10.286V15H10.2859C9.5749 15 8.9999 15.576 8.9999 16.286V19.714C8.9999 20.424 9.5749 21 10.2859 21H14.9999V25.714C14.9999 26.424 15.5749 27 16.2859 27H19.7139C20.4249 27 20.9999 26.424 20.9999 25.714V21H25.7139C26.4249 21 26.9999 20.424 26.9999 19.714V16.286C26.9999 15.576 26.4249 15 25.7139 15Z" fill="white"/>
</g>
</svg>
