<svg width="36" height="36" viewBox="0 0 36 36" fill="none" xmlns="http://www.w3.org/2000/svg">
<path d="M19.1371 1.30488L19.1364 1.30444C18.4333 0.898519 17.5667 0.898519 16.8636 1.30444L16.8629 1.30487L4.13562 8.66747L4.13528 8.66767C3.43246 9.07461 3 9.82548 3 10.6378V25.3623C3 26.1737 3.43221 26.9254 4.13528 27.3325L4.13566 27.3327L16.8626 34.6944C17.5662 35.1019 18.4338 35.1019 19.1374 34.6944L31.8634 27.3329C31.8635 27.3328 31.8636 27.3328 31.8637 27.3327C32.5677 26.9256 33 26.1738 33 25.3623V10.6378C33 9.8254 32.5674 9.0744 31.8637 8.66748C31.8636 8.66742 31.8635 8.66736 31.8634 8.6673L19.1371 1.30488Z" fill="black" stroke="black" stroke-width="2"/>
<mask id="mask0" mask-type="alpha" maskUnits="userSpaceOnUse" x="9" y="8" width="18" height="21">
<path fill-rule="evenodd" clip-rule="evenodd" d="M9.00011 8.00021H27V28.0112H9.00011V8.00021Z" fill="white"/>
</mask>
<g mask="url(#mask0)">
<path fill-rule="evenodd" clip-rule="evenodd" d="M25.9971 20.4742H17.9531C17.3991 20.4742 16.9511 20.9232 16.9511 21.4772V21.9842C16.9511 22.5372 17.3991 22.9872 17.9531 22.9872H19.9841C19.8911 23.0552 19.7941 23.1202 19.6951 23.1822C18.9131 23.6702 18.0101 23.9292 17.0821 23.9292C16.4141 23.9292 15.7671 23.7982 15.1591 23.5412C14.5701 23.2922 14.0421 22.9362 13.5881 22.4822C13.1331 22.0272 12.7761 21.4982 12.5281 20.9112C12.2701 20.3022 12.1411 19.6552 12.1411 18.9882C12.1411 17.5922 12.7251 16.2822 13.7321 15.3532L15.0251 16.6462C15.4171 17.0372 16.0521 17.0372 16.4431 16.6462L17.6901 15.3992C18.0811 15.0072 18.0811 14.3722 17.6901 13.9822L12.0021 8.29322C11.6101 7.90222 10.9761 7.90222 10.5841 8.29322L9.33811 9.54022C8.94611 9.93222 8.94611 10.5672 9.33811 10.9582L11.5121 13.1322C10.9101 13.7052 10.3961 14.3702 9.99611 15.0972C9.67511 15.6812 9.42811 16.3042 9.26011 16.9482C9.08811 17.6112 9.00011 18.2972 9.00011 18.9882C9.00011 20.0782 9.21411 21.1362 9.63611 22.1332C10.0431 23.0962 10.6251 23.9602 11.3671 24.7022C11.6571 24.9932 11.9671 25.2582 12.2931 25.4982H10.1931C9.64011 25.4982 9.19111 25.9482 9.19111 26.5012V27.0082C9.19111 27.5622 9.64011 28.0112 10.1931 28.0112H23.2621C23.8151 28.0112 24.2651 27.5622 24.2651 27.0082V26.5012C24.2651 25.9482 23.8151 25.4982 23.2621 25.4982H21.8691C22.7811 24.8282 23.5441 23.9712 24.1051 22.9872H25.9971C26.5511 22.9872 27.0001 22.5372 27.0001 21.9842V21.4772C27.0001 20.9232 26.5511 20.4742 25.9971 20.4742Z" fill="white"/>
</g>
</svg>
