<svg width="36" height="36" viewBox="0 0 36 36" fill="none" xmlns="http://www.w3.org/2000/svg">
<path d="M19.1371 1.30488L19.1364 1.30444C18.4333 0.898519 17.5667 0.898519 16.8636 1.30444L16.8629 1.30487L4.13562 8.66747L4.13528 8.66767C3.43246 9.07461 3 9.82548 3 10.6378V25.3623C3 26.1737 3.43221 26.9254 4.13528 27.3325L4.13566 27.3327L16.8626 34.6944C17.5662 35.1019 18.4338 35.1019 19.1374 34.6944L31.8634 27.3329C31.8635 27.3328 31.8636 27.3328 31.8637 27.3327C32.5677 26.9256 33 26.1738 33 25.3623V10.6378C33 9.8254 32.5674 9.0744 31.8637 8.66748C31.8636 8.66742 31.8635 8.66736 31.8634 8.6673L19.1371 1.30488Z" fill="black" stroke="black" stroke-width="2"/>
<mask id="mask0" mask-type="alpha" maskUnits="userSpaceOnUse" x="9" y="13" width="18" height="9">
<path fill-rule="evenodd" clip-rule="evenodd" d="M9.0001 13.0002H27V22H9.0001V13.0002Z" fill="white"/>
</mask>
<g mask="url(#mask0)">
<path fill-rule="evenodd" clip-rule="evenodd" d="M22.5 14.8C23.994 14.8 25.2 16.006 25.2 17.5C25.2 18.994 23.994 20.2 22.5 20.2C21.006 20.2 19.8 18.994 19.8 17.5C19.8 16.006 21.006 14.8 22.5 14.8ZM13.5 22H22.5C24.984 22 27 19.984 27 17.5C27 15.016 24.984 13 22.5 13H13.5C11.016 13 9 15.016 9 17.5C9 19.984 11.016 22 13.5 22Z" fill="white"/>
</g>
</svg>
