<svg width="36" height="36" viewBox="0 0 36 36" fill="none" xmlns="http://www.w3.org/2000/svg">
<path d="M19.1371 1.30488L19.1364 1.30444C18.4333 0.898519 17.5667 0.898519 16.8636 1.30444L16.8629 1.30487L4.13562 8.66747L4.13528 8.66767C3.43246 9.07461 3 9.82548 3 10.6378V25.3623C3 26.1737 3.43221 26.9254 4.13528 27.3325L4.13566 27.3327L16.8626 34.6944C17.5662 35.1019 18.4338 35.1019 19.1374 34.6944L31.8634 27.3329C31.8635 27.3328 31.8636 27.3328 31.8637 27.3327C32.5677 26.9256 33 26.1738 33 25.3623V10.6378C33 9.8254 32.5674 9.0744 31.8637 8.66748C31.8636 8.66742 31.8635 8.66736 31.8634 8.6673L19.1371 1.30488Z" fill="black" stroke="black" stroke-width="2"/>
<mask id="mask0" mask-type="alpha" maskUnits="userSpaceOnUse" x="11" y="9" width="14" height="18">
<path fill-rule="evenodd" clip-rule="evenodd" d="M11.0004 9H24.5074V26.9999H11.0004V9Z" fill="white"/>
</mask>
<g mask="url(#mask0)">
<path fill-rule="evenodd" clip-rule="evenodd" d="M17.5024 9.08689C17.2364 9.32689 11.0004 15.0269 11.0004 20.2459C11.0004 23.9699 14.0294 26.9999 17.7534 26.9999C21.4784 26.9999 24.5074 23.9699 24.5074 20.2459C24.5074 15.0269 18.2714 9.32689 18.0054 9.08689C17.8574 8.97089 17.6494 8.97089 17.5024 9.08689Z" fill="white"/>
</g>
</svg>
