<svg width="36" height="36" viewBox="0 0 36 36" fill="none" xmlns="http://www.w3.org/2000/svg">
<path fill-rule="evenodd" clip-rule="evenodd" d="M17.6875 21.4224C17.8655 21.6004 18.1405 21.6004 18.3185 21.4224L20.7985 18.9424C21.0745 18.6574 20.8785 18.1774 20.4785 18.1774H18.8885V7.3334C18.8885 6.8424 18.4905 6.4444 17.9995 6.4444C17.5095 6.4444 17.1115 6.8424 17.1115 7.3334V18.1774H15.5185C15.1185 18.1774 14.9225 18.6574 15.2075 18.9334L17.6875 21.4224Z" fill="black"/>
<path fill-rule="evenodd" clip-rule="evenodd" d="M10.8887 25.1113H25.1117C25.6017 25.1113 25.9997 24.7133 25.9997 24.2223C25.9997 23.7313 25.6017 23.3333 25.1117 23.3333H10.8887C10.3977 23.3333 9.99969 23.7313 9.99969 24.2223C9.99969 24.7133 10.3977 25.1113 10.8887 25.1113Z" fill="black"/>
<path fill-rule="evenodd" clip-rule="evenodd" d="M18 26.8887C17.509 26.8887 17.111 27.2867 17.111 27.7777V28.6667C17.111 29.1577 17.509 29.5557 18 29.5557C18.491 29.5557 18.889 29.1577 18.889 28.6667V27.7777C18.889 27.2867 18.491 26.8887 18 26.8887Z" fill="black"/>
<rect x="3" y="3" width="30" height="30" rx="3" stroke="black" stroke-width="2"/>
</svg>
