<svg width="36" height="36" viewBox="0 0 36 36" fill="none" xmlns="http://www.w3.org/2000/svg">
<path fill-rule="evenodd" clip-rule="evenodd" d="M18.8857 27.9646C18.8857 28.454 18.489 28.8506 17.9997 28.8506C17.5113 28.8506 17.1147 28.454 17.1147 27.9646C17.1147 27.4753 17.5113 27.0786 17.9997 27.0786C18.489 27.0786 18.8857 27.4753 18.8857 27.9646Z" fill="black"/>
<path fill-rule="evenodd" clip-rule="evenodd" d="M20.658 26.1928C20.658 26.6821 20.2613 27.0788 19.771 27.0788C19.2826 27.0788 18.886 26.6821 18.886 26.1928C18.886 25.7035 19.2826 25.3068 19.771 25.3068C20.2613 25.3068 20.658 25.7035 20.658 26.1928Z" fill="black"/>
<path fill-rule="evenodd" clip-rule="evenodd" d="M17.1143 26.1928C17.1143 26.6821 16.7176 27.0788 16.2283 27.0788C15.7389 27.0788 15.3423 26.6821 15.3423 26.1928C15.3423 25.7035 15.7389 25.3068 16.2283 25.3068C16.7176 25.3068 17.1143 25.7035 17.1143 26.1928Z" fill="black"/>
<path fill-rule="evenodd" clip-rule="evenodd" d="M22.4293 24.4209C22.4293 24.9102 22.0337 25.3069 21.5433 25.3069C21.054 25.3069 20.6583 24.9102 20.6583 24.4209C20.6583 23.9315 21.054 23.5349 21.5433 23.5349C22.0337 23.5349 22.4293 23.9315 22.4293 24.4209Z" fill="black"/>
<path fill-rule="evenodd" clip-rule="evenodd" d="M15.3425 24.4209C15.3425 24.9102 14.9458 25.3069 14.4565 25.3069C13.9672 25.3069 13.5705 24.9102 13.5705 24.4209C13.5705 23.9315 13.9672 23.5349 14.4565 23.5349C14.9458 23.5349 15.3425 23.9315 15.3425 24.4209Z" fill="black"/>
<path fill-rule="evenodd" clip-rule="evenodd" d="M18.8857 19.1059C18.8857 19.5952 18.489 19.9919 17.9997 19.9919C17.5113 19.9919 17.1147 19.5952 17.1147 19.1059C17.1147 18.6165 17.5113 18.2198 17.9997 18.2198C18.489 18.2198 18.8857 18.6165 18.8857 19.1059Z" fill="black"/>
<path fill-rule="evenodd" clip-rule="evenodd" d="M18.8857 21.7634C18.8857 22.2527 18.489 22.6494 17.9997 22.6494C17.5113 22.6494 17.1147 22.2527 17.1147 21.7634C17.1147 21.274 17.5113 20.8774 17.9997 20.8774C18.489 20.8774 18.8857 21.274 18.8857 21.7634Z" fill="black"/>
<path fill-rule="evenodd" clip-rule="evenodd" d="M18.8857 24.4209C18.8857 24.9102 18.489 25.3069 17.9997 25.3069C17.5113 25.3069 17.1147 24.9102 17.1147 24.4209C17.1147 23.9315 17.5113 23.5349 17.9997 23.5349C18.489 23.5349 18.8857 23.9315 18.8857 24.4209Z" fill="black"/>
<path fill-rule="evenodd" clip-rule="evenodd" d="M18 17.1126C17.5107 17.1126 17.114 16.7159 17.114 16.2266V7.36754C17.114 6.8782 17.5107 6.48154 18 6.48154C18.4894 6.48154 18.886 6.8782 18.886 7.36754V16.2266C18.886 16.7159 18.4894 17.1126 18 17.1126Z" fill="black"/>
<rect x="2" y="2" width="32" height="32" rx="16" stroke="black" stroke-width="2"/>
</svg>
