<svg width="36" height="36" viewBox="0 0 36 36" fill="none" xmlns="http://www.w3.org/2000/svg">
<path fill-rule="evenodd" clip-rule="evenodd" d="M18.8887 23.3335C18.8887 22.8425 18.4907 22.4445 17.9997 22.4445C17.5097 22.4445 17.1117 22.8425 17.1117 23.3335V26.8885H18.8887V23.3335Z" fill="black"/>
<path fill-rule="evenodd" clip-rule="evenodd" d="M18 13.5557C18.491 13.5557 18.889 13.1577 18.889 12.6667V6.44469C18.889 5.95369 18.491 5.55569 18 5.55569C17.509 5.55569 17.111 5.95369 17.111 6.44469V12.6667C17.111 13.1577 17.509 13.5557 18 13.5557Z" fill="black"/>
<path fill-rule="evenodd" clip-rule="evenodd" d="M20.4785 26.8887H18.8875H17.1095H15.5185C15.1185 26.8887 14.9225 27.3687 15.2075 27.6447L17.6875 30.1337C17.8655 30.3107 18.1405 30.3107 18.3185 30.1337L20.7985 27.6537C21.0745 27.3687 20.8785 26.8887 20.4785 26.8887Z" fill="black"/>
<path fill-rule="evenodd" clip-rule="evenodd" d="M18 20.6665C18.491 20.6665 18.889 20.2685 18.889 19.7775C18.889 19.2865 18.491 18.8885 18 18.8885C17.509 18.8885 17.111 19.2865 17.111 19.7775C17.111 20.2685 17.509 20.6665 18 20.6665Z" fill="black"/>
<path fill-rule="evenodd" clip-rule="evenodd" d="M18 17.1113C18.491 17.1113 18.889 16.7133 18.889 16.2223C18.889 15.7313 18.491 15.3333 18 15.3333C17.509 15.3333 17.111 15.7313 17.111 16.2223C17.111 16.7133 17.509 17.1113 18 17.1113Z" fill="black"/>
<path fill-rule="evenodd" clip-rule="evenodd" d="M21.5557 22.4443C21.0647 22.4443 20.6667 22.8423 20.6667 23.3333C20.6667 23.8243 21.0647 24.2223 21.5557 24.2223C22.0467 24.2223 22.4447 23.8243 22.4447 23.3333C22.4447 22.8423 22.0467 22.4443 21.5557 22.4443Z" fill="black"/>
<path fill-rule="evenodd" clip-rule="evenodd" d="M21.5557 18.8887C21.0647 18.8887 20.6667 19.2867 20.6667 19.7777C20.6667 20.2687 21.0647 20.6667 21.5557 20.6667C22.0467 20.6667 22.4447 20.2687 22.4447 19.7777C22.4447 19.2867 22.0467 18.8887 21.5557 18.8887Z" fill="black"/>
<path fill-rule="evenodd" clip-rule="evenodd" d="M21.5557 15.3335C21.0647 15.3335 20.6667 15.7315 20.6667 16.2225C20.6667 16.7135 21.0647 17.1115 21.5557 17.1115C22.0467 17.1115 22.4447 16.7135 22.4447 16.2225C22.4447 15.7315 22.0467 15.3335 21.5557 15.3335Z" fill="black"/>
<path fill-rule="evenodd" clip-rule="evenodd" d="M21.5557 11.7778C21.0647 11.7778 20.6667 12.1758 20.6667 12.6668C20.6667 13.1578 21.0647 13.5558 21.5557 13.5558C22.0467 13.5558 22.4447 13.1578 22.4447 12.6668C22.4447 12.1758 22.0467 11.7778 21.5557 11.7778Z" fill="black"/>
<path fill-rule="evenodd" clip-rule="evenodd" d="M10.8887 22.4443C10.3977 22.4443 9.99969 22.8423 9.99969 23.3333C9.99969 23.8243 10.3977 24.2223 10.8887 24.2223C11.3797 24.2223 11.7777 23.8243 11.7777 23.3333C11.7777 22.8423 11.3797 22.4443 10.8887 22.4443Z" fill="black"/>
<path fill-rule="evenodd" clip-rule="evenodd" d="M10.8887 18.8887C10.3977 18.8887 9.99969 19.2867 9.99969 19.7777C9.99969 20.2687 10.3977 20.6667 10.8887 20.6667C11.3797 20.6667 11.7777 20.2687 11.7777 19.7777C11.7777 19.2867 11.3797 18.8887 10.8887 18.8887Z" fill="black"/>
<path fill-rule="evenodd" clip-rule="evenodd" d="M10.8887 15.3335C10.3977 15.3335 9.99969 15.7315 9.99969 16.2225C9.99969 16.7135 10.3977 17.1115 10.8887 17.1115C11.3797 17.1115 11.7777 16.7135 11.7777 16.2225C11.7777 15.7315 11.3797 15.3335 10.8887 15.3335Z" fill="black"/>
<path fill-rule="evenodd" clip-rule="evenodd" d="M10.8887 11.7778C10.3977 11.7778 9.99969 12.1758 9.99969 12.6668C9.99969 13.1578 10.3977 13.5558 10.8887 13.5558C11.3797 13.5558 11.7777 13.1578 11.7777 12.6668C11.7777 12.1758 11.3797 11.7778 10.8887 11.7778Z" fill="black"/>
<path fill-rule="evenodd" clip-rule="evenodd" d="M15.3335 23.3335C15.3335 22.8425 14.9355 22.4445 14.4445 22.4445C13.9535 22.4445 13.5555 22.8425 13.5555 23.3335C13.5555 23.8245 13.9535 24.2225 14.4445 24.2225C14.9355 24.2225 15.3335 23.8245 15.3335 23.3335Z" fill="black"/>
<path fill-rule="evenodd" clip-rule="evenodd" d="M14.4443 20.6665C14.9353 20.6665 15.3333 20.2685 15.3333 19.7775C15.3333 19.2865 14.9353 18.8885 14.4443 18.8885C13.9533 18.8885 13.5553 19.2865 13.5553 19.7775C13.5553 20.2685 13.9533 20.6665 14.4443 20.6665Z" fill="black"/>
<path fill-rule="evenodd" clip-rule="evenodd" d="M14.4443 17.1113C14.9353 17.1113 15.3333 16.7133 15.3333 16.2223C15.3333 15.7313 14.9353 15.3333 14.4443 15.3333C13.9533 15.3333 13.5553 15.7313 13.5553 16.2223C13.5553 16.7133 13.9533 17.1113 14.4443 17.1113Z" fill="black"/>
<path fill-rule="evenodd" clip-rule="evenodd" d="M14.4443 13.5557C14.9353 13.5557 15.3333 13.1577 15.3333 12.6667C15.3333 12.1757 14.9353 11.7777 14.4443 11.7777C13.9533 11.7777 13.5553 12.1757 13.5553 12.6667C13.5553 13.1577 13.9533 13.5557 14.4443 13.5557Z" fill="black"/>
<path fill-rule="evenodd" clip-rule="evenodd" d="M25.1113 22.4443C24.6203 22.4443 24.2223 22.8423 24.2223 23.3333C24.2223 23.8243 24.6203 24.2223 25.1113 24.2223C25.6013 24.2223 26.0003 23.8243 26.0003 23.3333C26.0003 22.8423 25.6013 22.4443 25.1113 22.4443Z" fill="black"/>
<path fill-rule="evenodd" clip-rule="evenodd" d="M25.1113 18.8887C24.6203 18.8887 24.2223 19.2867 24.2223 19.7777C24.2223 20.2687 24.6203 20.6667 25.1113 20.6667C25.6013 20.6667 26.0003 20.2687 26.0003 19.7777C26.0003 19.2867 25.6013 18.8887 25.1113 18.8887Z" fill="black"/>
<path fill-rule="evenodd" clip-rule="evenodd" d="M25.1113 15.3335C24.6203 15.3335 24.2223 15.7315 24.2223 16.2225C24.2223 16.7135 24.6203 17.1115 25.1113 17.1115C25.6013 17.1115 26.0003 16.7135 26.0003 16.2225C26.0003 15.7315 25.6013 15.3335 25.1113 15.3335Z" fill="black"/>
<path fill-rule="evenodd" clip-rule="evenodd" d="M25.1113 11.7778C24.6203 11.7778 24.2223 12.1758 24.2223 12.6668C24.2223 13.1578 24.6203 13.5558 25.1113 13.5558C25.6013 13.5558 26.0003 13.1578 26.0003 12.6668C26.0003 12.1758 25.6013 11.7778 25.1113 11.7778Z" fill="black"/>
<rect x="2" y="2" width="32" height="32" rx="16" stroke="black" stroke-width="2"/>
</svg>
