<svg width="36" height="36" viewBox="0 0 36 36" fill="none" xmlns="http://www.w3.org/2000/svg">
<rect x="2" y="2" width="32" height="32" rx="16" stroke="black" stroke-width="2"/>
<path d="M22.14 18.5C22.14 19.5 22.04 20.35 21.84 21.05C21.64 21.75 21.36 22.32 21.01 22.75C20.65 23.19 20.22 23.5 19.71 23.7C19.2 23.9 18.64 24 18.01 24C17.39 24 16.83 23.9 16.32 23.7C15.81 23.5 15.37 23.19 15.01 22.75C14.65 22.31 14.36 21.74 14.16 21.05C13.96 20.35 13.86 19.5 13.86 18.5V16.46C13.86 15.46 13.96 14.61 14.16 13.91C14.36 13.21 14.64 12.65 15 12.22C15.36 11.79 15.8 11.48 16.31 11.29C16.81 11.1 17.38 11 18 11C18.63 11 19.19 11.1 19.7 11.29C20.21 11.48 20.65 11.79 21.01 12.22C21.37 12.65 21.65 13.21 21.85 13.91C22.05 14.61 22.15 15.45 22.15 16.46V18.5H22.14ZM20.03 16.14C20.03 15.5 19.98 14.96 19.9 14.52C19.81 14.08 19.68 13.73 19.5 13.46C19.33 13.19 19.11 13 18.86 12.88C18.61 12.75 18.32 12.69 18 12.69C17.68 12.69 17.39 12.75 17.14 12.87C16.89 12.99 16.67 13.18 16.5 13.45C16.33 13.72 16.19 14.07 16.1 14.51C16.01 14.95 15.97 15.49 15.97 16.13V18.8C15.97 19.44 16.02 19.98 16.11 20.42C16.2 20.87 16.34 21.23 16.51 21.51C16.68 21.79 16.9 21.99 17.15 22.12C17.4 22.25 17.69 22.31 18.02 22.31C18.35 22.31 18.64 22.25 18.89 22.12C19.14 21.99 19.35 21.79 19.52 21.51C19.69 21.23 19.82 20.87 19.91 20.42C20 19.97 20.04 19.43 20.04 18.8V16.14H20.03Z" fill="black"/>
<path fill-rule="evenodd" clip-rule="evenodd" d="M20.4785 27.0669H18.8885V26.1109C18.8885 25.6199 18.4905 25.2219 17.9995 25.2219C17.5095 25.2219 17.1115 25.6199 17.1115 26.1109V27.0669H17.1095H15.5185C15.1185 27.0669 14.9225 27.5469 15.2075 27.8219L17.6875 30.3109C17.8655 30.4889 18.1405 30.4889 18.3185 30.3109L20.7985 27.8309C21.0745 27.5469 20.8785 27.0669 20.4785 27.0669Z" fill="black"/>
<path fill-rule="evenodd" clip-rule="evenodd" d="M18 9.389C18.491 9.389 18.889 8.991 18.889 8.5V6.444C18.889 5.954 18.491 5.556 18 5.556C17.509 5.556 17.111 5.954 17.111 6.444V8.5C17.111 8.991 17.509 9.389 18 9.389Z" fill="black"/>
</svg>
