<svg width="36" height="36" viewBox="0 0 36 36" fill="none" xmlns="http://www.w3.org/2000/svg">
<path d="M31.8564 8.8453L19 1.42265C18.3812 1.06538 17.6188 1.06538 17 1.42265L4.14359 8.8453C3.52479 9.20257 3.14359 9.86282 3.14359 10.5774V25.4226C3.14359 26.1372 3.52479 26.7974 4.14359 27.1547L17 34.5774C17.6188 34.9346 18.3812 34.9346 19 34.5774L31.8564 27.1547C32.4752 26.7974 32.8564 26.1372 32.8564 25.4226V10.5774C32.8564 9.86282 32.4752 9.20256 31.8564 8.8453Z" stroke="black" stroke-width="2"/>
<path d="M20.9167 12.5833C21.8333 12.5833 22.5833 11.8333 22.5833 10.9167C22.5833 10 21.8333 9.25 20.9167 9.25C20 9.25 19.25 10 19.25 10.9167C19.25 11.8333 20 12.5833 20.9167 12.5833ZM12.1667 18C9.83333 18 8 19.8333 8 22.1667C8 24.5 9.83333 26.3333 12.1667 26.3333C14.5 26.3333 16.3333 24.5 16.3333 22.1667C16.3333 19.8333 14.5 18 12.1667 18ZM12.1667 25.0833C10.5833 25.0833 9.25 23.75 9.25 22.1667C9.25 20.5833 10.5833 19.25 12.1667 19.25C13.75 19.25 15.0833 20.5833 15.0833 22.1667C15.0833 23.75 13.75 25.0833 12.1667 25.0833ZM17 16.75L19 14.75L19.6667 15.4167C20.75 16.5 22.1667 17.1667 23.9167 17.1667V15.5C22.6667 15.5 21.6667 15 20.9167 14.25L19.3333 12.6667C18.9167 12.3333 18.5 12.1667 18 12.1667C17.5 12.1667 17.0833 12.3333 16.8333 12.6667L14.5 15C14.1667 15.3333 14 15.75 14 16.1667C14 16.6667 14.1667 17.0833 14.5 17.3333L17.1667 19.6667V23.8333H18.8333V18.6667L17 16.75ZM23.8333 18C21.5 18 19.6667 19.8333 19.6667 22.1667C19.6667 24.5 21.5 26.3333 23.8333 26.3333C26.1667 26.3333 28 24.5 28 22.1667C28 19.8333 26.1667 18 23.8333 18ZM23.8333 25.0833C22.25 25.0833 20.9167 23.75 20.9167 22.1667C20.9167 20.5833 22.25 19.25 23.8333 19.25C25.4167 19.25 26.75 20.5833 26.75 22.1667C26.75 23.75 25.4167 25.0833 23.8333 25.0833Z" fill="black"/>
</svg>
