<svg width="36" height="36" viewBox="0 0 36 36" fill="none" xmlns="http://www.w3.org/2000/svg">
<path d="M19.1364 1.30444L19.1371 1.30488L31.8634 8.6673C32.5673 9.07418 33 9.82528 33 10.6378V25.3623C33 26.1738 32.5677 26.9256 31.8637 27.3327L19.1364 1.30444ZM19.1364 1.30444C18.4333 0.898519 17.5667 0.898519 16.8636 1.30444L16.8629 1.30487L4.13562 8.66747L4.13528 8.66767C3.43246 9.07461 3 9.82548 3 10.6378V25.3623C3 26.1737 3.43221 26.9254 4.13528 27.3325L4.13566 27.3327L16.8626 34.6944C16.8627 34.6945 16.8628 34.6946 16.8629 34.6947C17.5664 35.1018 18.4336 35.1018 19.1371 34.6946C19.1372 34.6946 19.1373 34.6945 19.1374 34.6944L31.8634 27.3329L19.1364 1.30444Z" stroke="black" stroke-width="2"/>
<path d="M20.9167 12.5833C21.8333 12.5833 22.5833 11.8333 22.5833 10.9167C22.5833 10 21.8333 9.25 20.9167 9.25C20 9.25 19.25 10 19.25 10.9167C19.25 11.8333 20 12.5833 20.9167 12.5833ZM12.1667 18C9.83333 18 8 19.8333 8 22.1667C8 24.5 9.83333 26.3333 12.1667 26.3333C14.5 26.3333 16.3333 24.5 16.3333 22.1667C16.3333 19.8333 14.5 18 12.1667 18ZM12.1667 25.0833C10.5833 25.0833 9.25 23.75 9.25 22.1667C9.25 20.5833 10.5833 19.25 12.1667 19.25C13.75 19.25 15.0833 20.5833 15.0833 22.1667C15.0833 23.75 13.75 25.0833 12.1667 25.0833ZM17 16.75L19 14.75L19.6667 15.4167C20.75 16.5 22.1667 17.1667 23.9167 17.1667V15.5C22.6667 15.5 21.6667 15 20.9167 14.25L19.3333 12.6667C18.9167 12.3333 18.5 12.1667 18 12.1667C17.5 12.1667 17.0833 12.3333 16.8333 12.6667L14.5 15C14.1667 15.3333 14 15.75 14 16.1667C14 16.6667 14.1667 17.0833 14.5 17.3333L17.1667 19.6667V23.8333H18.8333V18.6667L17 16.75ZM23.8333 18C21.5 18 19.6667 19.8333 19.6667 22.1667C19.6667 24.5 21.5 26.3333 23.8333 26.3333C26.1667 26.3333 28 24.5 28 22.1667C28 19.8333 26.1667 18 23.8333 18ZM23.8333 25.0833C22.25 25.0833 20.9167 23.75 20.9167 22.1667C20.9167 20.5833 22.25 19.25 23.8333 19.25C25.4167 19.25 26.75 20.5833 26.75 22.1667C26.75 23.75 25.4167 25.0833 23.8333 25.0833Z" fill="black"/>
</svg>
