<svg width="36" height="36" viewBox="0 0 36 36" fill="none" xmlns="http://www.w3.org/2000/svg">
<path d="M31.8564 8.8453L19 1.42265C18.3812 1.06538 17.6188 1.06538 17 1.42265L4.14359 8.8453C3.52479 9.20257 3.14359 9.86282 3.14359 10.5774V25.4226C3.14359 26.1372 3.52479 26.7974 4.14359 27.1547L17 34.5774C17.6188 34.9346 18.3812 34.9346 19 34.5774L31.8564 27.1547C32.4752 26.7974 32.8564 26.1372 32.8564 25.4226V10.5774C32.8564 9.86282 32.4752 9.20256 31.8564 8.8453Z" stroke="black" stroke-width="2"/>
<path d="M18 17.625C16.0333 15.7916 13.4 14.6666 10.5 14.6666V23.8333C13.4 23.8333 16.0333 24.9583 18 26.7916C19.9667 24.9666 22.6 23.8333 25.5 23.8333V14.6666C22.6 14.6666 19.9667 15.7916 18 17.625ZM18 14.6666C19.3833 14.6666 20.5 13.55 20.5 12.1666C20.5 10.7833 19.3833 9.66663 18 9.66663C16.6167 9.66663 15.5 10.7833 15.5 12.1666C15.5 13.55 16.6167 14.6666 18 14.6666Z" fill="black"/>
</svg>
