<svg width="36" height="36" viewBox="0 0 36 36" fill="none" xmlns="http://www.w3.org/2000/svg">
<path d="M31.8564 8.8453L19 1.42265C18.3812 1.06538 17.6188 1.06538 17 1.42265L4.14359 8.8453C3.52479 9.20257 3.14359 9.86282 3.14359 10.5774V25.4226C3.14359 26.1372 3.52479 26.7974 4.14359 27.1547L17 34.5774C17.6188 34.9346 18.3812 34.9346 19 34.5774L31.8564 27.1547C32.4752 26.7974 32.8564 26.1372 32.8564 25.4226V10.5774C32.8564 9.86282 32.4752 9.20256 31.8564 8.8453Z" stroke="black" stroke-width="2"/>
<path d="M20.5 17.1666V12.1666L18 9.66663L15.5 12.1666V13.8333H10.5V25.5H25.5V17.1666H20.5ZM13.8333 23.8333H12.1667V22.1666H13.8333V23.8333ZM13.8333 20.5H12.1667V18.8333H13.8333V20.5ZM13.8333 17.1666H12.1667V15.5H13.8333V17.1666ZM18.8333 23.8333H17.1667V22.1666H18.8333V23.8333ZM18.8333 20.5H17.1667V18.8333H18.8333V20.5ZM18.8333 17.1666H17.1667V15.5H18.8333V17.1666ZM18.8333 13.8333H17.1667V12.1666H18.8333V13.8333ZM23.8333 23.8333H22.1667V22.1666H23.8333V23.8333ZM23.8333 20.5H22.1667V18.8333H23.8333V20.5Z" fill="black"/>
</svg>
