<svg width="36" height="36" viewBox="0 0 36 36" fill="none" xmlns="http://www.w3.org/2000/svg">
<path d="M19.1371 1.30488L19.1364 1.30444C18.4333 0.898519 17.5667 0.898519 16.8636 1.30444L16.8629 1.30487L4.13562 8.66747L4.13528 8.66767C3.43246 9.07461 3 9.82548 3 10.6378V25.3623C3 26.1737 3.43221 26.9254 4.13528 27.3325L4.13566 27.3327L16.8626 34.6944C17.5662 35.1019 18.4338 35.1019 19.1374 34.6944L31.8634 27.3329C31.8635 27.3328 31.8636 27.3328 31.8637 27.3327C32.5677 26.9256 33 26.1738 33 25.3623V10.6378C33 9.8254 32.5674 9.0744 31.8637 8.66748C31.8636 8.66742 31.8635 8.66736 31.8634 8.6673L19.1371 1.30488Z" stroke="black" stroke-width="2"/>
<path fill-rule="evenodd" clip-rule="evenodd" d="M18 13.8333H26.3334V25.5H9.66669V10.5H18V13.8333ZM11.3334 23.8333H13V22.1667H11.3334V23.8333ZM13 20.5H11.3334V18.8333H13V20.5ZM11.3334 17.1667H13V15.5H11.3334V17.1667ZM13 13.8333H11.3334V12.1667H13V13.8333ZM14.6667 23.8333H16.3334V22.1667H14.6667V23.8333ZM16.3334 20.5H14.6667V18.8333H16.3334V20.5ZM14.6667 17.1667H16.3334V15.5H14.6667V17.1667ZM16.3334 13.8333H14.6667V12.1667H16.3334V13.8333ZM18 23.8333H24.6667V15.5H18V17.1667H19.6667V18.8333H18V20.5H19.6667V22.1667H18V23.8333ZM23 17.1667H21.3334V18.8333H23V17.1667ZM21.3334 20.5H23V22.1667H21.3334V20.5Z" fill="black"/>
</svg>
