<svg width="36" height="36" viewBox="0 0 36 36" fill="none" xmlns="http://www.w3.org/2000/svg">
<path d="M19.1364 1.30444L19.1371 1.30488L31.8634 8.6673C32.5673 9.07418 33 9.82528 33 10.6378V25.3623C33 26.1738 32.5677 26.9256 31.8637 27.3327L19.1364 1.30444ZM19.1364 1.30444C18.4333 0.898519 17.5667 0.898519 16.8636 1.30444L16.8629 1.30487L4.13562 8.66747L4.13528 8.66767C3.43246 9.07461 3 9.82548 3 10.6378V25.3623C3 26.1737 3.43221 26.9254 4.13528 27.3325L4.13566 27.3327L16.8626 34.6944C16.8627 34.6945 16.8628 34.6946 16.8629 34.6947C17.5664 35.1018 18.4336 35.1018 19.1371 34.6946C19.1372 34.6946 19.1373 34.6945 19.1374 34.6944L31.8634 27.3329L19.1364 1.30444Z" stroke="black" stroke-width="2"/>
<path d="M13.5167 16.9917C14.7167 19.35 16.65 21.275 19.0083 22.4833L20.8417 20.65C21.0667 20.425 21.4 20.35 21.6917 20.45C22.625 20.7583 23.6333 20.925 24.6667 20.925C25.125 20.925 25.5 21.3 25.5 21.7583V24.6667C25.5 25.125 25.125 25.5 24.6667 25.5C16.8417 25.5 10.5 19.1583 10.5 11.3333C10.5 10.875 10.875 10.5 11.3333 10.5H14.25C14.7083 10.5 15.0833 10.875 15.0833 11.3333C15.0833 12.375 15.25 13.375 15.5583 14.3083C15.65 14.6 15.5833 14.925 15.35 15.1583L13.5167 16.9917Z" fill="black"/>
</svg>
