<svg width="36" height="36" viewBox="0 0 36 36" fill="none" xmlns="http://www.w3.org/2000/svg">
<path d="M31.8564 8.8453L19 1.42265C18.3812 1.06538 17.6188 1.06538 17 1.42265L4.14359 8.8453C3.52479 9.20257 3.14359 9.86282 3.14359 10.5774V25.4226C3.14359 26.1372 3.52479 26.7974 4.14359 27.1547L17 34.5774C17.6188 34.9346 18.3812 34.9346 19 34.5774L31.8564 27.1547C32.4752 26.7974 32.8564 26.1372 32.8564 25.4226V10.5774C32.8564 9.86282 32.4752 9.20256 31.8564 8.8453Z" stroke="black" stroke-width="2"/>
<path d="M13.5167 16.9917C14.7167 19.35 16.65 21.275 19.0083 22.4833L20.8417 20.65C21.0667 20.425 21.4 20.35 21.6917 20.45C22.625 20.7583 23.6333 20.925 24.6667 20.925C25.125 20.925 25.5 21.3 25.5 21.7583V24.6667C25.5 25.125 25.125 25.5 24.6667 25.5C16.8417 25.5 10.5 19.1583 10.5 11.3333C10.5 10.875 10.875 10.5 11.3333 10.5H14.25C14.7083 10.5 15.0833 10.875 15.0833 11.3333C15.0833 12.375 15.25 13.375 15.5583 14.3083C15.65 14.6 15.5833 14.925 15.35 15.1583L13.5167 16.9917Z" fill="black"/>
</svg>
