<svg width="24" height="24" viewBox="0 0 24 24" fill="none" xmlns="http://www.w3.org/2000/svg">
<path fill-rule="evenodd" clip-rule="evenodd" d="M4.19703 9.07383C3.64383 9.07383 3.19623 8.62503 3.19623 8.07423C3.19623 7.52103 3.64383 7.07343 4.19703 7.07343H16.1982C16.749 7.07343 17.1978 6.62463 17.1978 6.07383C17.1978 5.52183 16.749 5.07303 16.1982 5.07303C15.6462 5.07303 15.1974 4.62543 15.1974 4.07343C15.1974 3.52023 15.6462 3.07263 16.1982 3.07263C16.6026 3.07263 16.9962 3.15183 17.367 3.30903C17.7234 3.46023 18.0438 3.67623 18.3198 3.95103C18.5946 4.22703 18.8118 4.54743 18.963 4.90503C19.119 5.27583 19.1982 5.66823 19.1982 6.07383C19.1982 6.47703 19.119 6.87063 18.963 7.24143C18.8118 7.59903 18.5946 7.91943 18.3198 8.19543C18.0438 8.47023 17.7234 8.68623 17.367 8.83743C16.9962 8.99463 16.6026 9.07383 16.1982 9.07383H4.19703Z" fill="black"/>
<path fill-rule="evenodd" clip-rule="evenodd" d="M14.1978 21.0751C13.6458 21.0751 13.1982 20.6275 13.1982 20.0755C13.1982 19.5235 13.6458 19.0747 14.1978 19.0747C14.7498 19.0747 15.1974 18.6259 15.1974 18.0751C15.1974 17.5231 14.7498 17.0755 14.1978 17.0755H4.19703C3.64383 17.0755 3.19623 16.6267 3.19623 16.0747C3.19623 15.5227 3.64383 15.0751 4.19703 15.0751H14.1978C14.6022 15.0751 14.9958 15.1531 15.3666 15.3103C15.723 15.4615 16.0446 15.6775 16.3194 15.9535C16.5942 16.2283 16.8114 16.5499 16.9626 16.9063C17.1186 17.2771 17.1978 17.6707 17.1978 18.0751C17.1978 18.4795 17.1186 18.8731 16.9626 19.2427C16.8114 19.6003 16.5942 19.9219 16.3194 20.1967C16.0446 20.4715 15.723 20.6875 15.3666 20.8387C14.9958 20.9959 14.6022 21.0751 14.1978 21.0751Z" fill="black"/>
<path fill-rule="evenodd" clip-rule="evenodd" d="M19.1982 16.0752C19.1982 15.522 19.6458 15.0744 20.199 15.0744C20.7498 15.0744 21.1986 14.6256 21.1986 14.0748C21.1986 13.5228 20.7498 13.074 20.199 13.074H4.79702C4.24502 13.074 3.79742 12.6264 3.79742 12.0744C3.79742 11.5224 4.24502 11.0736 4.79702 11.0736H20.199C20.6034 11.0736 20.9958 11.1528 21.3666 11.31C21.7242 11.4612 22.0446 11.6772 22.3206 11.952C22.5954 12.228 22.8114 12.5484 22.9626 12.906C23.1198 13.2768 23.199 13.6692 23.199 14.0748C23.199 14.4792 23.1198 14.8716 22.9626 15.2424C22.8114 15.6 22.5954 15.9204 22.3206 16.1964C22.0446 16.4712 21.7242 16.6872 21.3666 16.8384C20.9958 16.9956 20.6034 17.0748 20.199 17.0748C19.6458 17.0748 19.1982 16.626 19.1982 16.0752Z" fill="black"/>
</svg>
