<svg width="24" height="24" viewBox="0 0 24 24" fill="none" xmlns="http://www.w3.org/2000/svg">
<path fill-rule="evenodd" clip-rule="evenodd" d="M7 12C7 9.24 9.24 7 12 7C14.76 7 17 9.24 17 12C17 14.76 14.76 17 12 17C9.24 17 7 14.76 7 12ZM9 12C9 13.65 10.35 15 12 15C13.65 15 15 13.65 15 12C15 10.35 13.65 9 12 9C10.35 9 9 10.35 9 12Z" fill="black"/>
<path fill-rule="evenodd" clip-rule="evenodd" d="M10.972 2.84341V3.86845C10.972 4.43574 11.431 4.89473 11.9971 4.89473C12.5644 4.89473 13.0234 4.43574 13.0234 3.86845V2.84341C13.0234 2.27735 12.5644 1.81836 11.9971 1.81836C11.431 1.81836 10.972 2.27735 10.972 2.84341Z" fill="black"/>
<path fill-rule="evenodd" clip-rule="evenodd" d="M11.9976 19.2528C11.4315 19.2528 10.9725 19.713 10.9725 20.2779V21.3041C10.9725 21.8702 11.4315 22.3292 11.9976 22.3292C12.5636 22.3292 13.0226 21.8702 13.0226 21.3041V20.2779C13.0226 19.713 12.5636 19.2528 11.9976 19.2528Z" fill="black"/>
<path fill-rule="evenodd" clip-rule="evenodd" d="M19.1772 12.0738C19.1772 12.6398 19.6362 13.0988 20.2023 13.0988H21.2286C21.7946 13.0988 22.2536 12.6398 22.2536 12.0738C22.2536 11.5077 21.7946 11.0487 21.2286 11.0487H20.2023C19.6362 11.0487 19.1772 11.5077 19.1772 12.0738Z" fill="black"/>
<path fill-rule="evenodd" clip-rule="evenodd" d="M4.81868 12.0738C4.81868 11.5077 4.35969 11.0487 3.79363 11.0487H2.76736C2.2013 11.0487 1.74231 11.5077 1.74231 12.0738C1.74231 12.6398 2.2013 13.0988 2.76736 13.0988H3.79363C4.35969 13.0988 4.81868 12.6398 4.81868 12.0738Z" fill="black"/>
<path fill-rule="evenodd" clip-rule="evenodd" d="M5.47055 6.99772C5.67113 7.1983 5.93323 7.29797 6.19534 7.29797C6.45868 7.29797 6.72079 7.1983 6.92137 6.99772C7.32129 6.59656 7.32129 5.94683 6.92137 5.5469L6.19534 4.82211C5.79541 4.42095 5.14568 4.42095 4.74575 4.82211C4.3446 5.22204 4.3446 5.87177 4.74575 6.27293L5.47055 6.99772Z" fill="black"/>
<path fill-rule="evenodd" clip-rule="evenodd" d="M18.5247 17.1504C18.1248 16.7492 17.4738 16.7492 17.0739 17.1504C16.6739 17.5503 16.6739 18.2 17.0739 18.6012L17.7987 19.326C17.9992 19.5265 18.2614 19.6262 18.5247 19.6262C18.7868 19.6262 19.0501 19.5265 19.2495 19.326C19.6506 18.9248 19.6506 18.2763 19.2495 17.8751L18.5247 17.1504Z" fill="black"/>
<path fill-rule="evenodd" clip-rule="evenodd" d="M17.7989 7.29766C18.0622 7.29766 18.3244 7.19799 18.5249 6.99741L19.2497 6.27261C19.6509 5.87146 19.6509 5.22173 19.2497 4.8218C18.8498 4.42187 18.2001 4.42187 17.7989 4.8218L17.0741 5.54782C16.6742 5.94775 16.6742 6.59748 17.0741 6.99741C17.2747 7.19799 17.5368 7.29766 17.7989 7.29766Z" fill="black"/>
<path fill-rule="evenodd" clip-rule="evenodd" d="M5.47055 17.1504L4.74575 17.8751C4.3446 18.2763 4.3446 18.9248 4.74575 19.326C4.94633 19.5265 5.20844 19.6262 5.47055 19.6262C5.73265 19.6262 5.99599 19.5265 6.19534 19.326L6.92137 18.6012C7.32129 18.2 7.32129 17.5503 6.92137 17.1504C6.52144 16.7492 5.87171 16.7492 5.47055 17.1504Z" fill="black"/>
</svg>
