<svg width="24" height="24" viewBox="0 0 24 24" fill="none" xmlns="http://www.w3.org/2000/svg">
<path fill-rule="evenodd" clip-rule="evenodd" d="M11 18.9291C7.60771 18.4439 5 15.5265 5 12C5 11.4477 5.44772 11 6 11C6.55228 11 7 11.4477 7 12C7 14.7614 9.23858 17 12 17C14.7614 17 17 14.7614 17 12C17 11.4477 17.4477 11 18 11C18.5523 11 19 11.4477 19 12C19 15.5265 16.3923 18.4439 13 18.9291V22H11V18.9291Z" fill="black"/>
<rect x="10" y="4" width="4" height="10" rx="2" stroke="black" stroke-width="2"/>
</svg>
