<svg width="24" height="24" viewBox="0 0 24 24" fill="none" xmlns="http://www.w3.org/2000/svg">
<path fill-rule="evenodd" clip-rule="evenodd" d="M12.7071 2.97713L17.66 7.93002C20.78 11.05 20.78 16.12 17.66 19.24C16.1 20.8 14.05 21.58 12 21.58C9.95 21.58 7.9 20.8 6.34 19.24C3.22 16.12 3.22 11.05 6.34 7.93002L11.2929 2.97713C11.6834 2.5866 12.3166 2.5866 12.7071 2.97713ZM12.7079 5.80963C12.3172 5.41799 11.6828 5.41799 11.2921 5.80963L7.76 9.35002C6.62 10.48 6 11.99 6 13.59C6 15.19 6.62 16.69 7.76 17.83C8.89 18.97 10.4 19.59 12 19.59C13.6 19.59 15.11 18.97 16.24 17.83C17.38 16.69 18 15.19 18 13.59C18 11.99 17.38 10.48 16.24 9.35002L12.7079 5.80963Z" fill="black"/>
</svg>
