<svg width="24" height="24" viewBox="0 0 24 24" fill="none" xmlns="http://www.w3.org/2000/svg">
<path fill-rule="evenodd" clip-rule="evenodd" d="M12 14C13.1046 14 14 13.1046 14 12C14 10.8954 13.1046 10 12 10C10.8954 10 10 10.8954 10 12C10 13.1046 10.8954 14 12 14Z" fill="black"/>
<path d="M16.2426 16.2426C15.8521 16.6332 15.219 16.6332 14.8284 16.2426C14.4379 15.8521 14.4379 15.219 14.8284 14.8284C16.3905 13.2663 16.3905 10.7337 14.8284 9.17157C13.2663 7.60948 10.7337 7.60948 9.17157 9.17157C7.60948 10.7337 7.60948 13.2663 9.17157 14.8284C9.5621 15.219 9.5621 15.8521 9.17157 16.2426C8.78105 16.6332 8.14788 16.6332 7.75736 16.2426C5.41421 13.8995 5.41421 10.1005 7.75736 7.75736C10.1005 5.41421 13.8995 5.41421 16.2426 7.75736C18.5858 10.1005 18.5858 13.8995 16.2426 16.2426Z" fill="black"/>
<path d="M19.0711 19.0711C18.6805 19.4616 18.0474 19.4616 17.6569 19.0711C17.2663 18.6805 17.2663 18.0474 17.6569 17.6569C20.781 14.5327 20.781 9.46734 17.6569 6.34315C14.5327 3.21895 9.46734 3.21895 6.34315 6.34315C3.21895 9.46734 3.21895 14.5327 6.34315 17.6569C6.73367 18.0474 6.73367 18.6805 6.34315 19.0711C5.95262 19.4616 5.31946 19.4616 4.92893 19.0711C1.02369 15.1658 1.02369 8.83418 4.92893 4.92893C8.83418 1.02369 15.1658 1.02369 19.0711 4.92893C22.9763 8.83418 22.9763 15.1658 19.0711 19.0711Z" fill="black"/>
</svg>
