<svg width="24" height="24" viewBox="0 0 24 24" fill="none" xmlns="http://www.w3.org/2000/svg">
<path fill-rule="evenodd" clip-rule="evenodd" d="M16.4558 9.36754C16.1836 8.55086 15.4193 8 14.5585 8L9.44152 8C8.58066 8 7.81638 8.55086 7.54415 9.36754L4.87749 17.3675C4.4458 18.6626 5.40974 20 6.77485 20H17.2251C18.5903 20 19.5542 18.6626 19.1225 17.3675L16.4558 9.36754Z" stroke="black" stroke-width="2"/>
<path fill-rule="evenodd" clip-rule="evenodd" d="M12 7C13.1046 7 14 6.10457 14 5C14 3.89543 13.1046 3 12 3C10.8954 3 10 3.89543 10 5C10 6.10457 10.8954 7 12 7Z" stroke="black" stroke-width="2"/>
</svg>
