<svg width="36" height="36" viewBox="0 0 36 36" fill="none" xmlns="http://www.w3.org/2000/svg">
<path d="M19.1371 1.30488L19.1364 1.30444C18.4333 0.898519 17.5667 0.898519 16.8636 1.30444L16.8629 1.30487L4.13562 8.66747L4.13528 8.66767C3.43246 9.07461 3 9.82548 3 10.6378V25.3623C3 26.1737 3.43221 26.9254 4.13528 27.3325L4.13566 27.3327L16.8626 34.6944C17.5662 35.1019 18.4338 35.1019 19.1374 34.6944L31.8634 27.3329C31.8635 27.3328 31.8636 27.3328 31.8637 27.3327C32.5677 26.9256 33 26.1738 33 25.3623V10.6378C33 9.8254 32.5674 9.0744 31.8637 8.66748C31.8636 8.66742 31.8635 8.66736 31.8634 8.6673L19.1371 1.30488Z" stroke="black" stroke-width="2"/>
<path fill-rule="evenodd" clip-rule="evenodd" d="M23 8C24.104 8 25 8.896 25 10C25 11.104 24.104 12 23 12C21.896 12 21 11.104 21 10C21 8.896 21.896 8 23 8Z" fill="black"/>
<path fill-rule="evenodd" clip-rule="evenodd" d="M18.0195 21.46H22.9995V25.46C22.9995 26.012 23.4475 26.46 23.9995 26.46C24.5525 26.46 24.9995 26.012 24.9995 25.46V20.96C24.9995 19.86 24.0995 18.96 22.9995 18.96H21.1395L22.8095 15.29C23.4195 13.96 22.4405 12.46 20.9595 12.46H15.7595C14.9505 12.46 14.2195 12.93 13.8895 13.66L13.6005 14.438C13.3955 14.987 13.7065 15.594 14.2715 15.751L14.2955 15.757C14.7795 15.89 15.2865 15.646 15.4825 15.184L15.7905 14.46H17.9995L16.1695 18.56L18.0195 21.46Z" fill="black"/>
<path fill-rule="evenodd" clip-rule="evenodd" d="M15 17.46C12.238 17.46 10 19.698 10 22.46C10 25.222 12.238 27.46 15 27.46C17.762 27.46 20 25.222 20 22.46C20 19.698 17.762 17.46 15 17.46ZM15 19.46C16.654 19.46 18 20.806 18 22.46C18 24.114 16.654 25.46 15 25.46C13.346 25.46 12 24.114 12 22.46C12 20.806 13.346 19.46 15 19.46Z" fill="black"/>
</svg>
