<svg width="36" height="36" viewBox="0 0 36 36" fill="none" xmlns="http://www.w3.org/2000/svg">
<path d="M19.1371 1.30488L19.1364 1.30444C18.4333 0.898519 17.5667 0.898519 16.8636 1.30444L16.8629 1.30487L4.13562 8.66747L4.13528 8.66767C3.43246 9.07461 3 9.82548 3 10.6378V25.3623C3 26.1737 3.43221 26.9254 4.13528 27.3325L4.13566 27.3327L16.8626 34.6944C17.5662 35.1019 18.4338 35.1019 19.1374 34.6944L31.8634 27.3329C31.8635 27.3328 31.8636 27.3328 31.8637 27.3327C32.5677 26.9256 33 26.1738 33 25.3623V10.6378C33 9.8254 32.5674 9.0744 31.8637 8.66748C31.8636 8.66742 31.8635 8.66736 31.8634 8.6673L19.1371 1.30488Z" stroke="black" stroke-width="2"/>
<mask id="mask0" mask-type="alpha" maskUnits="userSpaceOnUse" x="9" y="8" width="19" height="20">
<path fill-rule="evenodd" clip-rule="evenodd" d="M9 8.00012H27.8778V28H9V8.00012Z" fill="white"/>
</mask>
<g mask="url(#mask0)">
<path fill-rule="evenodd" clip-rule="evenodd" d="M24.3343 15.271C23.5203 15.692 22.5233 15.375 22.1023 14.56C21.6813 13.747 21.9993 12.75 22.8133 12.329C23.6273 11.908 24.6243 12.225 25.0453 13.04C25.4663 13.853 25.1483 14.85 24.3343 15.271ZM19.3633 12.869C18.5493 13.29 17.5523 12.972 17.1313 12.159C16.7103 11.344 17.0283 10.347 17.8423 9.92605C18.6563 9.50505 19.6533 9.82305 20.0743 10.637C20.4953 11.452 20.1773 12.448 19.3633 12.869ZM14.4593 15.405C13.6453 15.826 12.6473 15.508 12.2273 14.694C11.8063 13.879 12.1233 12.883 12.9383 12.462C13.7513 12.042 14.7493 12.359 15.1693 13.172C15.5903 13.987 15.2733 14.984 14.4593 15.405ZM13.5443 20.849C12.7303 21.2701 11.7333 20.953 11.3133 20.1391C10.8923 19.3251 11.2093 18.328 12.0233 17.9071C12.8373 17.486 13.8343 17.8031 14.2553 18.618C14.6763 19.4311 14.3593 20.4281 13.5443 20.849ZM14.3763 9.23305C9.5013 11.752 7.5913 17.75 10.1113 22.625C12.6323 27.5 18.6283 29.409 23.5033 26.8881C24.3173 26.4671 24.6353 25.47 24.2143 24.656C24.0163 24.274 23.6913 24.0061 23.3193 23.863C22.9623 23.725 22.6373 23.458 22.4443 23.0841C22.0233 22.2711 22.3413 21.274 23.1553 20.853L24.8913 19.956C27.5993 18.556 28.6603 15.222 27.2603 12.515C25.0193 8.18005 19.2513 6.71205 14.3763 9.23305Z" fill="black"/>
</g>
</svg>
