<svg width="36" height="36" viewBox="0 0 36 36" fill="none" xmlns="http://www.w3.org/2000/svg">
<path d="M19.1364 1.30444L19.1371 1.30488L31.8634 8.6673C32.5673 9.07418 33 9.82528 33 10.6378V25.3623C33 26.1738 32.5677 26.9256 31.8637 27.3327L19.1364 1.30444ZM19.1364 1.30444C18.4333 0.898519 17.5667 0.898519 16.8636 1.30444L16.8629 1.30487L4.13562 8.66747L4.13528 8.66767C3.43246 9.07461 3 9.82548 3 10.6378V25.3623C3 26.1737 3.43221 26.9254 4.13528 27.3325L4.13566 27.3327L16.8626 34.6944C16.8627 34.6945 16.8628 34.6946 16.8629 34.6947C17.5664 35.1018 18.4336 35.1018 19.1371 34.6946C19.1372 34.6946 19.1373 34.6945 19.1374 34.6944L31.8634 27.3329L19.1364 1.30444Z" stroke="black" stroke-width="2"/>
<path d="M13.8333 23C12.9167 23 12.175 23.75 12.175 24.6666C12.175 25.5833 12.9167 26.3333 13.8333 26.3333C14.75 26.3333 15.5 25.5833 15.5 24.6666C15.5 23.75 14.75 23 13.8333 23ZM8.83334 9.66663V11.3333H10.5L13.5 17.6583L12.375 19.7C12.2417 19.9333 12.1667 20.2083 12.1667 20.5C12.1667 21.4166 12.9167 22.1666 13.8333 22.1666H23.8333V20.5H14.1833C14.0667 20.5 13.975 20.4083 13.975 20.2916L14 20.1916L14.75 18.8333H20.9583C21.5833 18.8333 22.1333 18.4916 22.4167 17.975L25.4 12.5666C25.4667 12.45 25.5 12.3083 25.5 12.1666C25.5 11.7083 25.125 11.3333 24.6667 11.3333H12.3417L11.5583 9.66663H8.83334ZM22.1667 23C21.25 23 20.5083 23.75 20.5083 24.6666C20.5083 25.5833 21.25 26.3333 22.1667 26.3333C23.0833 26.3333 23.8333 25.5833 23.8333 24.6666C23.8333 23.75 23.0833 23 22.1667 23Z" fill="black"/>
</svg>
