<svg width="36" height="36" viewBox="0 0 36 36" fill="none" xmlns="http://www.w3.org/2000/svg">
<path d="M31.8564 8.8453L19 1.42265C18.3812 1.06538 17.6188 1.06538 17 1.42265L4.14359 8.8453C3.52479 9.20257 3.14359 9.86282 3.14359 10.5774V25.4226C3.14359 26.1372 3.52479 26.7974 4.14359 27.1547L17 34.5774C17.6188 34.9346 18.3812 34.9346 19 34.5774L31.8564 27.1547C32.4752 26.7974 32.8564 26.1372 32.8564 25.4226V10.5774C32.8564 9.86282 32.4752 9.20256 31.8564 8.8453Z" stroke="black" stroke-width="2"/>
<path d="M24.6667 9.66663H11.3333C10.4083 9.66663 9.66666 10.4083 9.66666 11.3333V20.5C9.66666 21.425 10.4083 22.1666 11.3333 22.1666H14.6667V26.3333L18 24.6666L21.3333 26.3333V22.1666H24.6667C25.5917 22.1666 26.3333 21.425 26.3333 20.5V11.3333C26.3333 10.4083 25.5917 9.66663 24.6667 9.66663ZM24.6667 20.5H11.3333V18.8333H24.6667V20.5ZM24.6667 16.3333H11.3333V11.3333H24.6667V16.3333Z" fill="black"/>
</svg>
