<svg width="36" height="36" viewBox="0 0 36 36" fill="none" xmlns="http://www.w3.org/2000/svg">
<path d="M19.1364 1.30444L19.1371 1.30488L31.8634 8.6673C32.5673 9.07418 33 9.82528 33 10.6378V25.3623C33 26.1738 32.5677 26.9256 31.8637 27.3327L19.1364 1.30444ZM19.1364 1.30444C18.4333 0.898519 17.5667 0.898519 16.8636 1.30444L16.8629 1.30487L4.13562 8.66747L4.13528 8.66767C3.43246 9.07461 3 9.82548 3 10.6378V25.3623C3 26.1737 3.43221 26.9254 4.13528 27.3325L4.13566 27.3327L16.8626 34.6944C16.8627 34.6945 16.8628 34.6946 16.8629 34.6947C17.5664 35.1018 18.4336 35.1018 19.1371 34.6946C19.1372 34.6946 19.1373 34.6945 19.1374 34.6944L31.8634 27.3329L19.1364 1.30444Z" stroke="black" stroke-width="2"/>
<path d="M24.6667 9.66663H11.3333C10.4083 9.66663 9.66666 10.4083 9.66666 11.3333V20.5C9.66666 21.425 10.4083 22.1666 11.3333 22.1666H14.6667V26.3333L18 24.6666L21.3333 26.3333V22.1666H24.6667C25.5917 22.1666 26.3333 21.425 26.3333 20.5V11.3333C26.3333 10.4083 25.5917 9.66663 24.6667 9.66663ZM24.6667 20.5H11.3333V18.8333H24.6667V20.5ZM24.6667 16.3333H11.3333V11.3333H24.6667V16.3333Z" fill="black"/>
</svg>
