<svg width="36" height="36" viewBox="0 0 36 36" fill="none" xmlns="http://www.w3.org/2000/svg">
<path d="M19.1364 1.30444L19.1371 1.30488L31.8634 8.6673C32.5673 9.07418 33 9.82528 33 10.6378V25.3623C33 26.1738 32.5677 26.9256 31.8637 27.3327L19.1364 1.30444ZM19.1364 1.30444C18.4333 0.898519 17.5667 0.898519 16.8636 1.30444L16.8629 1.30487L4.13562 8.66747L4.13528 8.66767C3.43246 9.07461 3 9.82548 3 10.6378V25.3623C3 26.1737 3.43221 26.9254 4.13528 27.3325L4.13566 27.3327L16.8626 34.6944C16.8627 34.6945 16.8628 34.6946 16.8629 34.6947C17.5664 35.1018 18.4336 35.1018 19.1371 34.6946C19.1372 34.6946 19.1373 34.6945 19.1374 34.6944L31.8634 27.3329L19.1364 1.30444Z" stroke="black" stroke-width="2"/>
<path d="M14.75 19.1166L17.1083 16.7583L11.2583 10.9166C9.95833 12.2166 9.95833 14.325 11.2583 15.6333L14.75 19.1166V19.1166ZM20.4 17.6083C21.675 18.2 23.4667 17.7833 24.7917 16.4583C26.3833 14.8666 26.6917 12.5833 25.4667 11.3583C24.25 10.1416 21.9667 10.4416 20.3667 12.0333C19.0417 13.3583 18.625 15.15 19.2167 16.425L11.0833 24.5583L12.2583 25.7333L18 20.0083L23.7333 25.7416L24.9083 24.5666L19.175 18.8333L20.4 17.6083V17.6083Z" fill="black"/>
</svg>
