<svg width="36" height="36" viewBox="0 0 36 36" fill="none" xmlns="http://www.w3.org/2000/svg">
<path d="M19.1371 1.30488L19.1364 1.30444C18.4333 0.898519 17.5667 0.898519 16.8636 1.30444L16.8629 1.30487L4.13562 8.66747L4.13528 8.66767C3.43246 9.07461 3 9.82548 3 10.6378V25.3623C3 26.1737 3.43221 26.9254 4.13528 27.3325L4.13566 27.3327L16.8626 34.6944C17.5662 35.1019 18.4338 35.1019 19.1374 34.6944L31.8634 27.3329C31.8635 27.3328 31.8636 27.3328 31.8637 27.3327C32.5677 26.9256 33 26.1738 33 25.3623V10.6378C33 9.8254 32.5674 9.0744 31.8637 8.66748C31.8636 8.66742 31.8635 8.66736 31.8634 8.6673L19.1371 1.30488Z" stroke="black" stroke-width="2"/>
<mask id="mask0" mask-type="alpha" maskUnits="userSpaceOnUse" x="9" y="9" width="18" height="18">
<path fill-rule="evenodd" clip-rule="evenodd" d="M9 9H27V27H9V9Z" fill="white"/>
</mask>
<g mask="url(#mask0)">
<path fill-rule="evenodd" clip-rule="evenodd" d="M26.979 9.41065C26.969 9.19965 26.8 9.03065 26.589 9.02065C26.197 9.00065 16.938 8.58565 12.89 12.6337C10.371 15.1527 10.049 19.0507 11.925 21.9227L9.29301 24.5547C8.90201 24.9447 8.90201 25.5787 9.29301 25.9697L10.031 26.7067C10.421 27.0977 11.055 27.0977 11.446 26.7067L14.078 24.0747C16.95 25.9507 20.847 25.6297 23.367 23.1097C27.415 19.0617 27 9.80365 26.979 9.41065Z" fill="black"/>
</g>
</svg>
