<svg width="36" height="36" viewBox="0 0 36 36" fill="none" xmlns="http://www.w3.org/2000/svg">
<path d="M19.1371 1.30488L19.1364 1.30444C18.4333 0.898519 17.5667 0.898519 16.8636 1.30444L16.8629 1.30487L4.13562 8.66747L4.13528 8.66767C3.43246 9.07461 3 9.82548 3 10.6378V25.3623C3 26.1737 3.43221 26.9254 4.13528 27.3325L4.13566 27.3327L16.8626 34.6944C17.5662 35.1019 18.4338 35.1019 19.1374 34.6944L31.8634 27.3329C31.8635 27.3328 31.8636 27.3328 31.8637 27.3327C32.5677 26.9256 33 26.1738 33 25.3623V10.6378C33 9.8254 32.5674 9.0744 31.8637 8.66748C31.8636 8.66742 31.8635 8.66736 31.8634 8.6673L19.1371 1.30488Z" stroke="black" stroke-width="2"/>
<path d="M19.1371 1.30488L19.1364 1.30444C18.4333 0.898519 17.5667 0.898519 16.8636 1.30444L16.8629 1.30487L4.13562 8.66747L4.13528 8.66767C3.43246 9.07461 3 9.82548 3 10.6378V25.3623C3 26.1737 3.43221 26.9254 4.13528 27.3325L4.13566 27.3327L16.8626 34.6944C17.5662 35.1019 18.4338 35.1019 19.1374 34.6944L31.8634 27.3329C31.8635 27.3328 31.8636 27.3328 31.8637 27.3327C32.5677 26.9256 33 26.1738 33 25.3623V10.6378C33 9.8254 32.5674 9.0744 31.8637 8.66748C31.8636 8.66742 31.8635 8.66736 31.8634 8.6673L19.1371 1.30488Z" stroke="black" stroke-width="2"/>
<path fill-rule="evenodd" clip-rule="evenodd" d="M27.0021 20.335L22.9768 18L27.0021 15.665C27.4789 15.389 27.6411 14.777 27.3664 14.299L25.8733 11.701C25.5986 11.223 24.9905 11.059 24.5137 11.335L20.4884 13.67V9C20.4884 8.448 20.0425 8 19.4931 8H16.507C15.9576 8 15.5116 8.448 15.5116 9V13.67L11.4864 11.335C11.0106 11.059 10.4015 11.223 10.1257 11.701L8.6327 14.299C8.35898 14.777 8.52222 15.389 8.998 15.665L13.0232 18L8.998 20.335C8.52222 20.611 8.35898 21.223 8.6327 21.701L10.1257 24.299C10.4015 24.777 11.0106 24.941 11.4864 24.665L15.5116 22.33V27C15.5116 27.552 15.9576 28 16.507 28H19.4931C20.0425 28 20.4884 27.552 20.4884 27V22.33L24.5137 24.665C24.9905 24.941 25.5986 24.777 25.8733 24.299L27.3664 21.701C27.6411 21.223 27.4789 20.611 27.0021 20.335Z" fill="black"/>
</svg>
