<svg width="36" height="36" viewBox="0 0 36 36" fill="none" xmlns="http://www.w3.org/2000/svg">
<path d="M31.8564 8.8453L19 1.42265C18.3812 1.06538 17.6188 1.06538 17 1.42265L4.14359 8.8453C3.52479 9.20257 3.14359 9.86282 3.14359 10.5774V25.4226C3.14359 26.1372 3.52479 26.7974 4.14359 27.1547L17 34.5774C17.6188 34.9346 18.3812 34.9346 19 34.5774L31.8564 27.1547C32.4752 26.7974 32.8564 26.1372 32.8564 25.4226V10.5774C32.8564 9.86282 32.4752 9.20256 31.8564 8.8453Z" stroke="black" stroke-width="2"/>
<mask id="mask0" mask-type="alpha" maskUnits="userSpaceOnUse" x="12" y="7" width="12" height="22">
<path fill-rule="evenodd" clip-rule="evenodd" d="M12 7H24V29H12V7Z" fill="white"/>
</mask>
<g mask="url(#mask0)">
<path fill-rule="evenodd" clip-rule="evenodd" d="M23.5337 16H18.9997V7.46696C18.9997 6.98396 18.3567 6.81896 18.1257 7.24296L12.0577 19.312C11.8877 19.621 12.1127 20 12.4667 20H16.9997V28.533C16.9997 29.016 17.6437 29.18 17.8747 28.757L23.9427 16.688C24.1117 16.378 23.8877 16 23.5337 16Z" fill="black"/>
</g>
</svg>
