<svg width="36" height="36" viewBox="0 0 36 36" fill="none" xmlns="http://www.w3.org/2000/svg">
<path d="M19.1371 1.30488L19.1364 1.30444C18.4333 0.898519 17.5667 0.898519 16.8636 1.30444L16.8629 1.30487L4.13562 8.66747L4.13528 8.66767C3.43246 9.07461 3 9.82548 3 10.6378V25.3623C3 26.1737 3.43221 26.9254 4.13528 27.3325L4.13566 27.3327L16.8626 34.6944C17.5662 35.1019 18.4338 35.1019 19.1374 34.6944L31.8634 27.3329C31.8635 27.3328 31.8636 27.3328 31.8637 27.3327C32.5677 26.9256 33 26.1738 33 25.3623V10.6378C33 9.8254 32.5674 9.0744 31.8637 8.66748C31.8636 8.66742 31.8635 8.66736 31.8634 8.6673L19.1371 1.30488Z" stroke="black" stroke-width="2"/>
<mask id="mask0" mask-type="alpha" maskUnits="userSpaceOnUse" x="9" y="9" width="18" height="18">
<path fill-rule="evenodd" clip-rule="evenodd" d="M9 9H26.8419V27H9V9Z" fill="white"/>
</mask>
<g mask="url(#mask0)">
<path fill-rule="evenodd" clip-rule="evenodd" d="M17.8419 9C13.4479 9 9.7899 12.148 8.9999 16.312H17.8419V14.676C17.8419 14.139 18.4859 13.877 18.8669 14.246L22.1939 17.572C22.4319 17.812 22.4319 18.181 22.1939 18.419L18.8549 21.745C18.4859 22.127 17.8419 21.864 17.8419 21.328V19.688H8.9999C9.7899 23.852 13.4479 27 17.8419 27C22.8129 27 26.8419 22.971 26.8419 18C26.8419 13.029 22.8129 9 17.8419 9Z" fill="black"/>
</g>
</svg>
