<svg width="36" height="36" viewBox="0 0 36 36" fill="none" xmlns="http://www.w3.org/2000/svg">
<path d="M19.1371 1.30488L19.1364 1.30444C18.4333 0.898519 17.5667 0.898519 16.8636 1.30444L16.8629 1.30487L4.13562 8.66747L4.13528 8.66767C3.43246 9.07461 3 9.82548 3 10.6378V25.3623C3 26.1737 3.43221 26.9254 4.13528 27.3325L4.13566 27.3327L16.8626 34.6944C17.5662 35.1019 18.4338 35.1019 19.1374 34.6944L31.8634 27.3329C31.8635 27.3328 31.8636 27.3328 31.8637 27.3327C32.5677 26.9256 33 26.1738 33 25.3623V10.6378C33 9.8254 32.5674 9.0744 31.8637 8.66748C31.8636 8.66742 31.8635 8.66736 31.8634 8.6673L19.1371 1.30488Z" stroke="black" stroke-width="2"/>
<path fill-rule="evenodd" clip-rule="evenodd" d="M21 10.5C21 11.881 19.881 13 18.5 13C17.119 13 16 11.881 16 10.5C16 9.119 17.119 8 18.5 8C19.881 8 21 9.119 21 10.5ZM21 26H22C22.552 26 23 26.448 23 27C23 27.552 22.552 28 22 28H15C14.448 28 14 27.552 14 27C14 26.448 14.448 26 15 26H16V16H15C14.448 16 14 15.552 14 15C14 14.448 14.448 14 15 14H17H17.5H20C20.552 14 21 14.448 21 15V26Z" fill="black"/>
</svg>
