<svg width="36" height="36" viewBox="0 0 36 36" fill="none" xmlns="http://www.w3.org/2000/svg">
<path d="M31.8564 8.8453L19 1.42265C18.3812 1.06538 17.6188 1.06538 17 1.42265L4.14359 8.8453C3.52479 9.20257 3.14359 9.86282 3.14359 10.5774V25.4226C3.14359 26.1372 3.52479 26.7974 4.14359 27.1547L17 34.5774C17.6188 34.9346 18.3812 34.9346 19 34.5774L31.8564 27.1547C32.4752 26.7974 32.8564 26.1372 32.8564 25.4226V10.5774C32.8564 9.86282 32.4752 9.20256 31.8564 8.8453Z" stroke="black" stroke-width="2"/>
<path d="M18 25.7917L16.7917 24.6917C12.5 20.8 9.66666 18.2333 9.66666 15.0833C9.66666 12.5167 11.6833 10.5 14.25 10.5C15.7 10.5 17.0917 11.175 18 12.2417C18.9083 11.175 20.3 10.5 21.75 10.5C24.3167 10.5 26.3333 12.5167 26.3333 15.0833C26.3333 18.2333 23.5 20.8 19.2083 24.7L18 25.7917Z" fill="black"/>
</svg>
