<svg width="36" height="36" viewBox="0 0 36 36" fill="none" xmlns="http://www.w3.org/2000/svg">
<path d="M19.1364 1.30444L19.1371 1.30488L31.8634 8.6673C32.5673 9.07418 33 9.82528 33 10.6378V25.3623C33 26.1738 32.5677 26.9256 31.8637 27.3327L19.1364 1.30444ZM19.1364 1.30444C18.4333 0.898519 17.5667 0.898519 16.8636 1.30444L16.8629 1.30487L4.13562 8.66747L4.13528 8.66767C3.43246 9.07461 3 9.82548 3 10.6378V25.3623C3 26.1737 3.43221 26.9254 4.13528 27.3325L4.13566 27.3327L16.8626 34.6944C16.8627 34.6945 16.8628 34.6946 16.8629 34.6947C17.5664 35.1018 18.4336 35.1018 19.1371 34.6946C19.1372 34.6946 19.1373 34.6945 19.1374 34.6944L31.8634 27.3329L19.1364 1.30444Z" stroke="black" stroke-width="2"/>
<path d="M18 25.7917L16.7917 24.6917C12.5 20.8 9.66666 18.2333 9.66666 15.0833C9.66666 12.5167 11.6833 10.5 14.25 10.5C15.7 10.5 17.0917 11.175 18 12.2417C18.9083 11.175 20.3 10.5 21.75 10.5C24.3167 10.5 26.3333 12.5167 26.3333 15.0833C26.3333 18.2333 23.5 20.8 19.2083 24.7L18 25.7917Z" fill="black"/>
</svg>
