<svg width="36" height="36" viewBox="0 0 36 36" fill="none" xmlns="http://www.w3.org/2000/svg">
<path d="M19.1371 1.30488L19.1364 1.30444C18.4333 0.898519 17.5667 0.898519 16.8636 1.30444L16.8629 1.30487L4.13562 8.66747L4.13528 8.66767C3.43246 9.07461 3 9.82548 3 10.6378V25.3623C3 26.1737 3.43221 26.9254 4.13528 27.3325L4.13566 27.3327L16.8626 34.6944C17.5662 35.1019 18.4338 35.1019 19.1374 34.6944L31.8634 27.3329C31.8635 27.3328 31.8636 27.3328 31.8637 27.3327C32.5677 26.9256 33 26.1738 33 25.3623V10.6378C33 9.8254 32.5674 9.0744 31.8637 8.66748C31.8636 8.66742 31.8635 8.66736 31.8634 8.6673L19.1371 1.30488Z" stroke="black" stroke-width="2"/>
<mask id="mask0" mask-type="alpha" maskUnits="userSpaceOnUse" x="9" y="9" width="18" height="18">
<path fill-rule="evenodd" clip-rule="evenodd" d="M9.0004 9H26.3814V26.9996H9.0004V9Z" fill="white"/>
</mask>
<g mask="url(#mask0)">
<path fill-rule="evenodd" clip-rule="evenodd" d="M25.3374 10.6626L22.9494 13.0506L24.3634 11.6356C23.5384 10.8096 22.5754 10.1616 21.5044 9.70763C20.3934 9.23863 19.2134 8.99963 18.0004 8.99963C16.7854 8.99963 15.6074 9.23863 14.4964 9.70763C13.4244 10.1616 12.4624 10.8096 11.6364 11.6356C10.8104 12.4616 10.1614 13.4246 9.7084 14.4956C9.2384 15.6066 9.0004 16.7856 9.0004 17.9996C9.0004 19.2146 9.2384 20.3926 9.7084 21.5036C10.1614 22.5756 10.8104 23.5376 11.6364 24.3636C12.4624 25.1896 13.4244 25.8386 14.4964 26.2916C15.6074 26.7616 16.7854 26.9996 18.0004 26.9996C19.2134 26.9996 20.3934 26.7616 21.5044 26.2916C22.5754 25.8386 23.5384 25.1896 24.3634 24.3636C24.8764 23.8516 25.3194 23.2876 25.6914 22.6776C26.0044 22.1626 25.7924 21.4906 25.2414 21.2456L23.3934 20.4246C22.9484 20.2266 22.4274 20.3796 22.1554 20.7836C21.9754 21.0506 21.7684 21.3026 21.5354 21.5356C20.5914 22.4796 19.3354 22.9996 18.0004 22.9996C16.6644 22.9996 15.4084 22.4796 14.4644 21.5356C13.5204 20.5906 13.0004 19.3356 13.0004 17.9996C13.0004 16.6646 13.5204 15.4086 14.4644 14.4646C15.4084 13.5196 16.6644 12.9996 18.0004 12.9996C19.3354 12.9996 20.5914 13.5196 21.5354 14.4646L20.5624 15.4386C20.1764 15.8236 20.4504 16.4736 20.9894 16.4646L25.7744 16.4736C26.1164 16.4736 26.3814 16.2086 26.3814 15.8656V11.0906C26.3734 10.5516 25.7224 10.2776 25.3374 10.6626Z" fill="black"/>
</g>
</svg>
