<svg width="36" height="36" viewBox="0 0 36 36" fill="none" xmlns="http://www.w3.org/2000/svg">
<path d="M31.8564 8.8453L19 1.42265C18.3812 1.06538 17.6188 1.06538 17 1.42265L4.14359 8.8453C3.52479 9.20257 3.14359 9.86282 3.14359 10.5774V25.4226C3.14359 26.1372 3.52479 26.7974 4.14359 27.1547L17 34.5774C17.6188 34.9346 18.3812 34.9346 19 34.5774L31.8564 27.1547C32.4752 26.7974 32.8564 26.1372 32.8564 25.4226V10.5774C32.8564 9.86282 32.4752 9.20256 31.8564 8.8453Z" stroke="black" stroke-width="2"/>
<path d="M8 23H28V25H8V23ZM19.84 13.79C19.94 13.55 20 13.28 20 13C20 11.9 19.1 11 18 11C16.9 11 16 11.9 16 13C16 13.28 16.06 13.55 16.16 13.79C12.25 14.6 9.27 17.93 9 22H27C26.73 17.93 23.75 14.6 19.84 13.79Z" fill="black"/>
</svg>
