<svg width="36" height="36" viewBox="0 0 36 36" fill="none" xmlns="http://www.w3.org/2000/svg">
<path d="M19.1364 1.30444L19.1371 1.30488L31.8634 8.6673C32.5673 9.07418 33 9.82528 33 10.6378V25.3623C33 26.1738 32.5677 26.9256 31.8637 27.3327L19.1364 1.30444ZM19.1364 1.30444C18.4333 0.898519 17.5667 0.898519 16.8636 1.30444L16.8629 1.30487L4.13562 8.66747L4.13528 8.66767C3.43246 9.07461 3 9.82548 3 10.6378V25.3623C3 26.1737 3.43221 26.9254 4.13528 27.3325L4.13566 27.3327L16.8626 34.6944C16.8627 34.6945 16.8628 34.6946 16.8629 34.6947C17.5664 35.1018 18.4336 35.1018 19.1371 34.6946C19.1372 34.6946 19.1373 34.6945 19.1374 34.6944L31.8634 27.3329L19.1364 1.30444Z" stroke="black" stroke-width="2"/>
<path d="M8 23H28V25H8V23ZM19.84 13.79C19.94 13.55 20 13.28 20 13C20 11.9 19.1 11 18 11C16.9 11 16 11.9 16 13C16 13.28 16.06 13.55 16.16 13.79C12.25 14.6 9.27 17.93 9 22H27C26.73 17.93 23.75 14.6 19.84 13.79Z" fill="black"/>
</svg>
