<svg width="36" height="36" viewBox="0 0 36 36" fill="none" xmlns="http://www.w3.org/2000/svg">
<path d="M19.1371 1.30488L19.1364 1.30444C18.4333 0.898519 17.5667 0.898519 16.8636 1.30444L16.8629 1.30487L4.13562 8.66747L4.13528 8.66767C3.43246 9.07461 3 9.82548 3 10.6378V25.3623C3 26.1737 3.43221 26.9254 4.13528 27.3325L4.13566 27.3327L16.8626 34.6944C17.5662 35.1019 18.4338 35.1019 19.1374 34.6944L31.8634 27.3329C31.8635 27.3328 31.8636 27.3328 31.8637 27.3327C32.5677 26.9256 33 26.1738 33 25.3623V10.6378C33 9.8254 32.5674 9.0744 31.8637 8.66748C31.8636 8.66742 31.8635 8.66736 31.8634 8.6673L19.1371 1.30488Z" stroke="black" stroke-width="2"/>
<mask id="mask0" mask-type="alpha" maskUnits="userSpaceOnUse" x="9" y="9" width="17" height="18">
<path fill-rule="evenodd" clip-rule="evenodd" d="M9 9.80872H25.9485V26.7567H9V9.80872Z" fill="white"/>
</mask>
<g mask="url(#mask0)">
<path fill-rule="evenodd" clip-rule="evenodd" d="M10.0059 9.80872C9.49289 9.80872 8.99989 10.2067 8.99989 10.8087V25.7587C8.99989 26.3097 9.44689 26.7567 9.99889 26.7567H24.9479C25.8379 26.7567 26.2829 25.6817 25.6539 25.0527L10.7049 10.1027C10.5019 9.89972 10.2519 9.80872 10.0059 9.80872ZM12.4949 16.8367L18.9209 23.2617H12.4949V16.8367Z" fill="black"/>
</g>
<mask id="mask1" mask-type="alpha" maskUnits="userSpaceOnUse" x="16" y="10" width="11" height="11">
<path fill-rule="evenodd" clip-rule="evenodd" d="M16.8816 10.5864H26.915V20.6189H16.8816V10.5864Z" fill="white"/>
</mask>
<g mask="url(#mask1)">
<path fill-rule="evenodd" clip-rule="evenodd" d="M25.9336 17.5524L26.9096 20.4794C26.9366 20.5624 26.8586 20.6404 26.7756 20.6134L23.8486 19.6374C23.6926 19.5854 23.5506 19.4984 23.4346 19.3824L16.8816 12.8294L19.1246 10.5864L25.6776 17.1394C25.7936 17.2554 25.8816 17.3964 25.9336 17.5524Z" fill="black"/>
</g>
<path fill-rule="evenodd" clip-rule="evenodd" d="M15.7607 9.46449C15.1417 10.0845 15.1417 11.0885 15.7607 11.7075L16.1347 12.0815L18.3777 9.83849L18.0037 9.46449C17.3837 8.84549 16.3797 8.84549 15.7607 9.46449Z" fill="black"/>
</svg>
