<svg width="36" height="36" viewBox="0 0 36 36" fill="none" xmlns="http://www.w3.org/2000/svg">
<path d="M19.1371 1.30488L19.1364 1.30444C18.4333 0.898519 17.5667 0.898519 16.8636 1.30444L16.8629 1.30487L4.13562 8.66747L4.13528 8.66767C3.43246 9.07461 3 9.82548 3 10.6378V25.3623C3 26.1737 3.43221 26.9254 4.13528 27.3325L4.13566 27.3327L16.8626 34.6944C17.5662 35.1019 18.4338 35.1019 19.1374 34.6944L31.8634 27.3329C31.8635 27.3328 31.8636 27.3328 31.8637 27.3327C32.5677 26.9256 33 26.1738 33 25.3623V10.6378C33 9.8254 32.5674 9.0744 31.8637 8.66748C31.8636 8.66742 31.8635 8.66736 31.8634 8.6673L19.1371 1.30488Z" stroke="black" stroke-width="2"/>
<mask id="mask0" mask-type="alpha" maskUnits="userSpaceOnUse" x="11" y="9" width="15" height="18">
<path fill-rule="evenodd" clip-rule="evenodd" d="M11 9.00024H25.8147V26.9997H11V9.00024Z" fill="white"/>
</mask>
<g mask="url(#mask0)">
<path fill-rule="evenodd" clip-rule="evenodd" d="M17.9477 9.09774L11.6717 11.8867C11.2637 12.0687 10.9997 12.4737 10.9997 12.9207V17.1237C10.9997 21.6917 14.1607 25.9627 18.4077 26.9997C22.6547 25.9627 25.8147 21.6917 25.8147 17.1237V12.9207C25.8147 12.4737 25.5517 12.0687 25.1427 11.8867L18.8667 9.09774C18.5747 8.96774 18.2407 8.96774 17.9477 9.09774Z" fill="black"/>
</g>
</svg>
