<svg width="36" height="36" viewBox="0 0 36 36" fill="none" xmlns="http://www.w3.org/2000/svg">
<path d="M19.1364 1.30444L19.1371 1.30488L31.8634 8.6673C32.5673 9.07418 33 9.82528 33 10.6378V25.3623C33 26.1738 32.5677 26.9256 31.8637 27.3327L19.1364 1.30444ZM19.1364 1.30444C18.4333 0.898519 17.5667 0.898519 16.8636 1.30444L16.8629 1.30487L4.13562 8.66747L4.13528 8.66767C3.43246 9.07461 3 9.82548 3 10.6378V25.3623C3 26.1737 3.43221 26.9254 4.13528 27.3325L4.13566 27.3327L16.8626 34.6944C16.8627 34.6945 16.8628 34.6946 16.8629 34.6947C17.5664 35.1018 18.4336 35.1018 19.1371 34.6946C19.1372 34.6946 19.1373 34.6945 19.1374 34.6944L31.8634 27.3329L19.1364 1.30444Z" stroke="black" stroke-width="2"/>
<path d="M22 17C23.66 17 24.99 15.66 24.99 14C24.99 12.34 23.66 11 22 11C20.34 11 19 12.34 19 14C19 15.66 20.34 17 22 17ZM14 17C15.66 17 16.99 15.66 16.99 14C16.99 12.34 15.66 11 14 11C12.34 11 11 12.34 11 14C11 15.66 12.34 17 14 17ZM14 19C11.67 19 7 20.17 7 22.5V25H21V22.5C21 20.17 16.33 19 14 19ZM22 19C21.71 19 21.38 19.02 21.03 19.05C22.19 19.89 23 21.02 23 22.5V25H29V22.5C29 20.17 24.33 19 22 19Z" fill="black"/>
</svg>
