<svg width="36" height="36" viewBox="0 0 36 36" fill="none" xmlns="http://www.w3.org/2000/svg">
<path d="M19.1371 1.30488L19.1364 1.30444C18.4333 0.898519 17.5667 0.898519 16.8636 1.30444L16.8629 1.30487L4.13562 8.66747L4.13528 8.66767C3.43246 9.07461 3 9.82548 3 10.6378V25.3623C3 26.1737 3.43221 26.9254 4.13528 27.3325L4.13566 27.3327L16.8626 34.6944C17.5662 35.1019 18.4338 35.1019 19.1374 34.6944L31.8634 27.3329C31.8635 27.3328 31.8636 27.3328 31.8637 27.3327C32.5677 26.9256 33 26.1738 33 25.3623V10.6378C33 9.8254 32.5674 9.0744 31.8637 8.66748C31.8636 8.66742 31.8635 8.66736 31.8634 8.6673L19.1371 1.30488Z" stroke="black" stroke-width="2"/>
<path d="M16.6814 20.0142C16.6814 19.3421 16.8209 18.7611 17.1 18.271C17.393 17.7809 17.8953 17.2209 18.607 16.5908C19.0256 16.2127 19.3256 15.8837 19.507 15.6037C19.7023 15.3236 19.8 15.0016 19.8 14.6375C19.8 14.2035 19.6395 13.8394 19.3186 13.5454C18.9977 13.2374 18.5721 13.0833 18.0419 13.0833C17.4837 13.0833 17.0233 13.2514 16.6605 13.5874C16.3116 13.9094 16.0605 14.3155 15.907 14.8056L13.5 13.7974C13.7651 12.9013 14.2814 12.1312 15.0488 11.4871C15.8302 10.829 16.807 10.5 17.9791 10.5C18.8581 10.5 19.6395 10.675 20.3233 11.0251C21.007 11.3751 21.5372 11.8582 21.914 12.4743C22.3047 13.0763 22.5 13.7484 22.5 14.4905C22.5 15.2186 22.3465 15.8417 22.0395 16.3598C21.7326 16.8778 21.2791 17.4239 20.6791 17.998C20.2047 18.446 19.8767 18.8311 19.6953 19.1531C19.5279 19.4752 19.4442 19.8812 19.4442 20.3713V20.7073H16.6814V20.0142ZM18.0419 26C17.5395 26 17.107 25.825 16.7442 25.4749C16.3953 25.1109 16.2209 24.6768 16.2209 24.1728C16.2209 23.6687 16.3953 23.2416 16.7442 22.8916C17.107 22.5416 17.5395 22.3665 18.0419 22.3665C18.5442 22.3665 18.9698 22.5416 19.3186 22.8916C19.6674 23.2416 19.8419 23.6687 19.8419 24.1728C19.8419 24.6768 19.6674 25.1109 19.3186 25.4749C18.9698 25.825 18.5442 26 18.0419 26Z" fill="black"/>
</svg>
