<svg width="36" height="36" viewBox="0 0 36 36" fill="none" xmlns="http://www.w3.org/2000/svg">
<path d="M19.1371 1.30488L19.1364 1.30444C18.4333 0.898519 17.5667 0.898519 16.8636 1.30444L16.8629 1.30487L4.13562 8.66747L4.13528 8.66767C3.43246 9.07461 3 9.82548 3 10.6378V25.3623C3 26.1737 3.43221 26.9254 4.13528 27.3325L4.13566 27.3327L16.8626 34.6944C17.5662 35.1019 18.4338 35.1019 19.1374 34.6944L31.8634 27.3329C31.8635 27.3328 31.8636 27.3328 31.8637 27.3327C32.5677 26.9256 33 26.1738 33 25.3623V10.6378C33 9.8254 32.5674 9.0744 31.8637 8.66748C31.8636 8.66742 31.8635 8.66736 31.8634 8.6673L19.1371 1.30488Z" stroke="black" stroke-width="2"/>
<path fill-rule="evenodd" clip-rule="evenodd" d="M12.5 25.0044C12.5 26.1084 13.396 27.0044 14.5 27.0044H22.5C23.605 27.0044 24.5 26.1084 24.5 25.0044V13.0044H12.5V25.0044Z" fill="black"/>
<mask id="mask0" mask-type="alpha" maskUnits="userSpaceOnUse" x="11" y="9" width="15" height="4">
<path fill-rule="evenodd" clip-rule="evenodd" d="M11 9.00037H26V12.0044H11V9.00037Z" fill="white"/>
</mask>
<g mask="url(#mask0)">
<path fill-rule="evenodd" clip-rule="evenodd" d="M25.0576 10.0044H24.1256V9.94337C24.1256 9.42237 23.7026 9.00037 23.1816 9.00037H13.8186C13.2976 9.00037 12.8746 9.42237 12.8746 9.94337V10.0044H11.9426C11.4226 10.0044 10.9996 10.4264 10.9996 10.9474V11.0614C10.9996 11.5824 11.4226 12.0044 11.9426 12.0044H25.0576C25.5786 12.0044 26.0006 11.5824 26.0006 11.0614V10.9474C26.0006 10.4264 25.5786 10.0044 25.0576 10.0044Z" fill="black"/>
</g>
</svg>
