<svg width="232" height="232" viewBox="0 0 232 232" fill="none" xmlns="http://www.w3.org/2000/svg">
<g clip-path="url(#clip0)">
<rect width="232" height="232" fill="#BFEEDB"/>
<path d="M-5.71293 153.203C-5.8084 153.194 -5.90452 153.194 -6 153.203V154.839C-5.90947 154.878 -5.81161 154.898 -5.71293 154.896H93.4132C93.6416 154.896 93.8606 154.806 94.0221 154.644C94.1837 154.483 94.2744 154.264 94.2744 154.035C94.2744 153.807 94.1837 153.588 94.0221 153.426C93.8606 153.265 93.6416 153.174 93.4132 153.174H-5.71293V153.203ZM79.0595 72.3672C79.0537 72.1407 78.9611 71.925 78.8009 71.7647C78.6406 71.6045 78.4249 71.5119 78.1983 71.5061H-5.71293C-5.8084 71.497 -5.90452 71.497 -6 71.5061V73.1423C-5.90867 73.179 -5.81134 73.1984 -5.71293 73.1997H77.3371V115.799H-5.71293C-5.80931 115.8 -5.90543 115.809 -6 115.828V117.464C-5.90867 117.501 -5.81134 117.52 -5.71293 117.521H78.1983C78.4249 117.516 78.6406 117.423 78.8009 117.263C78.9611 117.103 79.0537 116.887 79.0595 116.66V72.3672ZM145.287 26.6102C145.25 26.7114 145.231 26.8182 145.23 26.926V153.231H131.967C131.739 153.231 131.52 153.322 131.358 153.484C131.197 153.645 131.106 153.864 131.106 154.093C131.106 154.321 131.197 154.54 131.358 154.702C131.52 154.863 131.739 154.954 131.967 154.954H146.12C146.346 154.948 146.562 154.855 146.722 154.695C146.882 154.535 146.975 154.319 146.981 154.093V26.8973C146.976 26.73 146.921 26.5678 146.825 26.431C146.729 26.2942 146.594 26.1887 146.438 26.1275C146.282 26.0664 146.112 26.0524 145.948 26.0872C145.784 26.122 145.634 26.204 145.517 26.3232C145.432 26.4047 145.363 26.5023 145.316 26.6102H145.287ZM-6 28.8206C-5.9024 28.9354 -5.81053 29.0388 -5.71293 29.1364C-4.56464 30.4339 -3.46419 31.783 -2.4116 33.1839C-3.55988 35.4803 -4.66033 37.8725 -5.71293 40.3603L-6 41.078V45.0106C-4.49574 42.0137 -2.92641 38.5882 -1.29201 34.734C1.74544 39.0212 4.36954 43.5867 6.54506 48.3692C5.2207 51.6532 3.99586 55.1265 2.87054 58.7894L-6 58.8468V60.483C-5.90947 60.5224 -5.81161 60.5419 -5.71293 60.5404H78.2557H78.3419L78.5428 60.483C78.6045 60.4638 78.6626 60.4347 78.7151 60.3969C78.8075 60.3263 78.8854 60.2386 78.9447 60.1386C78.9637 60.1033 78.9735 60.0638 78.9734 60.0238C78.9785 60.015 78.9811 60.0051 78.9811 59.9951C78.9811 59.985 78.9785 59.9751 78.9734 59.9663C78.9937 59.9315 79.0036 59.8918 79.0021 59.8515V59.7367V0.861173C79.0021 0.632776 78.9114 0.413728 78.7499 0.252227C78.5884 0.0907254 78.3693 0 78.1409 0C77.9125 0 77.6935 0.0907254 77.5319 0.252227C77.3704 0.413728 77.2797 0.632776 77.2797 0.861173V56.2633C73.5746 49.6362 68.6682 43.7566 62.8113 38.925L62.7538 38.8963C57.986 35.0379 52.6505 31.9393 46.9361 29.7105V29.7105C45.7649 29.2282 44.5592 28.7785 43.319 28.3613H43.1755C40.1396 27.3594 37.0424 26.554 33.9031 25.95H33.8456H33.8169C29.6662 25.1285 25.4659 24.582 21.2432 24.3138H21.1858C21.0519 24.3048 20.9177 24.3048 20.7839 24.3138C17.7945 24.2564 14.9238 24.2851 12.1717 24.3999H12.1143C10.7095 24.4573 9.34115 24.5434 8.00913 24.6582C6.14316 24.8132 4.34035 25.0199 2.61217 25.2898H2.38251C2.36779 25.3064 2.34722 25.3167 2.3251 25.3185C-0.473983 25.7167 -3.245 26.292 -5.97129 27.0408H-6V28.8206ZM-4.16274 28.3326C-2.54748 27.9307 -0.863318 27.5767 0.889737 27.2705C0.051486 28.6369 -0.758058 30.0549 -1.55038 31.5189C-2.39437 30.4224 -3.27281 29.3603 -4.16274 28.3326V28.3326ZM8.18138 26.3519C9.38708 26.2485 10.6215 26.1624 11.8846 26.0935C13.3085 27.4829 14.6864 28.9278 16.0185 30.4281C12.6415 35.3835 9.76618 40.6627 7.43499 46.1876C5.2355 41.5537 2.61196 37.1333 -0.402088 32.9829C0.711753 30.8587 1.87918 28.8206 3.10019 26.8686C4.73842 26.6428 6.43215 26.4514 8.18138 26.2945V26.3519ZM17.0232 28.9641C16.1218 27.9364 15.1974 26.9317 14.2386 25.95C15.9094 25.9155 17.6203 25.9098 19.4059 25.9213C18.6078 26.903 17.827 27.9135 17.0519 28.9641H17.0232ZM21.5302 26.0648C25.5097 26.3126 29.4696 26.8112 33.3863 27.5575C35.4558 29.1437 37.4304 30.8498 39.3 32.6671C35.7597 37.6157 32.7572 42.9276 30.3434 48.5128C26.9748 42.0286 22.9025 35.935 18.2002 30.342C19.2719 28.8378 20.382 27.4121 21.5302 26.0648ZM37.147 28.3613C38.678 28.744 40.1612 29.1651 41.5966 29.6243C41.1717 30.164 40.7526 30.7094 40.3335 31.2606C39.2924 30.2616 38.2302 29.2952 37.147 28.3613V28.3613ZM76.074 57.4402C76.3209 57.8708 76.562 58.3129 76.7917 58.7607H58.7635C57.6688 56.2499 56.5014 53.8386 55.2612 51.5269C56.8173 48.3946 58.6933 45.4317 60.8592 42.6855L62.4093 40.7909C67.9224 45.4722 72.5422 51.1129 76.0453 57.4402H76.074ZM61.0601 39.7001C60.5663 40.3201 60.0496 40.9612 59.5099 41.6234C57.5187 44.1522 55.7695 46.8624 54.2852 49.7184C52.2434 46.0374 49.9409 42.5072 47.3955 39.1546C45.5946 36.8231 43.6583 34.5994 41.5966 32.4949C42.1822 31.7294 42.7851 30.9639 43.4052 30.1985C44.4157 30.5429 45.3974 30.9161 46.362 31.3467C51.6413 33.4145 56.5924 36.238 61.0601 39.7288V39.7001ZM40.5344 33.9015C42.4744 35.8982 44.2956 38.0069 45.9888 40.2168C48.7316 43.8082 51.1888 47.609 53.3379 51.5843C52.2361 53.9257 51.2774 56.3318 50.4671 58.7894H35.1949C34.0007 55.915 32.728 53.1497 31.3768 50.4934C33.7941 44.6353 36.8661 39.0693 40.5344 33.9015V33.9015ZM54.3426 53.5075C55.2306 55.2184 56.0823 56.979 56.8976 58.7894H52.3044C52.9206 56.9637 53.6001 55.2031 54.3426 53.5075ZM33.3576 58.7894H28.3052C28.9941 56.6537 29.7309 54.5869 30.5156 52.589C31.5031 54.5984 32.4505 56.6652 33.3576 58.7894ZM29.4821 50.5509C28.4028 53.1727 27.4076 55.9188 26.4966 58.7894H12.4588C11.3152 55.2248 9.97344 51.7268 8.43974 48.3118C10.7715 42.5235 13.6961 36.9921 17.1667 31.806C21.9714 37.5657 26.1032 43.8546 29.4821 50.5509V50.5509ZM7.52111 50.5509C8.6694 53.1803 9.71243 55.9265 10.6502 58.7894H4.65039C5.56902 55.9265 6.52593 53.1803 7.52111 50.5509Z" fill="#022782"/>
<path d="M77.3371 73.2283H-5.71293V115.828H77.3371V73.2283ZM-1.29201 34.7339C-2.91876 38.5881 -4.48809 42.0136 -6 45.0105V58.8467L2.87054 58.7893C3.98821 55.1264 5.21305 51.6531 6.54506 48.3691C4.36954 43.5866 1.74544 39.0211 -1.29201 34.7339V34.7339ZM-5.71293 29.1363L-6 28.8492V41.0779L-5.71293 40.3889C-4.66798 37.8858 -3.56754 35.4936 -2.4116 33.2125C-3.4795 31.7925 -4.57995 30.4338 -5.71293 29.1363ZM10.6502 58.7893C9.7086 55.9226 8.66557 53.1764 7.52111 50.5508C6.50296 53.1802 5.54605 55.9264 4.65039 58.7893H10.6502ZM26.4966 58.7893C27.4114 55.9226 28.4066 53.1764 29.4821 50.5508C26.1032 43.8545 21.9714 37.5656 17.1667 31.8059C13.6961 36.992 10.7715 42.5234 8.43974 48.3117C9.97344 51.7267 11.3152 55.2247 12.4588 58.7893H26.4966V58.7893ZM28.3052 58.7893H33.3576C32.4505 56.6651 31.5031 54.5983 30.5156 52.5889C29.7309 54.5868 28.9941 56.6536 28.3052 58.7893V58.7893ZM56.8976 58.7893C56.0823 56.9828 55.2306 55.2221 54.3426 53.5074C53.6001 55.1992 52.9206 56.9598 52.3044 58.7893H56.8976ZM45.9888 40.2167C44.2956 38.0068 42.4744 35.8981 40.5344 33.9014C36.8661 39.0692 33.7941 44.6352 31.3768 50.4933C32.7242 53.1457 33.9968 55.9111 35.1949 58.7893H50.4958C51.3062 56.3317 52.2648 53.9256 53.3666 51.5842C51.2175 47.6089 48.7603 43.8081 46.0175 40.2167H45.9888ZM59.5386 41.6233C60.0783 40.9611 60.5951 40.32 61.0888 39.7C56.6211 36.2092 51.67 33.3857 46.3907 31.3179V31.3179C45.4261 30.916 44.4444 30.5428 43.4339 30.1697C42.8138 30.9351 42.2109 31.7006 41.6253 32.4661C43.6682 34.5814 45.5854 36.8147 47.3668 39.1545C49.9122 42.5071 52.2147 46.0373 54.2565 49.7183C55.7408 46.8623 57.49 44.1521 59.4812 41.6233H59.5386ZM76.0166 57.4688C72.5135 51.1415 67.8937 45.5008 62.3806 40.8195L60.8304 42.7141C58.6629 45.4693 56.7869 48.4419 55.2325 51.5842C56.4727 53.8806 57.6401 56.2919 58.7348 58.818H76.763C76.5333 58.3702 76.2922 57.9281 76.0453 57.4975L76.0166 57.4688ZM41.5966 29.6529C40.1498 29.1937 38.6665 28.7726 37.147 28.3899C38.2302 29.3238 39.2924 30.2902 40.3335 31.2892C40.7526 30.7151 41.1717 30.1926 41.5966 29.6529V29.6529ZM33.3863 27.5861C29.4702 26.8302 25.5103 26.322 21.5302 26.0647C20.382 27.4158 19.2719 28.8415 18.2002 30.3419C22.9025 35.9349 26.9748 42.0285 30.3434 48.5127C32.7663 42.9262 35.7784 37.6143 39.3287 32.667C37.4591 30.8497 35.4845 29.1436 33.415 27.5574L33.3863 27.5861ZM14.2386 26.036C15.1974 27.0178 16.1218 28.0225 17.0232 29.0501C17.7983 27.9995 18.5791 26.9891 19.3772 26.0073C17.6203 26.0073 15.9323 26.0073 14.2099 26.036H14.2386ZM11.8559 26.1222C10.5928 26.191 9.35837 26.2771 8.15267 26.3805C6.39961 26.5183 4.70589 26.7096 3.07149 26.9546C1.8543 28.9066 0.686873 30.9447 -0.430796 33.0689C2.58325 37.2194 5.20679 41.6398 7.40628 46.2736C9.7466 40.7475 12.6316 35.4683 16.0185 30.5141C14.6864 29.0099 13.3085 27.5651 11.8846 26.1796L11.8559 26.1222ZM0.889737 27.3278C-0.867146 27.6302 -2.5513 27.9842 -4.16274 28.3899C-3.26133 29.4175 -2.39437 30.4797 -1.55038 31.5763C-0.758058 30.0548 0.051486 28.6368 0.889737 27.2704V27.3278Z" fill="#C8E7EC"/>
<path d="M145.232 26.8974C145.233 26.7896 145.252 26.6828 145.289 26.5816L79.0615 1.177V59.6793V59.7942C79.063 59.8344 79.0531 59.8742 79.0328 59.909C79.0379 59.9177 79.0405 59.9276 79.0405 59.9377C79.0405 59.9478 79.0379 59.9577 79.0328 59.9664C79.0329 60.0065 79.0231 60.0459 79.0041 60.0812C78.9448 60.1813 78.8669 60.269 78.7745 60.3396C78.722 60.3773 78.6639 60.4064 78.6022 60.4257L78.4013 60.4831H78.3151H-5.71094V71.5061H78.2003C78.4269 71.5119 78.6426 71.6045 78.8029 71.7648C78.9631 71.9251 79.0557 72.1407 79.0615 72.3673V116.689C79.0557 116.916 78.9631 117.131 78.8029 117.292C78.6426 117.452 78.4269 117.544 78.2003 117.55H-5.71094V153.203H93.4152V90.5668C93.4496 89.2807 93.5357 88.0464 93.6735 86.8637C94.3166 81.2374 96.0677 76.788 98.9269 73.5155C100.998 71.1931 103.626 69.4349 106.563 68.4059C108.536 67.7499 110.599 67.4014 112.678 67.3725C114.648 67.3592 116.607 67.6695 118.477 68.2911C121.451 69.2841 124.127 71.012 126.256 73.3146C129.234 76.61 131.052 81.136 131.711 86.8924C131.848 88.0751 131.935 89.3094 131.969 90.5955V153.203H145.232V26.8974Z" fill="#F04B4A"/>
<path d="M131.71 86.8923H93.6724C93.5346 88.075 93.4485 89.3094 93.4141 90.5954V154.064H131.968V90.5667C131.933 89.2654 131.847 88.0406 131.71 86.8923Z" fill="white"/>
<path d="M126.255 73.2858L112.676 86.8923H131.709C131.054 81.1511 129.236 76.6252 126.255 73.3145V73.2858ZM112.676 86.8923L126.255 73.2858C124.126 70.9832 121.45 69.2553 118.475 68.2622C116.605 67.6407 114.646 67.3303 112.676 67.3437V86.8636V86.8923ZM98.9253 73.5154C96.0661 76.7879 94.3149 81.2373 93.6719 86.8636H112.676L98.9253 73.5154ZM106.561 68.4058C103.624 69.4348 100.997 71.193 98.9253 73.5154L112.676 86.8923V67.3724C110.597 67.4012 108.535 67.7498 106.561 68.4058V68.4058Z" fill="#C8E7EC"/>
<path d="M131.966 154.925H93.412C93.1836 154.925 92.9645 154.834 92.803 154.673C92.6415 154.511 92.5508 154.292 92.5508 154.064V90.5669C92.591 89.2407 92.6771 87.9719 92.8149 86.7777C93.4752 81.0021 95.3124 76.3575 98.275 72.9989C100.441 70.5703 103.186 68.7295 106.256 67.6482C108.32 66.9522 110.479 66.5803 112.657 66.5459H112.847C114.851 66.5486 116.842 66.8743 118.743 67.5104C121.857 68.5449 124.657 70.3547 126.879 72.7693C129.968 76.1738 131.874 80.8931 132.546 86.795C132.684 87.9891 132.77 89.2579 132.81 90.5612V154.064C132.81 154.289 132.722 154.506 132.564 154.667C132.406 154.828 132.191 154.921 131.966 154.925V154.925ZM94.2732 153.203H131.105V90.5669C131.105 89.6024 131.019 88.6493 130.932 87.725H94.4455C94.3593 88.6493 94.3019 89.6081 94.2732 90.5956V153.203ZM114.753 86.0314H130.731C130.065 81.3179 128.55 77.4828 126.207 74.595L114.753 86.0314ZM94.6579 86.0314H110.562L99.0042 74.8132C96.742 77.6436 95.2952 81.4098 94.6464 86.0027L94.6579 86.0314ZM100.141 73.5099L111.825 84.8544V68.251C110.129 68.3571 108.453 68.6832 106.841 69.2213C104.31 70.1151 102.016 71.5717 100.129 73.4812L100.141 73.5099ZM113.547 68.2625V84.8143L125.059 73.3319C123.125 71.4126 120.775 69.963 118.192 69.095C116.688 68.5894 115.121 68.2994 113.536 68.2338L113.547 68.2625Z" fill="#022782"/>
<path d="M-5.51172 154.925V220.575C66.8305 220.193 123.441 221.475 164.32 224.422C206.539 227.541 230.624 235.292 236.576 247.674C239.715 257.759 235.227 266.007 223.113 272.418C214.309 276.858 201.592 279.326 184.961 279.824H-5.51172V409H423.776C476.751 408.292 511.467 396.752 527.926 374.381C532.41 368.746 535.614 362.203 537.313 355.205C539.093 348.01 539.811 341.666 539.467 336.173C539.122 330.681 537.61 324.605 534.931 317.945C532.251 311.285 530.854 307.803 530.74 307.496C529.716 304.4 529.316 301.132 529.563 297.88C529.846 294.263 530.769 290.725 532.29 287.431C533.882 283.872 537.978 276.896 544.576 266.504C556.959 245.128 557.141 224.47 545.122 204.529C531.744 184.741 506.128 174.33 468.273 173.297L417.346 172.436C404.615 172.191 394.089 169.406 385.768 164.082C379.566 158.727 371.807 155.506 363.635 154.896L-5.51172 154.925Z" fill="#C8E7EC"/>
<path d="M59.7965 199.132C58.9194 199.817 58.0853 200.555 57.299 201.343C52.6272 206.035 49.8439 212.281 49.4786 218.892C49.1134 225.503 51.1917 232.018 55.3182 237.196C53.6189 240.712 52.7544 244.573 52.7919 248.477C52.7919 256.171 55.7871 262.735 61.7773 268.17C67.7676 273.604 75.0209 276.332 83.5374 276.351C92.0194 276.351 99.2632 273.633 105.269 268.198C107.602 266.107 109.571 263.643 111.096 260.907C115.12 260.176 118.802 258.174 121.603 255.195C125.361 251.264 127.459 246.036 127.459 240.598C127.459 235.16 125.361 229.931 121.603 226.001C121.316 225.714 121.029 225.427 120.742 225.168C120.627 216.863 118.005 209.763 112.876 203.869C111.354 202.085 109.618 200.494 107.709 199.132C90.5535 188.121 74.5827 188.121 59.7965 199.132Z" fill="#7CCAEF"/>
<path d="M274.871 100.24C278.698 88.9112 278.698 78.5963 274.871 69.2956C268.877 52.4549 255.566 43.3073 234.939 41.8529C214.74 41.7725 201.315 50.0206 194.663 66.5973C190.442 70.3295 187.141 74.986 185.017 80.2038C183.014 84.9267 181.97 90.0007 181.945 95.1308C181.945 102.479 183.783 108.986 187.457 114.651C187.882 115.311 188.324 115.942 188.778 116.545C191.143 119.711 194.096 122.392 197.476 124.439C201.514 135.684 208.739 143.473 219.15 147.806C225.198 150.447 231.791 151.193 238.929 150.045C246.489 147.634 252.489 143.873 256.929 138.764C264.048 130.343 267.388 121.023 266.947 110.804C270.225 107.809 272.913 104.226 274.871 100.24V100.24Z" fill="#7CCAEF"/>
<path d="M233.079 223.365H240.75L230.094 137.713C229.401 132.921 227.82 130.665 225.351 130.944L233.062 223.377L233.079 223.365ZM230.145 112.153L229.818 116.832L222.285 102.009L220.207 102.583L224.743 115.282L220.391 113.721V115.742L224.375 119.02L225.351 130.944C227.805 130.661 229.38 132.917 230.077 137.713L240.733 223.365H246.79L230.145 112.153ZM236.501 118.693C234.806 119.42 234.189 121.387 234.653 124.595L251.986 223.388H257.153L236.484 118.693H236.501ZM233.32 92.6909H231.5L230.145 112.153L246.796 223.388H251.963L234.653 124.572C234.193 121.36 234.809 119.393 236.501 118.67L235.514 113.675H235.646L240.268 110.276L239.946 108.737L233.964 111.78L233.32 92.6909Z" fill="white"/>
<path d="M257.168 223.945H233.054C232.91 223.946 232.77 223.892 232.664 223.794C232.557 223.696 232.492 223.561 232.48 223.417L223.822 119.261L220.021 116.132C219.956 116.078 219.904 116.011 219.869 115.934C219.833 115.858 219.814 115.775 219.815 115.69V113.669C219.814 113.577 219.836 113.487 219.878 113.405C219.92 113.323 219.981 113.252 220.056 113.199C220.131 113.146 220.218 113.113 220.309 113.101C220.399 113.089 220.492 113.099 220.578 113.13L223.793 114.278L219.665 102.721C219.639 102.646 219.628 102.567 219.634 102.488C219.64 102.409 219.663 102.332 219.7 102.262C219.737 102.191 219.788 102.13 219.85 102.08C219.913 102.031 219.985 101.995 220.061 101.975L222.134 101.429C222.261 101.395 222.396 101.406 222.516 101.459C222.636 101.512 222.734 101.605 222.794 101.722L229.368 114.703L229.552 112.096L230.924 92.6338C230.934 92.4886 230.999 92.3527 231.106 92.2535C231.213 92.1544 231.353 92.0995 231.498 92.0999H233.318C233.471 92.0999 233.617 92.1604 233.724 92.268C233.832 92.3757 233.893 92.5217 233.893 92.674L234.467 110.885L239.634 108.227C239.712 108.187 239.799 108.166 239.886 108.165C239.974 108.163 240.061 108.182 240.14 108.22C240.22 108.258 240.289 108.313 240.344 108.382C240.398 108.451 240.436 108.531 240.455 108.617L240.782 110.156C240.803 110.263 240.794 110.374 240.754 110.475C240.714 110.577 240.646 110.665 240.558 110.73L236.115 114.002L237.016 118.595L257.685 223.291C257.702 223.374 257.699 223.46 257.678 223.543C257.658 223.625 257.619 223.702 257.565 223.768C257.461 223.876 257.319 223.94 257.168 223.945ZM252.001 222.797H256.485L235.937 118.785L234.949 113.79C234.934 113.716 234.934 113.639 234.949 113.565C234.963 113.49 234.992 113.42 235.035 113.357C235.077 113.294 235.131 113.24 235.194 113.198C235.257 113.156 235.328 113.127 235.403 113.112V113.112L239.623 110.007L239.531 109.564L234.203 112.297C234.115 112.348 234.016 112.374 233.916 112.374C233.815 112.374 233.716 112.348 233.628 112.297C233.545 112.248 233.476 112.178 233.427 112.095C233.377 112.012 233.35 111.917 233.347 111.821L232.773 93.2596H232.038L230.706 112.205L230.379 116.879C230.37 117.004 230.32 117.123 230.237 117.217C230.154 117.312 230.043 117.376 229.919 117.401C229.797 117.426 229.669 117.411 229.556 117.357C229.443 117.303 229.351 117.214 229.294 117.103L221.968 102.692L220.946 102.962L225.28 115.024C225.312 115.123 225.317 115.228 225.294 115.33C225.27 115.431 225.22 115.524 225.148 115.598C225.074 115.67 224.981 115.72 224.88 115.744C224.778 115.767 224.673 115.762 224.574 115.73L220.992 114.444V115.38L224.764 118.486C224.823 118.535 224.872 118.595 224.907 118.663C224.943 118.731 224.964 118.806 224.97 118.882L233.634 222.757L252.001 222.797Z" fill="#022782"/>
<path d="M251.986 223.802C251.885 223.801 251.787 223.765 251.71 223.7C251.632 223.635 251.58 223.545 251.561 223.446L234.228 124.646C233.74 121.242 234.446 119.106 236.329 118.296C236.381 118.274 236.437 118.262 236.494 118.261C236.551 118.26 236.607 118.27 236.66 118.291C236.713 118.311 236.761 118.342 236.802 118.382C236.842 118.421 236.875 118.468 236.898 118.52C236.92 118.572 236.932 118.628 236.933 118.685C236.934 118.742 236.924 118.798 236.903 118.851C236.883 118.904 236.852 118.952 236.812 118.993C236.773 119.033 236.726 119.066 236.674 119.089C235.192 119.726 234.653 121.552 235.078 124.526L252.411 223.314C252.429 223.426 252.403 223.541 252.338 223.635C252.272 223.728 252.173 223.792 252.061 223.813L251.986 223.802ZM246.819 223.802C246.716 223.8 246.617 223.763 246.539 223.695C246.462 223.628 246.41 223.536 246.394 223.434L229.744 112.194C229.727 112.081 229.756 111.966 229.824 111.875C229.892 111.783 229.993 111.723 230.105 111.706C230.219 111.689 230.334 111.718 230.426 111.785C230.519 111.853 230.581 111.954 230.599 112.067L247.249 223.308C247.258 223.364 247.256 223.421 247.243 223.476C247.229 223.531 247.205 223.582 247.171 223.628C247.138 223.673 247.095 223.712 247.046 223.74C246.998 223.769 246.944 223.788 246.888 223.796L246.819 223.802ZM240.762 223.802C240.657 223.801 240.556 223.762 240.478 223.692C240.399 223.623 240.349 223.527 240.337 223.423L229.669 137.77C229.015 133.281 227.585 131.122 225.42 131.375C225.307 131.386 225.194 131.353 225.105 131.282C225.016 131.211 224.958 131.109 224.944 130.996C224.938 130.938 224.943 130.879 224.961 130.823C224.978 130.767 225.007 130.716 225.045 130.672C225.083 130.627 225.13 130.592 225.183 130.566C225.236 130.541 225.293 130.527 225.352 130.525C228.062 130.209 229.813 132.609 230.553 137.656L241.209 223.319C241.217 223.375 241.213 223.433 241.198 223.487C241.183 223.542 241.158 223.593 241.123 223.638C241.088 223.683 241.045 223.72 240.996 223.748C240.947 223.776 240.892 223.794 240.836 223.802H240.762Z" fill="#112782"/>
<path d="M44.8353 87.2256C43.3662 87.3479 41.921 87.6725 40.5407 88.1901C39.1106 88.7414 37.7773 89.5165 36.5906 90.4866C35.0321 91.7038 33.7812 93.2699 32.9385 95.0588C32.0959 96.8477 31.685 98.8095 31.7391 100.786L34.9313 101.665C33.9897 105.787 35.0462 109.492 38.1006 112.779C38.1006 112.923 38.0375 113.067 38.003 113.21C35.2892 125.998 37.6451 134.167 45.0707 137.719C50.2266 139.989 55.0111 139.941 59.4244 137.576C62.0746 136.159 64.3688 134.16 66.1341 131.729C67.8995 129.297 69.0898 126.497 69.6154 123.538C70.6489 118.563 69.9944 114.318 67.6518 110.805C67.7724 110.46 67.8815 110.104 67.9791 109.742C68.2487 108.724 68.4198 107.682 68.4901 106.631C68.4901 105.781 68.5303 105.356 68.5303 105.339C68.5303 100.976 66.961 97.4755 63.8223 94.8384C61.2954 92.655 58.0616 91.4635 54.7221 91.4855C53.9566 90.5784 52.5308 89.6024 50.4447 88.5576C48.7323 87.608 46.7919 87.1472 44.8353 87.2256V87.2256Z" fill="#7CCAEF"/>
<path d="M49.3191 123.865L40.9653 115.598L39.817 118.268L46.1613 130.008L37.0898 190.032H41.2811L49.3191 123.865V123.865ZM52.8501 136.84C50.9746 137.223 49.7976 140.275 49.3191 145.997L45.5011 190.061H49.3191L52.8501 136.84V136.84ZM56.0079 115.512L54.917 114.967L50.6971 125.243L49.3191 123.894L41.2811 190.061H45.5011L49.3191 145.969C49.7976 140.266 50.9746 137.223 52.8501 136.84L53.3381 129.52L64.333 124.066L63.8737 122.775L53.2233 126.793L56.0079 115.512Z" fill="white"/>
<path d="M49.3177 190.606H37.0885C37.0052 190.607 36.9228 190.59 36.8469 190.556C36.7709 190.522 36.7033 190.472 36.6487 190.409C36.5941 190.346 36.5538 190.272 36.5306 190.192C36.5074 190.112 36.5018 190.028 36.5143 189.946L45.5628 130.112L39.3276 118.543C39.2891 118.465 39.2691 118.378 39.2691 118.291C39.2691 118.203 39.2891 118.117 39.3276 118.038L40.4759 115.368C40.5133 115.283 40.5709 115.208 40.6437 115.15C40.7166 115.091 40.8025 115.052 40.8941 115.034C40.9857 115.017 41.0801 115.022 41.1693 115.049C41.2585 115.076 41.3398 115.125 41.406 115.19L50.489 124.21L54.3702 114.754C54.4129 114.622 54.5002 114.508 54.6171 114.432C54.7013 114.377 54.7987 114.344 54.8996 114.338C55.0004 114.332 55.101 114.353 55.1912 114.398L56.2706 114.972C56.3122 114.992 56.3508 115.017 56.3855 115.047C56.4481 115.103 56.4989 115.171 56.5347 115.248C56.5701 115.325 56.5877 115.41 56.5864 115.495C56.5919 115.54 56.5919 115.587 56.5864 115.632L54.0659 125.869L63.6886 122.212C63.7594 122.182 63.8356 122.166 63.9125 122.166C63.9894 122.166 64.0656 122.182 64.1364 122.212C64.2059 122.244 64.2682 122.291 64.3195 122.348C64.3707 122.405 64.41 122.472 64.435 122.545L64.8943 123.836C64.9411 123.969 64.9378 124.114 64.8849 124.244C64.832 124.374 64.7332 124.48 64.6072 124.543L53.9109 129.848L53.4229 136.84L49.8919 190.061C49.8845 190.208 49.8208 190.347 49.7139 190.448C49.607 190.55 49.4652 190.606 49.3177 190.606ZM45.4997 189.458H48.778L52.2746 136.771L52.7626 129.451C52.7696 129.351 52.803 129.254 52.8594 129.17C52.9159 129.086 52.9934 129.019 53.0841 128.975L63.6197 123.75L63.5278 123.492L53.4286 127.327C53.3324 127.363 53.2284 127.372 53.1274 127.354C53.0265 127.336 52.9322 127.291 52.8545 127.224C52.7746 127.154 52.7158 127.063 52.6843 126.962C52.6529 126.861 52.6502 126.752 52.6765 126.65L55.352 115.776L55.2257 115.713L51.2067 125.427C51.1705 125.513 51.1138 125.589 51.0415 125.649C50.9692 125.708 50.8834 125.749 50.7917 125.768C50.7 125.786 50.6052 125.782 50.5154 125.756C50.4256 125.729 50.3436 125.682 50.2766 125.616L48.8986 124.267L41.1477 116.591L40.4759 118.239L46.6882 129.721C46.7456 129.832 46.7676 129.959 46.7513 130.083L37.7774 189.446L45.4997 189.458Z" fill="#022782"/>
<path d="M41.2799 190.463H41.2283C41.1723 190.456 41.1182 190.439 41.069 190.411C41.0199 190.384 40.9767 190.347 40.9419 190.303C40.9072 190.258 40.8816 190.207 40.8667 190.153C40.8518 190.099 40.8478 190.042 40.8551 189.986L48.8931 123.819C48.8937 123.759 48.9072 123.699 48.9325 123.644C48.9578 123.589 48.9944 123.54 49.0399 123.5C49.0854 123.46 49.1389 123.431 49.1967 123.413C49.2546 123.395 49.3156 123.389 49.3757 123.397C49.4358 123.404 49.4936 123.424 49.5455 123.455C49.5974 123.486 49.6421 123.528 49.6768 123.578C49.7114 123.627 49.7352 123.684 49.7466 123.743C49.758 123.803 49.7567 123.864 49.7428 123.923L41.7048 190.09C41.6909 190.193 41.6403 190.287 41.5622 190.356C41.4841 190.424 41.3839 190.462 41.2799 190.463V190.463ZM45.4999 190.463H45.4654C45.3517 190.453 45.2465 190.398 45.1724 190.311C45.0983 190.224 45.0613 190.112 45.0693 189.998L48.8873 145.934C49.3869 139.964 50.6557 136.84 52.7571 136.393C52.8641 136.378 52.9725 136.405 53.0608 136.467C53.1491 136.529 53.211 136.622 53.2341 136.727C53.2572 136.833 53.2399 136.943 53.1856 137.036C53.1313 137.129 53.0439 137.199 52.9408 137.231C51.7925 137.478 50.317 139.2 49.7486 146.003L45.9305 190.067C45.9218 190.175 45.8726 190.276 45.7928 190.349C45.713 190.422 45.6084 190.463 45.4999 190.463Z" fill="#112782"/>
<path d="M14.4396 79.5151C6.50105 79.8404 -0.312139 81.9742 -6 85.9164V159.489C-1.94654 164.235 3.34516 167.144 9.8751 168.216L18.6021 168.474C30.8888 165.374 38.4292 158.58 41.2234 148.093C46.0309 145.911 49.1313 142.553 50.5246 138.017C52.0556 132.697 51.3571 127.942 48.4289 123.751C53.6536 116.804 53.6536 110.852 48.4289 105.896C44.1803 87.9832 32.8505 79.1897 14.4396 79.5151Z" fill="#0980EA"/>
<path d="M12.5738 143.299C12.4016 138.706 11.4159 135.692 9.61696 134.257V206.596H14.4398L12.5738 143.299ZM13.9805 107.561L12.6599 107.388L10.4782 128.401L-0.545401 119.818L-1.23438 121.799L9.61696 131.386V134.257C11.4159 135.692 12.4016 138.706 12.5738 143.299L14.4398 206.624H19.2626L13.9805 128.803V107.561ZM33.7885 119.043L32.9847 117.378L13.9805 128.86L19.2626 206.682H22.4491L18.1143 158.657L28.1618 151.567L27.5877 149.729L17.8272 155.241L15.6742 131.559L33.7885 119.043Z" fill="white"/>
<path d="M22.4471 207.198H9.61495C9.46268 207.198 9.31664 207.138 9.20897 207.03C9.10129 206.923 9.0408 206.777 9.0408 206.624V131.674L-1.61532 122.229C-1.7007 122.154 -1.76159 122.054 -1.79022 121.944C-1.81885 121.833 -1.81393 121.717 -1.77609 121.609L-1.08711 119.617C-1.05717 119.531 -1.00719 119.453 -0.941301 119.391C-0.875411 119.328 -0.795502 119.281 -0.708175 119.255C-0.621332 119.23 -0.529787 119.226 -0.440992 119.243C-0.352197 119.26 -0.268663 119.298 -0.197187 119.353L10.0111 127.31L12.0895 107.331C12.0972 107.255 12.1199 107.181 12.1564 107.114C12.1929 107.047 12.2424 106.988 12.3019 106.941C12.362 106.893 12.4311 106.857 12.505 106.837C12.579 106.816 12.6564 106.81 12.7326 106.82L14.0531 106.992C14.1921 107.011 14.3196 107.079 14.4116 107.185C14.5036 107.29 14.5538 107.426 14.5526 107.566V127.792L32.6841 116.884C32.7532 116.843 32.8304 116.816 32.9105 116.806C32.9906 116.796 33.0719 116.803 33.1491 116.827C33.2255 116.85 33.2961 116.89 33.3564 116.942C33.4167 116.994 33.4654 117.059 33.4994 117.131L34.3032 118.796C34.3617 118.919 34.3747 119.058 34.34 119.19C34.3053 119.321 34.2251 119.436 34.1137 119.514L16.275 131.84L18.2903 154.305L27.3043 149.23C27.3789 149.188 27.4619 149.163 27.5473 149.157C27.6328 149.151 27.7185 149.164 27.7981 149.196C27.8769 149.227 27.9477 149.276 28.0053 149.339C28.0629 149.401 28.1059 149.476 28.1311 149.557L28.7053 151.394C28.7426 151.51 28.7421 151.635 28.7039 151.751C28.6658 151.866 28.5918 151.967 28.4928 152.037L18.7324 158.927L23.0385 206.578C23.0456 206.658 23.0361 206.738 23.0105 206.814C22.9849 206.89 22.9438 206.959 22.8897 207.018C22.8357 207.077 22.7699 207.124 22.6966 207.156C22.6234 207.188 22.5443 207.204 22.4643 207.204L22.4471 207.198ZM19.2606 206.05H21.8213L17.5381 158.709C17.5288 158.608 17.5462 158.507 17.5885 158.415C17.6309 158.323 17.6967 158.244 17.7793 158.186L27.4881 151.337L27.2699 150.579L18.0836 155.746C17.9963 155.797 17.8973 155.823 17.7965 155.823C17.6957 155.823 17.5967 155.797 17.5094 155.746C17.425 155.702 17.353 155.637 17.2999 155.558C17.2468 155.479 17.2142 155.388 17.2051 155.293L15.0808 131.61C15.0721 131.509 15.0904 131.408 15.1337 131.316C15.1771 131.224 15.244 131.145 15.3277 131.088L33.0401 118.819L32.7243 118.165L14.2827 129.291C14.2353 129.321 14.1828 129.343 14.1277 129.354C14.0615 129.368 13.993 129.368 13.9268 129.354C13.8458 129.346 13.7675 129.32 13.6971 129.279C13.5652 129.205 13.4682 129.081 13.4273 128.935C13.4192 128.88 13.4192 128.824 13.4273 128.768V108.043L13.1919 108.008L11.0675 128.435C11.0574 128.538 11.0201 128.635 10.9595 128.718C10.899 128.801 10.8173 128.866 10.723 128.906C10.6293 128.946 10.5268 128.96 10.4259 128.947C10.325 128.934 10.2294 128.894 10.1489 128.832L-0.28905 120.765L-0.587606 121.621L9.97092 130.956C10.0322 131.01 10.0812 131.076 10.1149 131.15C10.1486 131.224 10.166 131.305 10.1661 131.386V206.021L19.2606 206.05Z" fill="#022782"/>
<path d="M19.2623 207.055C19.1529 207.055 19.0475 207.013 18.9675 206.939C18.8876 206.864 18.839 206.762 18.8317 206.653L13.5496 128.831C13.542 128.717 13.58 128.605 13.6554 128.518C13.7308 128.432 13.8373 128.38 13.9515 128.372C14.0657 128.364 14.1782 128.403 14.2644 128.478C14.3505 128.553 14.4032 128.66 14.4108 128.774L19.6929 206.595C19.6993 206.709 19.6608 206.821 19.5856 206.907C19.5105 206.993 19.4048 207.046 19.291 207.055H19.2623ZM14.4395 207.055C14.3273 207.055 14.2194 207.011 14.139 206.933C14.0586 206.854 14.0119 206.748 14.0089 206.635L12.1429 143.311C11.9764 138.873 11.0348 135.939 9.34684 134.595C9.30235 134.56 9.26528 134.516 9.23774 134.466C9.21021 134.417 9.19274 134.362 9.18634 134.305C9.17995 134.249 9.18474 134.192 9.20046 134.137C9.21617 134.082 9.2425 134.031 9.27794 133.987C9.31337 133.942 9.35723 133.905 9.40699 133.878C9.45675 133.85 9.51145 133.833 9.56797 133.826C9.62448 133.82 9.6817 133.825 9.73636 133.841C9.79102 133.856 9.84205 133.883 9.88653 133.918C11.8042 135.451 12.8262 138.511 13.0041 143.282L14.8701 206.613C14.8716 206.669 14.862 206.725 14.8418 206.778C14.8215 206.831 14.7911 206.879 14.7522 206.92C14.7132 206.961 14.6666 206.994 14.6149 207.017C14.5632 207.04 14.5075 207.053 14.451 207.055H14.4395Z" fill="#112782"/>
<path d="M138.184 186.444H140.113L136.531 200.665H134.493L138.184 186.444ZM191.993 186.444H193.934L190.328 200.665H188.319L191.993 186.444ZM194.433 162.429L198.217 175.059H129.32L126.523 162.429H194.433Z" fill="#112782"/>
<path d="M146.613 186.444H148.56L152.234 200.665H150.196L146.613 186.444ZM202.368 186.444H132.535V182.937H208.42V186.444H202.386H202.368ZM200.439 186.444H202.386L206.06 200.665H204.028L200.439 186.444Z" fill="white"/>
<path d="M206.053 201.107H204.021C203.924 201.107 203.831 201.075 203.755 201.016C203.679 200.956 203.625 200.873 203.602 200.78L200.099 186.886H194.283L190.781 200.78C190.757 200.873 190.703 200.955 190.627 201.014C190.551 201.074 190.458 201.106 190.362 201.107H188.329C188.263 201.106 188.198 201.09 188.139 201.062C188.079 201.033 188.027 200.991 187.985 200.94C187.945 200.888 187.918 200.827 187.905 200.762C187.892 200.698 187.894 200.631 187.91 200.567L191.447 186.886H149.127L152.663 200.567C152.679 200.631 152.68 200.697 152.666 200.762C152.653 200.826 152.624 200.886 152.584 200.938C152.544 200.99 152.492 201.032 152.434 201.061C152.375 201.091 152.31 201.106 152.244 201.107H150.212C150.115 201.107 150.022 201.075 149.946 201.016C149.87 200.956 149.816 200.873 149.793 200.78L146.29 186.886H140.463L136.961 200.78C136.936 200.872 136.881 200.954 136.806 201.013C136.73 201.072 136.637 201.105 136.541 201.107H134.503C134.438 201.107 134.373 201.091 134.315 201.063C134.256 201.034 134.205 200.992 134.165 200.94C134.125 200.888 134.097 200.827 134.084 200.762C134.071 200.698 134.073 200.631 134.09 200.567L137.638 186.886H132.609C132.548 186.894 132.486 186.889 132.428 186.872C132.369 186.854 132.315 186.824 132.268 186.784C132.222 186.744 132.185 186.694 132.16 186.639C132.134 186.583 132.121 186.522 132.121 186.461V182.953C132.121 182.839 132.166 182.73 132.247 182.649C132.327 182.568 132.437 182.523 132.551 182.523H208.43C208.544 182.524 208.653 182.57 208.733 182.65C208.813 182.731 208.859 182.84 208.861 182.953V186.461C208.859 186.575 208.813 186.684 208.733 186.764C208.653 186.844 208.544 186.89 208.43 186.892H202.959L206.495 200.573C206.512 200.637 206.514 200.704 206.5 200.769C206.486 200.834 206.457 200.895 206.415 200.946C206.372 201 206.317 201.042 206.254 201.07C206.191 201.098 206.122 201.111 206.053 201.107V201.107ZM204.331 200.246H205.479L202.034 186.886H200.978L204.331 200.246ZM188.863 200.246H190.012L193.376 186.886H192.337L188.863 200.246ZM150.522 200.246H151.67L148.225 186.886H147.163L150.522 200.246ZM135.02 200.246H136.168L139.539 186.886H138.494L135.02 200.246ZM202.384 186.025H208.005V183.378H132.982V186.025H202.384ZM198.233 175.501H129.336C129.238 175.502 129.142 175.469 129.066 175.407C128.989 175.345 128.937 175.259 128.917 175.163L126.121 162.532C126.106 162.469 126.106 162.404 126.12 162.341C126.134 162.278 126.162 162.219 126.203 162.169C126.243 162.118 126.295 162.078 126.353 162.05C126.411 162.023 126.475 162.009 126.54 162.01H194.461C194.555 162.009 194.646 162.038 194.72 162.094C194.795 162.151 194.849 162.23 194.875 162.32L198.658 174.95C198.677 175.014 198.68 175.082 198.668 175.148C198.657 175.213 198.629 175.276 198.589 175.329C198.548 175.385 198.493 175.43 198.43 175.46C198.367 175.49 198.297 175.504 198.228 175.501H198.233ZM129.669 174.64H197.648L194.128 162.871H127.057L129.669 174.64Z" fill="#112782"/>
<path d="M169.132 172.941C169.135 173.033 169.107 173.123 169.053 173.198C168.999 173.273 168.922 173.328 168.834 173.354C168.617 173.414 168.419 173.529 168.259 173.687H170.883C170.724 173.528 170.526 173.413 170.309 173.354C170.221 173.327 170.145 173.272 170.091 173.197C170.037 173.123 170.009 173.033 170.011 172.941V172.941H169.178H169.132ZM170.958 164.013H168.242V165.977H170.958V164.013Z" fill="#0A80EA"/>
<path d="M168.896 166.12C168.913 166.104 168.926 166.084 168.935 166.062C168.944 166.041 168.948 166.018 168.948 165.994H168.598C168.598 166.018 168.602 166.041 168.611 166.062C168.62 166.084 168.633 166.104 168.649 166.12C168.665 166.137 168.684 166.15 168.704 166.159C168.725 166.168 168.747 166.172 168.77 166.172C168.793 166.173 168.817 166.169 168.839 166.16C168.86 166.151 168.88 166.137 168.896 166.12V166.12ZM169.252 171.77C169.236 171.753 169.216 171.739 169.195 171.73C169.173 171.721 169.149 171.717 169.126 171.718C169.103 171.718 169.081 171.723 169.06 171.732C169.04 171.74 169.021 171.753 169.005 171.77C168.987 171.785 168.972 171.804 168.962 171.826C168.952 171.848 168.947 171.872 168.948 171.896C168.947 171.92 168.952 171.944 168.962 171.966C168.972 171.988 168.987 172.007 169.005 172.022C169.02 172.041 169.04 172.055 169.063 172.063C169.083 172.068 169.105 172.068 169.126 172.063C169.173 172.063 169.218 172.044 169.252 172.01C169.285 171.977 169.304 171.932 169.304 171.885C169.304 171.861 169.299 171.838 169.291 171.816C169.282 171.795 169.269 171.775 169.252 171.758V171.77ZM170.067 171.477C170.05 171.493 170.037 171.513 170.028 171.535C170.019 171.556 170.015 171.58 170.016 171.603C170.016 171.65 170.035 171.696 170.068 171.729C170.101 171.762 170.147 171.781 170.194 171.781C170.217 171.782 170.241 171.778 170.262 171.769C170.284 171.76 170.304 171.747 170.32 171.73C170.337 171.713 170.351 171.694 170.36 171.672C170.366 171.65 170.366 171.626 170.36 171.603C170.36 171.556 170.342 171.511 170.308 171.477C170.275 171.444 170.23 171.425 170.182 171.425C170.159 171.425 170.136 171.43 170.114 171.438C170.092 171.447 170.073 171.46 170.056 171.477H170.067ZM169.218 166.827C169.234 166.844 169.254 166.857 169.275 166.866C169.297 166.875 169.321 166.879 169.344 166.878C169.367 166.878 169.391 166.874 169.412 166.865C169.434 166.856 169.454 166.843 169.47 166.827C169.487 166.81 169.501 166.791 169.51 166.769C169.519 166.747 169.523 166.724 169.522 166.7V166.7C169.518 166.656 169.497 166.615 169.464 166.585C169.431 166.556 169.388 166.539 169.344 166.54C169.309 166.539 169.274 166.55 169.245 166.569C169.215 166.589 169.192 166.617 169.179 166.649C169.165 166.682 169.162 166.718 169.169 166.752C169.176 166.787 169.193 166.819 169.218 166.844V166.827ZM170.366 166.677C170.39 166.678 170.413 166.674 170.435 166.665C170.456 166.656 170.476 166.643 170.492 166.626C170.509 166.61 170.522 166.591 170.531 166.571C170.539 166.55 170.544 166.528 170.544 166.505C170.544 166.458 170.525 166.413 170.492 166.379C170.458 166.346 170.413 166.327 170.366 166.327C170.319 166.327 170.274 166.346 170.24 166.379C170.207 166.413 170.188 166.458 170.188 166.505C170.183 166.528 170.183 166.551 170.188 166.574C170.195 166.594 170.207 166.611 170.223 166.626C170.243 166.641 170.266 166.652 170.291 166.657C170.316 166.662 170.342 166.661 170.366 166.654V166.677Z" fill="#C8E7EC"/>
<path d="M168.947 165.977C168.948 166 168.943 166.024 168.934 166.045C168.925 166.067 168.912 166.087 168.896 166.103C168.88 166.12 168.86 166.134 168.838 166.143C168.816 166.152 168.793 166.156 168.769 166.155C168.747 166.155 168.725 166.15 168.704 166.141C168.683 166.133 168.664 166.12 168.649 166.103C168.632 166.087 168.619 166.067 168.61 166.045C168.602 166.024 168.597 166 168.597 165.977H168.195V171.976C168.253 172.286 168.5 172.493 168.953 172.585H169.131V172.912H169.964V172.585C170.572 172.524 170.888 172.311 170.911 171.948V165.948H168.947V165.977ZM170.492 166.574C170.475 166.591 170.456 166.604 170.434 166.613C170.412 166.622 170.389 166.627 170.366 166.627C170.342 166.627 170.319 166.622 170.297 166.613C170.275 166.604 170.256 166.591 170.239 166.574C170.224 166.56 170.212 166.542 170.205 166.522C170.2 166.5 170.2 166.476 170.205 166.453C170.205 166.406 170.224 166.361 170.257 166.328C170.29 166.294 170.336 166.275 170.383 166.275C170.43 166.275 170.475 166.294 170.509 166.328C170.542 166.361 170.561 166.406 170.561 166.453C170.561 166.476 170.556 166.498 170.547 166.519C170.538 166.54 170.525 166.558 170.509 166.574H170.492ZM169.361 166.844C169.314 166.844 169.268 166.825 169.235 166.792C169.202 166.758 169.183 166.713 169.183 166.666C169.183 166.619 169.202 166.573 169.235 166.54C169.268 166.507 169.314 166.488 169.361 166.488C169.405 166.488 169.448 166.504 169.481 166.534C169.514 166.564 169.535 166.604 169.539 166.649V166.649C169.54 166.672 169.535 166.696 169.527 166.717C169.518 166.739 169.504 166.759 169.487 166.775C169.471 166.791 169.451 166.805 169.429 166.813C169.407 166.822 169.384 166.827 169.361 166.827V166.844ZM170.021 171.552C170.02 171.528 170.024 171.505 170.033 171.483C170.042 171.461 170.056 171.441 170.073 171.425C170.089 171.409 170.109 171.396 170.131 171.387C170.152 171.378 170.176 171.374 170.199 171.374C170.246 171.374 170.292 171.392 170.325 171.426C170.358 171.459 170.377 171.504 170.377 171.552C170.383 171.574 170.383 171.598 170.377 171.62C170.368 171.642 170.354 171.662 170.337 171.678C170.321 171.695 170.301 171.708 170.279 171.717C170.257 171.726 170.234 171.73 170.211 171.73C170.163 171.73 170.118 171.711 170.085 171.677C170.051 171.644 170.033 171.599 170.033 171.552H170.021ZM169.143 171.655C169.166 171.654 169.19 171.658 169.211 171.667C169.233 171.676 169.253 171.69 169.269 171.707C169.285 171.723 169.299 171.743 169.307 171.765C169.316 171.786 169.321 171.809 169.321 171.833C169.321 171.88 169.302 171.925 169.269 171.959C169.235 171.992 169.19 172.011 169.143 172.011C169.122 172.017 169.1 172.017 169.079 172.011C169.057 172.003 169.037 171.989 169.022 171.971C169.003 171.956 168.988 171.936 168.978 171.914C168.968 171.892 168.964 171.868 168.965 171.844C168.964 171.82 168.969 171.797 168.979 171.775C168.989 171.753 169.004 171.734 169.022 171.718C169.054 171.701 169.09 171.695 169.125 171.701L169.143 171.655Z" fill="#FDF6BA"/>
<path d="M164.665 196.376H159.928V197.783H166.703L164.665 196.376ZM154.158 197.18L154.043 198.816H160.416L158.607 197.18H154.158ZM148.244 154.466C148.108 154.35 147.934 154.289 147.756 154.293C147.626 154.297 147.497 154.326 147.379 154.38C147.261 154.435 147.154 154.513 147.067 154.609C146.962 154.736 146.866 154.871 146.78 155.011C146.643 154.856 146.477 154.729 146.292 154.638C146.099 154.566 145.895 154.527 145.689 154.523C145.305 154.515 144.933 154.66 144.656 154.925C144.376 155.221 144.213 155.609 144.196 156.016H144.139C143.828 156.011 143.524 156.113 143.278 156.303C143.131 156.413 143.013 156.556 142.933 156.721C142.853 156.886 142.814 157.067 142.818 157.25C142.815 157.448 142.854 157.643 142.933 157.824C142.987 157.953 143.065 158.07 143.163 158.169C143.056 158.255 142.968 158.363 142.904 158.485C142.778 158.743 142.719 159.029 142.732 159.317C142.738 159.702 142.869 160.075 143.105 160.379C143.275 160.568 143.494 160.707 143.737 160.781C143.868 161.41 144.177 161.988 144.627 162.446C144.738 162.574 144.864 162.689 145 162.79L145.431 161.068C145.246 161.052 145.073 160.97 144.943 160.838C144.861 160.78 144.795 160.702 144.75 160.612C144.705 160.522 144.682 160.422 144.684 160.322C144.681 160.224 144.7 160.126 144.739 160.037C144.779 159.947 144.839 159.868 144.914 159.805C145.078 159.654 145.294 159.572 145.517 159.575C145.606 159.572 145.695 159.592 145.775 159.633L146.349 157.336H148.531C148.581 157.567 148.714 157.771 148.904 157.91C149.097 158.018 149.316 158.068 149.536 158.054C149.666 158.058 149.795 158.028 149.911 157.968C150.026 157.907 150.125 157.818 150.196 157.709C150.335 157.551 150.407 157.346 150.397 157.135C150.4 156.953 150.35 156.773 150.254 156.619C150.22 156.551 150.171 156.492 150.11 156.446C150.113 156.397 150.123 156.349 150.139 156.303C150.139 156.113 150.167 156.004 150.167 155.987C150.156 155.755 150.059 155.535 149.894 155.37C149.73 155.206 149.51 155.108 149.277 155.097C149.055 155.095 148.836 155.155 148.646 155.269H148.617C148.613 155.117 148.578 154.967 148.514 154.829C148.45 154.691 148.358 154.567 148.244 154.466V154.466Z" fill="#022782"/>
<path d="M158.78 178.751C158.976 178.753 159.168 178.801 159.343 178.891C159.517 178.981 159.668 179.11 159.784 179.267C159.93 179.662 159.96 180.091 159.871 180.502L159.182 189.63L159.928 196.376H164.665L162.311 179.468C162.282 179.001 162.165 178.543 161.966 178.119C161.85 177.961 161.699 177.833 161.524 177.743C161.35 177.653 161.157 177.605 160.961 177.603H157.804L156.081 178.751H158.78V178.751ZM155.392 182.511L154.158 197.18H158.607L159.182 189.63L159.871 180.502C159.96 180.091 159.93 179.662 159.784 179.267C159.668 179.11 159.517 178.981 159.343 178.891C159.168 178.801 158.976 178.753 158.78 178.751H146.148L146.981 182.195C147.036 182.313 147.127 182.409 147.24 182.471C147.354 182.533 147.484 182.557 147.613 182.54L155.392 182.511Z" fill="#7CCAEF"/>
<path d="M154.759 175.105L152.089 171.89L152.921 175.163L153.61 175.852L154.759 175.105V175.105ZM145.601 163.164V163.738C146.577 164.12 147.362 164.12 147.955 163.738V163.336C147.639 163.434 147.31 163.482 146.979 163.479C146.501 163.485 146.029 163.377 145.601 163.164V163.164ZM144.223 165.23C143.324 165.303 143.008 165.973 143.276 167.24L146.147 178.722H152.29L148.845 175.364L144.74 171.402L148.845 175.364L150.74 172.981L145.257 167.556L150.74 172.981L152.921 175.134L152.089 171.861L150.797 166.723C150.608 165.747 150.223 165.242 149.649 165.202H147.984C147.63 165.42 147.223 165.536 146.807 165.536C146.391 165.536 145.984 165.42 145.63 165.202L144.223 165.23Z" fill="#10204F"/>
<path d="M147.958 163.738C147.369 164.12 146.584 164.12 145.604 163.738V165.23C145.958 165.449 146.365 165.565 146.781 165.565C147.197 165.565 147.604 165.449 147.958 165.23V163.738ZM149.508 157.996C149.288 158.01 149.069 157.96 148.877 157.853C148.686 157.714 148.553 157.509 148.503 157.279H146.322L145.748 159.575C145.668 159.535 145.579 159.515 145.489 159.518C145.266 159.515 145.051 159.597 144.886 159.748C144.811 159.81 144.751 159.89 144.712 159.979C144.672 160.069 144.653 160.166 144.657 160.264C144.655 160.365 144.677 160.464 144.722 160.554C144.767 160.645 144.833 160.722 144.915 160.781C145.045 160.913 145.218 160.994 145.403 161.011L144.972 162.733C145.16 162.886 145.362 163.02 145.575 163.135C146.003 163.348 146.475 163.456 146.953 163.451C147.284 163.454 147.613 163.405 147.929 163.307C148.45 163.121 148.914 162.805 149.279 162.388C149.627 162.008 149.891 161.558 150.054 161.068C150.151 160.722 150.209 160.365 150.226 160.006V159.834C150.227 159.66 150.207 159.486 150.168 159.317C150.115 158.83 149.958 158.36 149.709 157.939C149.634 157.957 149.557 157.967 149.48 157.968L149.508 157.996ZM168.168 167.498V165.891H167.364L167.02 167.068L154.733 175.105L153.585 175.851L152.896 175.163L150.714 173.01L148.819 175.392L152.264 178.751H156.053L157.776 177.603L166.56 171.804H170.579C170.981 171.804 171.182 171.586 171.182 171.144V171.029V169.938V168.79V167.527L168.168 167.498Z" fill="#FED12A"/>
<path d="M154.159 197.324C154.14 197.322 154.122 197.317 154.105 197.308C154.089 197.3 154.074 197.288 154.062 197.273C154.05 197.259 154.042 197.242 154.037 197.224C154.031 197.206 154.03 197.187 154.032 197.169L155.25 182.5C155.25 182.462 155.265 182.425 155.292 182.399C155.319 182.372 155.355 182.356 155.393 182.356C155.431 182.356 155.468 182.372 155.495 182.399C155.522 182.425 155.537 182.462 155.537 182.5L154.314 197.169C154.315 197.189 154.313 197.21 154.305 197.23C154.298 197.25 154.287 197.267 154.272 197.282C154.257 197.297 154.24 197.308 154.22 197.315C154.2 197.323 154.179 197.325 154.159 197.324ZM158.591 197.324C158.572 197.322 158.554 197.317 158.537 197.308C158.52 197.3 158.505 197.288 158.493 197.274C158.481 197.259 158.471 197.242 158.465 197.224C158.46 197.206 158.457 197.187 158.459 197.169L159.722 180.519C159.797 179.618 159.722 179.428 159.67 179.371C159.566 179.23 159.43 179.114 159.274 179.034C159.118 178.953 158.945 178.909 158.769 178.906H156.076C156.038 178.906 156.002 178.891 155.975 178.864C155.948 178.837 155.933 178.801 155.933 178.763C155.933 178.724 155.948 178.688 155.975 178.661C156.002 178.634 156.038 178.619 156.076 178.619H158.775C158.993 178.623 159.207 178.676 159.401 178.776C159.596 178.875 159.764 179.018 159.894 179.193C159.986 179.302 160.09 179.555 160.009 180.525L158.746 197.174C158.747 197.193 158.744 197.212 158.737 197.23C158.731 197.247 158.721 197.264 158.708 197.278C158.695 197.291 158.68 197.303 158.663 197.311C158.646 197.318 158.627 197.323 158.608 197.324H158.591ZM170.591 171.948H166.572C166.534 171.948 166.497 171.933 166.47 171.906C166.443 171.879 166.428 171.842 166.428 171.804C166.428 171.766 166.443 171.73 166.47 171.703C166.497 171.676 166.534 171.661 166.572 171.661H170.591C170.906 171.661 171.044 171.517 171.05 171.173H169.201C169.163 171.173 169.127 171.158 169.1 171.131C169.073 171.104 169.058 171.067 169.058 171.029C169.058 170.991 169.073 170.955 169.1 170.928C169.127 170.901 169.163 170.886 169.201 170.886H171.067V170.082H169.201C169.163 170.082 169.127 170.067 169.1 170.04C169.073 170.013 169.058 169.976 169.058 169.938C169.058 169.9 169.073 169.864 169.1 169.837C169.127 169.81 169.163 169.795 169.201 169.795H171.067V168.934H169.23C169.192 168.934 169.155 168.919 169.128 168.892C169.102 168.865 169.086 168.828 169.086 168.79C169.086 168.752 169.102 168.716 169.128 168.689C169.155 168.662 169.192 168.647 169.23 168.647H171.067V167.671H167.823C167.785 167.671 167.749 167.655 167.722 167.629C167.695 167.602 167.68 167.565 167.68 167.527C167.68 167.489 167.695 167.452 167.722 167.426C167.749 167.399 167.785 167.384 167.823 167.384H171.211C171.249 167.384 171.285 167.399 171.312 167.426C171.339 167.452 171.354 167.489 171.354 167.527V171.144C171.37 171.248 171.362 171.355 171.331 171.456C171.3 171.556 171.247 171.649 171.175 171.726C171.103 171.803 171.015 171.863 170.917 171.902C170.819 171.94 170.713 171.956 170.608 171.948H170.591Z" fill="#10204F"/>
<path d="M148.846 175.536H148.794H148.748L144.649 171.574C144.635 171.561 144.624 171.546 144.617 171.528C144.609 171.511 144.605 171.493 144.605 171.474C144.605 171.455 144.609 171.436 144.617 171.419C144.624 171.402 144.635 171.386 144.649 171.373C144.676 171.347 144.712 171.332 144.749 171.332C144.787 171.332 144.823 171.347 144.85 171.373L148.869 175.226L150.591 173.067L145.2 167.733C145.187 167.72 145.176 167.704 145.168 167.686C145.161 167.668 145.157 167.649 145.157 167.63C145.157 167.611 145.161 167.592 145.168 167.574C145.176 167.556 145.187 167.54 145.2 167.527C145.214 167.513 145.23 167.502 145.248 167.495C145.265 167.488 145.284 167.484 145.303 167.484C145.323 167.484 145.342 167.488 145.359 167.495C145.377 167.502 145.393 167.513 145.407 167.527L150.884 172.952V172.987C150.89 173.007 150.89 173.029 150.884 173.05V173.05C150.89 173.068 150.89 173.088 150.884 173.107V173.107C150.887 173.12 150.887 173.134 150.884 173.147L148.99 175.478H148.955C148.934 175.484 148.913 175.484 148.892 175.478L148.846 175.536ZM152.922 175.306C152.891 175.305 152.861 175.293 152.836 175.274C152.811 175.254 152.793 175.227 152.785 175.197L150.66 166.786C150.655 166.768 150.654 166.749 150.656 166.73C150.659 166.712 150.665 166.694 150.675 166.678C150.684 166.662 150.697 166.648 150.713 166.637C150.728 166.626 150.745 166.618 150.764 166.614C150.782 166.609 150.801 166.607 150.819 166.61C150.838 166.612 150.856 166.619 150.872 166.628C150.888 166.638 150.902 166.651 150.913 166.666C150.924 166.681 150.932 166.699 150.936 166.717L153.06 175.128C153.065 175.146 153.067 175.165 153.064 175.184C153.062 175.202 153.055 175.22 153.046 175.236C153.036 175.253 153.023 175.267 153.008 175.278C152.993 175.289 152.975 175.296 152.957 175.3L152.922 175.306Z" fill="#FDF6BA"/>
<path d="M172.463 172.958C172.467 173.05 172.441 173.14 172.388 173.215C172.335 173.29 172.258 173.345 172.171 173.372C171.944 173.427 171.735 173.542 171.568 173.704H174.197C174.037 173.547 173.84 173.433 173.623 173.372C173.535 173.344 173.459 173.289 173.405 173.215C173.351 173.14 173.323 173.05 173.325 172.958H172.492H172.463ZM171.958 165.977H174.255V164.013H171.539V165.977H171.958Z" fill="#0A80EA"/>
<path d="M172.233 166.12C172.249 166.104 172.262 166.084 172.271 166.062C172.28 166.041 172.284 166.018 172.284 165.994H171.957C171.957 166.018 171.961 166.041 171.97 166.062C171.979 166.084 171.992 166.104 172.009 166.12C172.025 166.137 172.045 166.151 172.066 166.16C172.088 166.169 172.112 166.173 172.135 166.172C172.158 166.172 172.182 166.168 172.203 166.159C172.225 166.15 172.245 166.137 172.261 166.12H172.233ZM173.553 171.437C173.53 171.437 173.507 171.441 173.485 171.45C173.463 171.459 173.443 171.472 173.427 171.488C173.41 171.505 173.396 171.524 173.387 171.546C173.379 171.568 173.374 171.591 173.375 171.615C173.375 171.662 173.394 171.707 173.427 171.741C173.461 171.774 173.506 171.793 173.553 171.793C173.577 171.794 173.6 171.789 173.622 171.78C173.644 171.771 173.663 171.758 173.679 171.741C173.698 171.724 173.712 171.702 173.72 171.678C173.726 171.657 173.726 171.635 173.72 171.615C173.72 171.567 173.701 171.522 173.668 171.489C173.634 171.456 173.589 171.437 173.542 171.437H173.553ZM172.606 171.77C172.572 171.737 172.527 171.719 172.48 171.718C172.456 171.717 172.433 171.722 172.411 171.73C172.389 171.739 172.369 171.753 172.353 171.77C172.337 171.786 172.324 171.806 172.315 171.828C172.306 171.849 172.301 171.873 172.302 171.896C172.301 171.92 172.305 171.943 172.314 171.965C172.323 171.987 172.336 172.006 172.353 172.022L172.405 172.063H172.48C172.527 172.062 172.572 172.043 172.606 172.011C172.623 171.995 172.636 171.975 172.645 171.953C172.654 171.932 172.658 171.908 172.657 171.885C172.658 171.861 172.653 171.838 172.644 171.816C172.635 171.795 172.622 171.775 172.606 171.758V171.77ZM172.876 166.677C172.875 166.658 172.871 166.639 172.863 166.621C172.855 166.603 172.844 166.587 172.83 166.574C172.801 166.545 172.763 166.527 172.722 166.522C172.681 166.518 172.639 166.528 172.605 166.551C172.571 166.574 172.545 166.608 172.533 166.647C172.521 166.686 172.523 166.729 172.539 166.767C172.554 166.805 172.583 166.836 172.619 166.856C172.655 166.876 172.697 166.882 172.737 166.874C172.778 166.866 172.814 166.845 172.84 166.813C172.867 166.781 172.881 166.741 172.881 166.7L172.876 166.677ZM173.846 166.631C173.862 166.616 173.875 166.597 173.884 166.576C173.893 166.556 173.898 166.533 173.898 166.511C173.898 166.464 173.879 166.418 173.846 166.385C173.812 166.352 173.767 166.333 173.72 166.333C173.672 166.333 173.627 166.352 173.594 166.385C173.56 166.418 173.542 166.464 173.542 166.511C173.541 166.533 173.545 166.556 173.554 166.577C173.563 166.598 173.576 166.616 173.593 166.631C173.61 166.648 173.63 166.661 173.651 166.67C173.673 166.679 173.696 166.684 173.72 166.684C173.743 166.684 173.766 166.679 173.788 166.67C173.81 166.661 173.829 166.648 173.846 166.631V166.631Z" fill="#C8E7EC"/>
<path d="M171.531 171.976V165.977V165.948H171.927C171.927 165.972 171.932 165.995 171.941 166.017C171.95 166.038 171.963 166.058 171.979 166.075C171.995 166.092 172.015 166.105 172.037 166.114C172.058 166.123 172.082 166.127 172.105 166.126C172.153 166.126 172.198 166.107 172.231 166.074C172.265 166.041 172.283 165.995 172.283 165.948H174.247V171.948C174.218 172.309 173.902 172.522 173.294 172.585V172.929H172.461V172.585H172.283C171.836 172.493 171.583 172.286 171.531 171.976Z" fill="#FDF6BA"/>
<path d="M175.599 197.754L173.273 199.735H179.704V197.754H175.599ZM186.651 195.544L185.503 193.821L182.201 196.577L181.426 199.763L186.651 195.544Z" fill="#022782"/>
<path d="M175.398 166.867L175.054 165.718H174.25V167.326H171.207V168.589V169.737V170.828V170.943C171.207 171.385 171.408 171.603 171.81 171.603H175.542L179.073 174.904L180.422 170.742L175.398 166.895V166.867ZM187.283 163.508L187.513 164.57H189.407L189.149 162.848C188.613 163.26 187.959 163.492 187.283 163.508ZM184.757 157.394C184.547 157.734 184.383 158.101 184.269 158.485V158.513C184.268 158.553 184.258 158.592 184.24 158.628C184.197 158.798 184.169 158.97 184.154 159.145V159.346C184.136 159.702 184.165 160.059 184.24 160.408C184.359 160.946 184.605 161.448 184.958 161.872C185.217 162.2 185.549 162.464 185.928 162.644C186.306 162.823 186.721 162.912 187.14 162.905H187.168C187.846 162.849 188.493 162.6 189.034 162.188L188.116 156.274L187.628 157.422L184.757 157.394Z" fill="#F04B4A"/>
<path d="M194.116 178.206H179.303C178.823 178.201 178.343 178.23 177.868 178.292C177.433 178.359 177.015 178.505 176.633 178.722C176.019 179.124 175.686 179.87 175.628 180.961C175.619 181.047 175.619 181.134 175.628 181.22V197.754H179.734V182.54H192.566C193.905 182.582 194.451 181.243 194.202 178.521L194.145 178.234L194.116 178.206ZM182.26 196.606L185.561 193.85L179.705 184.837V192.444L182.26 196.606Z" fill="#0A80EA"/>
<path d="M183.294 172.866L186.021 174.933L186.481 173.555L185.246 166.092L183.294 172.866V172.866ZM187.514 164.541H186.768C186.039 164.484 185.533 165.001 185.246 166.092L186.481 173.555L188.548 167.441L186.481 173.584L186.021 174.962L183.294 172.895L180.423 170.742L179.074 174.904L182.634 178.234H188.777L191.734 168.876L188.777 178.234H194.117L192.05 165.546H189.581L189.438 164.57L187.514 164.541Z" fill="#7CCAEF"/>
<path d="M192.448 160.609C192.453 160.32 192.362 160.037 192.19 159.805C192.019 159.601 191.815 159.426 191.587 159.288C191.373 159.143 191.18 158.969 191.013 158.772C190.794 158.418 190.674 158.011 190.668 157.595C190.651 157.35 190.584 157.112 190.47 156.894C190.357 156.677 190.199 156.485 190.008 156.332C189.457 156.029 188.821 155.918 188.2 156.016C187.747 155.86 187.272 155.782 186.793 155.786C186.315 155.776 185.84 155.862 185.396 156.04C184.952 156.218 184.549 156.483 184.209 156.82C184.045 156.982 183.892 157.154 183.75 157.336H183.779H187.625L188.114 156.188L189.032 162.101C188.491 162.513 187.844 162.762 187.166 162.819L187.281 163.393C187.957 163.377 188.611 163.146 189.147 162.733L189.405 164.455L189.549 165.431H194.458C194.39 165.247 194.257 165.094 194.085 165.001C193.966 164.944 193.86 164.866 193.769 164.771C193.721 164.734 193.684 164.686 193.659 164.631C193.634 164.576 193.622 164.516 193.625 164.455C193.634 164.318 193.663 164.182 193.711 164.053C193.748 163.903 193.767 163.749 193.769 163.594C193.765 163.381 193.683 163.177 193.539 163.02C193.392 162.86 193.228 162.716 193.051 162.589C192.869 162.469 192.696 162.335 192.534 162.188C192.457 162.114 192.396 162.025 192.357 161.926C192.317 161.827 192.299 161.72 192.305 161.613C192.304 161.447 192.333 161.282 192.391 161.125C192.43 160.956 192.449 160.783 192.448 160.609Z" fill="#10204F"/>
<path d="M179.604 197.856C179.631 197.882 179.667 197.898 179.705 197.898C179.724 197.898 179.743 197.894 179.76 197.887C179.778 197.879 179.794 197.869 179.807 197.856C179.82 197.842 179.831 197.826 179.838 197.809C179.845 197.792 179.849 197.773 179.849 197.754V182.684H192.555C192.768 182.694 192.98 182.659 193.178 182.581C193.376 182.503 193.555 182.383 193.703 182.23C194.289 181.604 194.49 180.381 194.317 178.464L194.26 178.177C194.251 178.14 194.228 178.108 194.196 178.086C194.164 178.065 194.126 178.056 194.088 178.062C194.051 178.071 194.019 178.094 193.997 178.126C193.976 178.158 193.968 178.196 193.973 178.234L194.03 178.504C194.191 180.312 194.013 181.461 193.496 182.035C193.373 182.162 193.223 182.26 193.057 182.323C192.892 182.385 192.714 182.41 192.538 182.396H179.705C179.667 182.396 179.631 182.412 179.604 182.439C179.577 182.465 179.562 182.502 179.562 182.54V197.754C179.562 197.792 179.577 197.829 179.604 197.856Z" fill="#10204F"/>
<path d="M188.731 178.378H188.777V178.349C188.804 178.351 188.831 178.346 188.855 178.334C188.88 178.322 188.9 178.303 188.915 178.28L191.872 168.928C191.878 168.91 191.88 168.891 191.879 168.871C191.878 168.852 191.873 168.834 191.864 168.817C191.856 168.799 191.844 168.784 191.829 168.772C191.815 168.759 191.798 168.75 191.78 168.744C191.743 168.733 191.704 168.736 191.67 168.753C191.635 168.77 191.609 168.8 191.596 168.836L188.639 178.194C188.633 178.212 188.63 178.231 188.632 178.25C188.633 178.269 188.638 178.288 188.646 178.305C188.655 178.322 188.667 178.338 188.681 178.35C188.696 178.362 188.713 178.372 188.731 178.378Z" fill="#10204F"/>
<path d="M180.425 170.857C180.397 170.865 180.367 170.865 180.339 170.857L175.315 167.01C175.29 166.992 175.272 166.965 175.263 166.935L174.948 165.862H174.373V167.182H174.603C174.641 167.182 174.678 167.197 174.705 167.224C174.732 167.251 174.747 167.288 174.747 167.326C174.747 167.364 174.732 167.4 174.705 167.427C174.678 167.454 174.641 167.469 174.603 167.469H174.253C174.215 167.469 174.178 167.454 174.151 167.427C174.124 167.4 174.109 167.364 174.109 167.326V165.718C174.109 165.68 174.124 165.644 174.151 165.617C174.178 165.59 174.215 165.575 174.253 165.575H175.085C175.116 165.575 175.147 165.585 175.172 165.603C175.196 165.622 175.215 165.648 175.223 165.678L175.556 166.826L180.54 170.644C180.57 170.667 180.59 170.701 180.596 170.739C180.601 170.776 180.591 170.815 180.569 170.845C180.548 170.861 180.524 170.87 180.498 170.872C180.473 170.874 180.447 170.869 180.425 170.857V170.857Z" fill="black"/>
<g style="mix-blend-mode:hue">
<rect width="232" height="232" rx="20" fill="#BFEEDB" fill-opacity="0.5"/>
</g>
</g>
<defs>
<clipPath id="clip0">
<rect width="232" height="232" fill="white"/>
</clipPath>
</defs>
</svg>
