<svg width="28" height="32" viewBox="0 0 28 32" fill="none" xmlns="http://www.w3.org/2000/svg">
<path d="M26.9876 8.18237L26.9874 8.18226L14.2614 0.819996C14.2613 0.819949 14.2613 0.819902 14.2612 0.819855C14.0997 0.726753 13.9005 0.726715 13.739 0.819741C13.7389 0.819826 13.7387 0.819911 13.7386 0.819996L1.01217 8.18212C1.01214 8.18214 1.0121 8.18216 1.01206 8.18218C1.01201 8.18221 1.01196 8.18224 1.01192 8.18227C0.850223 8.27601 0.75 8.44933 0.75 8.6378V23.3623C0.75 23.5503 0.850361 23.7242 1.01189 23.8179L26.9876 8.18237ZM26.9876 8.18237C27.1498 8.27614 27.25 8.44939 27.25 8.6378V23.3623C27.25 23.5503 27.1497 23.7241 26.9876 23.8178L26.9875 23.8179L14.2609 31.1798L14.2605 31.18C14.0993 31.2733 13.9007 31.2733 13.7395 31.18L13.7391 31.1798L1.01224 23.8181L26.9876 8.18237Z" stroke="black" stroke-width="1.5"/>
<path fill-rule="evenodd" clip-rule="evenodd" d="M14.001 25C18.9715 25 23.001 20.9706 23.001 16C23.001 11.0294 18.9715 7 14.001 7C9.0304 7 5.00098 11.0294 5.00098 16C5.00098 20.9706 9.0304 25 14.001 25Z" stroke="black" stroke-width="1.5"/>
<path d="M17 12.002H11C10.4477 12.002 10 12.4497 10 13.002V19.002C10 19.5543 10.4477 20.002 11 20.002H17C17.5523 20.002 18 19.5543 18 19.002V13.002C18 12.4497 17.5523 12.002 17 12.002Z" fill="black"/>
</svg>
