<svg width="28" height="32" viewBox="0 0 28 32" fill="none" xmlns="http://www.w3.org/2000/svg">
<path fill-rule="evenodd" clip-rule="evenodd" d="M28 8.6378V23.3623C28 23.8176 27.7573 24.2391 27.363 24.4671L14.6364 31.829C14.2427 32.057 13.7573 32.057 13.3636 31.829L0.63636 24.4671C0.24268 24.2391 0 23.8176 0 23.3623V8.6378C0 8.1819 0.24268 7.76102 0.63636 7.53307L13.3636 0.170468C13.7573 -0.0568225 14.2427 -0.0568225 14.6364 0.170468L27.363 7.53307C27.7573 7.76102 28 8.1819 28 8.6378ZM23.002 16C23.002 20.9706 18.9725 25 14.002 25C9.03137 25 5.00195 20.9706 5.00195 16C5.00195 11.0294 9.03137 7 14.002 7C18.9725 7 23.002 11.0294 23.002 16Z" fill="#002684"/>
<path d="M17 12.002H11C10.4477 12.002 10 12.4497 10 13.002V19.002C10 19.5542 10.4477 20.002 11 20.002H17C17.5523 20.002 18 19.5542 18 19.002V13.002C18 12.4497 17.5523 12.002 17 12.002Z" fill="#002684"/>
</svg>
