<svg width="36" height="36" viewBox="0 0 36 36" fill="none" xmlns="http://www.w3.org/2000/svg">
<path d="M32 25.3623V10.6378C32 10.1819 31.7573 9.76102 31.363 9.53307L18.6364 2.17047C18.2427 1.94318 17.7573 1.94318 17.3636 2.17047L4.63636 9.53307C4.24268 9.76102 4 10.1819 4 10.6378V25.3623C4 25.8176 4.24268 26.2391 4.63636 26.4671L17.3636 33.829C17.7573 34.057 18.2427 34.057 18.6364 33.829L31.363 26.4671C31.7573 26.2391 32 25.8176 32 25.3623Z" fill="black"/>
<path d="M32 25.3623V10.6378C32 10.1819 31.7573 9.76102 31.363 9.53307L18.6364 2.17047C18.2427 1.94318 17.7573 1.94318 17.3636 2.17047L4.63636 9.53307C4.24268 9.76102 4 10.1819 4 10.6378V25.3623C4 25.8176 4.24268 26.2391 4.63636 26.4671L17.3636 33.829C17.7573 34.057 18.2427 34.057 18.6364 33.829L31.363 26.4671C31.7573 26.2391 32 25.8176 32 25.3623Z" stroke="black"/>
<path fill-rule="evenodd" clip-rule="evenodd" d="M18.001 27C22.9715 27 27.001 22.9706 27.001 18C27.001 13.0294 22.9715 9 18.001 9C13.0304 9 9.00098 13.0294 9.00098 18C9.00098 22.9706 13.0304 27 18.001 27Z" fill="white"/>
<rect x="14" y="14.002" width="7.99999" height="8" rx="1" fill="black"/>
</svg>
