<svg width="732" height="480" viewBox="0 0 732 480" fill="none" xmlns="http://www.w3.org/2000/svg">
<path d="M330.5 400.028C199.7 398.729 90.3333 442.801 52 465H685C621.333 443.884 461.3 401.328 330.5 400.028Z" fill="url(#paint0_linear)"/>
<path fill-rule="evenodd" clip-rule="evenodd" d="M347.416 71.035C342.61 65.3943 339.357 58.4814 339.901 50.7354C341.467 28.417 372.535 33.3267 378.578 44.5912C384.622 55.8556 383.904 84.4288 376.093 86.4421C372.978 87.245 366.343 85.2782 359.589 81.2076L363.828 111.197H338.799L347.416 71.035Z" fill="#57331F"/>
<path fill-rule="evenodd" clip-rule="evenodd" d="M360.841 53.1999C361.799 66.546 364.334 73.2191 368.445 73.2191C374.611 73.2191 379.843 69.3044 382.549 69.3044C384.521 69.3044 384.081 71.7726 382.773 73.6026C381.695 75.1124 376.442 76.5677 376.442 78.9084C376.442 81.2492 380.592 79.4383 380.592 80.8265C380.592 83.1228 381.321 87.4403 377.336 87.4403C373.302 87.4403 361.738 85.9704 359.756 79.9841C358.477 76.1207 357.65 68.115 357.275 55.967C357.03 55.9379 356.781 55.923 356.529 55.923C353.073 55.923 350.271 58.7245 350.271 62.1803C350.271 63.9347 350.993 65.5205 352.156 66.6567C350.709 68.7003 349.086 70.8352 347.226 73.0381C340.241 68.8472 335.058 56.5789 341.887 44.7935C343.775 39.02 348.048 35.9361 353.095 34.5042C357.183 32.7941 361.427 32.6012 365.01 33.6264C372.032 34.2288 378.303 36.3702 380.081 37.642C380.081 44.2907 378.792 46.2633 367.789 46.0894C365.085 47.5174 363.006 49.9762 360.841 53.1999Z" fill="#191847"/>
<path fill-rule="evenodd" clip-rule="evenodd" d="M336.793 197.499L387.98 327.055L422.311 436.583H435.868L383.383 197.499L336.793 197.499Z" fill="#3D2216"/>
<path fill-rule="evenodd" clip-rule="evenodd" d="M326.486 197.499C325.941 243.026 317.992 304.32 316.722 307.158C315.875 309.05 286.647 333.109 229.037 379.336L238.374 389.328C306.349 349.694 341.909 327.235 345.054 321.948C349.772 314.019 365.133 241.054 377.466 197.499H326.486Z" fill="#57331F"/>
<path fill-rule="evenodd" clip-rule="evenodd" d="M227.787 376.001C224.651 377.109 222.491 378.16 221.307 379.154C219.866 380.363 217.965 382.367 215.604 385.166C217.006 386.837 229.61 401.857 253.414 430.225C258.267 428.148 259.79 425.719 257.982 422.937C256.174 420.155 254.694 417.825 253.542 415.948L245.305 387.17C245.147 386.617 244.569 386.296 244.016 386.455C244.006 386.457 243.997 386.46 243.987 386.463L239.592 387.857C236.543 386.436 234.406 384.995 233.18 383.535C232.185 382.349 231.289 380.309 230.494 377.414L230.494 377.414C230.188 376.303 229.04 375.651 227.929 375.956C227.882 375.969 227.834 375.984 227.787 376.001Z" fill="#E4E4E4"/>
<path fill-rule="evenodd" clip-rule="evenodd" d="M416.76 431.527C415.593 434.641 415.01 436.972 415.01 438.518C415.01 440.399 415.323 443.143 415.95 446.751C418.131 446.751 437.738 446.751 474.771 446.751C476.299 441.698 475.417 438.969 472.124 438.566C468.83 438.164 466.095 437.8 463.916 437.475L436.577 425.287C436.051 425.052 435.434 425.289 435.2 425.815C435.196 425.824 435.192 425.833 435.188 425.842L433.431 430.105C430.382 431.527 427.905 432.239 425.998 432.239C424.45 432.239 422.311 431.613 419.582 430.362L419.582 430.362C418.535 429.882 417.297 430.342 416.817 431.389C416.796 431.434 416.777 431.48 416.76 431.527Z" fill="#E4E4E4"/>
<path fill-rule="evenodd" clip-rule="evenodd" d="M371.208 425.302L435.664 418.306L387.895 197.499H330.164L371.208 425.302Z" fill="#69A1AC"/>
<path fill-rule="evenodd" clip-rule="evenodd" d="M242.369 363.216L284.648 413.259C329.18 364.623 355.142 332.888 362.534 318.054C369.927 303.219 376.572 263.035 382.471 197.499H317.477C314.255 255.154 312.083 285.323 310.961 288.006C309.839 290.689 286.975 315.759 242.369 363.216Z" fill="#89C5CC"/>
<path fill-rule="evenodd" clip-rule="evenodd" d="M428.017 184.566L457.56 213.386C466.156 217.053 473.199 221.102 478.69 225.532C479.924 227.022 481.268 229.875 475.459 228.598C469.65 227.321 463.482 226.24 462.39 228.129C461.299 230.018 464.516 232.913 462.498 235.385C461.153 237.034 456.629 231.791 448.926 219.656L418.205 201.544L428.017 184.566ZM283.552 158.482L306.388 158.568C288.995 214.92 279.762 244.425 278.69 247.083C276.277 253.063 281.383 262.171 283.567 267.066C276.455 270.249 277.212 258.462 268.24 262.636C260.051 266.446 253.821 273.35 244.359 267.512C243.196 266.794 241.921 264.091 245.001 261.979C252.674 256.718 263.732 247.509 265.226 244.478C267.264 240.345 273.372 211.679 283.552 158.482Z" fill="#57331F"/>
<path fill-rule="evenodd" clip-rule="evenodd" d="M353.139 93.7008L362.157 92.154C376.363 142.371 449.354 176.602 453.835 195.374C455.478 202.258 450.523 205.739 453.083 207.835L441.361 216.416C439.376 214.1 435.14 218.337 426.294 215.373C417.448 212.41 353.139 153.162 353.139 93.7008Z" fill="#191847"/>
<path fill-rule="evenodd" clip-rule="evenodd" d="M368.31 100.377C367.27 166.861 405.703 183.82 397.142 210.491C390.073 232.515 322.408 256.191 310.699 234.602C305.96 225.863 303.809 215.294 303.565 203.803C300.573 212.631 298.206 220.231 296.465 226.602C293.461 237.595 281.818 239.342 281.818 243.576L266.477 239.342C267.517 233.589 260.286 230.788 262.225 217.935C270.913 160.349 294.256 118.607 332.255 92.7087L332.648 87.0868C332.809 84.7885 334.803 83.0557 337.101 83.2164L365.19 85.1806C367.489 85.3413 369.222 87.3347 369.061 89.633L368.31 100.377Z" fill="#2F3676"/>
<defs>
<linearGradient id="paint0_linear" x1="368.5" y1="400" x2="368.5" y2="465" gradientUnits="userSpaceOnUse">
<stop stop-color="#C4C4C4"/>
<stop offset="1" stop-color="#C4C4C4" stop-opacity="0"/>
</linearGradient>
</defs>
</svg>
