<svg width="309" height="346" viewBox="0 0 309 346" fill="none" xmlns="http://www.w3.org/2000/svg">
<path fill-rule="evenodd" clip-rule="evenodd" d="M143.007 2.86372C149.783 -0.990129 158.113 -0.940417 164.855 2.92921L297.477 79.0471C304.227 82.9214 308.427 90.0654 308.458 97.8238L309 249.145C309.021 256.908 304.856 264.078 298.083 267.942L165.996 343.127C159.217 346.989 150.891 346.945 144.139 343.07L11.5171 266.952C4.77343 263.082 0.564628 255.933 0.539359 248.164L0.000222337 96.869L0.000191819 96.8654C-0.0294719 89.0941 4.13828 81.9179 10.9231 78.0577L143.007 2.86372Z" fill="black"/>
<path fill-rule="evenodd" clip-rule="evenodd" d="M145.015 33.3506C150.608 30.1873 157.481 30.2281 163.045 33.4043L272.491 95.8826C278.061 99.0627 281.527 104.926 281.553 111.295L282 235.5C282.017 241.872 278.58 247.758 272.991 250.929L163.987 312.642C158.393 315.811 151.522 315.776 145.95 312.595L36.5044 250.117C30.9392 246.94 27.466 241.072 27.4451 234.695L27.0002 110.511L27.0002 110.508C26.9757 104.129 30.4151 98.239 36.0142 95.0705L145.015 33.3506Z" fill="white"/>
<path d="M143.365 22.7563L143.366 22.7559C149.969 19.0462 158.074 19.0966 164.635 22.8169L281.806 89.2551C288.379 92.9819 292.491 99.8694 292.521 107.376L292.521 107.377L293 239.454L293 239.456C293.021 246.968 288.941 253.889 282.337 257.611L282.335 257.611L165.638 323.235C165.638 323.235 165.637 323.235 165.637 323.235C159.033 326.952 150.93 326.908 144.36 323.183L145.346 321.443L144.36 323.183L27.1888 256.744C20.6225 253.021 16.5015 246.129 16.4765 238.612L143.365 22.7563ZM143.365 22.7563L26.6706 88.3878C20.0546 92.1065 15.9711 99.0341 16.0001 106.555L16.0002 106.558L16.0003 106.567L16.0003 106.57L16.4765 238.612L143.365 22.7563Z" stroke="white" stroke-width="4"/>
<path fill-rule="evenodd" clip-rule="evenodd" d="M269.443 245.321L160.443 307.466C157.066 309.392 152.903 309.379 149.514 307.431L40.0689 244.512C36.6851 242.567 34.5867 238.981 34.5741 235.106L34.1292 110.043C34.1138 106.173 36.1837 102.603 39.557 100.682L148.555 38.5287C151.929 36.6072 156.097 36.6235 159.481 38.5689L268.926 101.487C272.315 103.435 274.408 107.019 274.424 110.888L274.871 235.96C274.881 239.826 272.811 243.396 269.443 245.321ZM145.015 32.3672C150.608 29.1816 157.481 29.2227 163.045 32.4213L272.491 95.3396C278.061 98.542 281.527 104.447 281.553 110.86L282 235.94C282.017 242.357 278.58 248.284 272.991 251.478L163.987 313.625C158.393 316.817 151.522 316.781 145.95 313.578L36.5044 250.66C30.9392 247.461 27.4659 241.552 27.4451 235.129L27.0002 110.071L27.0001 110.068C26.9757 103.644 30.4151 97.7125 36.0142 94.5217L145.015 32.3672Z" fill="black"/>
<path fill-rule="evenodd" clip-rule="evenodd" d="M154.5 173C153.759 173 153.158 172.799 153.158 172.55L153.158 34.0248C153.158 33.7764 153.759 33.575 154.5 33.575C155.241 33.575 155.842 33.7764 155.842 34.0248L155.842 172.55C155.842 172.799 155.241 173 154.5 173Z" fill="black"/>
<path fill-rule="evenodd" clip-rule="evenodd" d="M274.604 241.372C274.233 242.013 273.758 242.432 273.543 242.308L153.444 173.045C153.228 172.921 153.354 172.3 153.725 171.659C154.096 171.018 154.571 170.599 154.786 170.723L274.885 239.986C275.1 240.11 274.974 240.73 274.604 241.372Z" fill="black"/>
<path fill-rule="evenodd" clip-rule="evenodd" d="M34.3961 241.372C34.0255 240.731 33.8996 240.11 34.115 239.986L154.214 170.723C154.429 170.599 154.904 171.018 155.275 171.659C155.646 172.301 155.771 172.921 155.556 173.045L35.4571 242.308C35.2417 242.432 34.7667 242.013 34.3961 241.372Z" fill="black"/>
<path d="M138.207 254.232C136.839 251.544 133.983 249.888 130.623 249.888C125.799 249.888 121.839 253.8 121.839 258.6C121.839 263.4 125.703 267.312 130.599 267.312C135.399 267.312 138.903 263.688 138.903 259.008V257.664H130.167V260.688H135.039C134.607 262.608 132.855 263.928 130.623 263.928C127.743 263.928 125.487 261.552 125.487 258.6C125.487 255.648 127.743 253.296 130.599 253.296C132.543 253.296 134.103 254.208 134.943 255.816L138.207 254.232ZM158.415 258.6C158.415 253.752 154.503 249.888 149.631 249.888C144.759 249.888 140.847 253.752 140.847 258.6C140.847 263.448 144.759 267.312 149.631 267.312C154.503 267.312 158.415 263.448 158.415 258.6ZM154.719 258.6C154.719 261.504 152.487 263.808 149.631 263.808C146.775 263.808 144.543 261.504 144.543 258.6C144.543 255.696 146.775 253.392 149.631 253.392C152.487 253.392 154.719 255.696 154.719 258.6ZM161.186 250.2V267H170.642V263.616H164.786V250.2H161.186ZM187.16 258.6C187.16 253.872 183.32 250.2 178.616 250.2H172.928V267H178.616C183.32 267 187.16 263.328 187.16 258.6ZM183.464 258.6C183.464 261.384 181.304 263.616 178.52 263.616H176.528V253.584H178.52C181.304 253.584 183.464 255.816 183.464 258.6Z" fill="black"/>
<path d="M95.1998 140.704C95.1998 124.9 84.0835 119.043 70.466 126.905L54 136.412V192.569L70.466 183.063C84.0835 175.201 95.1998 156.508 95.1998 140.704ZM84.5004 146.881C84.5004 156.187 78.2475 167.258 70.1881 171.911L64.4215 175.241V141.707L70.1881 138.377C78.2475 133.724 84.5004 137.575 84.5004 146.881Z" fill="black"/>
<path d="M99.9916 121.09L112.845 113.669V158.595L123.336 152.538V107.612L136.12 100.232V89.0001L99.9916 109.859V121.09Z" fill="black"/>
<path d="M169 89V146.889L179.661 153.231V132.722L185.915 136.443C196.718 142.87 204.18 140.446 204.18 128.62C204.18 116.711 196.718 105.49 185.915 99.0634L169 89ZM179.661 106.507L186.128 110.355C190.393 112.892 193.449 117.521 193.449 122.318C193.449 127.114 190.393 128.108 186.128 125.571L179.661 121.723V106.507Z" fill="black"/>
<path d="M225.134 159.114L227.977 160.806L240.201 189.249L252.781 196.733L239.064 165.913C245.034 166.819 249.298 163.567 249.298 155.297C249.298 143.471 241.836 132.333 231.104 125.948L214.544 116.096V173.985L225.134 180.285V159.114ZM225.134 133.56L231.175 137.154C235.439 139.691 238.566 144.281 238.566 149.16C238.566 153.957 235.439 154.991 231.175 152.454L225.134 148.86V133.56Z" fill="black"/>
<line x1="39.2326" y1="262.093" x2="137.233" y2="318.093" stroke="black" stroke-width="9"/>
<line x1="265.763" y1="80.9046" x2="169.763" y2="25.9046" stroke="black" stroke-width="9"/>
<line x1="166.862" y1="320.04" x2="279.862" y2="259.04" stroke="black" stroke-width="9"/>
<line x1="121.271" y1="34.8848" x2="56.2711" y2="72.8848" stroke="black" stroke-width="9"/>
<path d="M46.108 263.381L41.558 271.261L43.2468 272.236L44.8588 269.444L45.8495 270.016C47.5608 271.004 49.2824 270.752 50.2119 269.143C51.1479 267.521 50.4988 265.916 48.7875 264.928L46.108 263.381ZM46.9193 265.876L47.9438 266.467C48.6193 266.857 48.8824 267.519 48.5054 268.172C48.1284 268.825 47.4233 268.929 46.7478 268.539L45.7233 267.947L46.9193 265.876ZM53.2399 274.163L53.6903 274.423L53.9627 278.423L55.9554 279.574L55.5636 275.235C56.7173 275.42 57.8478 275.022 58.4978 273.896C59.4273 272.286 58.7716 270.692 57.0716 269.71L54.4484 268.196L49.8984 276.077L51.5759 277.045L53.2399 274.163ZM55.2484 270.684L56.2054 271.237C56.8809 271.627 57.1618 272.284 56.7783 272.949C56.4013 273.602 55.6784 273.71 55.0029 273.32L54.0459 272.767L55.2484 270.684ZM68.5703 281.603C69.8833 279.329 69.0947 276.457 66.8093 275.137C64.5238 273.818 61.6422 274.571 60.3292 276.845C59.0162 279.119 59.8048 281.991 62.0903 283.311C64.3757 284.63 67.2573 283.877 68.5703 281.603ZM66.8365 280.602C66.05 281.964 64.379 282.441 63.0393 281.667C61.6995 280.894 61.2765 279.208 62.063 277.846C62.8495 276.484 64.5205 276.008 65.8603 276.781C67.2 277.555 67.623 279.24 66.8365 280.602ZM71.2423 283.146C69.8903 285.488 70.6054 288.227 72.9471 289.579C73.5776 289.943 74.3778 290.195 75.2921 290.197L76.3256 288.407C75.4529 288.489 74.6972 288.368 73.9766 287.952C72.5806 287.146 72.2139 285.493 72.9874 284.153C73.7739 282.791 75.4046 282.307 76.7781 283.1C77.5099 283.522 77.9861 284.127 78.3228 284.922L79.3563 283.132C78.9516 282.403 78.3641 281.809 77.6773 281.412C75.4032 280.099 72.5748 280.838 71.2423 283.146ZM78.0641 292.338L82.725 295.029L83.609 293.498L80.6368 291.782L81.6378 290.048L84.3285 291.602L85.1865 290.116L82.4958 288.562L83.4188 286.964L86.3685 288.667L87.2525 287.135L82.6141 284.457L78.0641 292.338ZM86.2937 294.703C86.0675 296.239 86.8194 297.588 88.1253 298.342C89.5889 299.187 91.4326 299.036 92.3426 297.46C92.9536 296.401 92.7617 295.33 91.7738 294.129L90.9768 293.143C90.5966 292.684 90.4452 292.296 90.6597 291.925C90.9002 291.508 91.423 291.435 91.9408 291.734C92.5263 292.072 92.7023 292.729 92.6333 293.394L94.5085 293.396C94.6354 292.058 93.9814 290.825 92.8106 290.149C91.3245 289.291 89.6929 289.595 88.8674 291.025C88.2109 292.162 88.5397 293.283 89.4475 294.362L90.1982 295.246C90.6442 295.774 90.7536 296.182 90.5326 296.565C90.2401 297.071 89.616 297.086 89.0644 296.768C88.3776 296.371 88.0747 295.596 88.1945 294.765L86.2937 294.703ZM94.4472 299.41C94.221 300.946 94.9729 302.296 96.2788 303.05C97.7424 303.895 99.5861 303.743 100.496 302.167C101.107 301.109 100.915 300.037 99.9273 298.836L99.1303 297.851C98.7501 297.391 98.5987 297.004 98.8132 296.632C99.0537 296.216 99.5765 296.142 100.094 296.441C100.68 296.779 100.856 297.436 100.787 298.102L102.662 298.104C102.789 296.766 102.135 295.533 100.964 294.857C99.478 293.999 97.8464 294.303 97.0209 295.732C96.3644 296.869 96.6932 297.99 97.601 299.07L98.3517 299.953C98.7977 300.481 98.9071 300.889 98.6861 301.272C98.3936 301.779 97.7695 301.794 97.2179 301.475C96.5311 301.079 96.2282 300.303 96.348 299.472L94.4472 299.41ZM106.569 298.288L102.019 306.169L103.719 307.15L108.269 299.269L106.569 298.288ZM117.015 304.319L113.999 309.542L113.344 302.2L111.622 301.205L107.072 309.086L108.716 310.035L111.719 304.834L112.42 312.173L114.108 313.148L118.658 305.268L117.015 304.319ZM128.233 313.317C128.319 311.686 127.428 310.136 125.852 309.226C123.589 307.919 120.672 308.682 119.372 310.933C118.072 313.185 118.825 316.067 121.121 317.393C123.373 318.693 125.998 317.942 127.266 315.746L127.63 315.116L123.532 312.75L122.713 314.168L124.998 315.488C124.276 316.271 123.096 316.416 122.049 315.812C120.698 315.032 120.283 313.306 121.083 311.921C121.882 310.537 123.578 310.044 124.917 310.818C125.829 311.344 126.314 312.195 126.273 313.176L128.233 313.317Z" fill="white"/>
<path d="M73.5815 66.152C72.301 63.9341 69.5052 63.2516 67.2985 64.5256L64.6303 66.0661L69.1803 73.9469L71.8485 72.4064C74.0552 71.1324 74.862 68.3699 73.5815 66.152ZM71.8477 67.153C72.6017 68.459 72.193 70.091 70.887 70.845L69.9526 71.3845L67.2356 66.6785L68.17 66.139C69.476 65.385 71.0937 65.8471 71.8477 67.153ZM74.2901 60.4891L78.8401 68.3699L80.5401 67.3884L75.9901 59.5076L74.2901 60.4891ZM87.7418 55.2446C86.372 54.3541 84.5838 54.3508 83.0076 55.2608C80.7447 56.5673 79.9466 59.4749 81.2466 61.7266C82.5466 63.9783 85.4187 64.7669 87.7154 63.4409C89.967 62.1409 90.6293 59.4919 89.3618 57.2965L88.9978 56.666L84.8997 59.032L85.7187 60.4506L88.0042 59.1311C88.3215 60.1487 87.8572 61.2424 86.8101 61.8469C85.4591 62.6269 83.7574 62.1234 82.9579 60.7386C82.1584 59.3538 82.5796 57.6395 83.9194 56.866C84.8313 56.3395 85.8101 56.3448 86.6396 56.8716L87.7418 55.2446ZM89.9154 51.4678L94.4654 59.3486L96.1654 58.3671L91.6154 50.4863L89.9154 51.4678ZM95.248 50.4906L97.3308 49.2881L100.971 55.5927L102.671 54.6112L99.0308 48.3066L101.102 47.1106L100.192 45.5344L94.338 48.9144L95.248 50.4906ZM104.399 43.1055L105.774 52.8193L107.508 51.8183L107.191 49.7348L110.197 47.9993L111.843 49.3158L113.61 48.2953L105.897 42.241L104.399 43.1055ZM106.361 44.8398L108.852 46.8395L106.87 47.9835L106.361 44.8398ZM111.671 38.907L116.221 46.7879L120.657 44.2269L119.741 42.6394L116.993 44.2254L113.36 37.932L111.671 38.907Z" fill="white"/>
<path d="M176.56 320.607L177.011 320.347L180.611 322.111L182.604 320.961L178.65 319.13C179.388 318.224 179.608 317.046 178.958 315.92C178.029 314.31 176.32 314.081 174.62 315.062L171.997 316.577L176.547 324.458L178.224 323.489L176.56 320.607ZM174.552 317.128L175.509 316.576C176.184 316.186 176.894 316.271 177.278 316.936C177.655 317.588 177.387 318.269 176.711 318.659L175.754 319.211L174.552 317.128ZM185.239 319.439L189.9 316.748L189.016 315.217L186.044 316.933L185.043 315.199L187.734 313.646L186.876 312.16L184.185 313.713L183.262 312.115L186.212 310.412L185.328 308.88L180.689 311.558L185.239 319.439ZM200.221 309.679L199.025 309.454C199.141 308.486 198.953 307.484 198.427 306.572C197.114 304.297 194.232 303.544 191.947 304.864C189.661 306.183 188.872 309.055 190.185 311.33C191.498 313.604 194.38 314.357 196.666 313.037C197.521 312.543 198.166 311.841 198.577 311.018L199.908 311.27L200.221 309.679ZM196.727 307.553C197.013 308.048 197.137 308.577 197.133 309.09L195.731 308.819L195.412 310.399L196.614 310.635C196.395 310.957 196.096 311.219 195.736 311.427C194.374 312.214 192.685 311.733 191.885 310.348C191.086 308.963 191.514 307.26 192.876 306.474C194.238 305.687 195.927 306.168 196.727 307.553ZM206.837 307.165C208.807 306.027 209.259 304.055 208.109 302.062L205.366 297.311L203.655 298.299L206.346 302.96C206.957 304.018 206.822 304.982 205.888 305.521C204.953 306.061 204.052 305.695 203.441 304.637L200.75 299.976L199.039 300.964L201.782 305.715C202.932 307.708 204.867 308.302 206.837 307.165ZM208.624 295.43L213.174 303.311L214.874 302.33L210.324 294.449L208.624 295.43ZM218.24 296.543L218.691 296.283L222.291 298.047L224.284 296.897L220.33 295.066C221.068 294.16 221.288 292.982 220.638 291.856C219.709 290.246 218 290.017 216.3 290.998L213.677 292.513L218.227 300.394L219.904 299.425L218.24 296.543ZM216.232 293.064L217.189 292.512C217.864 292.122 218.574 292.207 218.958 292.872C219.335 293.525 219.067 294.205 218.391 294.595L217.434 295.147L216.232 293.064ZM226.919 295.375L231.58 292.684L230.696 291.153L227.724 292.869L226.723 291.135L229.414 289.582L228.556 288.096L225.865 289.649L224.942 288.051L227.892 286.348L227.008 284.816L222.369 287.494L226.919 295.375ZM237.086 278.998L237.775 285.911L232.132 281.858L230.072 283.047L234.622 290.928L236.266 289.979L233.347 284.924L238.574 288.647L239.677 288.01L239.065 281.593L241.996 286.671L243.64 285.722L239.09 277.841L237.086 278.998ZM246.997 283.783L251.658 281.092L250.774 279.561L247.802 281.277L246.801 279.543L249.492 277.99L248.634 276.504L245.943 278.057L245.02 276.458L247.97 274.755L247.086 273.224L242.447 275.902L246.997 283.783ZM255.543 268.342L258.559 273.566L251.873 270.461L250.15 271.455L254.7 279.336L256.344 278.387L253.341 273.186L260.048 276.248L261.736 275.273L257.186 267.393L255.543 268.342ZM260.826 267.393L262.909 266.19L266.549 272.495L268.249 271.514L264.609 265.209L266.68 264.013L265.77 262.437L259.916 265.817L260.826 267.393ZM271.413 267.3C272.63 268.264 274.175 268.287 275.481 267.533C276.944 266.688 277.735 265.016 276.825 263.44C276.214 262.382 275.19 262.012 273.656 262.267L272.404 262.465C271.816 262.564 271.404 262.501 271.19 262.13C270.949 261.713 271.147 261.224 271.665 260.925C272.251 260.587 272.908 260.763 273.449 261.156L274.389 259.532C273.294 258.754 271.899 258.703 270.728 259.379C269.242 260.237 268.689 261.802 269.515 263.232C270.171 264.369 271.306 264.645 272.695 264.398L273.835 264.19C274.515 264.068 274.924 264.177 275.145 264.56C275.437 265.067 275.138 265.615 274.587 265.933C273.9 266.33 273.077 266.204 272.417 265.685L271.413 267.3Z" fill="white"/>
<path d="M176.56 320.607L175.06 318.009C173.626 318.837 173.134 320.672 173.962 322.107L176.56 320.607ZM177.011 320.347L178.331 317.653C177.433 317.213 176.376 317.249 175.511 317.749L177.011 320.347ZM180.611 322.111L179.291 324.805C180.189 325.245 181.246 325.209 182.111 324.709L180.611 322.111ZM182.604 320.961L184.104 323.559C185.074 322.999 185.651 321.945 185.601 320.826C185.551 319.707 184.881 318.709 183.864 318.238L182.604 320.961ZM178.65 319.13L176.323 317.237C175.739 317.955 175.519 318.903 175.727 319.806C175.936 320.708 176.549 321.464 177.39 321.853L178.65 319.13ZM171.997 316.577L170.497 313.979C169.062 314.807 168.57 316.642 169.399 318.077L171.997 316.577ZM176.547 324.458L173.949 325.958C174.777 327.393 176.612 327.884 178.047 327.056L176.547 324.458ZM178.224 323.489L179.724 326.087C181.159 325.259 181.651 323.424 180.823 321.989L178.224 323.489ZM174.552 317.128L173.052 314.53C171.617 315.359 171.125 317.193 171.954 318.628L174.552 317.128ZM175.754 319.211L173.156 320.711C173.985 322.146 175.82 322.638 177.254 321.809L175.754 319.211ZM178.06 323.205L178.511 322.945L175.511 317.749L175.06 318.009L178.06 323.205ZM175.691 323.041L179.291 324.805L181.931 319.417L178.331 317.653L175.691 323.041ZM182.111 324.709L184.104 323.559L181.104 318.363L179.111 319.513L182.111 324.709ZM183.864 318.238L179.91 316.408L177.39 321.853L181.344 323.683L183.864 318.238ZM180.977 321.024C182.374 319.308 182.923 316.788 181.556 314.42L176.36 317.42C176.371 317.439 176.361 317.426 176.352 317.384C176.343 317.341 176.341 317.293 176.346 317.249C176.357 317.158 176.386 317.16 176.323 317.237L180.977 321.024ZM181.556 314.42C180.694 312.927 179.318 311.874 177.609 311.567C175.981 311.274 174.41 311.72 173.12 312.464L176.12 317.66C176.316 317.547 176.456 317.502 176.531 317.485C176.604 317.469 176.604 317.482 176.547 317.472C176.484 317.461 176.412 317.431 176.354 317.389C176.301 317.35 176.313 317.339 176.36 317.42L181.556 314.42ZM173.12 312.464L170.497 313.979L173.497 319.175L176.12 317.66L173.12 312.464ZM169.399 318.077L173.949 325.958L179.145 322.958L174.595 315.077L169.399 318.077ZM178.047 327.056L179.724 326.087L176.724 320.891L175.047 321.86L178.047 327.056ZM180.823 321.989L179.159 319.107L173.962 322.107L175.626 324.989L180.823 321.989ZM176.052 319.726L177.009 319.174L174.009 313.978L173.052 314.53L176.052 319.726ZM177.009 319.174C176.894 319.24 176.523 319.412 175.972 319.313C175.342 319.2 174.893 318.804 174.68 318.436L179.876 315.436C179.279 314.402 178.283 313.632 177.033 313.408C175.863 313.197 174.8 313.521 174.009 313.978L177.009 319.174ZM174.68 318.436C174.46 318.055 174.356 317.484 174.555 316.912C174.734 316.398 175.06 316.148 175.211 316.06L178.211 321.257C179.039 320.779 179.836 319.994 180.223 318.879C180.631 317.706 180.473 316.469 179.876 315.436L174.68 318.436ZM175.211 316.06L174.254 316.613L177.254 321.809L178.211 321.257L175.211 316.06ZM178.353 317.711L177.15 315.628L171.954 318.628L173.156 320.711L178.353 317.711ZM185.239 319.439L182.641 320.939C183.47 322.374 185.304 322.866 186.739 322.037L185.239 319.439ZM189.9 316.748L191.4 319.346C192.835 318.518 193.327 316.683 192.498 315.248L189.9 316.748ZM189.016 315.217L191.614 313.717C190.786 312.282 188.951 311.791 187.516 312.619L189.016 315.217ZM186.044 316.933L183.446 318.433C184.274 319.868 186.109 320.36 187.544 319.531L186.044 316.933ZM185.043 315.199L183.543 312.601C182.108 313.43 181.616 315.264 182.445 316.699L185.043 315.199ZM187.734 313.646L189.234 316.244C190.669 315.415 191.16 313.581 190.332 312.146L187.734 313.646ZM186.876 312.16L189.474 310.66C188.645 309.225 186.811 308.733 185.376 309.562L186.876 312.16ZM184.185 313.713L181.587 315.213C182.415 316.648 184.25 317.14 185.685 316.311L184.185 313.713ZM183.262 312.115L181.762 309.516C180.327 310.345 179.835 312.18 180.664 313.615L183.262 312.115ZM186.212 310.412L187.712 313.01C189.147 312.181 189.638 310.346 188.81 308.912L186.212 310.412ZM185.328 308.88L187.926 307.38C187.097 305.946 185.263 305.454 183.828 306.282L185.328 308.88ZM180.689 311.558L179.189 308.96C177.754 309.789 177.263 311.624 178.091 313.058L180.689 311.558ZM186.739 322.037L191.4 319.346L188.4 314.15L183.739 316.841L186.739 322.037ZM192.498 315.248L191.614 313.717L186.418 316.717L187.302 318.248L192.498 315.248ZM187.516 312.619L184.544 314.335L187.544 319.531L190.516 317.815L187.516 312.619ZM188.642 315.433L187.641 313.699L182.445 316.699L183.446 318.433L188.642 315.433ZM186.543 317.797L189.234 316.244L186.234 311.048L183.543 312.601L186.543 317.797ZM190.332 312.146L189.474 310.66L184.278 313.66L185.136 315.146L190.332 312.146ZM185.376 309.562L182.685 311.115L185.685 316.311L188.376 314.758L185.376 309.562ZM186.783 312.213L185.86 310.615L180.664 313.615L181.587 315.213L186.783 312.213ZM184.762 314.713L187.712 313.01L184.712 307.813L181.762 309.516L184.762 314.713ZM188.81 308.912L187.926 307.38L182.73 310.38L183.614 311.912L188.81 308.912ZM183.828 306.282L179.189 308.96L182.189 314.156L186.828 311.478L183.828 306.282ZM178.091 313.058L182.641 320.939L187.837 317.939L183.287 310.058L178.091 313.058ZM200.221 309.679L203.164 310.256C203.318 309.472 203.153 308.658 202.704 307.996C202.256 307.334 201.562 306.879 200.776 306.731L200.221 309.679ZM199.025 309.454L196.046 309.095C195.857 310.663 196.917 312.109 198.469 312.402L199.025 309.454ZM198.577 311.018L199.135 308.071C197.816 307.821 196.492 308.477 195.893 309.678L198.577 311.018ZM199.908 311.27L199.35 314.218C200.971 314.525 202.535 313.466 202.852 311.848L199.908 311.27ZM197.133 309.09L196.564 312.035C197.439 312.204 198.344 311.976 199.033 311.411C199.723 310.847 200.126 310.005 200.133 309.114L197.133 309.09ZM195.731 308.819L196.3 305.873C194.683 305.56 193.116 306.61 192.79 308.225L195.731 308.819ZM195.412 310.399L192.471 309.805C192.314 310.588 192.474 311.401 192.917 312.065C193.361 312.728 194.05 313.188 194.833 313.342L195.412 310.399ZM196.614 310.635L199.093 312.325C199.661 311.492 199.773 310.43 199.39 309.497C199.008 308.564 198.183 307.886 197.194 307.691L196.614 310.635ZM200.776 306.731L199.58 306.506L198.469 312.402L199.665 312.627L200.776 306.731ZM202.003 309.813C202.196 308.209 201.88 306.553 201.025 305.072L195.828 308.072C196.026 308.414 196.086 308.763 196.046 309.095L202.003 309.813ZM201.025 305.072C198.87 301.339 194.144 300.131 190.447 302.266L193.447 307.462C194.32 306.957 195.357 307.256 195.828 308.072L201.025 305.072ZM190.447 302.266C186.75 304.4 185.433 309.097 187.587 312.83L192.784 309.83C192.312 309.014 192.573 307.966 193.447 307.462L190.447 302.266ZM187.587 312.83C189.742 316.562 194.469 317.77 198.166 315.635L195.166 310.439C194.292 310.944 193.255 310.646 192.784 309.83L187.587 312.83ZM198.166 315.635C199.535 314.845 200.589 313.703 201.261 312.358L195.893 309.678C195.743 309.978 195.508 310.242 195.166 310.439L198.166 315.635ZM198.019 313.966L199.35 314.218L200.466 308.323L199.135 308.071L198.019 313.966ZM202.852 311.848L203.164 310.256L197.277 309.101L196.964 310.693L202.852 311.848ZM194.128 309.053C194.132 309.059 194.133 309.062 194.133 309.063C194.134 309.064 194.134 309.064 194.133 309.063C194.133 309.061 194.133 309.061 194.133 309.065L200.133 309.114C200.141 308.09 199.89 307.032 199.325 306.053L194.128 309.053ZM197.703 306.144L196.3 305.873L195.161 311.764L196.564 312.035L197.703 306.144ZM192.79 308.225L192.471 309.805L198.353 310.992L198.672 309.412L192.79 308.225ZM194.833 313.342L196.035 313.579L197.194 307.691L195.991 307.455L194.833 313.342ZM194.136 308.945C194.17 308.894 194.204 308.86 194.226 308.84C194.247 308.821 194.254 308.819 194.236 308.829L197.236 314.026C197.923 313.629 198.581 313.076 199.093 312.325L194.136 308.945ZM194.236 308.829C194.246 308.824 194.273 308.812 194.312 308.807C194.349 308.803 194.384 308.806 194.413 308.814C194.442 308.823 194.463 308.835 194.477 308.845C194.491 308.856 194.491 308.861 194.484 308.848L189.287 311.848C190.879 314.605 194.377 315.676 197.236 314.026L194.236 308.829ZM194.484 308.848C194.476 308.835 194.48 308.838 194.483 308.856C194.485 308.872 194.485 308.896 194.478 308.926C194.47 308.956 194.455 308.988 194.433 309.018C194.41 309.049 194.386 309.066 194.376 309.072L191.376 303.876C188.517 305.527 187.696 309.091 189.287 311.848L194.484 308.848ZM194.376 309.072C194.366 309.078 194.339 309.089 194.3 309.094C194.263 309.099 194.228 309.095 194.199 309.087C194.17 309.079 194.149 309.066 194.135 309.056C194.121 309.045 194.121 309.04 194.128 309.053L199.325 306.053C197.733 303.296 194.235 302.225 191.376 303.876L194.376 309.072ZM205.366 297.311L207.964 295.811C207.136 294.376 205.301 293.885 203.866 294.713L205.366 297.311ZM203.655 298.299L202.155 295.701C200.72 296.53 200.228 298.364 201.057 299.799L203.655 298.299ZM200.75 299.976L203.348 298.476C202.52 297.041 200.685 296.55 199.25 297.378L200.75 299.976ZM199.039 300.964L197.539 298.366C196.104 299.195 195.612 301.029 196.441 302.464L199.039 300.964ZM208.337 309.763C209.904 308.858 211.116 307.458 211.558 305.645C211.994 303.854 211.58 302.074 210.707 300.562L205.511 303.562C205.65 303.803 205.703 303.978 205.722 304.082C205.74 304.18 205.729 304.221 205.729 304.224C205.728 304.225 205.725 304.245 205.688 304.291C205.647 304.342 205.548 304.445 205.337 304.567L208.337 309.763ZM210.707 300.562L207.964 295.811L202.768 298.811L205.511 303.562L210.707 300.562ZM203.866 294.713L202.155 295.701L205.155 300.897L206.866 299.909L203.866 294.713ZM201.057 299.799L203.748 304.46L208.944 301.46L206.253 296.799L201.057 299.799ZM203.748 304.46C203.829 304.601 203.661 304.395 203.738 303.938C203.778 303.7 203.876 303.464 204.023 303.264C204.166 303.07 204.312 302.967 204.388 302.923L207.388 308.119C208.522 307.465 209.413 306.373 209.655 304.932C209.88 303.594 209.474 302.378 208.944 301.46L203.748 304.46ZM204.388 302.923C204.464 302.879 204.626 302.805 204.865 302.778C205.113 302.75 205.366 302.783 205.592 302.868C206.026 303.03 206.12 303.278 206.039 303.137L200.843 306.137C201.373 307.055 202.223 308.015 203.494 308.489C204.863 309 206.254 308.774 207.388 308.119L204.388 302.923ZM206.039 303.137L203.348 298.476L198.152 301.476L200.843 306.137L206.039 303.137ZM199.25 297.378L197.539 298.366L200.539 303.562L202.25 302.574L199.25 297.378ZM196.441 302.464L199.184 307.215L204.38 304.215L201.637 299.464L196.441 302.464ZM199.184 307.215C200.056 308.727 201.391 309.976 203.16 310.493C204.951 311.017 206.77 310.668 208.337 309.763L205.337 304.567C205.126 304.689 204.987 304.723 204.923 304.733C204.864 304.742 204.845 304.735 204.844 304.735C204.841 304.734 204.8 304.723 204.724 304.658C204.644 304.59 204.519 304.456 204.38 304.215L199.184 307.215ZM208.624 295.43L207.124 292.832C205.689 293.661 205.197 295.495 206.026 296.93L208.624 295.43ZM213.174 303.311L210.576 304.811C211.404 306.246 213.239 306.738 214.674 305.909L213.174 303.311ZM214.874 302.33L216.374 304.928C217.809 304.099 218.3 302.264 217.472 300.83L214.874 302.33ZM210.324 294.449L212.922 292.949C212.094 291.514 210.259 291.022 208.824 291.851L210.324 294.449ZM206.026 296.93L210.576 304.811L215.772 301.811L211.222 293.93L206.026 296.93ZM214.674 305.909L216.374 304.928L213.374 299.732L211.674 300.713L214.674 305.909ZM217.472 300.83L212.922 292.949L207.726 295.949L212.276 303.83L217.472 300.83ZM208.824 291.851L207.124 292.832L210.124 298.028L211.824 297.047L208.824 291.851ZM218.24 296.543L216.74 293.945C215.306 294.773 214.814 296.608 215.642 298.043L218.24 296.543ZM218.691 296.283L220.011 293.589C219.113 293.149 218.056 293.185 217.191 293.685L218.691 296.283ZM222.291 298.047L220.971 300.741C221.869 301.181 222.926 301.145 223.791 300.645L222.291 298.047ZM224.284 296.897L225.784 299.495C226.754 298.935 227.331 297.881 227.281 296.762C227.231 295.643 226.561 294.645 225.544 294.174L224.284 296.897ZM220.33 295.066L218.003 293.173C217.419 293.891 217.199 294.839 217.407 295.742C217.616 296.644 218.229 297.4 219.07 297.789L220.33 295.066ZM213.677 292.513L212.177 289.915C210.742 290.743 210.25 292.578 211.079 294.013L213.677 292.513ZM218.227 300.394L215.629 301.894C216.457 303.329 218.292 303.82 219.727 302.992L218.227 300.394ZM219.904 299.425L221.404 302.023C222.839 301.195 223.331 299.36 222.503 297.925L219.904 299.425ZM216.232 293.064L214.732 290.466C213.297 291.295 212.805 293.129 213.634 294.564L216.232 293.064ZM217.434 295.147L214.836 296.647C215.665 298.082 217.5 298.574 218.934 297.745L217.434 295.147ZM219.74 299.141L220.191 298.881L217.191 293.685L216.74 293.945L219.74 299.141ZM217.371 298.977L220.971 300.741L223.611 295.353L220.011 293.589L217.371 298.977ZM223.791 300.645L225.784 299.495L222.784 294.299L220.791 295.449L223.791 300.645ZM225.544 294.174L221.59 292.344L219.07 297.789L223.024 299.619L225.544 294.174ZM222.657 296.96C224.054 295.244 224.603 292.724 223.236 290.356L218.04 293.356C218.051 293.375 218.041 293.362 218.032 293.32C218.023 293.277 218.021 293.229 218.026 293.185C218.037 293.095 218.066 293.096 218.003 293.173L222.657 296.96ZM223.236 290.356C222.374 288.863 220.998 287.81 219.289 287.503C217.661 287.21 216.09 287.656 214.8 288.4L217.8 293.596C217.996 293.483 218.136 293.438 218.211 293.421C218.284 293.405 218.284 293.418 218.227 293.408C218.164 293.397 218.092 293.367 218.034 293.325C217.981 293.286 217.993 293.275 218.04 293.356L223.236 290.356ZM214.8 288.4L212.177 289.915L215.177 295.111L217.8 293.596L214.8 288.4ZM211.079 294.013L215.629 301.894L220.825 298.894L216.275 291.013L211.079 294.013ZM219.727 302.992L221.404 302.023L218.404 296.827L216.727 297.796L219.727 302.992ZM222.503 297.925L220.839 295.043L215.642 298.043L217.306 300.925L222.503 297.925ZM217.732 295.662L218.689 295.11L215.689 289.914L214.732 290.466L217.732 295.662ZM218.689 295.11C218.574 295.176 218.203 295.348 217.652 295.249C217.022 295.136 216.573 294.74 216.36 294.372L221.556 291.372C220.959 290.338 219.963 289.568 218.713 289.344C217.543 289.133 216.48 289.457 215.689 289.914L218.689 295.11ZM216.36 294.372C216.14 293.991 216.037 293.42 216.235 292.848C216.414 292.334 216.74 292.084 216.891 291.996L219.891 297.193C220.719 296.715 221.516 295.93 221.903 294.816C222.311 293.642 222.153 292.405 221.556 291.372L216.36 294.372ZM216.891 291.996L215.934 292.549L218.934 297.745L219.891 297.193L216.891 291.996ZM220.033 293.647L218.83 291.564L213.634 294.564L214.836 296.647L220.033 293.647ZM226.919 295.375L224.321 296.875C225.15 298.31 226.984 298.802 228.419 297.973L226.919 295.375ZM231.58 292.684L233.08 295.282C234.515 294.454 235.007 292.619 234.178 291.184L231.58 292.684ZM230.696 291.153L233.294 289.653C232.466 288.218 230.631 287.727 229.196 288.555L230.696 291.153ZM227.724 292.869L225.126 294.369C225.954 295.804 227.789 296.296 229.224 295.467L227.724 292.869ZM226.723 291.135L225.223 288.537C223.788 289.366 223.296 291.2 224.125 292.635L226.723 291.135ZM229.414 289.582L230.914 292.18C232.349 291.351 232.84 289.517 232.012 288.082L229.414 289.582ZM228.556 288.096L231.154 286.596C230.325 285.161 228.491 284.669 227.056 285.498L228.556 288.096ZM225.865 289.649L223.267 291.149C224.095 292.584 225.93 293.076 227.365 292.247L225.865 289.649ZM224.942 288.051L223.442 285.452C222.007 286.281 221.515 288.116 222.344 289.551L224.942 288.051ZM227.892 286.348L229.392 288.946C230.827 288.117 231.318 286.282 230.49 284.848L227.892 286.348ZM227.008 284.816L229.606 283.316C228.777 281.882 226.943 281.39 225.508 282.218L227.008 284.816ZM222.369 287.494L220.869 284.896C219.434 285.725 218.943 287.56 219.771 288.994L222.369 287.494ZM228.419 297.973L233.08 295.282L230.08 290.086L225.419 292.777L228.419 297.973ZM234.178 291.184L233.294 289.653L228.098 292.653L228.982 294.184L234.178 291.184ZM229.196 288.555L226.224 290.271L229.224 295.467L232.196 293.751L229.196 288.555ZM230.322 291.369L229.321 289.635L224.125 292.635L225.126 294.369L230.322 291.369ZM228.223 293.733L230.914 292.18L227.914 286.984L225.223 288.537L228.223 293.733ZM232.012 288.082L231.154 286.596L225.958 289.596L226.816 291.082L232.012 288.082ZM227.056 285.498L224.365 287.051L227.365 292.247L230.056 290.694L227.056 285.498ZM228.463 288.149L227.54 286.551L222.344 289.551L223.267 291.149L228.463 288.149ZM226.442 290.649L229.392 288.946L226.392 283.749L223.442 285.452L226.442 290.649ZM230.49 284.848L229.606 283.316L224.41 286.316L225.294 287.848L230.49 284.848ZM225.508 282.218L220.869 284.896L223.869 290.093L228.508 287.415L225.508 282.218ZM219.771 288.994L224.321 296.875L229.517 293.875L224.967 285.994L219.771 288.994ZM237.086 278.998L235.586 276.4C234.565 276.989 233.984 278.122 234.101 279.295L237.086 278.998ZM237.775 285.911L236.024 288.347C236.982 289.035 238.254 289.098 239.275 288.509C240.296 287.919 240.877 286.786 240.76 285.613L237.775 285.911ZM232.132 281.858L233.882 279.421C232.925 278.733 231.653 278.67 230.632 279.26L232.132 281.858ZM230.072 283.047L228.572 280.449C227.137 281.278 226.645 283.112 227.474 284.547L230.072 283.047ZM234.622 290.928L232.024 292.428C232.852 293.863 234.687 294.355 236.122 293.526L234.622 290.928ZM236.266 289.979L237.766 292.577C239.201 291.749 239.692 289.914 238.864 288.479L236.266 289.979ZM233.347 284.924L235.088 282.481C233.938 281.662 232.374 281.755 231.329 282.704C230.285 283.653 230.043 285.202 230.749 286.424L233.347 284.924ZM238.574 288.647L236.833 291.09C237.79 291.772 239.056 291.832 240.074 291.245L238.574 288.647ZM239.677 288.01L241.177 290.608C242.194 290.02 242.775 288.894 242.663 287.725L239.677 288.01ZM239.065 281.593L241.663 280.093C240.957 278.871 239.495 278.306 238.151 278.736C236.807 279.165 235.944 280.473 236.078 281.878L239.065 281.593ZM241.996 286.671L239.398 288.171C240.226 289.605 242.061 290.097 243.496 289.269L241.996 286.671ZM243.64 285.722L245.14 288.32C246.575 287.491 247.066 285.656 246.238 284.222L243.64 285.722ZM239.09 277.841L241.688 276.341C240.86 274.906 239.025 274.414 237.59 275.243L239.09 277.841ZM234.101 279.295L234.789 286.208L240.76 285.613L240.071 278.7L234.101 279.295ZM239.525 283.474L233.882 279.421L230.382 284.294L236.024 288.347L239.525 283.474ZM230.632 279.26L228.572 280.449L231.572 285.645L233.632 284.456L230.632 279.26ZM227.474 284.547L232.024 292.428L237.22 289.428L232.67 281.547L227.474 284.547ZM236.122 293.526L237.766 292.577L234.766 287.381L233.122 288.33L236.122 293.526ZM238.864 288.479L235.945 283.424L230.749 286.424L233.668 291.479L238.864 288.479ZM231.607 287.368L236.833 291.09L240.314 286.203L235.088 282.481L231.607 287.368ZM240.074 291.245L241.177 290.608L238.177 285.412L237.074 286.049L240.074 291.245ZM242.663 287.725L242.051 281.308L236.078 281.878L236.69 288.295L242.663 287.725ZM236.467 283.093L239.398 288.171L244.594 285.171L241.663 280.093L236.467 283.093ZM243.496 289.269L245.14 288.32L242.14 283.124L240.496 284.073L243.496 289.269ZM246.238 284.222L241.688 276.341L236.492 279.341L241.042 287.222L246.238 284.222ZM237.59 275.243L235.586 276.4L238.586 281.596L240.59 280.439L237.59 275.243ZM246.997 283.783L244.399 285.283C245.228 286.718 247.062 287.21 248.497 286.381L246.997 283.783ZM251.658 281.092L253.158 283.69C254.593 282.862 255.085 281.027 254.256 279.592L251.658 281.092ZM250.774 279.561L253.372 278.061C252.544 276.626 250.709 276.135 249.274 276.963L250.774 279.561ZM247.802 281.277L245.204 282.777C246.032 284.212 247.867 284.704 249.302 283.875L247.802 281.277ZM246.801 279.543L245.301 276.945C243.866 277.774 243.375 279.608 244.203 281.043L246.801 279.543ZM249.492 277.99L250.992 280.588C252.427 279.759 252.918 277.925 252.09 276.49L249.492 277.99ZM248.634 276.504L251.232 275.004C250.403 273.569 248.569 273.077 247.134 273.906L248.634 276.504ZM245.943 278.057L243.345 279.557C244.173 280.992 246.008 281.484 247.443 280.655L245.943 278.057ZM245.02 276.458L243.52 273.86C242.085 274.689 241.594 276.524 242.422 277.958L245.02 276.458ZM247.97 274.755L249.47 277.354C250.905 276.525 251.396 274.69 250.568 273.255L247.97 274.755ZM247.086 273.224L249.684 271.724C248.855 270.289 247.021 269.798 245.586 270.626L247.086 273.224ZM242.447 275.902L240.947 273.304C239.512 274.133 239.021 275.967 239.849 277.402L242.447 275.902ZM248.497 286.381L253.158 283.69L250.158 278.494L245.497 281.185L248.497 286.381ZM254.256 279.592L253.372 278.061L248.176 281.061L249.06 282.592L254.256 279.592ZM249.274 276.963L246.302 278.679L249.302 283.875L252.274 282.159L249.274 276.963ZM250.4 279.777L249.399 278.043L244.203 281.043L245.204 282.777L250.4 279.777ZM248.301 282.141L250.992 280.588L247.992 275.392L245.301 276.945L248.301 282.141ZM252.09 276.49L251.232 275.004L246.036 278.004L246.894 279.49L252.09 276.49ZM247.134 273.906L244.443 275.459L247.443 280.655L250.134 279.102L247.134 273.906ZM248.541 276.557L247.618 274.958L242.422 277.958L243.345 279.557L248.541 276.557ZM246.52 279.057L249.47 277.354L246.47 272.157L243.52 273.86L246.52 279.057ZM250.568 273.255L249.684 271.724L244.488 274.724L245.372 276.255L250.568 273.255ZM245.586 270.626L240.947 273.304L243.947 278.5L248.586 275.822L245.586 270.626ZM239.849 277.402L244.399 285.283L249.595 282.283L245.045 274.402L239.849 277.402ZM255.543 268.342L254.043 265.744C252.608 266.572 252.116 268.407 252.945 269.842L255.543 268.342ZM258.559 273.566L257.295 276.286C258.482 276.838 259.889 276.556 260.772 275.591C261.655 274.625 261.811 273.199 261.157 272.066L258.559 273.566ZM251.873 270.461L253.136 267.74C252.25 267.328 251.219 267.374 250.373 267.863L251.873 270.461ZM250.15 271.455L248.65 268.857C247.215 269.686 246.724 271.52 247.552 272.955L250.15 271.455ZM254.7 279.336L252.102 280.836C252.93 282.271 254.765 282.763 256.2 281.934L254.7 279.336ZM256.344 278.387L257.844 280.985C259.279 280.157 259.77 278.322 258.942 276.887L256.344 278.387ZM253.341 273.186L254.587 270.457C253.4 269.915 251.999 270.202 251.121 271.168C250.243 272.133 250.09 273.556 250.743 274.686L253.341 273.186ZM260.048 276.248L258.802 278.977C259.684 279.381 260.707 279.332 261.548 278.847L260.048 276.248ZM261.736 275.273L263.236 277.872C264.671 277.043 265.163 275.208 264.335 273.773L261.736 275.273ZM257.186 267.393L259.785 265.893C258.956 264.458 257.121 263.966 255.686 264.795L257.186 267.393ZM252.945 269.842L255.961 275.066L261.157 272.066L258.141 266.842L252.945 269.842ZM259.822 270.845L253.136 267.74L250.609 273.182L257.295 276.286L259.822 270.845ZM250.373 267.863L248.65 268.857L251.65 274.053L253.373 273.059L250.373 267.863ZM247.552 272.955L252.102 280.836L257.298 277.836L252.748 269.955L247.552 272.955ZM256.2 281.934L257.844 280.985L254.844 275.789L253.2 276.738L256.2 281.934ZM258.942 276.887L255.939 271.686L250.743 274.686L253.746 279.887L258.942 276.887ZM252.095 275.915L258.802 278.977L261.294 273.52L254.587 270.457L252.095 275.915ZM261.548 278.847L263.236 277.872L260.236 272.675L258.548 273.65L261.548 278.847ZM264.335 273.773L259.785 265.893L254.588 268.893L259.138 276.774L264.335 273.773ZM255.686 264.795L254.043 265.744L257.043 270.94L258.686 269.991L255.686 264.795ZM260.826 267.393L258.228 268.893C259.056 270.328 260.891 270.819 262.326 269.991L260.826 267.393ZM262.909 266.19L265.507 264.69C264.678 263.256 262.844 262.764 261.409 263.592L262.909 266.19ZM266.549 272.495L263.951 273.995C264.779 275.43 266.614 275.922 268.049 275.093L266.549 272.495ZM268.249 271.514L269.749 274.112C271.184 273.283 271.675 271.449 270.847 270.014L268.249 271.514ZM264.609 265.209L263.109 262.611C261.674 263.439 261.182 265.274 262.011 266.709L264.609 265.209ZM266.68 264.013L268.18 266.611C269.615 265.783 270.107 263.948 269.278 262.513L266.68 264.013ZM265.77 262.437L268.368 260.937C267.54 259.502 265.705 259.01 264.27 259.839L265.77 262.437ZM259.916 265.817L258.416 263.219C256.981 264.047 256.489 265.882 257.318 267.317L259.916 265.817ZM262.326 269.991L264.409 268.789L261.409 263.592L259.326 264.795L262.326 269.991ZM260.311 267.69L263.951 273.995L269.147 270.995L265.507 264.69L260.311 267.69ZM268.049 275.093L269.749 274.112L266.749 268.916L265.049 269.897L268.049 275.093ZM270.847 270.014L267.207 263.709L262.011 266.709L265.651 273.014L270.847 270.014ZM266.109 267.807L268.18 266.611L265.18 261.415L263.109 262.611L266.109 267.807ZM269.278 262.513L268.368 260.937L263.172 263.937L264.082 265.513L269.278 262.513ZM264.27 259.839L258.416 263.219L261.416 268.415L267.27 265.035L264.27 259.839ZM257.318 267.317L258.228 268.893L263.424 265.893L262.514 264.317L257.318 267.317ZM271.413 267.3L268.865 265.717C268.06 267.012 268.355 268.705 269.55 269.652L271.413 267.3ZM273.656 262.267L274.123 265.231C274.132 265.229 274.14 265.228 274.148 265.227L273.656 262.267ZM272.404 262.465L271.937 259.501C271.926 259.503 271.915 259.505 271.904 259.507L272.404 262.465ZM273.449 261.156L271.689 263.585C272.377 264.083 273.243 264.267 274.074 264.09C274.904 263.913 275.621 263.393 276.046 262.658L273.449 261.156ZM274.389 259.532L276.985 261.035C277.761 259.695 277.389 257.985 276.127 257.088L274.389 259.532ZM272.695 264.398L273.219 267.352C273.224 267.351 273.229 267.35 273.234 267.35L272.695 264.398ZM273.835 264.19L273.304 261.238L273.297 261.239L273.835 264.19ZM272.417 265.685L274.272 263.327C273.601 262.799 272.738 262.582 271.897 262.73C271.057 262.878 270.319 263.376 269.869 264.101L272.417 265.685ZM269.55 269.652C271.833 271.46 274.726 271.433 276.981 270.132L273.981 264.935C273.783 265.049 273.634 265.068 273.551 265.064C273.48 265.061 273.392 265.041 273.275 264.948L269.55 269.652ZM276.981 270.132C279.404 268.732 281.411 265.384 279.423 261.94L274.227 264.94C274.236 264.955 274.233 264.954 274.228 264.937C274.222 264.92 274.216 264.894 274.214 264.862C274.208 264.793 274.221 264.741 274.229 264.719C274.236 264.702 274.231 264.723 274.19 264.771C274.148 264.818 274.079 264.879 273.981 264.935L276.981 270.132ZM279.423 261.94C278.804 260.868 277.872 260.005 276.622 259.545C275.446 259.113 274.239 259.129 273.164 259.308L274.148 265.227C274.367 265.19 274.502 265.187 274.57 265.191C274.634 265.194 274.617 265.201 274.551 265.177C274.478 265.15 274.392 265.102 274.316 265.036C274.244 264.972 274.219 264.927 274.227 264.94L279.423 261.94ZM273.189 259.304L271.937 259.501L272.871 265.428L274.123 265.231L273.189 259.304ZM271.904 259.507C271.764 259.53 271.988 259.466 272.369 259.56C272.59 259.614 272.869 259.721 273.15 259.925C273.435 260.132 273.646 260.384 273.788 260.63L268.592 263.63C269.142 264.582 270.013 265.16 270.944 265.388C271.732 265.581 272.456 265.498 272.904 265.423L271.904 259.507ZM273.788 260.63C274.142 261.243 274.174 261.979 273.931 262.591C273.714 263.138 273.355 263.413 273.165 263.523L270.165 258.327C269.457 258.736 268.741 259.405 268.355 260.376C267.944 261.411 267.998 262.6 268.592 263.63L273.788 260.63ZM273.165 263.523C272.793 263.738 272.387 263.776 272.081 263.725C271.819 263.682 271.693 263.588 271.689 263.585L275.21 258.726C274.184 257.983 272.202 257.151 270.165 258.327L273.165 263.523ZM276.046 262.658L276.985 261.035L271.792 258.03L270.853 259.653L276.046 262.658ZM276.127 257.088C274.048 255.609 271.386 255.535 269.228 256.781L272.228 261.978C272.334 261.916 272.415 261.906 272.466 261.908C272.515 261.91 272.576 261.924 272.65 261.977L276.127 257.088ZM269.228 256.781C267.946 257.522 266.886 258.676 266.402 260.162C265.906 261.685 266.098 263.314 266.917 264.732L272.113 261.732C272.1 261.709 272.12 261.736 272.128 261.809C272.136 261.882 272.127 261.958 272.107 262.021C272.064 262.152 272.024 262.095 272.228 261.978L269.228 256.781ZM266.917 264.732C267.6 265.916 268.624 266.76 269.879 267.179C271.053 267.572 272.229 267.528 273.219 267.352L272.171 261.444C271.983 261.478 271.859 261.483 271.79 261.481C271.723 261.479 271.728 261.471 271.781 261.489C271.84 261.509 271.923 261.549 272.003 261.615C272.081 261.68 272.113 261.733 272.113 261.732L266.917 264.732ZM273.234 267.35L274.374 267.141L273.297 261.239L272.156 261.447L273.234 267.35ZM274.367 267.143C274.506 267.118 274.265 267.189 273.856 267.075C273.626 267.011 273.359 266.892 273.102 266.692C272.844 266.492 272.665 266.264 272.547 266.06L277.743 263.06C277.242 262.193 276.444 261.568 275.469 261.296C274.63 261.062 273.845 261.14 273.304 261.238L274.367 267.143ZM272.547 266.06C272.175 265.416 272.19 264.662 272.443 264.094C272.653 263.622 272.958 263.409 273.087 263.335L276.087 268.531C276.767 268.138 277.497 267.492 277.922 266.54C278.389 265.492 278.407 264.21 277.743 263.06L272.547 266.06ZM273.087 263.335C273.335 263.192 273.619 263.145 273.863 263.175C274.09 263.204 274.223 263.288 274.272 263.327L270.562 268.042C271.978 269.157 274.126 269.663 276.087 268.531L273.087 263.335ZM269.869 264.101L268.865 265.717L273.961 268.884L274.965 267.268L269.869 264.101Z" fill="black"/>
<path d="M173.204 26.9393L175.286 28.1418L171.646 34.4464L173.346 35.4279L176.986 29.1233L179.058 30.3193L179.968 28.7431L174.114 25.3631L173.204 26.9393ZM178.139 38.1947L182.8 40.8857L183.684 39.3546L180.711 37.6386L181.712 35.9048L184.403 37.4583L185.261 35.9722L182.57 34.4187L183.493 32.8201L186.443 34.5231L187.327 32.9919L182.689 30.3139L178.139 38.1947ZM187.635 38.4235C186.283 40.7653 186.998 43.5048 189.34 44.8568C189.97 45.2208 190.77 45.4727 191.685 45.4751L192.718 43.6851C191.845 43.7666 191.09 43.6456 190.369 43.2296C188.973 42.4236 188.606 40.7708 189.38 39.431C190.166 38.0688 191.797 37.5842 193.171 38.3772C193.902 38.7997 194.379 39.4049 194.715 40.1997L195.749 38.4097C195.344 37.6806 194.757 37.0863 194.07 36.6898C191.796 35.3768 188.967 36.1156 187.635 38.4235ZM194.457 47.6159L196.157 48.5974L198.009 45.3888L201.161 47.2088L199.309 50.4174L201.009 51.3989L205.559 43.5181L203.859 42.5366L202.097 45.5876L198.945 43.7676L200.707 40.7166L199.007 39.7351L194.457 47.6159ZM214.312 48.5717L211.296 53.7955L210.642 46.4527L208.919 45.4582L204.369 53.339L206.013 54.288L209.016 49.0866L209.717 56.4265L211.406 57.4015L215.956 49.5207L214.312 48.5717ZM224.91 59.9444C226.223 57.6702 225.435 54.7981 223.149 53.4786C220.864 52.1591 217.982 52.9122 216.669 55.1864C215.356 57.4606 216.145 60.3327 218.43 61.6522C220.716 62.9717 223.597 62.2186 224.91 59.9444ZM223.176 58.9434C222.39 60.3057 220.719 60.782 219.379 60.0085C218.039 59.235 217.616 57.5497 218.403 56.1874C219.189 54.8252 220.86 54.3489 222.2 55.1224C223.54 55.8959 223.963 57.5812 223.176 58.9434ZM230.174 57.7294L225.624 65.6103L230.059 68.1713L230.976 66.5839L228.229 64.9979L231.862 58.7044L230.174 57.7294ZM242.459 70.0765C243.772 67.8024 242.984 64.9303 240.698 63.6108C238.413 62.2913 235.531 63.0444 234.218 65.3185C232.905 67.5927 233.694 70.4648 235.979 71.7843C238.265 73.1038 241.146 72.3507 242.459 70.0765ZM240.726 69.0755C239.939 70.4378 238.268 70.9141 236.928 70.1406C235.589 69.3671 235.166 67.6818 235.952 66.3195C236.739 64.9573 238.41 64.481 239.749 65.2545C241.089 66.028 241.512 67.7133 240.726 69.0755ZM253.993 74.0032C254.079 72.3718 253.188 70.8215 251.612 69.9115C249.349 68.605 246.431 69.3676 245.131 71.6192C243.831 73.8709 244.585 76.7525 246.881 78.0785C249.133 79.3785 251.758 78.6275 253.026 76.4321L253.39 75.8017L249.292 73.4357L248.473 74.8542L250.758 76.1737C250.035 76.9574 248.856 77.1021 247.809 76.4976C246.458 75.7176 246.043 73.992 246.843 72.6072C247.642 71.2225 249.338 70.7301 250.677 71.5036C251.589 72.0301 252.074 72.8805 252.033 73.8623L253.993 74.0032ZM258.997 80.315L264.386 77.4817L262.483 76.3832L259.074 78.2579L258.993 74.3682L257.056 73.2502L257.297 79.3335L255.321 82.7561L257.021 83.7376L258.997 80.315Z" fill="white"/>
<path d="M166.25 212.333H164.375V208.524C164.375 203.267 160.175 199 155 199C149.825 199 145.625 203.267 145.625 208.524V212.333H143.75C141.688 212.333 140 214.048 140 216.143V235.19C140 237.286 141.688 239 143.75 239H166.25C168.313 239 170 237.286 170 235.19V216.143C170 214.048 168.313 212.333 166.25 212.333ZM149.375 208.524C149.375 205.362 151.888 202.81 155 202.81C158.113 202.81 160.625 205.362 160.625 208.524V212.333H149.375V208.524Z" fill="black"/>
</svg>
