<svg width="450" height="480" viewBox="0 0 450 480" fill="none" xmlns="http://www.w3.org/2000/svg">
<path d="M260 130H150C139 130 130 139 130 150V280C130 285.5 134.5 290 140 290C145.5 290 150 285.5 150 280V160C150 154.5 154.5 150 160 150H260C265.5 150 270 145.5 270 140C270 134.5 265.5 130 260 130ZM265.9 175.9L314.2 224.2C317.9 227.9 320 233 320 238.3V330C320 341 311 350 300 350H189.9C178.9 350 170 341 170 330L170.1 190C170.1 179 179 170 190 170H251.7C257 170 262.1 172.1 265.9 175.9ZM260 240H305L250 185V230C250 235.5 254.5 240 260 240Z" fill="#0F5153"/>
</svg>
