<svg width="420" height="420" viewBox="0 0 420 420" fill="none" xmlns="http://www.w3.org/2000/svg">
<g clip-path="url(#clip0)">
<path d="M335.494 412.933L336.719 412.221L331.141 408.067L328.263 411.278L332.648 414.588L335.494 412.933ZM361.081 379.352L360.783 378.971L355.619 382.977L357.953 386.684L363.167 382.579C362.902 382.099 362.62 381.603 362.289 381.106C361.958 380.61 361.527 379.948 361.081 379.352V379.352ZM318.53 360.121L314.691 358.135L312.191 364.324L315.304 368.181L318.614 360.154L318.53 360.121ZM344.018 357.886L340.923 354.014L338.822 359.144L342.678 361.163L344.018 357.853V357.886ZM329.95 340.227L326.823 336.321L321.526 337.033L321.725 341.402L330 340.227H329.95ZM253.736 415.812L248.49 419.933H255.572L256.052 419.536L253.736 415.796V415.812ZM307.74 404.095L306.713 397.044L306.499 397.177L302.658 399.13L303.353 404.244L307.74 404.095ZM197.564 405.071L198.044 409.623L200.476 413.909H202.81L201.934 405.137H197.564V405.071ZM211.433 393.271L205.343 392.261L204.2 396.482L210.82 397.574L211.35 393.271H211.433ZM217.276 379.882L215.703 382.215C215.322 382.761 214.958 383.308 214.61 383.87L221.711 385.029L222.705 380.792L217.276 379.915V379.882ZM232.171 361.858H229.638L228.298 363.811L228.049 364.192L228.696 370.812L233.048 370.68L232.171 361.941V361.858ZM244.352 346.268L241.539 344.994L238.99 348.618L242.3 350.091L244.369 346.268H244.352ZM320.731 398.699L329.454 399.775L330.446 395.505L321.625 394.479L320.731 398.699ZM348.338 392.609L344.002 392.841L345.227 401.563L349.596 401.397L348.338 392.609ZM339.384 379.369L343.24 381.404L346.551 373.129L342.694 371.16L339.384 379.336V379.369ZM326.558 360.766L330.248 358.399L324.786 351.432L321.163 353.765L326.558 360.766ZM333.823 372.12L332.499 367.982L324.356 371.408L325.664 375.612L333.823 372.12ZM307.607 414.075L308.981 418.196L317.057 414.77L315.8 410.566L307.525 414.075H307.607ZM285.678 410.765L283.758 414.654L291.884 417.964L293.969 414.091L285.694 410.781L285.678 410.765ZM189.156 390.093L191.44 393.784L198.574 388.62L196.389 384.83L189.156 390.093ZM253.604 398.584L252.097 407.471L256.484 407.901L257.808 398.832L253.604 398.584ZM272.968 407.537L264.494 409.573L265.802 414.058L274.374 411.46L272.968 407.537ZM284.949 395.952L281.639 403.714L285.264 405.204L288.476 397.574L284.883 395.919L284.949 395.952ZM224.641 411.873L225.171 407.488L216.167 406.627V410.616L224.657 411.873H224.641ZM240.48 406.826L236.093 406.975L237.367 415.846L241.703 415.548L240.48 406.826ZM238.741 394.976L240.396 399.014L248.986 396.316L247.663 392.162L238.725 394.976H238.741ZM232.105 392.642L233.76 383.903L230.02 383.142L227.901 391.748L232.038 392.642H232.105ZM291.123 376.307L282.848 378.624L284.073 382.96L292.712 380.511L291.173 376.307H291.123ZM299.714 360.998L296.403 369.025L300.606 370.68L303.916 362.405L299.629 361.064L299.714 360.998ZM275.218 391.599L266.645 390.557L266.099 394.612L274.788 395.952L275.499 391.566L275.218 391.599ZM247.464 383.606L254.084 377.333L250.906 373.89L244.385 380.511L247.48 383.606H247.464ZM250.459 366.178L252.214 361.991L243.409 359.839L241.87 363.629L250.459 366.178ZM277.586 362.537L276.509 367.072L285.214 369.174L286.026 365.317L277.586 362.537ZM266.728 370.448L262.325 370.564L262.789 379.6L266.728 379.021V370.448ZM268.796 357.291L267.87 353.054L259.413 355.536L260.224 359.839L268.796 357.291ZM274.01 332.018L277.767 339.83L281.541 337.596L277.337 329.734L274.027 331.969L274.01 332.018ZM259.644 336.785L252.527 341.915L254.713 345.722L261.929 340.475L259.644 336.785ZM306.167 348.684L298.356 343.901L296.701 347.989L304.082 352.491L306.085 348.684H306.167ZM304.098 335.775L311.662 331.638L309.379 328.013L301.351 332.382L304.098 335.775ZM285.066 346.93L280.58 346.268L278.843 355.139L283.36 355.42L285.015 346.93H285.066ZM175.072 324.62C173.417 324.62 172.804 325.216 173.235 326.457L175.669 331.588L185.714 331.108L195.429 334.898L193.774 341.253L186.326 337.712L177.505 338.191L202.115 349.065L200.03 353.087L197.696 357.655L195.363 362.239L194.27 364.341C195.098 366.509 196.142 367.651 197.383 367.651H214.066C215.125 367.651 215.472 367.237 215.124 366.327L193.956 325.564C193.811 325.255 193.574 324.999 193.278 324.83C192.981 324.661 192.641 324.588 192.301 324.62H175.072Z" fill="#FDF6BA"/>
<path d="M307.526 358.565L312.192 364.324L314.692 358.135L318.531 360.121L315.221 368.148L329.24 385.476L332.102 384.086L329.24 385.476L306.499 397.061L307.526 404.111L303.139 404.26L302.444 399.146L301.98 399.378L291.24 404.906L288.194 406.296C283.659 408.348 279.191 410.45 274.805 412.552C269.707 414.979 264.742 417.445 259.91 419.95H322.801C325.73 418.378 328.594 416.806 331.407 415.2L332.632 414.505L328.246 411.195L331.126 407.984L336.704 412.138C345.266 407.14 353.331 402.048 360.9 396.862C365.468 392.99 366.217 388.201 363.15 382.497L357.938 386.601L355.604 382.894L360.768 378.889L343.92 357.771L342.579 361.081L338.722 359.062L340.825 353.931L329.852 340.178L321.577 341.353L321.378 336.983L326.673 336.272L323.909 332.829L323.413 332.167C321.063 329.238 319.06 327.699 317.422 327.599L307.492 358.515L307.526 358.565ZM283.809 414.555L285.729 410.665L294.004 413.975L291.918 417.848L283.793 414.538L283.809 414.555ZM308.932 418.047L307.558 413.926L315.833 410.417L317.092 414.621L309.014 418.047H308.932ZM332.532 367.833L333.857 371.971L325.697 375.463L324.389 371.259L332.532 367.833ZM330.282 358.251L326.591 360.617L321.196 353.616L324.821 351.283L330.282 358.251ZM343.241 381.239L339.385 379.203L342.695 371.027L346.551 372.997L343.241 381.272V381.239ZM344.003 392.642L348.339 392.41L349.596 401.199L345.228 401.364L344.003 392.642ZM329.455 399.577L320.732 398.501L321.626 394.281L330.447 395.307L329.455 399.577ZM259.695 327.318C258.205 327.126 256.692 327.319 255.298 327.878C253.905 328.437 252.678 329.344 251.735 330.512C250.758 331.853 249.798 333.193 248.854 334.551C247.431 336.52 246.04 338.489 244.667 340.426L241.556 344.795L244.369 346.07L242.301 349.893L238.991 348.42C235.791 352.954 232.673 357.395 229.639 361.743H232.172L233.049 370.481L228.697 370.614L228.05 363.994C227.272 365.086 226.529 366.178 225.8 367.304C223.368 370.812 220.984 374.271 218.7 377.648C218.204 378.343 217.724 379.054 217.244 379.766L222.671 380.643L221.679 384.88L214.579 383.721C213.702 384.996 212.924 386.254 212.014 387.528L211.319 393.155L210.789 397.458L209.863 404.856L210.789 397.458L204.169 396.366L205.311 392.146L211.401 393.155L212.096 387.528L202.365 369.405L184.573 381.686L183.099 382.679L182.836 382.861L198.012 409.573L197.532 405.022H201.901L202.779 413.793H200.445L203.755 419.768L259.678 327.219L259.695 327.318ZM201.752 372.434C201.655 372.222 201.615 371.988 201.636 371.756C201.662 371.697 201.701 371.645 201.751 371.604C201.8 371.563 201.859 371.534 201.922 371.52C201.985 371.505 202.05 371.505 202.113 371.521C202.175 371.536 202.233 371.565 202.283 371.607C202.391 371.699 202.462 371.829 202.481 371.971C202.746 372.699 202.91 373.096 202.944 373.179L204.036 375.744V375.959C204.042 376.039 204.023 376.119 203.981 376.187C203.94 376.255 203.879 376.309 203.805 376.34C203.749 376.394 203.675 376.424 203.598 376.424C203.521 376.424 203.447 376.394 203.391 376.34C203.297 376.263 203.228 376.159 203.192 376.042L201.686 372.484L201.752 372.434ZM188.181 382.844C188.094 382.713 188.033 382.567 188 382.414C187.975 382.335 187.969 382.25 187.987 382.169C188.004 382.088 188.043 382.013 188.098 381.951C188.141 381.893 188.203 381.854 188.273 381.838C188.343 381.823 188.415 381.834 188.478 381.868C188.627 381.868 188.744 382.033 188.86 382.298C188.976 382.563 189.339 383.324 189.555 383.87L190.266 385.84C190.291 385.926 190.291 386.018 190.266 386.105C190.269 386.186 190.249 386.267 190.208 386.337C190.167 386.407 190.107 386.464 190.035 386.502C189.957 386.533 189.872 386.541 189.791 386.526C189.709 386.512 189.633 386.475 189.571 386.419C189.571 386.419 189.571 386.237 189.356 385.956L189.191 385.575V385.294L189.075 384.963C188.824 384.238 188.525 383.53 188.181 382.844V382.844ZM192.435 383.109C191.949 382.094 191.536 381.151 191.194 380.279C191.151 380.182 191.129 380.078 191.129 379.973C191.129 379.867 191.151 379.763 191.194 379.667C191.214 379.618 191.245 379.575 191.286 379.541C191.326 379.506 191.373 379.481 191.425 379.468C191.521 379.435 191.627 379.435 191.724 379.468C191.878 379.597 191.987 379.77 192.037 379.965C192.564 381.326 193.166 382.658 193.841 383.953C193.903 384.055 193.948 384.167 193.973 384.284C193.975 384.365 193.954 384.446 193.912 384.515C193.87 384.585 193.809 384.641 193.736 384.677C193.663 384.714 193.581 384.729 193.5 384.721C193.419 384.713 193.343 384.682 193.278 384.632C193.193 384.55 193.13 384.447 193.096 384.334L192.501 383.109H192.435ZM185.136 384.665C185.056 384.523 185.011 384.364 185.003 384.201C184.986 384.139 184.982 384.073 184.994 384.009C185.005 383.945 185.031 383.885 185.07 383.832C185.108 383.78 185.158 383.736 185.215 383.706C185.272 383.675 185.336 383.658 185.401 383.655C185.474 383.668 185.543 383.697 185.603 383.74C185.663 383.783 185.713 383.839 185.748 383.904L186.327 385.294C186.548 385.82 186.797 386.333 187.072 386.833L187.353 387.363C187.453 387.532 187.494 387.73 187.47 387.925C187.456 387.99 187.426 388.049 187.382 388.099C187.339 388.148 187.283 388.185 187.221 388.207C187.169 388.239 187.109 388.256 187.048 388.256C186.986 388.256 186.926 388.239 186.873 388.207C186.727 388.064 186.62 387.888 186.56 387.693L186.194 386.982C185.963 386.535 185.681 385.972 185.367 385.327L185.136 384.764V384.665ZM191.541 393.734L189.257 390.044L196.49 384.781L198.673 388.571L191.541 393.734ZM199.501 374.271L201.156 378.078C201.156 378.161 201.156 378.293 201.289 378.442C201.329 378.566 201.329 378.699 201.289 378.823C201.263 378.868 201.228 378.906 201.185 378.935C201.142 378.964 201.093 378.982 201.041 378.988C200.986 378.997 200.929 378.995 200.875 378.98C200.821 378.966 200.77 378.94 200.726 378.905C200.621 378.814 200.546 378.693 200.511 378.558L198.972 374.917C198.908 374.773 198.856 374.624 198.822 374.47C198.808 374.391 198.812 374.311 198.832 374.234C198.852 374.156 198.888 374.084 198.939 374.023C199.018 373.958 199.117 373.923 199.22 373.923C199.322 373.923 199.421 373.958 199.501 374.023C199.558 374.101 199.607 374.184 199.65 374.271H199.501ZM195.116 377.581C195.039 377.444 194.994 377.291 194.984 377.134C195.011 377.018 195.074 376.914 195.165 376.837C195.212 376.809 195.268 376.794 195.323 376.794C195.378 376.794 195.432 376.809 195.48 376.837C195.629 376.837 195.745 377.019 195.861 377.25L197.3 380.445C197.424 380.712 197.53 380.989 197.615 381.272C197.656 381.369 197.678 381.473 197.678 381.578C197.678 381.683 197.656 381.788 197.615 381.884C197.577 381.934 197.53 381.976 197.476 382.008C197.422 382.039 197.362 382.059 197.3 382.066C197.235 382.066 197.17 382.053 197.111 382.028C197.051 382.002 196.997 381.965 196.952 381.917L196.837 381.603C196.687 381.146 196.509 380.699 196.307 380.262L195.116 377.614V377.581ZM296.718 317.537L276.857 317.222H274.457H276.857V313.184C273.547 313.383 271.892 313.945 271.892 314.839L271.28 327.335C267.275 327.224 263.469 327.224 259.861 327.335L203.755 419.9H248.441L253.687 415.779L256.005 419.52L255.525 419.917H259.994C264.892 417.423 269.858 414.957 274.889 412.519C279.275 410.417 283.743 408.315 288.278 406.263L291.323 404.873L307.526 358.532L317.456 327.616H303.155L300.392 314.177C300.11 313.548 298.737 313.316 296.453 313.482V317.454L296.718 317.537ZM299.134 319.457C299.18 319.63 299.18 319.813 299.134 319.986C299.134 320.863 299.135 321.823 299.301 322.866C299.326 323.064 299.326 323.264 299.301 323.462V324.455C299.316 324.565 299.316 324.676 299.301 324.786C299.276 324.947 299.192 325.094 299.068 325.2C299 325.241 298.924 325.262 298.845 325.262C298.766 325.262 298.689 325.241 298.622 325.2C298.52 325.11 298.455 324.986 298.439 324.852V324.455C298.438 323.703 298.399 322.952 298.323 322.204C298.323 321.84 298.241 321.045 298.224 319.837C298.2 319.723 298.2 319.604 298.224 319.49C298.252 319.424 298.298 319.367 298.357 319.326C298.415 319.285 298.484 319.262 298.555 319.258C298.63 319.257 298.704 319.274 298.77 319.309C298.837 319.343 298.894 319.394 298.935 319.457H299.134ZM290.296 319.556V320.317V324.968C290.34 325.108 290.34 325.258 290.296 325.398C290.256 325.47 290.194 325.528 290.12 325.565C290.047 325.602 289.965 325.616 289.883 325.606C289.801 325.595 289.723 325.56 289.661 325.505C289.599 325.451 289.556 325.379 289.535 325.299C289.535 325.299 289.535 325.167 289.535 324.984C289.581 324.086 289.581 323.185 289.535 322.287C289.535 321.079 289.535 320.185 289.535 319.572C289.533 319.434 289.567 319.297 289.634 319.175C289.657 319.106 289.706 319.048 289.771 319.014C289.836 318.98 289.911 318.972 289.981 318.993C290.052 318.989 290.124 319.007 290.183 319.046C290.243 319.085 290.288 319.142 290.313 319.208C290.346 319.322 290.346 319.443 290.313 319.556H290.296ZM294.583 319.258C294.605 319.373 294.605 319.491 294.583 319.606V324.984C294.616 325.098 294.616 325.219 294.583 325.332C294.552 325.405 294.503 325.469 294.439 325.516C294.375 325.563 294.298 325.591 294.219 325.597C294.145 325.594 294.073 325.573 294.009 325.535C293.945 325.497 293.894 325.445 293.855 325.382C293.833 325.272 293.833 325.16 293.855 325.051V319.622C293.824 319.503 293.824 319.377 293.855 319.258C293.883 319.188 293.929 319.129 293.991 319.087C294.053 319.046 294.128 319.025 294.203 319.026C294.283 319.02 294.362 319.039 294.431 319.081C294.499 319.122 294.552 319.184 294.583 319.258V319.258ZM280.648 320.069C280.63 319.908 280.665 319.746 280.746 319.606C280.781 319.539 280.839 319.486 280.908 319.456C280.977 319.426 281.055 319.42 281.128 319.44C281.201 319.438 281.272 319.462 281.33 319.508C281.387 319.553 281.427 319.617 281.443 319.688C281.465 319.803 281.465 319.921 281.443 320.036V325.15C281.434 325.312 281.375 325.468 281.276 325.597C281.229 325.638 281.173 325.668 281.113 325.685C281.053 325.702 280.99 325.706 280.929 325.696C280.872 325.695 280.816 325.679 280.767 325.65C280.718 325.621 280.676 325.58 280.648 325.531C280.58 325.349 280.58 325.149 280.648 324.968C280.648 324.769 280.648 324.455 280.648 324.041V320.069ZM285.711 319.374C285.734 319.483 285.734 319.596 285.711 319.705V320.549C285.711 322.684 285.713 324.19 285.58 325.018C285.606 325.138 285.606 325.262 285.58 325.382C285.56 325.435 285.523 325.482 285.475 325.514C285.428 325.547 285.373 325.564 285.315 325.564C285.261 325.589 285.201 325.602 285.141 325.602C285.081 325.602 285.022 325.589 284.968 325.564C284.898 325.458 284.85 325.338 284.827 325.213C284.804 325.088 284.807 324.96 284.835 324.836C284.921 324.016 284.959 323.193 284.95 322.369C284.95 321.261 284.95 320.417 284.95 319.854C284.933 319.675 284.974 319.495 285.066 319.341C285.105 319.282 285.16 319.236 285.225 319.21C285.29 319.183 285.361 319.177 285.43 319.192C285.498 319.2 285.564 319.226 285.619 319.266C285.674 319.307 285.717 319.361 285.745 319.424L285.711 319.374ZM280.366 346.351L284.851 347.013L283.196 355.503L278.677 355.222L280.416 346.351H280.366ZM311.497 331.72L303.934 335.858L301.187 332.465L309.213 328.096L311.497 331.72ZM298.108 343.984L305.921 348.767L303.917 352.574L296.535 348.072L298.19 343.984H298.108ZM273.035 320.367C273.007 320.151 273.06 319.933 273.184 319.755C273.23 319.706 273.288 319.672 273.352 319.654C273.416 319.637 273.483 319.637 273.547 319.655C273.605 319.667 273.661 319.691 273.709 319.725C273.757 319.759 273.798 319.803 273.829 319.854C273.854 319.974 273.854 320.098 273.829 320.218V322.634V323.644V324.653C273.858 324.89 273.806 325.129 273.68 325.332C273.633 325.389 273.57 325.431 273.499 325.452C273.428 325.473 273.352 325.471 273.282 325.448C273.209 325.443 273.138 325.415 273.082 325.367C273.025 325.319 272.986 325.255 272.969 325.183V324.041V322.883C273.027 322.045 273.027 321.204 272.969 320.367H273.035ZM277.486 319.771C277.531 319.888 277.531 320.018 277.486 320.135L277.354 323.445C277.354 323.71 277.354 324.124 277.255 324.653C277.289 324.795 277.289 324.942 277.255 325.084C277.224 325.155 277.173 325.215 277.108 325.257C277.043 325.3 276.969 325.322 276.891 325.322C276.814 325.322 276.738 325.3 276.673 325.257C276.609 325.215 276.557 325.155 276.526 325.084C276.52 324.99 276.52 324.896 276.526 324.802C276.5 324.455 276.5 324.107 276.526 323.76C276.526 323.296 276.609 322.949 276.609 322.734V320.069C276.602 319.924 276.637 319.781 276.709 319.655C276.745 319.592 276.798 319.54 276.862 319.505C276.927 319.47 276.999 319.453 277.072 319.457C277.146 319.46 277.219 319.485 277.278 319.529C277.337 319.574 277.38 319.635 277.404 319.705L277.486 319.771ZM252.215 341.932L259.331 336.801L261.615 340.492L254.398 345.739L252.215 341.932ZM277.47 339.797L273.712 331.985L277.022 329.751L281.541 337.596L277.701 339.78L277.47 339.797ZM267.771 353.021L268.699 357.258L260.125 359.806L259.315 355.503L267.771 353.021ZM262.227 370.531L266.63 370.415V378.972L262.691 379.551L262.227 370.514V370.531ZM276.411 367.022L277.486 362.487L285.928 365.268L285.116 369.124L276.411 367.022ZM252.114 361.941L250.361 366.128L241.771 363.58L243.311 359.79L252.114 361.941ZM253.984 377.283L247.364 383.556L244.271 380.461L250.791 373.841L253.968 377.283H253.984ZM266.547 390.524L275.401 391.533L274.69 395.919L266.001 394.578L266.547 390.524ZM296.585 369.008L299.895 360.981L304.182 362.322L300.872 370.597L296.668 368.942L296.585 369.008ZM283.031 378.541L291.307 376.224L292.845 380.428L284.206 382.877L282.981 378.541H283.031ZM233.943 383.821L232.288 392.559L228.15 391.666L230.268 383.059L234.009 383.821H233.943ZM240.629 398.931L238.974 394.893L247.911 392.079L249.236 396.233L240.646 398.931H240.629ZM236.325 406.892L240.712 406.743L241.937 415.465L237.601 415.763L236.325 406.892ZM225.419 407.405L224.889 411.791L216.399 410.533V406.544L225.403 407.405H225.419ZM281.873 403.598L285.183 395.836L288.774 397.491L285.563 405.121L281.939 403.631L281.873 403.598ZM264.726 409.408L273.2 407.372L274.606 411.294L266.033 413.893L264.726 409.408ZM252.329 407.306L253.836 398.418L258.04 398.666L256.716 407.736L252.329 407.306Z" fill="#FF5B00"/>
<path d="M194.796 377.119C194.807 377.276 194.852 377.428 194.929 377.565L196.12 380.213C196.322 380.65 196.499 381.097 196.65 381.554L196.767 381.869C196.811 381.916 196.865 381.953 196.925 381.979C196.985 382.004 197.049 382.017 197.114 382.017C197.176 382.01 197.236 381.99 197.29 381.959C197.344 381.927 197.39 381.885 197.428 381.835C197.469 381.739 197.491 381.635 197.491 381.529C197.491 381.424 197.469 381.32 197.428 381.223C197.343 380.94 197.239 380.663 197.114 380.396L195.674 377.201C195.558 376.97 195.441 376.821 195.293 376.788C195.245 376.76 195.191 376.745 195.136 376.745C195.081 376.745 195.027 376.76 194.979 376.788C194.888 376.865 194.824 376.969 194.796 377.085V377.119ZM201.037 378.029L199.382 374.222C199.339 374.135 199.288 374.052 199.231 373.974C199.152 373.91 199.052 373.874 198.95 373.874C198.848 373.874 198.748 373.91 198.669 373.974C198.618 374.036 198.582 374.107 198.562 374.185C198.542 374.262 198.54 374.342 198.554 374.421C198.588 374.575 198.638 374.724 198.703 374.868L200.241 378.509C200.277 378.644 200.351 378.765 200.456 378.856C200.5 378.892 200.551 378.917 200.605 378.931C200.659 378.946 200.716 378.948 200.772 378.939C200.823 378.933 200.872 378.915 200.915 378.886C200.959 378.857 200.993 378.819 201.019 378.774C201.059 378.65 201.059 378.517 201.019 378.393C201.019 378.244 200.919 378.112 200.886 378.029H201.037ZM184.816 384.252C184.823 384.414 184.869 384.573 184.949 384.715L185.181 385.278C185.496 385.973 185.777 386.536 186.009 386.933L186.372 387.645C186.433 387.839 186.542 388.015 186.688 388.158C186.74 388.19 186.799 388.207 186.861 388.207C186.922 388.207 186.983 388.19 187.035 388.158C187.097 388.136 187.152 388.099 187.195 388.05C187.239 388 187.269 387.941 187.282 387.876C187.307 387.681 187.267 387.483 187.168 387.314L186.885 386.784C186.61 386.284 186.362 385.771 186.141 385.245L185.561 383.855C185.525 383.79 185.476 383.734 185.416 383.691C185.356 383.648 185.286 383.619 185.214 383.606C185.149 383.609 185.085 383.626 185.028 383.657C184.97 383.687 184.921 383.731 184.882 383.783C184.844 383.836 184.819 383.896 184.808 383.96C184.796 384.024 184.798 384.09 184.816 384.152V384.252ZM191.073 380.23C191.415 381.113 191.828 382.056 192.314 383.06L192.91 384.285C192.945 384.398 193.006 384.501 193.091 384.583C193.155 384.633 193.233 384.664 193.314 384.672C193.395 384.68 193.476 384.665 193.549 384.629C193.621 384.592 193.683 384.536 193.725 384.466C193.767 384.397 193.789 384.317 193.788 384.235C193.763 384.118 193.718 384.006 193.655 383.904C192.981 382.609 192.377 381.278 191.85 379.916C191.8 379.721 191.691 379.548 191.536 379.419C191.44 379.386 191.336 379.386 191.239 379.419C191.188 379.432 191.14 379.457 191.1 379.492C191.06 379.526 191.027 379.569 191.006 379.618C190.964 379.714 190.942 379.818 190.942 379.924C190.942 380.029 190.964 380.134 191.006 380.23H191.073ZM187.813 382.365C187.846 382.518 187.908 382.664 187.995 382.795C188.34 383.481 188.637 384.189 188.887 384.914L189.004 385.245V385.526L189.17 385.907C189.303 386.188 189.369 386.354 189.385 386.37C189.447 386.426 189.523 386.463 189.605 386.478C189.687 386.492 189.77 386.484 189.847 386.453C189.92 386.415 189.981 386.358 190.022 386.288C190.063 386.218 190.083 386.137 190.08 386.056C190.105 385.969 190.105 385.877 190.08 385.791L189.367 383.821C189.152 383.275 188.921 382.746 188.672 382.249C188.424 381.753 188.442 381.852 188.293 381.819C188.23 381.785 188.157 381.774 188.087 381.789C188.017 381.805 187.954 381.844 187.911 381.902C187.856 381.964 187.819 382.039 187.801 382.12C187.784 382.201 187.788 382.286 187.813 382.365V382.365ZM201.384 371.756C201.363 371.989 201.402 372.223 201.499 372.435L203.005 375.993C203.04 376.11 203.11 376.214 203.204 376.291C203.26 376.345 203.334 376.375 203.411 376.375C203.488 376.375 203.562 376.345 203.618 376.291C203.691 376.26 203.754 376.207 203.796 376.138C203.837 376.07 203.855 375.99 203.849 375.91V375.695L202.758 373.13C202.758 373.047 202.559 372.65 202.294 371.922C202.275 371.78 202.204 371.65 202.095 371.558C202.046 371.516 201.988 371.487 201.926 371.472C201.863 371.456 201.797 371.456 201.735 371.471C201.672 371.485 201.615 371.514 201.565 371.555C201.516 371.596 201.476 371.648 201.45 371.707L201.384 371.756ZM277.582 319.937C277.626 319.82 277.626 319.69 277.582 319.573C277.558 319.503 277.513 319.442 277.454 319.398C277.395 319.353 277.324 319.328 277.25 319.325C277.177 319.321 277.105 319.338 277.04 319.373C276.976 319.408 276.923 319.46 276.887 319.524C276.815 319.649 276.78 319.793 276.787 319.937V322.602C276.787 322.817 276.787 323.165 276.704 323.628C276.678 323.975 276.678 324.324 276.704 324.671C276.698 324.764 276.698 324.858 276.704 324.952C276.735 325.023 276.787 325.083 276.851 325.126C276.916 325.168 276.99 325.191 277.068 325.191C277.145 325.191 277.221 325.168 277.286 325.126C277.351 325.083 277.401 325.023 277.431 324.952C277.465 324.811 277.465 324.663 277.431 324.522C277.431 323.992 277.432 323.578 277.532 323.314L277.664 320.004L277.582 319.937ZM273.245 319.623C273.122 319.801 273.069 320.02 273.097 320.235C273.155 321.073 273.155 321.913 273.097 322.751V323.909V325.051C273.114 325.123 273.153 325.188 273.21 325.235C273.266 325.283 273.336 325.311 273.41 325.316C273.48 325.339 273.556 325.341 273.627 325.32C273.698 325.299 273.761 325.258 273.808 325.2C273.934 324.998 273.986 324.758 273.957 324.522C273.957 324.257 273.957 323.926 273.957 323.512V322.503C273.957 321.956 273.957 321.146 273.957 320.086C273.981 319.966 273.981 319.842 273.957 319.722C273.926 319.671 273.885 319.628 273.837 319.593C273.788 319.559 273.733 319.535 273.675 319.524C273.611 319.505 273.544 319.505 273.48 319.522C273.416 319.54 273.357 319.575 273.312 319.623H273.245ZM286.056 319.623C286.078 319.514 286.078 319.401 286.056 319.292C286.028 319.229 285.983 319.175 285.928 319.135C285.873 319.094 285.808 319.068 285.741 319.06C285.672 319.045 285.6 319.052 285.535 319.078C285.47 319.105 285.415 319.15 285.377 319.209C285.285 319.363 285.243 319.543 285.26 319.722V322.238C285.269 323.061 285.23 323.885 285.144 324.704C285.116 324.828 285.113 324.956 285.136 325.081C285.159 325.207 285.207 325.326 285.277 325.432C285.331 325.457 285.391 325.47 285.451 325.47C285.511 325.47 285.57 325.457 285.624 325.432C285.682 325.432 285.738 325.415 285.786 325.383C285.833 325.35 285.869 325.304 285.889 325.25C285.915 325.13 285.915 325.006 285.889 324.886C285.972 324.058 286.022 322.552 286.022 320.417V319.573L286.056 319.623ZM281.057 319.474C280.975 319.614 280.941 319.776 280.958 319.937V323.909V324.836C280.891 325.018 280.891 325.217 280.958 325.399C280.987 325.448 281.027 325.49 281.076 325.519C281.125 325.548 281.182 325.564 281.239 325.564C281.301 325.574 281.364 325.57 281.424 325.553C281.484 325.536 281.54 325.506 281.587 325.465C281.685 325.336 281.742 325.18 281.752 325.018V319.904C281.774 319.789 281.774 319.671 281.752 319.557C281.736 319.485 281.696 319.421 281.638 319.376C281.581 319.331 281.511 319.307 281.438 319.308C281.365 319.288 281.288 319.294 281.218 319.324C281.149 319.354 281.092 319.407 281.057 319.474V319.474ZM294.942 319.474C294.964 319.359 294.964 319.241 294.942 319.126C294.911 319.053 294.858 318.991 294.79 318.949C294.721 318.907 294.642 318.888 294.562 318.895C294.487 318.893 294.414 318.914 294.352 318.956C294.29 318.997 294.242 319.057 294.214 319.126C294.183 319.246 294.183 319.371 294.214 319.49V324.919C294.192 325.028 294.192 325.141 294.214 325.25C294.253 325.313 294.306 325.366 294.37 325.403C294.433 325.441 294.504 325.462 294.578 325.465C294.657 325.459 294.734 325.431 294.798 325.384C294.862 325.337 294.911 325.274 294.942 325.2C294.975 325.087 294.975 324.966 294.942 324.853V319.474ZM290.655 320.186V319.424C290.689 319.311 290.689 319.19 290.655 319.077C290.631 319.01 290.586 318.953 290.526 318.914C290.467 318.876 290.395 318.857 290.324 318.862C290.254 318.841 290.179 318.848 290.114 318.882C290.049 318.916 289.999 318.974 289.977 319.044C289.909 319.165 289.876 319.302 289.878 319.441V322.155C289.924 323.054 289.924 323.954 289.878 324.853V325.167C289.899 325.247 289.942 325.319 290.004 325.374C290.066 325.428 290.144 325.463 290.226 325.474C290.307 325.485 290.391 325.471 290.465 325.434C290.539 325.397 290.599 325.338 290.639 325.266C290.683 325.126 290.683 324.976 290.639 324.836C290.639 323.794 290.639 322.238 290.639 320.186H290.655ZM299.328 319.855C299.375 319.681 299.375 319.498 299.328 319.325C299.287 319.263 299.23 319.212 299.163 319.177C299.097 319.142 299.022 319.125 298.947 319.126C298.875 319.13 298.807 319.154 298.748 319.195C298.689 319.236 298.645 319.292 298.617 319.358C298.592 319.473 298.592 319.591 298.617 319.706C298.617 320.914 298.616 321.708 298.716 322.072C298.792 322.82 298.831 323.571 298.832 324.323V324.72C298.848 324.855 298.911 324.979 299.013 325.068C299.08 325.109 299.159 325.13 299.238 325.13C299.317 325.13 299.393 325.109 299.461 325.068C299.585 324.962 299.667 324.815 299.692 324.654C299.707 324.544 299.707 324.433 299.692 324.323V323.33C299.717 323.132 299.717 322.932 299.692 322.734C299.593 321.692 299.527 320.732 299.527 319.855H299.328ZM276.853 298.753V308.683C283.104 311.558 290.232 311.872 296.713 309.56V298.786L276.853 298.753Z" fill="#10204F"/>
<path d="M296.533 317.488V313.516V309.693C290.052 312.005 282.924 311.69 276.672 308.815V317.173L296.533 317.488ZM175.715 331.655L170.105 331.936L171.975 355.256L184.454 381.736L202.246 369.456V367.718H197.43C196.188 367.718 195.146 366.576 194.318 364.408L179.969 360.684L194.318 364.408L195.329 362.289L178.959 354.56L195.329 362.289L197.662 357.705L179.274 349.43L197.662 357.705L199.996 353.137L180.449 344.399L199.996 353.137L202.081 349.115L177.471 338.242L186.292 337.762L193.74 341.304L195.395 334.948L185.68 331.158L175.715 331.655Z" fill="#A6394B"/>
<path d="M161.234 345.094C156.722 335.781 151.52 330.005 145.628 327.765C143.295 326.937 140.797 326.687 138.347 327.037C133.172 327.898 127.996 331.026 122.821 336.421L43 419.702L100.76 422.814L136.244 382.381L155.906 419.835H203.737L200.427 413.86L197.993 409.573L182.816 382.861L161.234 345.094Z" fill="#022782"/>
<path d="M259.913 420.579C259.798 420.579 259.686 420.548 259.587 420.49C259.488 420.432 259.407 420.348 259.351 420.248C259.314 420.174 259.292 420.094 259.286 420.011C259.28 419.929 259.291 419.846 259.317 419.768C259.343 419.689 259.384 419.617 259.438 419.554C259.492 419.492 259.558 419.441 259.632 419.404C264.514 416.888 269.562 414.439 274.527 411.989C278.93 409.871 283.449 407.769 287.934 405.717L290.73 404.442L306.85 358.35L316.781 327.45C316.834 327.292 316.946 327.16 317.094 327.083C317.242 327.006 317.414 326.989 317.574 327.037C317.732 327.089 317.863 327.203 317.938 327.352C318.012 327.501 318.024 327.673 317.972 327.831L308.042 358.747L292.353 403.615L301.687 398.815L302.134 398.6L305.989 396.647L306.155 396.548L328.944 384.963L331.808 383.589C331.882 383.552 331.962 383.53 332.044 383.524C332.127 383.518 332.21 383.529 332.288 383.555C332.367 383.581 332.439 383.622 332.502 383.676C332.564 383.731 332.615 383.796 332.652 383.87C332.689 383.945 332.71 384.027 332.715 384.11C332.72 384.193 332.707 384.276 332.68 384.355C332.652 384.433 332.609 384.505 332.554 384.567C332.498 384.629 332.43 384.679 332.355 384.714L329.509 386.105L306.768 397.69L306.585 397.806L302.713 399.775L302.217 400.023L291.507 405.535L288.496 406.892C284.028 408.944 279.526 411.046 275.124 413.164C270.159 415.564 265.045 418.047 260.228 420.546C260.128 420.583 260.019 420.594 259.913 420.579V420.579ZM203.742 420.579C203.625 420.579 203.509 420.545 203.411 420.48C203.269 420.394 203.167 420.255 203.127 420.094C203.086 419.932 203.111 419.762 203.196 419.619L259.136 327.07C259.177 326.998 259.231 326.934 259.297 326.884C259.363 326.834 259.44 326.798 259.52 326.778C259.601 326.758 259.684 326.754 259.766 326.767C259.848 326.78 259.927 326.81 259.997 326.855C260.141 326.944 260.243 327.085 260.283 327.249C260.324 327.413 260.298 327.586 260.212 327.732L204.271 420.264C204.214 420.347 204.137 420.415 204.048 420.461C203.958 420.507 203.859 420.531 203.759 420.529L203.742 420.579ZM209.849 405.601C209.766 405.593 209.686 405.568 209.613 405.529C209.539 405.489 209.474 405.435 209.422 405.371C209.37 405.306 209.331 405.232 209.307 405.152C209.284 405.072 209.277 404.988 209.286 404.906L211.437 387.561C211.443 387.478 211.466 387.397 211.505 387.323C211.544 387.25 211.598 387.185 211.664 387.134C211.729 387.082 211.806 387.045 211.887 387.025C211.967 387.004 212.05 387.001 212.132 387.015C212.215 387.023 212.297 387.048 212.37 387.087C212.443 387.127 212.507 387.18 212.559 387.245C212.611 387.31 212.65 387.384 212.674 387.464C212.697 387.544 212.706 387.627 212.696 387.71L210.544 405.055C210.511 405.21 210.424 405.347 210.295 405.439C210.166 405.531 210.006 405.571 209.849 405.551V405.601ZM183.004 383.44C182.902 383.44 182.802 383.414 182.712 383.365C182.622 383.315 182.547 383.245 182.492 383.159C182.445 383.09 182.411 383.013 182.394 382.932C182.376 382.851 182.377 382.767 182.392 382.686C182.407 382.604 182.438 382.526 182.484 382.457C182.53 382.388 182.588 382.328 182.657 382.282L183.683 381.57L171.419 355.586C171.412 355.509 171.412 355.431 171.419 355.354L169.549 332.035C169.542 331.952 169.551 331.868 169.577 331.788C169.602 331.709 169.644 331.635 169.698 331.571C169.753 331.506 169.821 331.454 169.898 331.417C169.975 331.38 170.06 331.359 170.146 331.356L175.756 331.075L185.802 330.595C185.89 330.579 185.978 330.579 186.066 330.595L195.781 334.385C195.922 334.444 196.039 334.551 196.109 334.687C196.179 334.824 196.198 334.981 196.162 335.13L194.507 341.502C194.484 341.59 194.443 341.673 194.386 341.744C194.329 341.815 194.257 341.874 194.176 341.915C194.091 341.956 193.997 341.978 193.903 341.978C193.808 341.978 193.715 341.956 193.63 341.915L186.331 338.423L180.291 338.754L202.501 348.569C202.581 348.602 202.653 348.652 202.713 348.714C202.773 348.777 202.819 348.851 202.849 348.933C202.907 349.093 202.907 349.269 202.849 349.429L200.764 353.467L198.43 358.019L196.096 362.603L195.003 364.705C194.937 364.834 194.828 364.937 194.696 364.997C194.564 365.057 194.415 365.071 194.274 365.036L179.926 361.312C179.845 361.292 179.77 361.255 179.704 361.205C179.638 361.156 179.582 361.093 179.539 361.022C179.497 360.95 179.469 360.871 179.457 360.789C179.445 360.707 179.451 360.623 179.471 360.543C179.492 360.462 179.528 360.387 179.578 360.32C179.628 360.254 179.691 360.198 179.762 360.156C179.834 360.113 179.913 360.086 179.995 360.074C180.077 360.062 180.16 360.067 180.241 360.088L194.11 363.679L194.656 362.62L178.801 355.156C178.726 355.12 178.659 355.069 178.603 355.008C178.548 354.946 178.505 354.874 178.477 354.795C178.45 354.717 178.437 354.634 178.442 354.551C178.446 354.468 178.467 354.387 178.503 354.312C178.539 354.237 178.588 354.169 178.65 354.114C178.712 354.058 178.785 354.015 178.864 353.988C178.942 353.96 179.025 353.948 179.108 353.953C179.191 353.957 179.272 353.978 179.347 354.014L195.235 361.494L197.006 358.035L179.214 350.008C179.063 349.94 178.945 349.814 178.886 349.659C178.827 349.504 178.834 349.332 178.901 349.181C178.933 349.105 178.98 349.036 179.04 348.978C179.099 348.921 179.169 348.876 179.247 348.847C179.324 348.817 179.406 348.804 179.489 348.807C179.572 348.811 179.654 348.831 179.728 348.866L197.585 356.91L199.34 353.484L180.389 345.01C180.313 344.976 180.243 344.927 180.186 344.866C180.128 344.805 180.084 344.733 180.055 344.655C180.026 344.576 180.012 344.492 180.016 344.408C180.02 344.324 180.04 344.242 180.076 344.166C180.148 344.018 180.273 343.903 180.427 343.845C180.58 343.786 180.751 343.789 180.903 343.852L199.918 352.359L201.409 349.446L177.411 338.854C177.282 338.794 177.176 338.693 177.11 338.568C177.044 338.442 177.023 338.298 177.047 338.158C177.073 338.021 177.142 337.895 177.247 337.802C177.352 337.709 177.486 337.654 177.626 337.645L186.463 337.165C186.561 337.14 186.665 337.14 186.762 337.165L193.513 340.393L194.839 335.312L185.784 331.77L175.854 332.25L170.889 332.498L172.694 355.056L184.824 380.775L201.987 368.925C202.055 368.878 202.131 368.843 202.212 368.825C202.292 368.807 202.376 368.804 202.458 368.818C202.539 368.832 202.617 368.862 202.687 368.906C202.757 368.95 202.817 369.007 202.865 369.074C202.914 369.142 202.95 369.219 202.968 369.3C202.987 369.382 202.987 369.467 202.971 369.549C202.956 369.631 202.925 369.709 202.878 369.778C202.831 369.848 202.77 369.907 202.7 369.952L184.925 382.232L183.452 383.241C183.324 383.339 183.166 383.392 183.004 383.39V383.44ZM298.326 318.199H296.539L276.678 317.884H274.296C274.129 317.876 273.972 317.805 273.855 317.685C273.738 317.565 273.671 317.406 273.667 317.239C273.672 317.075 273.739 316.919 273.857 316.805C273.974 316.69 274.132 316.626 274.296 316.626H276.696L296.557 316.941H298.344C298.511 316.949 298.669 317.02 298.785 317.14C298.902 317.26 298.969 317.419 298.973 317.586C298.953 317.743 298.875 317.887 298.756 317.99C298.637 318.094 298.484 318.15 298.326 318.149V318.199Z" fill="#10204F"/>
<path d="M195.479 362.719H195.38C195.323 362.709 195.269 362.688 195.22 362.656C195.172 362.625 195.13 362.584 195.098 362.536C195.065 362.488 195.042 362.434 195.031 362.378C195.02 362.321 195.021 362.262 195.033 362.206C195.041 362.154 195.058 362.104 195.086 362.059C195.114 362.015 195.151 361.977 195.195 361.947C195.238 361.917 195.288 361.897 195.34 361.888C195.392 361.878 195.444 361.879 195.495 361.891H195.578C195.687 361.919 195.781 361.988 195.839 362.084C195.898 362.18 195.918 362.295 195.893 362.404C195.868 362.495 195.814 362.574 195.739 362.631C195.665 362.688 195.573 362.719 195.479 362.719V362.719Z" fill="#10204F"/>
<path d="M209.25 363.977L210.06 365.434L211.715 366.195L212.56 365.434L211.749 363.977L210.011 363.167L209.25 363.977Z" fill="#FF5B00"/>
<path d="M267.79 306.481C266.607 306.476 265.434 306.257 264.329 305.836C263.088 305.396 261.954 304.7 260.998 303.793C260.043 302.887 259.29 301.789 258.786 300.573C258.262 299.343 257.992 298.02 257.992 296.683C257.992 295.347 258.262 294.024 258.786 292.794C259.755 290.242 261.694 288.177 264.181 287.051C265.359 286.48 266.64 286.151 267.948 286.086C269.256 286.02 270.565 286.219 271.795 286.671C271.898 286.708 271.981 286.785 272.028 286.884C272.074 286.983 272.079 287.097 272.042 287.2C272.025 287.253 271.999 287.301 271.963 287.343C271.927 287.385 271.883 287.419 271.834 287.444C271.784 287.469 271.73 287.483 271.675 287.487C271.62 287.491 271.566 287.483 271.514 287.465C270.385 287.054 269.185 286.873 267.985 286.933C266.786 286.993 265.61 287.292 264.528 287.813C262.238 288.852 260.453 290.757 259.563 293.109C259.08 294.236 258.831 295.449 258.831 296.675C258.831 297.901 259.08 299.115 259.563 300.242C260.021 301.356 260.709 302.361 261.582 303.191C262.455 304.02 263.493 304.657 264.628 305.058C265.769 305.488 266.986 305.68 268.204 305.624C269.422 305.567 270.615 305.262 271.711 304.727C274 303.694 275.785 301.795 276.676 299.447C277.144 298.311 277.377 297.091 277.36 295.862C277.343 294.633 277.077 293.421 276.577 292.298C276.397 291.889 276.192 291.491 275.965 291.106C275.935 291.06 275.915 291.008 275.905 290.953C275.895 290.898 275.896 290.842 275.908 290.788C275.921 290.734 275.944 290.683 275.976 290.638C276.009 290.593 276.05 290.556 276.097 290.527C276.194 290.472 276.309 290.456 276.417 290.484C276.525 290.512 276.618 290.581 276.676 290.676C276.929 291.088 277.151 291.52 277.339 291.967C277.88 293.189 278.17 294.508 278.19 295.844C278.21 297.181 277.96 298.508 277.455 299.745C276.975 301.011 276.249 302.17 275.32 303.156C274.391 304.141 273.278 304.934 272.042 305.488C270.714 306.127 269.263 306.466 267.79 306.481V306.481Z" fill="#F04B4A"/>
<path d="M316.016 305.173H315.916C315.809 305.142 315.719 305.073 315.661 304.978C315.603 304.883 315.582 304.77 315.603 304.66C315.98 303.212 316.005 301.693 315.674 300.233C315.343 298.773 314.665 297.414 313.699 296.269C313.205 295.722 312.65 295.233 312.044 294.813L311.648 294.565C311.565 294.499 311.509 294.406 311.491 294.303C311.473 294.199 311.493 294.092 311.548 294.003C311.603 293.913 311.689 293.847 311.79 293.816C311.891 293.785 311.998 293.793 312.094 293.837L312.524 294.118C313.175 294.601 313.769 295.156 314.295 295.773C315.178 296.751 315.847 297.902 316.261 299.153C316.674 300.404 316.822 301.727 316.695 303.038C316.648 303.669 316.548 304.295 316.396 304.909C316.365 304.985 316.313 305.05 316.246 305.097C316.179 305.144 316.099 305.17 316.016 305.173V305.173Z" fill="#F04B4A"/>
<path d="M266.977 290.015H267.076C267.646 289.841 268.174 289.552 268.627 289.164C269.08 288.777 269.447 288.3 269.707 287.764C270.014 287.258 270.213 286.693 270.29 286.106C270.367 285.519 270.321 284.922 270.155 284.354C270.033 283.766 269.777 283.213 269.406 282.739C269.036 282.266 268.561 281.884 268.019 281.624C267.448 281.329 266.834 281.128 266.2 281.028H266.001C266.012 281.071 266.012 281.117 266.001 281.16C265.931 283.344 266.085 285.529 266.463 287.681C266.554 288.378 266.687 289.069 266.861 289.75C266.899 289.782 266.929 289.823 266.95 289.869C266.97 289.915 266.979 289.965 266.977 290.015V290.015Z" fill="#FF5B00"/>
<path d="M275.363 260.968C276.456 261.877 277.685 262.608 279.005 263.136C279.545 263.338 280.098 263.503 280.66 263.633C283.729 264.259 286.911 264.036 289.863 262.987C292.991 262.011 295.357 262.243 296.995 263.649C297.575 264.162 298.053 264.78 298.403 265.47C299.594 267.721 300.058 271.296 299.859 276.194C299.848 278.336 300.283 280.456 301.137 282.42C301.992 284.383 303.249 286.147 304.824 287.598C306.548 287.205 308.352 287.397 309.954 288.144C311.23 283.699 311.384 279.008 310.402 274.49C309.919 271.398 308.783 268.444 307.071 265.825C305.359 263.205 303.11 260.98 300.472 259.297C299.843 258.949 299.23 258.568 298.618 258.204C294.478 256.077 289.733 255.44 285.179 256.4L283.524 256.731C282.473 257 281.457 257.389 280.495 257.89C278.635 258.625 276.919 259.684 275.43 261.018L275.363 260.968Z" fill="#022782"/>
<path d="M275.366 260.968C274.151 261.991 273.042 263.133 272.056 264.378C270.064 266.954 268.521 269.846 267.488 272.934C266.631 275.558 266.136 278.286 266.016 281.044H266.214C266.849 281.144 267.463 281.345 268.034 281.64C268.576 281.9 269.051 282.281 269.421 282.755C269.791 283.229 270.048 283.782 270.169 284.37C270.336 284.938 270.384 285.535 270.307 286.122C270.23 286.709 270.031 287.274 269.723 287.78C269.464 288.316 269.095 288.793 268.642 289.18C268.189 289.568 267.661 289.857 267.09 290.031H266.992C268.251 295.556 271.573 300.392 276.277 303.552C278.752 305.223 281.576 306.307 284.533 306.72C287.49 307.133 290.502 306.864 293.34 305.935C298.399 304.396 302.779 301.172 305.752 296.8C306.749 297.249 307.879 297.302 308.914 296.949C309.51 296.766 310.065 296.468 310.545 296.07C311.025 295.672 311.422 295.183 311.712 294.632C312.035 294.095 312.241 293.497 312.318 292.875C312.395 292.253 312.34 291.623 312.158 291.024C312.005 290.42 311.728 289.854 311.346 289.361C310.965 288.868 310.487 288.46 309.94 288.16C308.338 287.414 306.532 287.222 304.809 287.614C303.233 286.163 301.979 284.4 301.124 282.436C300.269 280.473 299.832 278.353 299.844 276.211C300.075 271.246 299.579 267.737 298.387 265.486C298.038 264.796 297.561 264.178 296.981 263.666C295.326 262.259 292.975 262.011 289.847 263.004C286.896 264.052 283.715 264.275 280.646 263.649C280.084 263.52 279.531 263.354 278.991 263.153C277.676 262.618 276.452 261.881 275.366 260.968V260.968Z" fill="#A6394B"/>
<path d="M291.47 278.313C291.412 278.087 291.306 277.876 291.161 277.693C291.016 277.511 290.833 277.361 290.626 277.254C290.424 277.139 290.201 277.068 289.97 277.045C289.739 277.022 289.505 277.048 289.285 277.121C289.06 277.188 288.851 277.298 288.669 277.446C288.487 277.593 288.337 277.776 288.226 277.982C288.103 278.184 288.025 278.409 287.996 278.643C287.968 278.877 287.99 279.114 288.061 279.339C288.11 279.562 288.208 279.772 288.349 279.952C288.489 280.132 288.667 280.279 288.871 280.382C289.072 280.497 289.296 280.568 289.527 280.591C289.758 280.614 289.992 280.587 290.212 280.514C290.66 280.372 291.038 280.067 291.271 279.659C291.504 279.252 291.575 278.771 291.47 278.313V278.313Z" fill="#10204F"/>
<path d="M289.813 280.811C289.488 280.809 289.17 280.723 288.887 280.563C288.661 280.442 288.462 280.275 288.305 280.072C288.148 279.87 288.036 279.636 287.976 279.388C287.902 279.137 287.881 278.875 287.913 278.616C287.944 278.357 288.027 278.107 288.158 277.881C288.414 277.418 288.842 277.073 289.349 276.922C289.597 276.841 289.859 276.811 290.119 276.834C290.378 276.858 290.63 276.934 290.859 277.058C291.088 277.181 291.289 277.351 291.45 277.555C291.612 277.759 291.732 277.994 291.8 278.246C291.867 278.498 291.883 278.762 291.846 279.021C291.809 279.279 291.72 279.528 291.585 279.752C291.464 279.986 291.295 280.192 291.09 280.358C290.885 280.523 290.646 280.644 290.392 280.712C290.206 280.777 290.01 280.81 289.813 280.811V280.811ZM289.962 277.236C289.67 277.245 289.386 277.326 289.134 277.474C288.883 277.621 288.672 277.83 288.522 278.08C288.416 278.261 288.349 278.461 288.323 278.669C288.297 278.877 288.315 279.087 288.373 279.288C288.419 279.482 288.509 279.664 288.635 279.819C288.761 279.973 288.921 280.098 289.102 280.182C289.276 280.289 289.471 280.356 289.674 280.379C289.877 280.402 290.084 280.38 290.277 280.314C290.48 280.257 290.667 280.158 290.83 280.024C290.992 279.89 291.124 279.724 291.219 279.537C291.331 279.365 291.404 279.17 291.433 278.967C291.461 278.764 291.446 278.558 291.386 278.361C291.298 278.047 291.113 277.769 290.857 277.567C290.602 277.364 290.288 277.249 289.962 277.236V277.236Z" fill="#10204F"/>
<path d="M272.319 276.062C272.499 276.152 272.657 276.279 272.783 276.437C272.908 276.594 272.999 276.776 273.048 276.972C273.14 277.368 273.083 277.785 272.888 278.142C272.692 278.5 272.373 278.772 271.989 278.908C271.796 278.971 271.59 278.994 271.388 278.975C271.185 278.956 270.989 278.896 270.811 278.798C270.632 278.701 270.477 278.567 270.352 278.407C270.227 278.247 270.136 278.062 270.085 277.866C269.987 277.476 270.034 277.064 270.218 276.707C270.428 276.34 270.772 276.067 271.178 275.946C271.365 275.881 271.564 275.859 271.761 275.879C271.958 275.899 272.148 275.961 272.319 276.062V276.062Z" fill="#10204F"/>
<path d="M271.612 279.206C271.234 279.217 270.864 279.098 270.563 278.869C270.262 278.64 270.048 278.315 269.957 277.948C269.838 277.503 269.891 277.03 270.106 276.624C270.214 276.41 270.368 276.222 270.557 276.073C270.745 275.925 270.965 275.819 271.198 275.763C271.414 275.695 271.641 275.671 271.866 275.694C272.091 275.717 272.308 275.785 272.506 275.895C272.708 275.996 272.886 276.141 273.026 276.318C273.166 276.495 273.266 276.702 273.317 276.922C273.438 277.371 273.38 277.85 273.159 278.259C272.937 278.669 272.567 278.978 272.124 279.123C271.958 279.172 271.786 279.2 271.612 279.206V279.206ZM271.728 276.094C271.597 276.072 271.462 276.072 271.331 276.094C270.975 276.199 270.674 276.436 270.487 276.756C270.33 277.069 270.293 277.429 270.387 277.766C270.475 278.098 270.689 278.383 270.983 278.56C271.3 278.725 271.668 278.761 272.01 278.659C272.345 278.552 272.626 278.322 272.798 278.014C272.97 277.707 273.02 277.346 272.936 277.004C272.894 276.837 272.816 276.681 272.708 276.546C272.599 276.412 272.462 276.303 272.307 276.227C272.098 276.101 271.852 276.054 271.612 276.094H271.728Z" fill="#10204F"/>
<path d="M277.735 282.748C277.671 282.746 277.608 282.731 277.551 282.702C277.494 282.674 277.443 282.633 277.404 282.582C277.372 282.527 277.355 282.464 277.355 282.4C277.355 282.336 277.372 282.273 277.404 282.218L279.688 273.595C279.722 273.492 279.794 273.404 279.888 273.349C279.983 273.294 280.095 273.276 280.202 273.297C280.255 273.311 280.305 273.335 280.349 273.368C280.393 273.401 280.431 273.443 280.459 273.491C280.486 273.539 280.503 273.592 280.51 273.647C280.517 273.702 280.514 273.757 280.499 273.811L278.364 281.871L282.435 281.622C282.545 281.622 282.65 281.666 282.728 281.743C282.805 281.821 282.849 281.926 282.849 282.036C282.849 282.146 282.805 282.251 282.728 282.329C282.65 282.406 282.545 282.45 282.435 282.45L277.785 282.748H277.735Z" fill="#10204F"/>
<path d="M270.73 266.265C270.349 266.861 269.969 267.49 269.621 268.119V268.218C271.276 268.085 272.452 267.986 273.18 267.903C273.908 267.821 274.405 267.655 274.554 267.423C274.723 267.149 274.82 266.836 274.835 266.513C274.835 266.116 274.471 265.934 273.61 265.984C272.749 266.033 271.839 266.133 270.73 266.265Z" fill="#022782"/>
<path d="M297.278 269.937C297.444 269.242 297.278 268.829 296.649 268.696L290.029 267.405C289.881 267.369 289.727 267.364 289.577 267.39C289.427 267.416 289.284 267.472 289.157 267.556C289.029 267.64 288.92 267.749 288.837 267.877C288.753 268.005 288.697 268.149 288.672 268.299C288.506 268.978 288.822 269.391 289.599 269.54C291.867 270.004 294.1 270.451 296.318 270.848C296.798 270.947 297.129 270.633 297.278 269.937V269.937Z" fill="#022782"/>
<path d="M277.355 290.709C277.718 291.851 278.278 292.921 279.01 293.87C279.321 294.233 279.708 294.525 280.142 294.725C280.576 294.925 281.049 295.028 281.527 295.028C282.088 294.983 282.631 294.81 283.116 294.523C283.6 294.237 284.013 293.843 284.323 293.373C285.252 292.324 285.831 291.01 285.978 289.616C283.176 290.417 280.269 290.786 277.355 290.709V290.709Z" fill="white"/>
<path d="M277.347 290.708H276.719C276.886 292.454 277.565 294.113 278.671 295.474C279.037 295.95 279.5 296.343 280.027 296.628C280.555 296.913 281.136 297.084 281.734 297.129C282.545 297.139 283.34 296.905 284.016 296.456C284.692 296.007 285.218 295.365 285.524 294.614C286.222 293.358 286.624 291.96 286.699 290.526C286.697 290.155 286.67 289.784 286.617 289.417L285.872 289.632C285.724 291.026 285.146 292.339 284.216 293.389C283.907 293.859 283.494 294.253 283.009 294.539C282.525 294.826 281.98 294.999 281.419 295.044C280.941 295.044 280.47 294.941 280.035 294.741C279.601 294.541 279.215 294.249 278.904 293.886C278.205 292.925 277.678 291.849 277.347 290.708V290.708Z" fill="#F04B4A"/>
<path d="M277.457 288.326C277.382 288.414 277.325 288.515 277.29 288.624C276.898 289.243 276.693 289.961 276.695 290.693H277.356C280.234 290.776 283.108 290.425 285.88 289.65L286.626 289.435H286.758C286.725 289.272 286.681 289.112 286.626 288.955C286.474 288.501 286.256 288.072 285.979 287.681C285.478 287.058 284.796 286.606 284.027 286.39C283.94 286.315 283.839 286.258 283.729 286.224C282.581 285.836 281.335 285.836 280.186 286.224C279.049 286.566 278.078 287.314 277.457 288.326V288.326Z" fill="#FF5B00"/>
<path d="M278.232 291.156H276.577C276.324 291.141 276.07 291.141 275.816 291.156C275.703 291.147 275.599 291.097 275.522 291.014C275.445 290.931 275.402 290.822 275.402 290.709C275.411 290.601 275.46 290.499 275.54 290.426C275.62 290.352 275.724 290.311 275.832 290.312C276.108 290.296 276.384 290.296 276.66 290.312H277.288C280.122 290.384 282.951 290.033 285.68 289.269L286.409 289.054H286.54C287.318 288.772 288.196 288.508 288.924 288.243C288.976 288.222 289.031 288.213 289.087 288.215C289.143 288.218 289.199 288.232 289.249 288.257C289.299 288.282 289.343 288.317 289.378 288.36C289.413 288.403 289.439 288.454 289.454 288.508C289.472 288.56 289.479 288.615 289.475 288.67C289.471 288.725 289.458 288.779 289.433 288.828C289.408 288.878 289.373 288.921 289.331 288.957C289.289 288.993 289.241 289.02 289.189 289.037L286.805 289.848L285.945 290.096C283.433 290.792 280.839 291.148 278.232 291.156V291.156Z" fill="#10204F"/>
<path d="M295.496 282.615C296.041 282.439 296.617 282.378 297.186 282.435C297.756 282.492 298.307 282.666 298.806 282.946C299.31 283.209 299.753 283.574 300.107 284.019C300.461 284.464 300.716 284.978 300.859 285.528C301.149 286.659 300.992 287.859 300.422 288.879C299.852 289.899 298.913 290.66 297.797 291.006C297.255 291.189 296.679 291.256 296.108 291.202C295.538 291.148 294.986 290.974 294.487 290.692C293.987 290.429 293.547 290.063 293.199 289.618C292.851 289.172 292.602 288.659 292.467 288.11C292.31 287.558 292.267 286.981 292.338 286.413C292.409 285.844 292.593 285.295 292.881 284.8C293.435 283.759 294.373 282.976 295.496 282.615V282.615Z" fill="#FF5B00"/>
<path d="M289.054 260.735V260.868V261.083C289.066 261.149 289.091 261.213 289.128 261.27C289.165 261.327 289.213 261.376 289.269 261.414C289.312 261.428 289.358 261.428 289.401 261.414C289.401 261.414 289.401 261.414 289.534 261.414C289.598 261.409 289.656 261.379 289.699 261.331C289.743 261.3 289.779 261.257 289.802 261.208C289.825 261.158 289.835 261.104 289.831 261.05C289.862 260.947 289.862 260.838 289.831 260.735C289.805 260.689 289.769 260.649 289.726 260.618C289.683 260.587 289.636 260.565 289.584 260.553H289.319C289.259 260.567 289.206 260.602 289.17 260.652L289.054 260.735ZM291.9 257.855C291.846 257.902 291.803 257.961 291.774 258.027C291.745 258.093 291.733 258.164 291.735 258.236C291.735 258.338 291.769 258.438 291.834 258.517C291.856 258.557 291.887 258.591 291.924 258.617C291.962 258.643 292.004 258.66 292.049 258.666C292.13 258.676 292.212 258.668 292.29 258.643C292.367 258.617 292.438 258.574 292.496 258.517C292.525 258.452 292.54 258.382 292.54 258.311C292.54 258.239 292.525 258.169 292.496 258.104V257.938C292.466 257.902 292.428 257.873 292.385 257.853C292.342 257.833 292.295 257.823 292.248 257.822C292.141 257.78 292.022 257.78 291.916 257.822L291.9 257.855ZM282.964 258.087L282.88 257.938H282.699C282.67 257.926 282.638 257.92 282.607 257.92C282.575 257.92 282.545 257.926 282.516 257.938C282.461 257.949 282.41 257.974 282.369 258.012C282.328 258.051 282.3 258.099 282.285 258.153C282.257 258.21 282.243 258.272 282.243 258.335C282.243 258.398 282.257 258.461 282.285 258.517C282.302 258.556 282.326 258.591 282.358 258.62C282.389 258.648 282.426 258.67 282.466 258.683C282.522 258.722 282.589 258.743 282.657 258.743C282.725 258.743 282.792 258.722 282.847 258.683C282.896 258.656 282.937 258.618 282.969 258.572C283 258.526 283.022 258.473 283.03 258.418C283.052 258.32 283.052 258.218 283.03 258.12L282.964 258.087ZM286.34 258.699C286.332 258.754 286.332 258.81 286.34 258.865C286.341 258.975 286.381 259.081 286.455 259.163C286.498 259.211 286.553 259.247 286.613 259.27C286.674 259.293 286.738 259.302 286.802 259.295C286.901 259.288 286.995 259.247 287.067 259.179C287.145 259.099 287.192 258.993 287.2 258.882C287.233 258.796 287.233 258.702 287.2 258.617C287.181 258.577 287.153 258.541 287.119 258.513C287.085 258.484 287.044 258.463 287.001 258.451C286.949 258.427 286.893 258.415 286.836 258.415C286.779 258.415 286.722 258.427 286.67 258.451C286.574 258.507 286.494 258.587 286.439 258.683L286.34 258.699ZM282.765 262.241C282.835 262.267 282.911 262.267 282.98 262.241C283.064 262.241 283.146 262.212 283.211 262.159C283.275 262.11 283.323 262.041 283.344 261.963C283.365 261.885 283.359 261.803 283.327 261.728C283.327 261.496 283.212 261.381 282.98 261.381C282.897 261.369 282.814 261.388 282.744 261.434C282.674 261.48 282.622 261.549 282.599 261.629C282.576 261.681 282.565 261.737 282.565 261.794C282.565 261.851 282.576 261.908 282.599 261.96C282.606 262.018 282.631 262.072 282.67 262.116C282.708 262.16 282.757 262.192 282.814 262.208L282.765 262.241ZM279.156 260.454C279.182 260.379 279.182 260.297 279.156 260.222C279.057 260.057 278.942 259.974 278.826 259.99C278.772 259.975 278.714 259.975 278.66 259.99H278.561L278.461 260.139V260.354C278.46 260.404 278.47 260.454 278.49 260.5C278.51 260.545 278.54 260.586 278.577 260.619C278.646 260.686 278.733 260.732 278.826 260.752C278.885 260.772 278.948 260.772 279.007 260.752C279.04 260.742 279.072 260.725 279.098 260.702C279.124 260.679 279.143 260.651 279.156 260.619C279.171 260.548 279.171 260.475 279.156 260.404V260.454ZM309.195 284.584C309.074 284.593 308.956 284.627 308.848 284.683C308.779 284.735 308.723 284.799 308.68 284.873C308.637 284.947 308.609 285.029 308.599 285.114C308.585 285.213 308.585 285.313 308.599 285.412C308.638 285.522 308.707 285.62 308.798 285.693C308.885 285.77 308.997 285.811 309.113 285.809C309.2 285.83 309.291 285.83 309.378 285.809C309.378 285.809 309.494 285.809 309.511 285.726C309.559 285.689 309.593 285.636 309.609 285.577C309.633 285.44 309.633 285.3 309.609 285.163C309.618 285.079 309.609 284.993 309.58 284.913C309.551 284.832 309.505 284.76 309.444 284.7C309.34 284.638 309.218 284.609 309.097 284.617L309.195 284.584ZM307.657 279.652H307.442C307.353 279.662 307.27 279.703 307.209 279.768C307.153 279.844 307.108 279.927 307.077 280.016V280.182C307.08 280.239 307.096 280.295 307.122 280.346C307.147 280.397 307.182 280.442 307.225 280.48C307.257 280.526 307.299 280.565 307.348 280.594C307.397 280.623 307.452 280.64 307.508 280.645C307.562 280.652 307.617 280.647 307.668 280.629C307.72 280.612 307.766 280.584 307.805 280.546C307.899 280.478 307.965 280.378 307.988 280.265C308.004 280.177 308.004 280.087 307.988 280C307.958 279.91 307.913 279.827 307.856 279.751C307.805 279.703 307.741 279.669 307.673 279.652H307.657ZM308.749 277.103C308.831 277.18 308.935 277.226 309.047 277.236C309.143 277.267 309.247 277.267 309.344 277.236C309.399 277.215 309.449 277.182 309.49 277.139C309.53 277.096 309.56 277.044 309.577 276.988C309.595 276.906 309.595 276.821 309.577 276.739C309.587 276.656 309.573 276.572 309.538 276.496C309.503 276.42 309.448 276.355 309.378 276.309C309.306 276.275 309.225 276.257 309.145 276.257C309.065 276.257 308.987 276.275 308.914 276.309C308.827 276.33 308.748 276.375 308.686 276.44C308.625 276.504 308.583 276.585 308.567 276.673V276.938C308.599 277.023 308.638 277.106 308.683 277.186L308.749 277.103ZM305.156 284.021C305.08 284.006 305.002 284.006 304.925 284.021C304.866 284.007 304.802 284.007 304.743 284.021C304.687 284.067 304.644 284.123 304.612 284.187C304.563 284.249 304.533 284.324 304.528 284.402C304.513 284.49 304.513 284.579 304.528 284.667C304.553 284.755 304.593 284.839 304.644 284.915C304.732 284.989 304.844 285.03 304.959 285.031C305.128 285.03 305.29 284.972 305.421 284.866C305.488 284.81 305.539 284.738 305.569 284.657C305.598 284.575 305.605 284.487 305.588 284.402C305.55 284.263 305.476 284.138 305.373 284.038C305.305 283.979 305.225 283.934 305.14 283.906L305.156 284.021ZM302.907 279.189C302.794 279.15 302.672 279.15 302.559 279.189C302.481 279.205 302.407 279.239 302.344 279.288C302.272 279.387 302.221 279.5 302.195 279.619C302.185 279.774 302.219 279.93 302.294 280.066C302.337 280.127 302.39 280.178 302.452 280.218C302.515 280.258 302.585 280.285 302.658 280.298C302.734 280.307 302.812 280.295 302.882 280.263C302.953 280.231 303.013 280.18 303.055 280.116C303.093 279.986 303.093 279.848 303.055 279.718C303.074 279.653 303.074 279.585 303.055 279.52C303.042 279.464 303.018 279.412 302.984 279.367C302.95 279.321 302.906 279.283 302.857 279.255L302.907 279.189ZM303.204 274.455C303.219 274.396 303.219 274.333 303.204 274.273C303.163 274.234 303.114 274.205 303.059 274.191C303.003 274.176 302.946 274.176 302.89 274.191C302.795 274.201 302.704 274.235 302.625 274.29C302.583 274.317 302.548 274.354 302.522 274.397C302.496 274.44 302.481 274.488 302.477 274.538C302.469 274.593 302.469 274.649 302.477 274.704C302.458 274.78 302.458 274.859 302.477 274.935L302.642 275.035C302.737 275.073 302.843 275.073 302.939 275.035C302.993 275.031 303.046 275.014 303.092 274.985C303.139 274.956 303.177 274.916 303.204 274.869C303.245 274.712 303.245 274.546 303.204 274.389V274.455ZM306.514 273.049C306.588 273.121 306.679 273.172 306.779 273.198C306.866 273.222 306.958 273.222 307.044 273.198C307.148 273.163 307.24 273.1 307.309 273.016C307.409 272.9 307.458 272.833 307.458 272.784C307.475 272.707 307.475 272.628 307.458 272.552C307.463 272.486 307.463 272.42 307.458 272.353L307.275 272.238L307.06 272.155C306.967 272.137 306.872 272.146 306.784 272.182C306.696 272.217 306.619 272.276 306.564 272.353C306.551 272.419 306.551 272.487 306.564 272.552C306.557 272.64 306.557 272.729 306.564 272.817L306.647 273.032L306.514 273.049ZM303.071 270.632H303.304C303.367 270.608 303.422 270.57 303.467 270.522C303.513 270.473 303.547 270.415 303.568 270.351C303.581 270.28 303.581 270.207 303.568 270.136C303.567 270.095 303.559 270.055 303.542 270.018C303.525 269.981 303.499 269.948 303.469 269.921C303.419 269.819 303.337 269.737 303.235 269.689C303.132 269.641 303.017 269.629 302.907 269.656C302.834 269.663 302.764 269.692 302.708 269.74C302.652 269.787 302.611 269.85 302.591 269.921C302.55 270.033 302.55 270.156 302.591 270.268C302.6 270.327 302.622 270.384 302.653 270.436C302.684 270.487 302.725 270.531 302.774 270.566C302.849 270.59 302.93 270.59 303.005 270.566L303.071 270.632ZM305.687 266.726C305.603 266.689 305.513 266.67 305.421 266.67C305.33 266.67 305.24 266.689 305.156 266.726H305.042C305.03 266.775 305.03 266.826 305.042 266.875C305.026 266.98 305.026 267.086 305.042 267.19C305.07 267.298 305.121 267.4 305.19 267.488C305.266 267.511 305.346 267.511 305.421 267.488C305.54 267.495 305.658 267.46 305.753 267.388C305.826 267.325 305.873 267.236 305.885 267.14C305.902 267.042 305.902 266.941 305.885 266.842C305.878 266.793 305.859 266.747 305.83 266.707C305.802 266.666 305.764 266.633 305.72 266.611L305.687 266.726ZM300.639 265.353C300.614 265.434 300.614 265.52 300.639 265.601C300.62 265.683 300.62 265.768 300.639 265.849C300.69 265.935 300.764 266.004 300.854 266.048C300.906 266.072 300.962 266.084 301.019 266.084C301.076 266.084 301.133 266.072 301.185 266.048C301.283 266.019 301.365 265.954 301.416 265.866C301.429 265.811 301.429 265.755 301.416 265.7C301.425 265.634 301.425 265.568 301.416 265.502C301.416 265.336 301.301 265.22 301.201 265.187C301.144 265.162 301.082 265.148 301.019 265.148C300.956 265.148 300.895 265.162 300.838 265.187C300.79 265.198 300.745 265.218 300.705 265.246C300.665 265.275 300.631 265.311 300.605 265.353H300.639ZM304.114 264.178C304.091 264.124 304.055 264.078 304.009 264.043C303.962 264.008 303.908 263.986 303.85 263.979H303.668H303.519L303.304 264.095C303.275 264.181 303.275 264.274 303.304 264.36C303.335 264.476 303.391 264.583 303.469 264.674C303.536 264.717 303.613 264.74 303.692 264.74C303.771 264.74 303.848 264.717 303.915 264.674C303.964 264.686 304.017 264.686 304.065 264.674C304.112 264.615 304.145 264.548 304.164 264.476C304.189 264.418 304.201 264.356 304.201 264.293C304.201 264.231 304.189 264.169 304.164 264.111L304.114 264.178ZM300.308 261.149H300.127C300.082 261.167 300.042 261.195 300.01 261.232C300.01 261.232 300.01 261.232 300.01 261.348V261.447C300.001 261.491 300.001 261.536 300.01 261.579V261.778C300.028 261.864 300.069 261.943 300.127 262.01C300.202 262.06 300.285 262.093 300.374 262.109C300.466 262.112 300.557 262.087 300.634 262.036C300.711 261.986 300.77 261.913 300.804 261.827C300.816 261.773 300.816 261.717 300.804 261.662C300.813 261.593 300.806 261.522 300.783 261.456C300.76 261.39 300.722 261.33 300.671 261.281C300.638 261.236 300.597 261.198 300.549 261.17C300.5 261.141 300.446 261.123 300.39 261.116L300.308 261.149ZM297.478 258.915C297.553 258.94 297.634 258.94 297.709 258.915C297.771 258.897 297.83 258.866 297.878 258.823C297.927 258.78 297.967 258.726 297.992 258.666C298.026 258.609 298.053 258.548 298.074 258.484C298.089 258.425 298.089 258.362 298.074 258.302C298.045 258.223 297.993 258.155 297.925 258.105C297.858 258.055 297.777 258.026 297.693 258.021C297.61 258.008 297.526 258.024 297.453 258.066C297.381 258.108 297.324 258.174 297.295 258.253C297.282 258.329 297.282 258.408 297.295 258.484C297.287 258.561 297.287 258.639 297.295 258.716C297.295 258.815 297.412 258.865 297.528 258.915H297.478ZM295.575 260.057C295.483 260.08 295.397 260.126 295.326 260.189C295.263 260.263 295.227 260.357 295.226 260.454C295.222 260.505 295.23 260.557 295.247 260.605C295.264 260.654 295.291 260.698 295.326 260.735C295.371 260.797 295.431 260.844 295.501 260.874C295.571 260.903 295.649 260.912 295.724 260.901C295.771 260.901 295.818 260.891 295.861 260.871C295.904 260.851 295.941 260.822 295.971 260.785V260.619C295.986 260.476 295.958 260.332 295.889 260.206C295.87 260.164 295.842 260.126 295.808 260.095C295.774 260.063 295.734 260.039 295.69 260.024C295.652 259.991 295.608 259.966 295.561 259.951C295.513 259.935 295.462 259.929 295.412 259.933C295.362 259.937 295.315 259.95 295.27 259.973C295.225 259.996 295.184 260.027 295.152 260.065C295.119 260.103 295.095 260.147 295.079 260.195C295.064 260.242 295.058 260.292 295.061 260.342C295.065 260.392 295.079 260.441 295.102 260.486C295.124 260.53 295.156 260.57 295.194 260.603L295.575 260.057Z" fill="#10204F"/>
<path d="M306.37 312.638H305.874C304.559 312.591 303.267 312.278 302.077 311.717C300.887 311.156 299.824 310.359 298.951 309.375C298.079 308.391 297.414 307.24 296.999 305.991C296.584 304.743 296.428 303.423 296.538 302.112C296.752 299.643 297.826 297.327 299.57 295.567C301.315 293.807 303.622 292.715 306.089 292.48C306.144 292.475 306.201 292.482 306.254 292.5C306.307 292.518 306.356 292.546 306.397 292.583C306.439 292.62 306.472 292.665 306.496 292.716C306.52 292.766 306.533 292.821 306.535 292.877C306.539 292.931 306.534 292.986 306.517 293.038C306.5 293.09 306.473 293.138 306.438 293.18C306.402 293.221 306.359 293.255 306.31 293.28C306.262 293.305 306.209 293.32 306.155 293.324C304.086 293.478 302.131 294.33 300.61 295.74C299.656 296.535 298.872 297.512 298.303 298.615C297.735 299.718 297.393 300.924 297.3 302.162C297.198 303.362 297.342 304.571 297.721 305.714C298.1 306.857 298.707 307.912 299.506 308.814C300.304 309.716 301.276 310.447 302.365 310.962C303.454 311.477 304.636 311.766 305.84 311.811C308.023 311.885 310.168 311.222 311.928 309.927C313.688 308.633 314.96 306.784 315.539 304.677C315.915 303.257 315.952 301.768 315.647 300.331C315.342 298.894 314.705 297.548 313.785 296.402C313.729 296.318 313.705 296.215 313.719 296.115C313.733 296.014 313.785 295.922 313.863 295.857C313.941 295.791 314.039 295.757 314.141 295.76C314.242 295.763 314.34 295.803 314.414 295.873C315.251 296.838 315.881 297.965 316.268 299.183C316.655 300.4 316.79 301.685 316.664 302.956C316.617 303.587 316.518 304.212 316.366 304.826C315.761 307.043 314.45 309.002 312.631 310.406C310.812 311.809 308.585 312.582 306.287 312.605L306.37 312.638Z" fill="#F04B4A"/>
</g>
<defs>
<clipPath id="clip0">
<rect width="420" height="420" rx="20" fill="white"/>
</clipPath>
</defs>
</svg>
