<svg width="420" height="420" viewBox="0 0 420 420" fill="none" xmlns="http://www.w3.org/2000/svg">
<path d="M289.049 156.647C288.565 156.956 288.139 157.349 287.792 157.807C287.083 158.967 286.746 160.316 286.826 161.673C286.88 162.498 287.127 163.298 287.55 164.009C287.808 164.514 288.179 165.142 288.662 165.893C288.06 165.94 287.473 166.106 286.937 166.383C286.4 166.66 285.924 167.041 285.537 167.504C284.711 168.534 284.282 169.826 284.328 171.145C284.269 172.111 284.501 173.073 284.995 173.906C285.489 174.739 286.223 175.405 287.1 175.816C287.413 175.672 287.713 175.505 288.001 175.317C287.877 175.136 287.764 174.948 287.663 174.753C287.447 174.434 287.304 174.071 287.245 173.69C287.231 173.33 287.3 172.972 287.445 172.643C287.59 172.313 287.807 172.021 288.082 171.789C288.658 171.337 289.341 171.037 290.064 170.919V170.742C289.891 170.594 289.752 170.412 289.655 170.206C289.558 170.001 289.504 169.777 289.499 169.55C289.501 169.19 289.577 168.835 289.721 168.505C289.865 168.175 290.075 167.879 290.337 167.633C290.784 167.191 291.34 166.874 291.948 166.715C291.532 166.162 291.155 165.581 290.82 164.975C290.374 164.029 290.148 162.993 290.16 161.947C290.129 160.941 290.277 159.938 290.595 158.983C290.691 158.726 290.809 158.478 290.949 158.242C290.685 157.928 290.4 157.632 290.095 157.356C290.028 157.278 289.953 157.208 289.87 157.147C289.627 156.937 289.363 156.753 289.081 156.599L289.049 156.647ZM274.245 165.716C273.778 166.312 273.376 166.618 273.086 166.634C273.315 166.86 273.52 167.108 273.698 167.375C274.076 168.174 274.253 169.054 274.214 169.937C274.199 170.711 274.023 171.473 273.698 172.176C273.616 172.379 273.513 172.573 273.391 172.755C274.575 174.054 276.027 175.081 277.645 175.768C278.444 174.712 278.869 173.419 278.853 172.095C278.881 171.063 278.57 170.05 277.967 169.212C277.657 168.756 277.243 168.381 276.759 168.116C277.543 167.929 278.254 167.515 278.804 166.924C279.404 166.295 279.739 165.458 279.738 164.589C279.786 163.965 279.59 163.347 279.191 162.865L278.257 162.237C278.994 162.021 279.643 161.575 280.11 160.964C280.842 160.096 281.236 158.992 281.22 157.856C281.261 157.102 281.118 156.35 280.802 155.665C280.713 155.506 280.61 155.355 280.495 155.214L279.707 155.359L278.933 155.568L278.595 155.665C278.391 156.789 277.946 157.855 277.291 158.79C276.985 159.369 276.552 159.871 276.024 160.259C275.497 160.646 274.889 160.91 274.245 161.029C274.525 161.297 274.745 161.62 274.895 161.978C275.045 162.335 275.12 162.719 275.115 163.107C275.127 164.07 274.809 165.008 274.214 165.765L274.245 165.716Z" fill="#FDF6BA"/>
<path d="M284.575 155.133C283.255 154.956 281.917 154.956 280.597 155.133H280.452C280.567 155.275 280.668 155.425 280.758 155.584C281.074 156.269 281.217 157.021 281.176 157.775C281.192 158.911 280.798 160.015 280.065 160.884C279.599 161.494 278.95 161.94 278.212 162.156L279.147 162.784C279.363 163.029 279.527 163.315 279.63 163.625C279.732 163.935 279.771 164.263 279.743 164.588C279.752 165.042 279.669 165.492 279.501 165.912C279.332 166.333 279.079 166.715 278.76 167.037C278.21 167.627 277.499 168.042 276.715 168.229C277.199 168.493 277.613 168.869 277.923 169.324C278.526 170.163 278.837 171.175 278.809 172.208C278.825 173.532 278.4 174.824 277.6 175.88C278.164 176.122 278.776 176.363 279.42 176.573C280.673 177.006 282.003 177.172 283.323 177.061C284.644 176.95 285.925 176.564 287.087 175.928C286.211 175.517 285.478 174.852 284.984 174.019C284.49 173.186 284.258 172.224 284.317 171.257C284.271 169.938 284.7 168.646 285.525 167.617C285.913 167.153 286.389 166.772 286.925 166.496C287.462 166.219 288.049 166.052 288.651 166.006C288.168 165.244 287.797 164.615 287.539 164.121C287.116 163.411 286.868 162.611 286.814 161.786C286.733 160.429 287.072 159.079 287.781 157.92C288.128 157.462 288.552 157.069 289.036 156.76C287.668 156.063 286.211 155.559 284.704 155.262V155.504C285.091 156.615 284.977 157.324 284.398 157.662C284.559 156.39 284.655 155.616 284.671 155.343L284.575 155.133Z" fill="#F04B4A"/>
<path d="M286.075 146.001L285.898 147.112C287.284 147.651 288.802 147.747 290.245 147.386C291.687 147.026 292.983 146.226 293.952 145.099C292.695 144.432 291.264 144.161 289.85 144.322C288.435 144.483 287.103 145.068 286.027 146.001H286.075ZM287.025 146.387L290.956 145.678L287.025 146.387Z" fill="#0A80EA"/>
<path d="M287.12 176.493C287.031 176.516 286.937 176.516 286.847 176.493C285.839 176.054 284.991 175.317 284.415 174.381C283.839 173.445 283.563 172.355 283.625 171.258C283.588 169.793 284.067 168.362 284.978 167.215C285.666 166.428 286.576 165.867 287.588 165.604C287.33 165.169 287.104 164.767 286.927 164.428C286.452 163.636 286.175 162.741 286.122 161.819C286.037 160.33 286.427 158.853 287.234 157.599C287.611 157.072 288.086 156.623 288.634 156.278C288.701 156.233 288.777 156.202 288.857 156.186C288.937 156.171 289.018 156.171 289.098 156.188C289.177 156.204 289.253 156.236 289.32 156.282C289.386 156.328 289.444 156.387 289.488 156.455C289.574 156.59 289.603 156.753 289.57 156.91C289.537 157.066 289.445 157.204 289.312 157.293C288.891 157.572 288.52 157.921 288.215 158.323C287.58 159.374 287.284 160.594 287.363 161.819C287.422 162.543 287.647 163.243 288.022 163.865C288.28 164.364 288.634 164.976 289.101 165.701C289.152 165.792 289.18 165.895 289.18 165.999C289.18 166.103 289.152 166.206 289.101 166.297C289.059 166.392 288.993 166.475 288.907 166.534C288.822 166.594 288.722 166.629 288.618 166.635C287.556 166.743 286.579 167.264 285.897 168.085C285.165 168.995 284.787 170.139 284.833 171.306C284.767 172.164 284.966 173.022 285.404 173.763C285.842 174.504 286.497 175.091 287.281 175.446C287.423 175.522 287.532 175.649 287.583 175.802C287.634 175.955 287.623 176.122 287.555 176.268C287.502 176.333 287.436 176.387 287.361 176.426C287.286 176.465 287.205 176.488 287.12 176.493V176.493ZM277.616 176.493C277.502 176.489 277.392 176.454 277.297 176.391C277.201 176.329 277.125 176.242 277.075 176.139C277.025 176.036 277.005 175.922 277.015 175.809C277.026 175.695 277.066 175.586 277.133 175.494C277.394 175.164 277.611 174.802 277.778 174.415C278.07 173.716 278.217 172.966 278.212 172.208C278.236 171.311 277.971 170.431 277.456 169.696C277.191 169.319 276.851 169 276.457 168.761C276.346 168.706 276.255 168.617 276.197 168.507C276.14 168.397 276.118 168.272 276.134 168.149C276.142 168.026 276.191 167.908 276.273 167.815C276.354 167.722 276.464 167.658 276.586 167.634C277.257 167.472 277.866 167.12 278.341 166.619C278.604 166.351 278.81 166.034 278.948 165.685C279.087 165.337 279.154 164.964 279.147 164.589C279.188 164.121 279.049 163.655 278.76 163.285L277.939 162.737C277.835 162.676 277.753 162.584 277.704 162.475C277.655 162.365 277.642 162.243 277.665 162.125C277.691 162.005 277.751 161.895 277.836 161.807C277.922 161.718 278.029 161.656 278.148 161.626C278.754 161.443 279.285 161.07 279.663 160.562C280.159 159.916 280.477 159.15 280.588 158.342C280.698 157.534 280.595 156.712 280.29 155.956L280.032 155.601C279.982 155.537 279.944 155.464 279.922 155.385C279.9 155.306 279.894 155.224 279.905 155.142C279.915 155.061 279.942 154.983 279.984 154.913C280.025 154.842 280.08 154.78 280.146 154.731C280.277 154.633 280.441 154.59 280.603 154.611C280.766 154.632 280.914 154.716 281.015 154.844C281.145 155.013 281.263 155.191 281.369 155.376C281.731 156.15 281.897 157.002 281.852 157.856C281.868 159.132 281.429 160.371 280.613 161.352C280.295 161.722 279.932 162.052 279.534 162.334L279.647 162.431C280.163 163.027 280.422 163.803 280.371 164.589C280.379 165.119 280.282 165.645 280.086 166.137C279.89 166.63 279.597 167.078 279.227 167.457C278.87 167.848 278.445 168.17 277.972 168.407C278.14 168.584 278.296 168.773 278.439 168.971C279.109 169.909 279.458 171.039 279.436 172.192C279.44 173.116 279.261 174.03 278.906 174.882C278.692 175.364 278.422 175.818 278.101 176.235C278.039 176.301 277.964 176.353 277.88 176.386C277.797 176.419 277.706 176.434 277.616 176.429V176.493ZM284.366 158.227H284.286C284.205 158.217 284.127 158.191 284.056 158.151C283.986 158.11 283.923 158.056 283.874 157.992C283.824 157.927 283.789 157.854 283.768 157.775C283.748 157.697 283.743 157.615 283.754 157.534L285.365 147.112L285.525 146.017L285.961 143.182C285.971 143.1 285.997 143.022 286.038 142.951C286.079 142.88 286.134 142.818 286.2 142.768C286.266 142.719 286.341 142.683 286.42 142.663C286.5 142.644 286.583 142.64 286.664 142.653C286.745 142.666 286.823 142.695 286.892 142.739C286.962 142.783 287.023 142.84 287.07 142.907C287.117 142.975 287.151 143.051 287.168 143.131C287.185 143.212 287.185 143.295 287.169 143.375L286.96 144.744C288.083 144.132 289.338 143.801 290.617 143.781C291.897 143.762 293.163 144.054 294.305 144.632C294.394 144.671 294.473 144.731 294.534 144.806C294.596 144.882 294.638 144.971 294.658 145.067C294.682 145.159 294.684 145.256 294.662 145.349C294.639 145.441 294.593 145.527 294.529 145.598C293.568 146.741 292.293 147.576 290.861 148C289.429 148.424 287.904 148.418 286.475 147.982L285.396 155.343L285.042 157.711C284.998 157.852 284.907 157.972 284.783 158.051C284.659 158.131 284.512 158.164 284.366 158.146V158.227ZM287.797 146.951C288.708 147.098 289.64 147.036 290.524 146.771C291.409 146.506 292.222 146.045 292.903 145.421C292.048 145.079 291.129 144.93 290.21 144.986C289.291 145.042 288.395 145.3 287.588 145.743L290.809 145.131C290.889 145.117 290.97 145.119 291.048 145.137C291.127 145.154 291.201 145.187 291.267 145.234C291.333 145.28 291.389 145.339 291.432 145.407C291.475 145.475 291.503 145.551 291.517 145.63C291.533 145.71 291.534 145.792 291.517 145.871C291.5 145.951 291.468 146.026 291.421 146.092C291.374 146.159 291.314 146.215 291.245 146.257C291.176 146.3 291.099 146.328 291.018 146.339L287.797 146.951Z" fill="#10204F"/>
<path d="M308.012 211.85L309.22 218.6L327.165 214.331L325.875 207.711L308.012 211.85ZM309.994 212.865L310.59 216.441L309.994 212.865ZM313.376 211.931L314.181 215.475L313.376 211.931ZM317.145 210.9L317.934 214.395L317.145 210.9ZM321.639 209.966L322.397 213.059L321.639 209.966ZM324.684 209.128L325.586 212.736L324.684 209.128ZM318.401 186.368C318.079 184.274 316.645 183.597 314.068 184.338L304.211 186.98L306.545 201.928L314.439 199.657C315.828 199.33 317.178 198.855 318.466 198.239C319.11 197.869 319.433 197.45 319.449 196.967L318.401 186.368ZM318.321 168.488C318.104 167.14 317.465 165.895 316.495 164.934C315.525 163.973 314.274 163.345 312.924 163.14H312.232C311.009 163.076 309.784 163.218 308.608 163.559C307.418 163.861 306.289 164.368 305.273 165.057C302.792 166.797 301.718 169.615 302.051 173.514L302.518 176.574L319.013 172.354L318.272 168.536L318.321 168.488ZM308.817 169.068L309.8 172.773L308.817 169.068ZM305.838 170.195L306.659 173.9L305.838 170.195ZM303.341 170.904L304.065 174.593L303.341 170.904ZM312.506 167.827L313.569 171.468L312.506 167.827ZM315.841 167.006L316.759 170.614L315.841 167.006ZM302.745 157.873L303.388 160.821L304.42 160.514L311.153 158.598L311.99 158.372L311.427 155.569L302.745 157.873Z" fill="#7CCAEF"/>
<path d="M325.868 207.71L325.514 205.986L318.975 172.321L302.48 176.541L304.091 186.995L313.949 184.353C316.527 183.612 317.959 184.353 318.282 186.383L319.329 196.982C319.329 197.465 318.99 197.884 318.346 198.254C317.059 198.87 315.709 199.345 314.319 199.672L306.427 201.943L308.038 211.866L325.901 207.726L325.868 207.71ZM304.414 160.481L305.219 165.024C306.235 164.335 307.362 163.828 308.552 163.526C309.729 163.185 310.954 163.043 312.177 163.107L311.146 158.564L304.414 160.481Z" fill="#0A80EA"/>
<path d="M309.216 219.211C309.078 219.214 308.944 219.169 308.835 219.084C308.727 218.999 308.65 218.879 308.62 218.744C308.585 218.586 308.613 218.421 308.697 218.283C308.781 218.145 308.915 218.045 309.071 218.003L327.015 213.734C327.173 213.7 327.338 213.727 327.476 213.811C327.614 213.895 327.714 214.029 327.756 214.185C327.775 214.264 327.779 214.345 327.767 214.424C327.755 214.504 327.727 214.581 327.685 214.649C327.643 214.718 327.588 214.778 327.523 214.826C327.458 214.873 327.384 214.907 327.306 214.926L309.361 219.195L309.216 219.211ZM310.586 217.052C310.442 217.051 310.302 216.998 310.193 216.903C310.084 216.809 310.013 216.679 309.99 216.537L309.394 212.961C309.378 212.882 309.377 212.8 309.394 212.72C309.41 212.641 309.443 212.565 309.49 212.499C309.536 212.433 309.597 212.377 309.666 212.334C309.735 212.292 309.812 212.264 309.892 212.252C310.052 212.229 310.215 212.267 310.347 212.36C310.479 212.453 310.57 212.593 310.602 212.752L311.198 216.344C311.221 216.504 311.18 216.667 311.083 216.796C310.987 216.926 310.842 217.012 310.682 217.036L310.586 217.052ZM314.177 216.086C314.038 216.087 313.903 216.042 313.792 215.957C313.681 215.873 313.601 215.754 313.565 215.619L312.776 212.075C312.757 211.996 312.755 211.913 312.768 211.833C312.781 211.752 312.811 211.675 312.854 211.606C312.898 211.537 312.954 211.478 313.021 211.431C313.088 211.384 313.163 211.351 313.243 211.334C313.401 211.305 313.564 211.337 313.699 211.424C313.834 211.511 313.93 211.646 313.968 211.801L314.774 215.345C314.803 215.503 314.771 215.665 314.684 215.8C314.597 215.935 314.462 216.031 314.306 216.07L314.177 216.086ZM317.931 215.007C317.791 215.006 317.655 214.958 317.547 214.87C317.438 214.782 317.364 214.66 317.334 214.524L316.545 211.028C316.51 210.87 316.538 210.705 316.622 210.567C316.706 210.429 316.84 210.329 316.996 210.287C317.156 210.257 317.321 210.289 317.459 210.375C317.596 210.462 317.695 210.597 317.737 210.754L318.527 214.25C318.546 214.328 318.55 214.409 318.538 214.489C318.526 214.569 318.496 214.645 318.454 214.714C318.413 214.783 318.358 214.843 318.292 214.89C318.227 214.938 318.154 214.972 318.075 214.991L317.931 215.007ZM322.393 213.67C322.255 213.673 322.12 213.628 322.011 213.543C321.902 213.458 321.827 213.338 321.797 213.203L321.039 210.126C321.02 210.048 321.017 209.967 321.03 209.887C321.042 209.807 321.069 209.731 321.111 209.662C321.153 209.593 321.208 209.533 321.273 209.486C321.338 209.438 321.412 209.404 321.49 209.385C321.646 209.346 321.811 209.369 321.95 209.451C322.088 209.532 322.19 209.665 322.231 209.82L322.988 212.913C323.009 212.991 323.015 213.073 323.004 213.153C322.992 213.234 322.966 213.311 322.923 213.381C322.881 213.45 322.825 213.51 322.758 213.557C322.692 213.604 322.618 213.637 322.538 213.654L322.393 213.67ZM325.615 213.348C325.478 213.348 325.344 213.302 325.236 213.217C325.128 213.133 325.051 213.014 325.019 212.881L324.116 209.288C324.081 209.129 324.108 208.961 324.191 208.821C324.275 208.68 324.41 208.577 324.567 208.531C324.646 208.512 324.727 208.509 324.806 208.521C324.886 208.533 324.962 208.561 325.031 208.603C325.1 208.645 325.16 208.7 325.208 208.765C325.255 208.83 325.289 208.904 325.308 208.982L326.21 212.591C326.229 212.669 326.233 212.75 326.221 212.83C326.208 212.909 326.181 212.986 326.139 213.055C326.097 213.124 326.042 213.183 325.977 213.231C325.912 213.278 325.838 213.313 325.76 213.332L325.615 213.348ZM306.495 202.539C306.363 202.543 306.234 202.503 306.128 202.424C306.023 202.345 305.947 202.232 305.914 202.104C305.869 201.948 305.889 201.781 305.968 201.639C306.046 201.497 306.177 201.392 306.333 201.347L314.21 199.076C315.553 198.755 316.86 198.296 318.108 197.707C318.549 197.449 318.774 197.191 318.785 196.934L317.737 186.431C317.72 186.142 317.641 185.86 317.504 185.604C317.368 185.348 317.178 185.125 316.947 184.949C316.513 184.759 316.045 184.661 315.571 184.661C315.097 184.661 314.627 184.759 314.193 184.949L304.319 187.591C304.161 187.631 303.995 187.608 303.853 187.527C303.712 187.446 303.608 187.313 303.562 187.156C303.527 186.998 303.551 186.833 303.632 186.693C303.712 186.552 303.842 186.448 303.997 186.399L313.855 183.757C314.457 183.52 315.102 183.412 315.749 183.44C316.395 183.467 317.029 183.63 317.608 183.918C317.989 184.195 318.306 184.549 318.539 184.957C318.773 185.365 318.916 185.818 318.961 186.286L320.009 196.918C319.983 197.317 319.85 197.701 319.623 198.03C319.396 198.359 319.084 198.621 318.72 198.786C317.388 199.43 315.989 199.927 314.549 200.268L306.671 202.539H306.495ZM302.532 177.137C302.394 177.14 302.259 177.095 302.15 177.01C302.041 176.925 301.966 176.805 301.936 176.67C301.917 176.592 301.913 176.51 301.925 176.431C301.937 176.351 301.965 176.275 302.007 176.206C302.049 176.137 302.104 176.077 302.169 176.03C302.234 175.982 302.307 175.948 302.386 175.929L318.865 171.725C318.946 171.693 319.032 171.678 319.118 171.682C319.205 171.686 319.29 171.709 319.367 171.748C319.444 171.787 319.512 171.843 319.567 171.91C319.621 171.978 319.661 172.056 319.683 172.14C319.705 172.224 319.709 172.311 319.694 172.397C319.679 172.482 319.646 172.564 319.598 172.635C319.55 172.707 319.486 172.768 319.412 172.814C319.339 172.86 319.258 172.889 319.172 172.901L302.677 177.121L302.532 177.137ZM304.143 175.156C303.999 175.155 303.86 175.105 303.748 175.014C303.637 174.923 303.559 174.797 303.529 174.656L302.822 170.984C302.805 170.904 302.805 170.823 302.82 170.743C302.835 170.664 302.866 170.588 302.911 170.52C302.956 170.453 303.015 170.395 303.083 170.35C303.15 170.305 303.225 170.274 303.305 170.259C303.384 170.24 303.466 170.238 303.547 170.253C303.627 170.267 303.704 170.298 303.772 170.343C303.84 170.388 303.897 170.447 303.942 170.516C303.986 170.585 304.016 170.662 304.03 170.742L304.738 174.431C304.754 174.509 304.755 174.59 304.739 174.669C304.723 174.747 304.693 174.822 304.648 174.888C304.603 174.954 304.544 175.01 304.476 175.054C304.409 175.097 304.334 175.126 304.255 175.14L304.143 175.156ZM306.735 174.463C306.595 174.466 306.459 174.419 306.35 174.33C306.241 174.242 306.166 174.118 306.139 173.98L305.318 170.275C305.299 170.197 305.297 170.115 305.31 170.036C305.324 169.956 305.353 169.88 305.397 169.813C305.44 169.745 305.497 169.687 305.563 169.642C305.63 169.597 305.706 169.565 305.785 169.55C305.864 169.531 305.945 169.529 306.024 169.542C306.104 169.556 306.18 169.585 306.248 169.629C306.315 169.672 306.374 169.729 306.419 169.796C306.464 169.863 306.495 169.938 306.51 170.017L307.331 173.706C307.35 173.785 307.354 173.868 307.341 173.948C307.328 174.029 307.298 174.106 307.254 174.175C307.211 174.244 307.153 174.304 307.086 174.35C307.019 174.397 306.944 174.43 306.864 174.447L306.735 174.463ZM309.877 173.336C309.744 173.336 309.614 173.292 309.509 173.21C309.403 173.128 309.329 173.014 309.296 172.885L308.315 169.18C308.293 169.101 308.286 169.02 308.296 168.939C308.306 168.858 308.332 168.78 308.373 168.71C308.413 168.64 308.467 168.578 308.532 168.529C308.596 168.479 308.67 168.443 308.749 168.423C308.905 168.383 309.069 168.407 309.208 168.488C309.347 168.57 309.448 168.702 309.49 168.858L310.473 172.562C310.495 172.641 310.5 172.723 310.49 172.803C310.48 172.884 310.455 172.962 310.415 173.032C310.374 173.103 310.319 173.164 310.254 173.214C310.19 173.263 310.116 173.299 310.037 173.319L309.877 173.336ZM313.646 172.031C313.513 172.031 313.383 171.987 313.278 171.905C313.172 171.824 313.099 171.709 313.067 171.58L312.003 167.939C311.958 167.786 311.974 167.62 312.049 167.479C312.124 167.337 312.253 167.231 312.406 167.182C312.564 167.137 312.733 167.156 312.878 167.234C313.023 167.312 313.13 167.444 313.178 167.601L314.242 171.242C314.287 171.397 314.268 171.565 314.19 171.707C314.111 171.849 313.979 171.954 313.823 171.999L313.646 172.031ZM316.867 171.193C316.731 171.191 316.599 171.144 316.491 171.06C316.384 170.975 316.306 170.858 316.271 170.726L315.354 167.102C315.335 167.024 315.331 166.942 315.343 166.863C315.355 166.783 315.383 166.707 315.425 166.638C315.467 166.569 315.522 166.509 315.587 166.461C315.652 166.414 315.726 166.38 315.804 166.361C315.881 166.339 315.962 166.333 316.041 166.344C316.121 166.354 316.199 166.38 316.268 166.421C316.337 166.461 316.396 166.515 316.444 166.58C316.492 166.644 316.526 166.718 316.545 166.796L317.463 170.42C317.503 170.576 317.479 170.741 317.397 170.88C317.316 171.018 317.185 171.119 317.029 171.161L316.867 171.193ZM303.498 161.384C303.386 161.381 303.275 161.354 303.176 161.303C303.105 161.257 303.045 161.198 302.998 161.129C302.951 161.06 302.918 160.982 302.902 160.9L302.258 157.953C302.228 157.797 302.258 157.636 302.342 157.502C302.425 157.367 302.556 157.269 302.708 157.228L311.374 154.924C311.455 154.9 311.539 154.894 311.623 154.905C311.706 154.916 311.787 154.944 311.859 154.988C311.93 155.032 311.991 155.091 312.038 155.16C312.085 155.23 312.118 155.309 312.132 155.391L312.711 158.194C312.741 158.345 312.713 158.502 312.633 158.634C312.552 158.765 312.426 158.861 312.277 158.903L311.439 159.145L304.706 161.061L303.658 161.367L303.498 161.384ZM303.498 158.275L303.869 159.998L311.02 157.969L311.31 157.888L310.989 156.277L303.498 158.275Z" fill="#022782"/>
<path d="M250.36 219.855L249.812 224.688L256.256 223.608L255.466 218.776L250.393 219.823L250.36 219.855ZM263.166 205.068L259.767 207.807L265.776 214.846L268.997 212.027L263.102 205.068H263.166ZM258.881 190.104L253.566 193.325L253.421 194.453L255.822 197.997L258.06 196.386L258.914 189.943L258.881 190.104ZM261.7 167.939L262.394 162.06V161.979L259.01 164.718L261.7 167.939Z" fill="#FDF6BA"/>
<path d="M255.818 198.109L253.418 194.566L250.356 219.855L255.431 218.808L256.221 223.641L249.778 224.72L249.504 227.12L278.336 219.275L279.126 200.171L256.913 205.004C257.3 202.088 257.686 199.253 258.041 196.515L255.801 198.126L255.818 198.109ZM259.716 207.79L263.114 205.052L269.01 212.011L265.788 214.83L259.781 207.79H259.716ZM271.684 203.876C271.851 203.768 272.036 203.691 272.231 203.651C272.666 203.554 273.278 203.393 274.1 203.151L275.984 202.587C276.162 202.508 276.353 202.465 276.548 202.459C276.653 202.457 276.756 202.494 276.835 202.562C276.915 202.631 276.968 202.725 276.983 202.829C277.016 202.93 277.023 203.037 277.004 203.142C276.984 203.246 276.938 203.343 276.87 203.425C276.686 203.557 276.485 203.665 276.274 203.747H276.162C275.711 203.908 274.986 204.134 274.02 204.392L273.117 204.649C272.79 204.729 272.468 204.826 272.151 204.939C272.028 204.991 271.897 205.024 271.764 205.036C271.671 205.044 271.577 205.028 271.492 204.988C271.407 204.949 271.335 204.887 271.281 204.81C271.251 204.745 271.235 204.673 271.235 204.601C271.235 204.529 271.251 204.457 271.281 204.392V204.263C271.378 204.091 271.524 203.951 271.699 203.86L271.684 203.876ZM272.2 208.692C272.008 208.727 271.811 208.727 271.619 208.692C271.516 208.663 271.426 208.599 271.364 208.511C271.303 208.423 271.273 208.316 271.281 208.209C271.275 208.118 271.287 208.027 271.317 207.941C271.348 207.855 271.396 207.776 271.459 207.71C271.501 207.665 271.549 207.626 271.604 207.597C271.772 207.512 271.951 207.447 272.135 207.404C273.38 207.106 274.602 206.718 275.791 206.244C275.998 206.161 276.215 206.102 276.436 206.067C276.533 206.051 276.634 206.057 276.728 206.085C276.823 206.113 276.91 206.162 276.983 206.228C277.041 206.29 277.084 206.364 277.109 206.445C277.134 206.526 277.141 206.611 277.128 206.695C277.115 206.807 277.07 206.913 276.999 207.001C276.963 207.07 276.907 207.126 276.839 207.162C276.645 207.241 276.445 207.305 276.242 207.355C275.958 207.431 275.678 207.523 275.404 207.629C274.351 208.035 273.275 208.379 272.182 208.66L272.2 208.692ZM277.193 209.562C277.281 209.583 277.361 209.632 277.419 209.702C277.477 209.771 277.51 209.858 277.515 209.949C277.53 210.135 277.471 210.32 277.353 210.464C277.153 210.631 276.916 210.748 276.661 210.803L272.554 211.946C272.333 212.012 272.098 212.012 271.877 211.946C271.779 211.912 271.693 211.849 271.63 211.766C271.567 211.683 271.53 211.583 271.523 211.479C271.515 211.375 271.531 211.27 271.574 211.175C271.616 211.079 271.681 210.995 271.764 210.931C271.928 210.833 272.108 210.762 272.296 210.722C273.906 210.303 275.211 209.917 276.387 209.562C276.774 209.401 277.048 209.385 277.193 209.482V209.562ZM276.999 214.314C276.894 214.344 276.782 214.344 276.677 214.314L275.259 214.62L274.68 214.781C273.794 215.023 273.069 215.2 272.409 215.329C272.262 215.377 272.104 215.377 271.957 215.329C271.852 215.323 271.752 215.282 271.673 215.212C271.594 215.141 271.541 215.046 271.523 214.942C271.504 214.826 271.515 214.706 271.558 214.595C271.6 214.485 271.671 214.387 271.764 214.314C271.923 214.202 272.104 214.125 272.296 214.089L276.129 213.138L276.532 213.042C276.661 213.013 276.795 213.012 276.925 213.037C277.055 213.062 277.18 213.113 277.29 213.187C277.362 213.259 277.412 213.35 277.435 213.45C277.458 213.55 277.451 213.654 277.417 213.75C277.382 213.848 277.328 213.937 277.255 214.012C277.183 214.087 277.095 214.146 276.999 214.185V214.314ZM276.387 216.65L276.758 216.553C276.882 216.543 277.005 216.571 277.112 216.635C277.219 216.698 277.303 216.794 277.353 216.907C277.401 217.035 277.408 217.174 277.37 217.305C277.333 217.436 277.252 217.55 277.144 217.632C277.014 217.713 276.873 217.772 276.725 217.81C276.194 217.971 275.436 218.164 274.454 218.357C273.471 218.55 272.666 218.76 272.182 218.921C272.033 218.946 271.882 218.946 271.733 218.921C271.644 218.93 271.555 218.91 271.479 218.863C271.403 218.817 271.344 218.746 271.313 218.663C271.261 218.581 271.234 218.486 271.234 218.389C271.234 218.292 271.261 218.198 271.313 218.116C271.416 217.978 271.547 217.862 271.696 217.777C271.846 217.691 272.011 217.636 272.182 217.616C272.537 217.52 273.133 217.391 273.971 217.214L275.742 216.795L276.356 216.601L276.387 216.65ZM264.531 141.522C264.531 139.767 263.484 138.687 261.439 138.301L253.594 193.068L258.911 189.846C259.985 181.599 260.918 174.259 261.712 167.827L258.958 164.605L262.341 161.867V161.947C263.415 153.292 264.14 146.602 264.515 141.877L264.531 141.522Z" fill="#FF5B00"/>
<path d="M276.714 216.859L276.343 216.955L275.731 217.149L273.96 217.567C273.122 217.745 272.526 217.873 272.171 217.97C272 217.99 271.835 218.045 271.685 218.13C271.536 218.216 271.405 218.332 271.301 218.469C271.25 218.551 271.223 218.646 271.223 218.743C271.223 218.84 271.25 218.935 271.301 219.017C271.333 219.1 271.391 219.171 271.466 219.217C271.542 219.264 271.631 219.284 271.72 219.275C271.869 219.299 272.022 219.299 272.171 219.275C272.654 219.114 273.412 218.937 274.443 218.711C275.474 218.486 276.183 218.324 276.714 218.163C276.862 218.126 277.003 218.066 277.133 217.986C277.241 217.904 277.321 217.789 277.359 217.659C277.397 217.528 277.39 217.389 277.342 217.261C277.292 217.147 277.208 217.052 277.101 216.989C276.994 216.925 276.869 216.896 276.746 216.907L276.714 216.859ZM276.665 214.603C276.771 214.633 276.882 214.633 276.988 214.603C277.084 214.564 277.172 214.506 277.244 214.431C277.316 214.356 277.371 214.266 277.406 214.169C277.44 214.072 277.445 213.968 277.422 213.868C277.399 213.769 277.349 213.677 277.277 213.605C277.167 213.531 277.044 213.48 276.914 213.455C276.784 213.43 276.65 213.432 276.521 213.46L276.118 213.556L272.284 214.507C272.093 214.543 271.912 214.62 271.753 214.732C271.66 214.806 271.588 214.903 271.545 215.013C271.503 215.124 271.491 215.244 271.511 215.361C271.529 215.465 271.583 215.56 271.662 215.63C271.741 215.7 271.841 215.741 271.946 215.747C272.093 215.795 272.251 215.795 272.398 215.747C273.026 215.618 273.782 215.441 274.668 215.2L275.248 215.038L276.665 214.732V214.603ZM277.504 210.254C277.499 210.164 277.464 210.077 277.406 210.007C277.348 209.938 277.27 209.889 277.181 209.868C277.036 209.771 276.763 209.787 276.376 209.948C275.2 210.303 273.831 210.689 272.284 211.108C272.097 211.148 271.917 211.219 271.753 211.318C271.67 211.381 271.605 211.465 271.562 211.561C271.52 211.656 271.502 211.761 271.511 211.865C271.517 211.969 271.554 212.069 271.617 212.152C271.68 212.235 271.768 212.298 271.866 212.332C272.087 212.399 272.322 212.399 272.542 212.332L276.65 211.189C276.904 211.134 277.142 211.018 277.342 210.85C277.46 210.706 277.519 210.521 277.504 210.335V210.254ZM271.592 209.078C271.784 209.114 271.979 209.114 272.171 209.078C273.264 208.797 274.34 208.453 275.393 208.048C275.667 207.941 275.947 207.85 276.231 207.774C276.434 207.724 276.634 207.659 276.827 207.58C276.896 207.544 276.952 207.488 276.988 207.419C277.059 207.332 277.104 207.225 277.117 207.113C277.129 207.03 277.123 206.944 277.098 206.863C277.073 206.782 277.03 206.708 276.972 206.646C276.899 206.58 276.81 206.531 276.716 206.503C276.621 206.476 276.522 206.469 276.425 206.485C276.204 206.52 275.987 206.579 275.78 206.662C274.59 207.136 273.368 207.524 272.122 207.822C271.938 207.865 271.761 207.93 271.592 208.015C271.538 208.045 271.488 208.083 271.446 208.128C271.384 208.195 271.337 208.273 271.306 208.359C271.276 208.445 271.263 208.537 271.27 208.627C271.262 208.735 271.292 208.841 271.353 208.929C271.415 209.017 271.505 209.081 271.608 209.111L271.592 209.078ZM272.236 203.988C272.041 204.029 271.855 204.106 271.688 204.214C271.512 204.304 271.367 204.444 271.27 204.617V204.745C271.24 204.811 271.223 204.883 271.223 204.955C271.223 205.027 271.24 205.099 271.27 205.164C271.323 205.241 271.396 205.302 271.481 205.342C271.565 205.382 271.659 205.398 271.753 205.39C271.886 205.378 272.017 205.345 272.14 205.293C272.457 205.18 272.779 205.083 273.106 205.003L274.009 204.745C274.975 204.488 275.618 204.262 276.149 204.101H276.263C276.474 204.019 276.674 203.911 276.859 203.779C276.926 203.697 276.973 203.6 276.993 203.496C277.012 203.391 277.005 203.284 276.972 203.183C276.957 203.079 276.904 202.984 276.824 202.916C276.744 202.848 276.641 202.811 276.536 202.813C276.342 202.818 276.151 202.862 275.973 202.941L274.089 203.505C273.299 203.441 272.622 203.602 272.187 203.698L272.236 203.988Z" fill="#10204F"/>
<path d="M311.797 193.358C312.071 193.132 312.198 192.262 312.182 190.716C312.182 189.991 312.087 189.347 312.07 188.799L308.751 189.959C308.751 191.022 308.848 192.133 308.896 193.277C308.944 194.421 309.444 194.55 310.217 194.195C310.791 193.993 311.333 193.711 311.828 193.358H311.797ZM313.713 188.219L312.102 188.799C312.102 189.347 312.102 189.991 312.215 190.716C312.215 192.327 312.102 193.132 311.828 193.358C311.333 193.711 310.791 193.993 310.217 194.195C309.444 194.55 309.009 194.195 308.896 193.277C308.783 192.359 308.8 191.022 308.751 189.959L291.033 196.209C289.926 196.659 288.935 197.353 288.133 198.238L279.145 200.171L278.355 219.275L292.676 215.393H308.736L306.094 198.995L303.469 200.413L300.375 207.194L303.469 200.413L306.094 198.995L313.842 194.759L313.713 188.219Z" fill="#A6394B"/>
<path d="M278.353 219.887C278.273 219.885 278.196 219.867 278.124 219.834C278.051 219.801 277.986 219.754 277.932 219.695C277.878 219.637 277.836 219.568 277.809 219.493C277.782 219.418 277.77 219.338 277.774 219.258L278.58 200.154C278.588 199.998 278.656 199.85 278.77 199.742C278.884 199.634 279.035 199.574 279.192 199.575C279.271 199.577 279.35 199.595 279.423 199.627C279.495 199.66 279.561 199.708 279.615 199.766C279.669 199.825 279.71 199.893 279.737 199.968C279.764 200.043 279.775 200.123 279.77 200.203L278.965 219.307C278.957 219.463 278.89 219.611 278.776 219.719C278.662 219.827 278.51 219.887 278.353 219.887ZM300.292 207.806C300.213 207.828 300.131 207.828 300.052 207.806C299.978 207.774 299.909 207.728 299.853 207.67C299.798 207.612 299.755 207.544 299.726 207.468C299.697 207.393 299.685 207.313 299.688 207.232C299.692 207.152 299.71 207.073 299.745 207L302.838 200.235C302.886 200.111 302.978 200.008 303.096 199.945L305.705 198.511L313.132 194.452V189.153L312.745 189.282C312.745 189.711 312.776 190.194 312.84 190.731C312.84 192.938 312.616 193.582 312.262 193.953C311.729 194.345 311.143 194.66 310.522 194.887C310.302 195.007 310.055 195.07 309.805 195.07C309.554 195.07 309.307 195.007 309.087 194.887C308.856 194.726 308.667 194.511 308.535 194.262C308.403 194.013 308.334 193.735 308.331 193.454C308.331 192.568 308.33 191.73 308.217 190.925L291.24 196.804C291.086 196.86 290.917 196.852 290.769 196.782C290.621 196.713 290.507 196.587 290.451 196.433C290.396 196.28 290.402 196.11 290.472 195.962C290.541 195.814 290.667 195.7 290.821 195.644L308.54 189.394L311.859 188.235L313.47 187.671C313.556 187.623 313.653 187.598 313.751 187.598C313.85 187.598 313.947 187.623 314.033 187.671C314.113 187.727 314.177 187.802 314.222 187.889C314.266 187.976 314.291 188.072 314.291 188.17V194.694C314.292 194.806 314.263 194.916 314.206 195.013C314.149 195.109 314.067 195.188 313.968 195.241L306.221 199.478L303.788 200.815L300.775 207.403C300.74 207.508 300.677 207.602 300.591 207.673C300.506 207.744 300.402 207.79 300.292 207.806ZM309.378 190.361C309.378 191.279 309.475 192.229 309.507 193.228C309.517 193.393 309.567 193.553 309.652 193.695C309.77 193.687 309.886 193.654 309.99 193.599C310.493 193.415 310.97 193.166 311.407 192.858C311.568 192.15 311.622 191.423 311.568 190.699C311.568 190.312 311.568 189.958 311.488 189.62L309.378 190.361Z" fill="#10204F"/>
<path d="M152.006 406.078C152.073 405.191 151.815 404.309 151.281 403.598H131.082L125.751 389.101L124.688 391.501L129.713 405.998H152.006V406.078ZM242.371 405.547C241.908 404.463 241.271 403.462 240.487 402.583H197.914L197.672 405.547H242.371Z" fill="#F04B4A"/>
<path d="M128.714 382.337L125.75 389.134L131.081 403.631H151.28C151.056 403.286 150.814 402.953 150.555 402.633L146.608 397.881C144.885 395.642 144.112 393.967 144.257 392.823L146.045 386.879L128.778 382.353L128.714 382.337ZM240.55 402.681C238.417 400.406 235.869 398.558 233.044 397.237C231.515 396.593 230.146 395.621 229.033 394.391C227.919 393.161 227.089 391.702 226.601 390.117H198.895L197.978 402.681H240.55ZM257.19 116.492L243.772 113.351L240.84 122.194C245.61 124.052 250.922 123.942 255.611 121.888L257.221 116.492H257.19ZM235.138 131.263C235.138 131.359 234.914 131.971 234.607 133.051C234.382 133.775 234.22 134.371 234.107 134.855V135.241C234.117 135.379 234.174 135.51 234.268 135.612C234.336 135.674 234.425 135.708 234.518 135.708C234.61 135.708 234.7 135.674 234.768 135.612C234.864 135.486 234.919 135.335 234.928 135.177C234.928 135.016 235.091 134.549 235.284 133.775L235.992 131.408C236.037 131.272 236.037 131.125 235.992 130.989C235.972 130.937 235.943 130.891 235.904 130.852C235.865 130.813 235.818 130.783 235.767 130.763C235.719 130.739 235.667 130.727 235.614 130.727C235.561 130.727 235.507 130.739 235.46 130.763C235.331 130.763 235.235 130.989 235.155 131.263H235.138ZM239.294 130.957C239.228 130.932 239.157 130.927 239.089 130.941C239.021 130.955 238.958 130.989 238.908 131.037C238.832 131.132 238.776 131.241 238.746 131.359L237.554 134.984C237.509 135.085 237.488 135.195 237.488 135.306C237.488 135.417 237.509 135.526 237.554 135.628C237.589 135.67 237.634 135.704 237.684 135.727C237.735 135.749 237.79 135.759 237.845 135.757C237.9 135.767 237.957 135.764 238.01 135.747C238.063 135.73 238.111 135.7 238.15 135.66L238.295 135.386L239.52 131.585C239.535 131.467 239.535 131.348 239.52 131.23C239.505 131.166 239.474 131.106 239.429 131.058C239.383 131.01 239.326 130.975 239.262 130.957H239.294ZM243.385 131.875C243.413 131.736 243.413 131.594 243.385 131.456C243.368 131.386 243.33 131.323 243.275 131.277C243.22 131.231 243.152 131.203 243.08 131.198C243.011 131.178 242.938 131.177 242.869 131.197C242.8 131.217 242.74 131.257 242.693 131.311L241.469 135.306C241.404 135.505 241.404 135.719 241.469 135.918C241.515 136.014 241.595 136.089 241.694 136.127C241.793 136.159 241.901 136.159 242.001 136.127C242.058 136.096 242.108 136.052 242.147 135.999C242.186 135.946 242.213 135.886 242.226 135.821L243.402 131.891L243.385 131.875ZM247.429 131.891C247.429 131.746 247.331 131.633 247.154 131.553C247.082 131.519 247.001 131.512 246.924 131.533C246.848 131.554 246.781 131.6 246.736 131.665C246.644 131.786 246.593 131.933 246.591 132.084C246.479 132.735 246.334 133.38 246.157 134.017L245.705 135.483C245.705 135.58 245.705 135.708 245.576 135.869C245.568 135.939 245.576 136.01 245.598 136.077C245.621 136.144 245.657 136.205 245.705 136.256C245.737 136.306 245.781 136.347 245.833 136.375C245.885 136.404 245.943 136.419 246.003 136.419C246.062 136.419 246.12 136.404 246.172 136.375C246.224 136.347 246.269 136.306 246.301 136.256L246.397 136.079L247.412 132.149C247.427 132.08 247.427 132.008 247.412 131.939L247.429 131.891ZM250.956 132.116C250.871 132.194 250.802 132.288 250.755 132.394C250.708 132.499 250.683 132.613 250.682 132.728C250.543 133.657 250.311 134.569 249.99 135.451C249.799 135.854 249.648 136.275 249.539 136.707C249.516 136.802 249.516 136.902 249.539 136.997C249.553 137.057 249.58 137.113 249.619 137.16C249.658 137.208 249.708 137.245 249.764 137.271C249.815 137.302 249.874 137.319 249.934 137.319C249.993 137.319 250.051 137.302 250.102 137.271C250.231 137.271 250.328 136.997 250.409 136.627L251.23 134.243L251.521 132.712C251.535 132.6 251.535 132.486 251.521 132.374C251.477 132.26 251.39 132.167 251.279 132.116C251.228 132.092 251.174 132.079 251.118 132.079C251.062 132.079 251.006 132.092 250.956 132.116V132.116ZM254.178 132.229C254.132 132.339 254.094 132.452 254.064 132.567L253.421 135.241L253.259 135.676C253.143 136.006 253.058 136.346 253.003 136.691C253.003 137.013 253.002 137.206 253.099 137.303C253.133 137.345 253.178 137.376 253.229 137.393C253.28 137.41 253.335 137.412 253.388 137.4C253.44 137.4 253.491 137.385 253.534 137.356C253.577 137.328 253.611 137.287 253.63 137.239C253.694 137.149 253.727 137.042 253.726 136.933C253.823 136.562 253.937 136.159 254.082 135.724L254.211 135.402L254.838 132.761C254.886 132.625 254.886 132.477 254.838 132.342C254.816 132.275 254.777 132.215 254.723 132.168C254.67 132.122 254.604 132.092 254.535 132.08C254.465 132.068 254.393 132.076 254.327 132.102C254.261 132.129 254.204 132.173 254.162 132.229H254.178Z" fill="#10204F"/>
<path d="M215.96 249.59H216.394H215.96ZM221.758 134.869C218.945 135.525 215.406 138.633 211.143 144.196L202.847 154.876L206.069 157.549L200.319 165.523L197 162.527L186.031 176.67L187.529 176.541L187.142 181.55L182.133 181.679L180.876 183.29C172.371 194.576 172.007 204.477 179.781 212.993C180.9 214.217 182.112 215.354 183.406 216.392C183.905 216.73 184.404 217.068 184.919 217.374L172.516 249.397H184.919H185.273L183.662 246.481L191.604 241.649L194.455 245.177L188.897 249.429H205.457H211.53L207.937 242.728L212.158 240.231L216.378 249.284L216.089 249.445H216.523L243.246 249.542L240.974 241.939L245.001 240.328L247.675 248.285C248.266 243.056 248.879 237.826 249.513 232.596L250.172 226.91C252.255 209.728 254.484 192.584 256.857 175.478C257.341 172.063 257.818 168.659 258.29 165.265L259.049 160.175C259.049 159.708 259.16 159.257 259.24 158.806L252.203 154.118L254.924 149.963L260.03 153.361C260.787 148.255 261.561 143.133 262.35 138.027L255.536 137.527L257.807 127.863C256.913 126.979 255.802 126.346 254.586 126.026L253.491 129.731L255.391 129.844L253.491 129.731L238.703 128.684L236.658 128.523L238.703 128.684L240.314 124.206C238.279 124.539 236.371 125.413 234.789 126.735L231.568 134.628H221.903L221.758 134.869ZM215.862 144.293L218.665 140.797L225.769 147.563L222.548 151.187L215.911 144.293H215.862ZM254.377 132.292C254.406 132.177 254.444 132.064 254.49 131.954C254.532 131.897 254.589 131.854 254.655 131.827C254.721 131.801 254.791 131.793 254.861 131.805C254.931 131.817 254.996 131.847 255.05 131.893C255.103 131.939 255.144 131.999 255.166 132.067C255.214 132.202 255.214 132.35 255.166 132.486L254.537 135.127L254.408 135.449C254.263 135.884 254.151 136.287 254.054 136.657C254.055 136.767 254.022 136.874 253.958 136.964C253.939 137.012 253.905 137.053 253.862 137.081C253.819 137.11 253.768 137.125 253.716 137.125C253.663 137.137 253.608 137.135 253.557 137.118C253.506 137.101 253.461 137.07 253.426 137.028C253.314 136.931 253.265 136.738 253.329 136.416C253.384 136.071 253.471 135.731 253.587 135.401L253.749 134.966L254.392 132.292H254.377ZM250.995 132.453C250.996 132.338 251.02 132.224 251.067 132.119C251.114 132.013 251.183 131.919 251.268 131.841C251.319 131.817 251.373 131.804 251.429 131.804C251.484 131.804 251.539 131.817 251.589 131.841C251.7 131.892 251.788 131.985 251.831 132.099C251.846 132.211 251.846 132.325 251.831 132.437L251.542 133.967L250.721 136.351C250.721 136.722 250.543 136.947 250.414 136.996C250.363 137.027 250.304 137.044 250.244 137.044C250.184 137.044 250.127 137.027 250.076 136.996C250.02 136.97 249.97 136.932 249.931 136.885C249.892 136.838 249.865 136.782 249.851 136.722C249.828 136.627 249.828 136.527 249.851 136.432C249.96 135.999 250.11 135.579 250.301 135.176C250.622 134.293 250.855 133.382 250.995 132.453V132.453ZM247.45 131.326C247.628 131.406 247.724 131.519 247.724 131.664C247.74 131.733 247.74 131.804 247.724 131.873L246.71 135.804L246.612 135.981C246.58 136.031 246.537 136.072 246.485 136.1C246.433 136.129 246.374 136.144 246.315 136.144C246.255 136.144 246.197 136.129 246.145 136.1C246.093 136.072 246.048 136.031 246.016 135.981C245.968 135.93 245.931 135.869 245.909 135.802C245.887 135.735 245.88 135.664 245.888 135.594C245.888 135.433 245.984 135.304 246.016 135.208L246.467 133.742C246.645 133.105 246.791 132.46 246.903 131.809C246.905 131.657 246.956 131.511 247.048 131.39C247.093 131.325 247.16 131.278 247.237 131.258C247.313 131.237 247.394 131.244 247.466 131.277L247.45 131.326ZM243.762 131.277C243.789 131.416 243.789 131.558 243.762 131.696L242.585 135.627C242.572 135.691 242.545 135.752 242.506 135.805C242.467 135.857 242.418 135.901 242.36 135.933C242.261 135.965 242.153 135.965 242.053 135.933C241.954 135.894 241.874 135.819 241.828 135.723C241.763 135.524 241.763 135.31 241.828 135.111L243.052 131.116C243.099 131.062 243.161 131.023 243.23 131.003C243.299 130.983 243.371 130.983 243.439 131.004C243.511 131.008 243.579 131.036 243.634 131.082C243.689 131.129 243.729 131.191 243.746 131.261L243.762 131.277ZM241.924 138.542L245.549 141.57L239.106 148.497L235.047 145.92L241.957 138.542H241.924ZM239.219 130.843C239.269 130.794 239.333 130.761 239.401 130.746C239.47 130.732 239.54 130.738 239.606 130.762C239.669 130.78 239.727 130.816 239.772 130.864C239.818 130.912 239.849 130.971 239.864 131.036C239.879 131.153 239.879 131.273 239.864 131.39L238.64 135.192L238.494 135.466C238.455 135.506 238.407 135.536 238.354 135.552C238.3 135.569 238.243 135.573 238.188 135.562C238.133 135.565 238.078 135.554 238.028 135.532C237.978 135.51 237.932 135.476 237.897 135.433C237.853 135.332 237.831 135.222 237.831 135.111C237.831 135 237.853 134.891 237.897 134.789L239.09 131.165C239.119 131.047 239.175 130.937 239.252 130.843H239.219ZM234.967 132.856C235.273 131.777 235.45 131.165 235.499 131.068C235.547 130.971 235.675 130.617 235.804 130.569C235.851 130.545 235.905 130.532 235.958 130.532C236.011 130.532 236.063 130.545 236.11 130.569C236.162 130.588 236.208 130.618 236.247 130.657C236.286 130.696 236.316 130.743 236.335 130.794C236.381 130.93 236.381 131.077 236.335 131.213L235.628 133.581C235.434 134.354 235.32 134.821 235.272 134.982C235.263 135.14 235.208 135.292 235.112 135.417C235.043 135.479 234.954 135.514 234.861 135.514C234.769 135.514 234.681 135.479 234.613 135.417C234.519 135.315 234.461 135.185 234.451 135.047V134.66C234.564 134.177 234.726 133.581 234.951 132.856H234.967ZM229.087 166.844L227.863 156.937L232.695 156.1L233.823 165.587L228.991 166.844H229.087ZM250.365 166.554H255.342L254.748 176.412L249.786 176.154L250.365 166.618V166.554ZM227.959 181.115L227.525 175.993H237.303L237.77 180.31L227.959 181.099V181.115ZM225.736 209.063L235.401 207.065L236.191 211.898L226.526 213.508L225.705 209.063H225.736ZM249.753 189.556L241.539 195.049L238.767 190.957L246.694 185.674L249.753 189.556ZM244.422 221.772L245.163 212.558L249.48 212.993L248.739 222.11L244.422 221.772ZM233.323 234.964L230.44 230.712L238.494 225.67L241.361 229.278L233.307 234.964H233.323ZM219.068 172.723L211.014 178.345L208.711 174.092L216.683 168.632L219.1 172.723H219.068ZM193.327 192.858L203.265 192.053L202.88 197.046L193.006 197.336L193.327 192.858ZM181.263 207.822L176.656 199.462L180.812 196.756L185.644 205.406L181.31 207.822H181.263ZM182.325 224.639L186.498 224.123L187.689 233.869L183.068 234.336L182.325 224.671V224.639ZM215.025 221.917L219.502 220.741L221.242 230.679L216.492 231.743L215.025 221.917ZM199.625 227.554L204.346 228.295L202.735 238.073L197.903 237.686L199.514 227.554H199.625ZM200.351 219.162L196.066 217.02L200.593 207.854L205.07 210.351L200.351 219.162Z" fill="#FF5B00"/>
<path d="M211.396 249.574H215.954L216.244 249.413L212.023 240.36L207.803 242.857L211.396 249.558V249.574ZM185.123 249.477H188.763L194.32 245.225L191.47 241.697L183.528 246.53L185.139 249.445L185.123 249.477ZM185.897 176.621L181.999 181.631L187.007 181.502L187.394 176.492L185.897 176.621ZM247.525 248.495C247.525 248.897 247.444 249.316 247.412 249.735L247.897 249.51L247.525 248.495ZM243.096 249.719H247.412C247.412 249.3 247.413 248.881 247.525 248.479L244.851 240.521L240.824 242.132L243.096 249.735V249.719ZM254.774 150.188L252.051 154.344L259.09 159.031C259.348 157.195 259.606 155.391 259.88 153.587L254.774 150.188ZM205.903 157.566L202.681 154.892L202.181 154.473L196.463 162.285L196.754 162.543L200.071 165.539L205.823 157.566H205.903ZM195.771 217.004L200.056 219.146L204.775 210.335L200.296 207.838L195.771 217.004ZM203.938 228.279L199.217 227.538L197.607 237.67L202.439 238.057L204.05 228.279H203.938ZM219.207 220.725L214.729 221.901L216.195 231.726L220.947 230.663L219.207 220.725ZM186.186 224.188L182.015 224.703L182.755 234.368L187.379 233.901L186.186 224.156V224.188ZM176.393 199.494L181 207.854L185.332 205.438L180.5 196.788L176.344 199.494H176.393ZM202.955 192.085L193.016 192.89L192.694 197.368L202.568 197.078L202.955 192.085ZM210.751 178.377L218.805 172.755L216.389 168.664L208.415 174.124L210.719 178.377H210.751ZM230.161 230.744L233.044 234.996L241.098 229.31L238.232 225.702L230.178 230.744H230.161ZM244.9 212.59L244.159 221.804L248.475 222.142L249.216 213.025L244.9 212.59ZM241.34 195.194L249.555 189.701L246.495 185.819L238.57 191.102L241.34 195.194ZM235.122 207.21L225.457 209.208L226.278 213.653L235.943 212.043L235.155 207.21H235.122ZM227.326 176.122L227.762 181.244L237.571 180.455L237.104 176.138H227.326V176.122ZM255.145 166.779H250.166L249.588 176.315L254.549 176.573L255.145 166.715V166.779ZM227.568 157.163L228.792 167.069L233.624 165.813L232.497 156.325L227.664 157.163H227.568ZM245.383 141.796L241.759 138.768L234.848 146.145L238.908 148.722L245.351 141.796H245.383ZM218.531 141.007L215.728 144.502L222.365 151.396L225.586 147.772L218.531 141.007Z" fill="#FDF6BA"/>
<path d="M185.125 249.494H184.707L175.315 270.902L199.188 262.687L205.324 249.51H188.765H185.125V249.494ZM245.095 249.752H243.113L216.391 249.655H215.957H205.324L199.188 262.831L175.315 271.047L160.046 305.775L121 380.419L128.716 382.433L146.048 386.879L163.332 391.389L205.905 295.627L217.614 269.21L205.905 295.627L191.408 390.116H233.787L245.095 249.752Z" fill="#022782"/>
<path d="M240.891 122.193L240.165 124.448L238.555 128.926L253.343 129.973L254.438 126.269L255.726 121.887C253.395 122.913 250.885 123.468 248.339 123.521C245.793 123.573 243.262 123.122 240.891 122.193V122.193Z" fill="#A6394B"/>
<path d="M247.43 250.348H243.096L216.389 250.251H215.937H211.396H205.322H184.769H172.381C172.219 250.251 172.064 250.187 171.949 250.072C171.834 249.957 171.77 249.801 171.77 249.639C171.77 249.477 171.834 249.321 171.949 249.206C172.064 249.091 172.219 249.027 172.381 249.027H185.139H205.322H215.986H216.405L243.112 249.123H246.865V248.431C247.461 243.18 248.074 237.961 248.718 232.726L249.361 227.039C251.423 209.981 253.678 192.665 256.062 175.607L258.254 160.288C258.254 159.837 258.365 159.386 258.43 158.919C258.688 157.099 258.961 155.279 259.235 153.475C259.976 148.368 260.75 143.246 261.54 138.14C261.546 138.056 261.568 137.974 261.607 137.9C261.647 137.825 261.701 137.76 261.766 137.707C261.832 137.655 261.908 137.616 261.99 137.594C262.071 137.572 262.155 137.567 262.238 137.579C262.321 137.591 262.401 137.621 262.473 137.665C262.544 137.709 262.606 137.768 262.653 137.837C262.701 137.907 262.735 137.985 262.751 138.067C262.767 138.15 262.766 138.235 262.748 138.317C261.959 143.439 261.136 148.546 260.443 153.668C260.169 155.456 259.896 157.276 259.638 159.096C259.638 159.547 259.51 159.998 259.462 160.465L257.271 175.768C254.887 192.826 252.648 210.126 250.587 227.184L249.926 232.871C249.298 238.106 248.669 243.325 248.089 248.56L247.977 249.8V249.977C247.942 250.055 247.893 250.126 247.832 250.187C247.764 250.253 247.681 250.303 247.59 250.332L247.43 250.348ZM255.177 130.698L253.277 130.585L236.428 129.377C236.268 129.361 236.121 129.283 236.019 129.159C235.916 129.035 235.865 128.877 235.879 128.717C235.883 128.636 235.904 128.556 235.94 128.483C235.976 128.41 236.026 128.345 236.088 128.292C236.15 128.239 236.221 128.2 236.299 128.176C236.376 128.152 236.459 128.144 236.539 128.153L238.586 128.314L255.257 129.474C255.419 129.49 255.569 129.567 255.677 129.69C255.785 129.812 255.842 129.971 255.837 130.134C255.843 130.221 255.828 130.308 255.797 130.388C255.765 130.469 255.716 130.542 255.653 130.602C255.591 130.662 255.515 130.707 255.433 130.735C255.351 130.763 255.263 130.772 255.177 130.762V130.698Z" fill="#10204F"/>
<path d="M163.266 391.985C163.182 392.006 163.093 392.006 163.008 391.985C162.934 391.953 162.866 391.907 162.81 391.849C162.754 391.791 162.711 391.723 162.683 391.647C162.654 391.572 162.642 391.492 162.645 391.411C162.648 391.331 162.667 391.252 162.702 391.179L205.274 295.418L216.986 269.017C217.053 268.866 217.176 268.747 217.33 268.687C217.484 268.627 217.655 268.63 217.807 268.695C217.882 268.728 217.949 268.775 218.005 268.835C218.061 268.894 218.105 268.964 218.134 269.041C218.163 269.117 218.175 269.199 218.172 269.28C218.168 269.362 218.148 269.442 218.114 269.516L206.387 295.917L163.765 391.614C163.72 391.713 163.651 391.799 163.564 391.864C163.476 391.928 163.374 391.97 163.266 391.985V391.985ZM175.314 271.562C175.187 271.565 175.063 271.528 174.959 271.456C174.854 271.383 174.775 271.279 174.734 271.159C174.706 271.083 174.694 271.002 174.698 270.921C174.701 270.84 174.72 270.76 174.754 270.687C174.789 270.613 174.837 270.548 174.897 270.493C174.958 270.439 175.029 270.397 175.105 270.37L198.735 262.235L204.76 249.349C204.833 249.204 204.958 249.091 205.111 249.035C205.263 248.978 205.431 248.981 205.581 249.043C205.654 249.077 205.72 249.126 205.775 249.186C205.829 249.246 205.87 249.317 205.897 249.393C205.924 249.469 205.937 249.55 205.932 249.631C205.927 249.712 205.906 249.792 205.871 249.864L199.734 263.041C199.662 263.19 199.535 263.305 199.38 263.363L175.508 271.578C175.443 271.588 175.376 271.583 175.314 271.562V271.562Z" fill="#FDF6BA"/>
<path d="M233.024 121.629C232.16 121.628 231.302 121.492 230.479 121.226C229.425 120.91 228.451 120.375 227.618 119.657C226.785 118.938 226.113 118.051 225.647 117.054C225.158 116.059 224.874 114.976 224.813 113.869C224.752 112.762 224.916 111.654 225.293 110.611C226.007 108.464 227.541 106.686 229.561 105.666C230.516 105.147 231.568 104.826 232.65 104.724C233.733 104.621 234.823 104.739 235.859 105.07C235.92 105.078 235.977 105.099 236.029 105.131C236.081 105.164 236.125 105.207 236.158 105.258C236.191 105.31 236.212 105.367 236.221 105.428C236.229 105.488 236.225 105.55 236.207 105.608C236.189 105.667 236.159 105.72 236.119 105.766C236.078 105.811 236.027 105.847 235.971 105.871C235.915 105.895 235.854 105.906 235.793 105.904C235.732 105.902 235.673 105.887 235.618 105.859C234.683 105.562 233.698 105.456 232.721 105.547C231.744 105.638 230.796 105.925 229.932 106.391C228.101 107.32 226.71 108.936 226.065 110.885C225.721 111.828 225.573 112.831 225.628 113.834C225.683 114.836 225.942 115.817 226.388 116.716C226.794 117.611 227.389 118.408 228.131 119.053C228.873 119.698 229.745 120.176 230.688 120.453C231.636 120.768 232.638 120.885 233.633 120.797C234.628 120.708 235.594 120.416 236.471 119.938C237.383 119.483 238.197 118.851 238.864 118.08C239.53 117.309 240.036 116.412 240.353 115.444C240.699 114.503 240.849 113.501 240.791 112.501C240.732 111.5 240.468 110.523 240.015 109.629C239.862 109.291 239.679 108.967 239.468 108.662C239.413 108.57 239.395 108.459 239.419 108.354C239.443 108.249 239.507 108.158 239.597 108.098C239.641 108.068 239.69 108.047 239.743 108.037C239.795 108.026 239.849 108.026 239.902 108.036C239.954 108.047 240.004 108.068 240.048 108.098C240.092 108.128 240.13 108.166 240.16 108.211C240.381 108.547 240.58 108.897 240.756 109.258C241.251 110.251 241.54 111.334 241.604 112.442C241.668 113.549 241.505 114.658 241.127 115.701C240.775 116.768 240.214 117.754 239.479 118.602C238.743 119.451 237.848 120.146 236.842 120.646C235.669 121.28 234.358 121.617 233.024 121.629V121.629Z" fill="#F04B4A"/>
<path d="M272.85 118.762C272.797 118.753 272.746 118.732 272.701 118.703C272.655 118.673 272.616 118.634 272.586 118.589C272.556 118.544 272.536 118.493 272.526 118.44C272.516 118.387 272.516 118.332 272.528 118.279C272.628 117.813 272.688 117.338 272.705 116.861C272.757 115.878 272.603 114.894 272.254 113.974C271.904 113.053 271.367 112.215 270.676 111.514C270.257 111.083 269.792 110.7 269.29 110.37L268.968 110.177C268.921 110.151 268.88 110.117 268.847 110.076C268.813 110.035 268.789 109.987 268.774 109.936C268.759 109.885 268.754 109.832 268.76 109.779C268.766 109.727 268.782 109.675 268.807 109.629C268.833 109.58 268.867 109.537 268.91 109.502C268.952 109.467 269.001 109.442 269.054 109.427C269.107 109.412 269.162 109.407 269.216 109.414C269.271 109.422 269.323 109.44 269.37 109.468L269.726 109.677C270.31 110.031 270.851 110.453 271.337 110.934C272.106 111.716 272.704 112.65 273.092 113.676C273.481 114.702 273.65 115.798 273.591 116.894C273.575 117.434 273.517 117.973 273.415 118.504C273.397 118.56 273.367 118.611 273.328 118.655C273.29 118.699 273.243 118.734 273.19 118.758C273.137 118.782 273.078 118.795 273.02 118.796C272.962 118.797 272.904 118.785 272.85 118.762V118.762Z" fill="#F04B4A"/>
<path d="M232.075 107.889C232.535 107.72 232.956 107.461 233.313 107.126C233.67 106.791 233.956 106.388 234.153 105.94C234.39 105.513 234.533 105.042 234.575 104.556C234.616 104.07 234.554 103.581 234.394 103.121C234.273 102.64 234.044 102.194 233.722 101.817C233.401 101.44 232.998 101.142 232.542 100.946C232.065 100.723 231.552 100.582 231.028 100.528C230.974 100.518 230.92 100.518 230.867 100.528C230.872 100.565 230.872 100.603 230.867 100.64C230.901 102.438 231.106 104.229 231.479 105.988C231.586 106.559 231.726 107.124 231.898 107.679C231.979 107.726 232.043 107.8 232.075 107.889V107.889Z" fill="#FF5B00"/>
<path d="M237.961 83.6951C238.889 84.391 239.923 84.9347 241.022 85.3059C241.462 85.4413 241.908 85.5542 242.359 85.6442C244.903 86.0565 247.51 85.7612 249.897 84.7905C252.442 83.867 254.408 83.9636 255.793 85.0804C256.286 85.4848 256.701 85.9761 257.017 86.5301C258.286 89.2736 258.84 92.2937 258.628 95.309C258.701 97.0725 259.143 98.8013 259.922 100.385C260.702 101.969 261.802 103.372 263.155 104.507C264.562 104.113 266.061 104.209 267.407 104.78C268.293 101.069 268.248 97.1955 267.278 93.5049C266.774 90.9785 265.738 88.5885 264.239 86.4941C262.739 84.3998 260.81 82.6494 258.58 81.3595L256.97 80.5219C253.483 78.9248 249.554 78.5723 245.839 79.5232L244.486 79.8453C243.634 80.1103 242.812 80.4667 242.037 80.9085C241.35 81.2404 240.683 81.6115 240.039 82.0199C239.299 82.517 238.604 83.0775 237.961 83.6951V83.6951Z" fill="#022782"/>
<path d="M237.958 83.6953C236.994 84.5696 236.13 85.5473 235.381 86.6108C233.827 88.7973 232.655 91.2321 231.917 93.8111C231.304 96.0029 230.997 98.2684 231 100.544C231.053 100.535 231.107 100.535 231.16 100.544C231.685 100.599 232.197 100.74 232.675 100.963C233.131 101.159 233.534 101.457 233.855 101.834C234.176 102.211 234.406 102.657 234.527 103.138C234.687 103.598 234.749 104.087 234.708 104.573C234.666 105.059 234.523 105.53 234.286 105.956C234.089 106.404 233.802 106.808 233.445 107.143C233.087 107.478 232.668 107.737 232.208 107.906C233.421 112.401 236.301 116.266 240.262 118.714C242.362 119.999 244.727 120.789 247.177 121.023C249.628 121.257 252.098 120.931 254.404 120.067C258.509 118.623 261.996 115.814 264.279 112.11C265.125 112.432 266.059 112.432 266.905 112.11C267.878 111.757 268.671 111.033 269.112 110.096C269.357 109.644 269.504 109.145 269.546 108.632C269.587 108.119 269.521 107.602 269.352 107.116C269.202 106.628 268.955 106.176 268.626 105.786C268.296 105.395 267.892 105.075 267.436 104.845C266.091 104.274 264.59 104.177 263.183 104.571C261.83 103.437 260.73 102.033 259.95 100.45C259.171 98.8659 258.731 97.1371 258.657 95.3736C258.87 92.3582 258.315 89.3382 257.046 86.5947C256.73 86.0408 256.316 85.5494 255.823 85.145C254.437 84.0712 252.472 83.9745 249.927 84.8551C247.54 85.8257 244.931 86.1211 242.387 85.7088C241.936 85.6188 241.491 85.5059 241.052 85.3706C239.937 84.9826 238.891 84.4169 237.958 83.6953V83.6953Z" fill="#A6394B"/>
<path d="M251.862 97.3697C251.807 97.1844 251.712 97.0134 251.583 96.8686C251.455 96.7239 251.298 96.609 251.121 96.5321C250.949 96.4527 250.761 96.4116 250.572 96.4116C250.383 96.4116 250.196 96.4527 250.025 96.5321C249.654 96.6571 249.347 96.9237 249.172 97.2737C248.997 97.6238 248.968 98.0289 249.09 98.4006C249.139 98.5818 249.229 98.7496 249.351 98.8918C249.474 99.034 249.628 99.1469 249.8 99.2222C249.965 99.3144 250.148 99.3694 250.338 99.3833C250.527 99.3972 250.717 99.3697 250.894 99.3027C251.08 99.24 251.251 99.1407 251.398 99.0106C251.545 98.8806 251.664 98.7225 251.749 98.5456C251.851 98.3692 251.913 98.1729 251.933 97.97C251.952 97.767 251.929 97.5623 251.862 97.3697V97.3697Z" fill="#10204F"/>
<path d="M250.406 99.5293C250.154 99.5244 249.906 99.4639 249.681 99.3522C249.484 99.2568 249.309 99.1226 249.166 98.9577C249.023 98.7927 248.916 98.6005 248.85 98.3926C248.784 98.1847 248.76 97.9656 248.781 97.7484C248.802 97.5312 248.868 97.3206 248.973 97.1293C249.066 96.9281 249.2 96.7484 249.366 96.6014C249.532 96.4545 249.727 96.3436 249.939 96.2755C250.14 96.1891 250.355 96.1445 250.574 96.1445C250.793 96.1445 251.01 96.1891 251.211 96.2755C251.41 96.3707 251.586 96.5056 251.73 96.6717C251.875 96.8379 251.983 97.0319 252.05 97.2417C252.116 97.4515 252.14 97.6727 252.117 97.8916C252.095 98.1105 252.028 98.3225 251.921 98.5146C251.781 98.7974 251.565 99.0359 251.298 99.2037C251.03 99.3715 250.721 99.4619 250.406 99.4649V99.5293ZM250.502 96.5816C250.359 96.5864 250.218 96.6136 250.083 96.6621C249.764 96.7751 249.499 97.0055 249.342 97.3065C249.275 97.4616 249.242 97.6288 249.242 97.7977C249.242 97.9667 249.275 98.1339 249.342 98.289C249.39 98.4412 249.468 98.5816 249.574 98.701C249.679 98.8204 249.809 98.916 249.954 98.9817C250.103 99.0498 250.265 99.0851 250.429 99.0851C250.593 99.0851 250.755 99.0498 250.904 98.9817C251.064 98.9275 251.212 98.8409 251.337 98.7272C251.462 98.6136 251.561 98.4753 251.63 98.3212C251.712 98.1788 251.764 98.0204 251.781 97.8565C251.797 97.6926 251.779 97.5271 251.727 97.3709C251.682 97.2113 251.601 97.0636 251.493 96.9383C251.384 96.813 251.249 96.7132 251.098 96.646C250.908 96.5727 250.703 96.5505 250.502 96.5816V96.5816Z" fill="#10204F"/>
<path d="M235.77 96.2594C235.923 96.3246 236.059 96.4238 236.168 96.5494C236.277 96.675 236.354 96.8237 236.397 96.9843C236.468 97.1383 236.506 97.3059 236.506 97.4755C236.506 97.6451 236.468 97.8128 236.397 97.9669C236.326 98.1194 236.226 98.2563 236.102 98.3697C235.977 98.483 235.831 98.5706 235.672 98.6272C235.357 98.7553 235.006 98.7553 234.691 98.6272C234.406 98.4601 234.189 98.1977 234.079 97.8863C233.958 97.5754 233.958 97.2307 234.079 96.9198C234.153 96.7641 234.258 96.6253 234.389 96.5118C234.519 96.3982 234.671 96.3123 234.835 96.2594C234.98 96.187 235.14 96.1494 235.302 96.1494C235.465 96.1494 235.625 96.187 235.77 96.2594V96.2594Z" fill="#10204F"/>
<path d="M235.155 98.9007C234.938 98.8991 234.722 98.8496 234.526 98.7558C234.201 98.5553 233.958 98.2462 233.84 97.8833C233.722 97.5205 233.738 97.1275 233.883 96.7745C233.973 96.596 234.097 96.4372 234.249 96.3073C234.401 96.1773 234.578 96.0788 234.768 96.0174C234.941 95.9333 235.131 95.8896 235.324 95.8896C235.516 95.8896 235.706 95.9333 235.879 96.0174C236.052 96.098 236.207 96.2143 236.332 96.3587C236.457 96.503 236.549 96.6722 236.604 96.8551C236.669 97.0419 236.693 97.2401 236.676 97.4371C236.66 97.634 236.603 97.8253 236.508 97.9987C236.374 98.2435 236.179 98.4494 235.942 98.5963C235.705 98.7431 235.434 98.8258 235.155 98.8363V98.9007ZM235.251 96.3235C235.129 96.3288 235.01 96.3561 234.897 96.404C234.759 96.4472 234.63 96.518 234.52 96.6121C234.409 96.7062 234.317 96.8217 234.252 96.9517C234.147 97.2155 234.147 97.5094 234.252 97.7732C234.293 97.9044 234.36 98.0262 234.449 98.1313C234.537 98.2364 234.646 98.3228 234.768 98.3853C235.032 98.4902 235.326 98.4902 235.589 98.3853C235.72 98.3416 235.839 98.272 235.942 98.1806C236.044 98.0892 236.127 97.978 236.186 97.8537C236.297 97.5856 236.297 97.2843 236.186 97.0161C236.153 96.885 236.088 96.7639 235.998 96.6629C235.909 96.5619 235.796 96.4842 235.67 96.4362C235.541 96.3651 235.398 96.3264 235.251 96.3235V96.3235Z" fill="#10204F"/>
<path d="M240.588 101.866C240.502 101.865 240.417 101.847 240.34 101.81C240.262 101.774 240.192 101.722 240.137 101.656C240.07 101.587 240.022 101.502 239.997 101.409C239.971 101.316 239.97 101.218 239.992 101.125L241.603 93.9407C241.618 93.8594 241.648 93.782 241.694 93.7132C241.74 93.6443 241.8 93.5854 241.869 93.54C241.938 93.4947 242.015 93.4637 242.097 93.4491C242.178 93.4345 242.26 93.4365 242.34 93.455C242.421 93.4735 242.497 93.5081 242.564 93.5568C242.631 93.6054 242.688 93.6671 242.731 93.738C242.773 93.809 242.8 93.8878 242.811 93.9697C242.822 94.0516 242.816 94.1349 242.794 94.2145L241.409 100.545L244.389 100.239C244.469 100.23 244.552 100.237 244.629 100.26C244.707 100.283 244.779 100.321 244.842 100.371C244.905 100.422 244.957 100.485 244.996 100.557C245.034 100.628 245.057 100.706 245.065 100.787C245.079 100.948 245.03 101.109 244.928 101.235C244.826 101.361 244.679 101.443 244.518 101.463L240.684 101.866H240.588Z" fill="#10204F"/>
<path d="M234.35 88.1889C234.044 88.6882 233.77 89.2198 233.496 89.7997C233.505 89.8258 233.505 89.854 233.496 89.8802C234.849 89.7191 235.815 89.5903 236.411 89.4936C237.007 89.397 237.41 89.252 237.523 89.0587C237.654 88.8215 237.725 88.5563 237.732 88.2855C237.732 87.9634 237.411 87.8345 236.702 87.8989C235.993 87.9634 235.252 88.0278 234.35 88.1889Z" fill="#022782"/>
<path d="M256.333 90.2663C256.446 89.6864 256.334 89.3482 255.754 89.2676L250.245 88.43C250.123 88.4071 249.997 88.4097 249.876 88.4376C249.755 88.4655 249.64 88.5182 249.541 88.5923C249.441 88.6665 249.357 88.7604 249.295 88.8683C249.233 88.9762 249.195 89.0957 249.182 89.2193C249.069 89.7831 249.326 90.1213 249.97 90.218L255.545 91.0395C255.964 91.1039 256.22 90.8462 256.333 90.2663V90.2663Z" fill="#022782"/>
<path d="M244.308 111.61C244.768 111.558 245.21 111.402 245.601 111.154C245.992 110.905 246.322 110.571 246.564 110.176C247.308 109.264 247.733 108.132 247.772 106.955C245.522 107.706 243.168 108.097 240.797 108.114C241.116 109.036 241.59 109.897 242.198 110.659C242.462 110.96 242.786 111.2 243.15 111.364C243.514 111.528 243.909 111.612 244.308 111.61Z" fill="white"/>
<path d="M248.542 107.743C248.534 107.434 248.495 107.127 248.429 106.825L247.835 107.035C247.795 108.212 247.371 109.343 246.626 110.256C246.384 110.651 246.055 110.985 245.664 111.234C245.273 111.482 244.831 111.638 244.371 111.69C243.978 111.702 243.586 111.631 243.222 111.481C242.859 111.331 242.532 111.106 242.261 110.82C241.653 110.058 241.179 109.197 240.86 108.275H240.344C240.537 109.714 241.161 111.061 242.132 112.141C242.445 112.527 242.836 112.842 243.281 113.064C243.725 113.287 244.212 113.411 244.709 113.429C245.377 113.407 246.022 113.185 246.562 112.792C247.102 112.398 247.511 111.852 247.737 111.223C248.273 110.141 248.549 108.95 248.542 107.743V107.743Z" fill="#F04B4A"/>
<path d="M245.912 104.249C244.94 103.99 243.91 104.058 242.98 104.442C242.067 104.757 241.3 105.392 240.822 106.23C240.763 106.307 240.719 106.395 240.693 106.488C240.396 107.006 240.257 107.599 240.29 108.195H240.822C243.193 108.178 245.547 107.786 247.797 107.036L248.393 106.826H248.506C248.483 106.693 248.445 106.564 248.393 106.44C248.247 106.071 248.052 105.724 247.812 105.409C247.388 104.922 246.826 104.574 246.201 104.41C246.117 104.337 246.019 104.282 245.912 104.249V104.249Z" fill="#FF5B00"/>
<path d="M240.597 108.824H239.647C239.485 108.824 239.328 108.759 239.213 108.644C239.098 108.53 239.035 108.374 239.035 108.212C239.035 108.049 239.098 107.893 239.213 107.779C239.328 107.664 239.485 107.599 239.647 107.599H240.855C243.16 107.576 245.448 107.196 247.637 106.472L248.233 106.262H248.329L250.262 105.505C250.416 105.447 250.586 105.452 250.737 105.518C250.888 105.584 251.006 105.707 251.067 105.86C251.121 106.012 251.113 106.178 251.047 106.325C250.981 106.472 250.862 106.588 250.713 106.649L248.763 107.406H248.635L248.039 107.616C245.727 108.386 243.308 108.788 240.871 108.808L240.597 108.824Z" fill="#10204F"/>
<path d="M255.081 100.833C255.521 100.671 255.991 100.601 256.459 100.629C256.928 100.657 257.385 100.781 257.803 100.995C258.228 101.19 258.608 101.473 258.916 101.826C259.224 102.179 259.454 102.592 259.591 103.04C259.735 103.495 259.788 103.974 259.747 104.45C259.705 104.925 259.57 105.388 259.349 105.811C259.144 106.241 258.855 106.625 258.498 106.941C258.141 107.256 257.723 107.496 257.271 107.647C256.831 107.818 256.36 107.895 255.888 107.872C255.417 107.85 254.954 107.73 254.532 107.518C254.108 107.319 253.732 107.032 253.426 106.677C253.121 106.322 252.894 105.906 252.761 105.456C252.471 104.544 252.552 103.555 252.986 102.702C253.413 101.83 254.166 101.159 255.081 100.833V100.833Z" fill="#FF5B00"/>
<path d="M249.234 82.9705V83.2604C249.247 83.3166 249.27 83.3697 249.303 83.4167C249.337 83.4637 249.379 83.5036 249.428 83.5342H249.525C249.525 83.5342 249.524 83.5342 249.637 83.5342C249.685 83.5427 249.735 83.5427 249.783 83.5342C249.816 83.501 249.84 83.4602 249.854 83.4153C249.868 83.3704 249.872 83.3228 249.863 83.2765C249.866 83.189 249.838 83.1034 249.783 83.0349C249.762 82.9964 249.731 82.9633 249.695 82.9382C249.659 82.9131 249.616 82.8966 249.572 82.8899H249.363C249.317 82.9032 249.279 82.9316 249.251 82.9705H249.234ZM251.394 80.5865C251.332 80.6614 251.298 80.7553 251.298 80.8523C251.298 80.9492 251.332 81.0431 251.394 81.118C251.413 81.149 251.439 81.1752 251.469 81.1947C251.5 81.2142 251.534 81.2266 251.57 81.2308C251.604 81.2506 251.644 81.261 251.683 81.261C251.723 81.261 251.762 81.2506 251.797 81.2308C251.855 81.2177 251.907 81.1833 251.941 81.1342C251.964 81.0806 251.976 81.0231 251.976 80.965C251.976 80.9069 251.964 80.8494 251.941 80.7959V80.667C251.916 80.6358 251.883 80.6107 251.847 80.594C251.811 80.5772 251.772 80.5691 251.732 80.5704C251.644 80.5384 251.547 80.5384 251.458 80.5704L251.394 80.5865ZM244.097 81.1019V80.9731H243.952H243.807C243.761 80.9869 243.72 81.0118 243.686 81.0455C243.652 81.0792 243.627 81.1208 243.614 81.1664C243.59 81.2109 243.576 81.2608 243.576 81.3114C243.576 81.362 243.59 81.4118 243.614 81.4563C243.627 81.4891 243.645 81.5189 243.67 81.5438C243.695 81.5688 243.726 81.5883 243.758 81.6013C243.808 81.6281 243.863 81.6421 243.919 81.6421C243.975 81.6421 244.031 81.6281 244.081 81.6013C244.155 81.5458 244.206 81.4658 244.226 81.3758C244.243 81.2962 244.243 81.2138 244.226 81.1342L244.097 81.1019ZM247.044 81.4885C247.04 81.5368 247.04 81.5853 247.044 81.6335C247.048 81.7228 247.081 81.8082 247.14 81.8751C247.177 81.914 247.223 81.9431 247.274 81.96C247.325 81.9769 247.379 81.9809 247.431 81.9718C247.516 81.9573 247.594 81.918 247.656 81.859C247.718 81.7871 247.751 81.6959 247.752 81.6013C247.767 81.5323 247.767 81.4609 247.752 81.3919C247.703 81.3217 247.63 81.2727 247.546 81.2548C247.463 81.2368 247.376 81.2513 247.302 81.2952C247.228 81.3433 247.166 81.4099 247.125 81.4885H247.044ZM244.226 84.5652H244.402C244.459 84.5861 244.522 84.5861 244.579 84.5652C244.635 84.5236 244.675 84.4642 244.693 84.3969C244.71 84.3295 244.705 84.2582 244.677 84.1947C244.677 84.0175 244.531 83.9208 244.37 83.9208C244.301 83.9184 244.234 83.9394 244.178 83.9803C244.123 84.0212 244.082 84.0797 244.064 84.1463C244.033 84.235 244.033 84.3315 244.064 84.4202C244.079 84.4666 244.106 84.5091 244.139 84.5452C244.172 84.5812 244.212 84.61 244.257 84.6296L244.226 84.5652ZM241.18 83.3087C241.191 83.2448 241.191 83.1794 241.18 83.1154C241.154 83.0599 241.113 83.0126 241.062 82.9786C241.011 82.9445 240.952 82.925 240.891 82.9221H240.762V83.051V83.2282C240.776 83.3081 240.816 83.3814 240.875 83.4376C240.933 83.4913 241.006 83.5251 241.084 83.5342H241.229C241.257 83.5256 241.284 83.5111 241.306 83.4916C241.328 83.4722 241.346 83.4483 241.358 83.4215C241.367 83.3628 241.367 83.303 241.358 83.2443L241.18 83.3087ZM266.953 102.074C266.856 102.079 266.763 102.107 266.679 102.155C266.622 102.199 266.576 102.255 266.542 102.319C266.509 102.383 266.489 102.453 266.486 102.525C266.472 102.605 266.472 102.687 266.486 102.767C266.525 102.856 266.586 102.933 266.663 102.993C266.737 103.05 266.829 103.078 266.921 103.073C266.994 103.099 267.073 103.099 267.146 103.073H267.244C267.255 103.031 267.255 102.987 267.244 102.944C267.258 102.827 267.258 102.708 267.244 102.59C267.246 102.52 267.232 102.45 267.205 102.386C267.177 102.322 267.135 102.265 267.082 102.219C266.988 102.189 266.887 102.189 266.792 102.219L266.953 102.074ZM265.424 98.2408H265.246C265.18 98.2666 265.12 98.3049 265.068 98.3535C265.026 98.4182 264.994 98.4888 264.972 98.5629C264.965 98.611 264.965 98.6599 264.972 98.7079C264.983 98.7986 265.023 98.8834 265.086 98.9495C265.151 99.0165 265.234 99.0615 265.326 99.0784C265.416 99.075 265.502 99.0409 265.569 98.9817C265.646 98.9223 265.697 98.836 265.713 98.7401C265.715 98.588 265.664 98.44 265.569 98.3213C265.516 98.3029 265.459 98.3029 265.407 98.3213L265.424 98.2408ZM266.212 96.1628C266.212 96.1628 266.325 96.2595 266.454 96.2756C266.539 96.2974 266.628 96.2974 266.712 96.2756C266.795 96.2226 266.856 96.1432 266.888 96.0501C266.901 95.9809 266.901 95.9099 266.888 95.8407C266.889 95.7723 266.872 95.7049 266.838 95.6454C266.804 95.586 266.756 95.5366 266.696 95.5024C266.639 95.474 266.575 95.4592 266.511 95.4592C266.447 95.4592 266.383 95.474 266.325 95.5024C266.251 95.5195 266.184 95.5601 266.135 95.6182C266.086 95.6762 266.056 95.7486 266.051 95.8246C266.045 95.8942 266.045 95.9643 266.051 96.034C266.07 96.1044 266.102 96.1701 266.147 96.2273L266.212 96.1628ZM263.491 101.994C263.427 101.979 263.361 101.979 263.297 101.994H263.152C263.11 102.041 263.076 102.095 263.055 102.155C263.032 102.212 263.032 102.275 263.055 102.332C263.035 102.401 263.035 102.473 263.055 102.542C263.073 102.612 263.107 102.678 263.152 102.735C263.224 102.798 263.315 102.832 263.41 102.832C263.549 102.823 263.679 102.766 263.78 102.67C263.834 102.623 263.875 102.563 263.898 102.495C263.921 102.427 263.924 102.354 263.909 102.284C263.872 102.171 263.805 102.071 263.716 101.994C263.663 101.942 263.595 101.909 263.522 101.897L263.491 101.994ZM261.509 98.0797C261.415 98.0478 261.313 98.0478 261.219 98.0797C261.157 98.096 261.102 98.1295 261.059 98.1763C260.992 98.253 260.952 98.3491 260.945 98.4502C260.943 98.5752 260.975 98.6983 261.041 98.8046C261.073 98.8557 261.116 98.8995 261.166 98.9328C261.216 98.9662 261.273 98.9883 261.332 98.9978C261.4 99.0037 261.467 98.9901 261.527 98.9587C261.587 98.9273 261.637 98.8794 261.671 98.8207C261.705 98.7161 261.705 98.6031 261.671 98.4985C261.689 98.4464 261.689 98.3895 261.671 98.3374C261.658 98.2896 261.637 98.2448 261.606 98.2059C261.576 98.1671 261.536 98.1351 261.493 98.1119L261.509 98.0797ZM261.606 94.1655C261.614 94.1121 261.614 94.0578 261.606 94.0044C261.566 93.9832 261.522 93.9722 261.477 93.9722C261.432 93.9722 261.388 93.9832 261.348 94.0044C261.265 94.0134 261.187 94.047 261.123 94.101C261.061 94.1549 261.021 94.2293 261.01 94.3104C260.998 94.358 260.998 94.4079 261.01 94.4554C260.987 94.5124 260.987 94.5757 261.01 94.6326L261.139 94.7131C261.222 94.744 261.314 94.744 261.397 94.7131C261.441 94.7092 261.483 94.6937 261.52 94.6683C261.556 94.6429 261.587 94.6084 261.606 94.5682C261.606 94.5682 261.606 94.391 261.606 94.1816V94.1655ZM264.231 92.9574C264.287 93.0169 264.36 93.0566 264.441 93.0701H264.666C264.75 93.0395 264.823 92.9832 264.875 92.9091C264.932 92.8585 264.972 92.7907 264.988 92.7158C265.004 92.6523 265.004 92.5859 264.988 92.5225C264.996 92.4691 264.996 92.4148 264.988 92.3614L264.828 92.2808H264.65C264.571 92.2649 264.49 92.2751 264.417 92.31C264.344 92.3449 264.284 92.4025 264.247 92.4741C264.231 92.5266 264.231 92.5827 264.247 92.6352C264.233 92.7043 264.233 92.7756 264.247 92.8446C264.264 92.9076 264.291 92.9674 264.327 93.0218L264.231 92.9574ZM261.299 91.1855H261.477C261.528 91.1684 261.574 91.1388 261.611 91.0994C261.647 91.06 261.673 91.0121 261.686 90.96C261.702 90.8965 261.702 90.8302 261.686 90.7667C261.703 90.7144 261.703 90.6579 261.686 90.6056C261.637 90.5256 261.564 90.4635 261.477 90.4287C261.39 90.3939 261.294 90.3881 261.203 90.4123C261.145 90.4208 261.091 90.447 261.048 90.4873C261.004 90.5276 260.974 90.5801 260.961 90.6378C260.941 90.6807 260.931 90.7274 260.931 90.7748C260.931 90.8221 260.941 90.8688 260.961 90.9117C260.969 90.961 260.988 91.0081 261.016 91.0497C261.044 91.0914 261.081 91.1267 261.123 91.1533C261.191 91.1766 261.264 91.1766 261.332 91.1533L261.299 91.1855ZM263.393 87.9317C263.322 87.9007 263.246 87.8846 263.168 87.8846C263.09 87.8846 263.014 87.9007 262.943 87.9317C262.936 87.9496 262.931 87.9687 262.931 87.9881C262.931 88.0075 262.936 88.0266 262.943 88.0445C262.934 88.1301 262.934 88.2165 262.943 88.3022C262.968 88.3946 263.018 88.4783 263.088 88.5438C263.115 88.5579 263.145 88.5653 263.176 88.5653C263.207 88.5653 263.237 88.5579 263.264 88.5438C263.362 88.5498 263.46 88.5214 263.539 88.4633C263.596 88.4078 263.63 88.3332 263.635 88.2539C263.651 88.1741 263.651 88.092 263.635 88.0123C263.626 87.9719 263.608 87.9339 263.583 87.9007C263.558 87.8675 263.527 87.8396 263.491 87.8189L263.393 87.9317ZM259.254 86.9652C259.236 87.0338 259.236 87.1061 259.254 87.1746C259.245 87.2441 259.245 87.3145 259.254 87.384C259.306 87.4475 259.373 87.4972 259.448 87.529C259.491 87.5481 259.538 87.558 259.585 87.558C259.632 87.558 259.678 87.5481 259.722 87.529C259.801 87.4889 259.868 87.4276 259.915 87.3518C259.927 87.3097 259.927 87.2651 259.915 87.223C259.93 87.1648 259.93 87.1039 259.915 87.0458C259.915 86.9169 259.818 86.8364 259.737 86.8042C259.639 86.7639 259.529 86.7639 259.431 86.8042C259.39 86.8139 259.352 86.8318 259.319 86.8568C259.286 86.8817 259.258 86.9131 259.237 86.9491L259.254 86.9652ZM262.089 85.8538C262.07 85.81 262.038 85.7729 261.998 85.7472C261.958 85.7214 261.912 85.708 261.864 85.7088C261.817 85.694 261.765 85.694 261.718 85.7088H261.59L261.428 85.8216C261.403 85.8945 261.403 85.9741 261.428 86.0471C261.435 86.0951 261.451 86.1413 261.475 86.1829C261.5 86.2245 261.534 86.2605 261.573 86.2887C261.627 86.3268 261.692 86.3473 261.759 86.3473C261.825 86.3473 261.89 86.3268 261.944 86.2887H262.056L262.138 86.1276C262.159 86.0793 262.169 86.0272 262.169 85.9746C262.169 85.922 262.159 85.8699 262.138 85.8216L262.089 85.8538ZM258.916 83.5342C258.916 83.5342 258.915 83.5342 258.754 83.5342C258.593 83.5342 258.755 83.5342 258.658 83.5342V83.6309V83.7114V83.8242C258.654 83.8778 258.654 83.9317 258.658 83.9853C258.674 84.0519 258.707 84.113 258.754 84.1625C258.797 84.1999 258.85 84.226 258.905 84.2382C258.961 84.2504 259.017 84.2484 259.072 84.2323C259.127 84.2162 259.176 84.1866 259.217 84.1463C259.257 84.1059 259.286 84.0561 259.302 84.0014C259.312 83.959 259.312 83.9148 259.302 83.8725C259.302 83.813 259.292 83.7538 259.27 83.6985C259.248 83.6432 259.216 83.5929 259.174 83.5504C259.116 83.4851 259.035 83.4447 258.948 83.4376L258.916 83.5342ZM256.451 81.7141H256.645C256.741 81.7141 256.805 81.6174 256.87 81.5046C256.874 81.451 256.874 81.3972 256.87 81.3436C256.884 81.2962 256.884 81.2459 256.87 81.1986C256.843 81.1345 256.798 81.0794 256.741 81.0396C256.684 80.9997 256.617 80.9766 256.547 80.9731C256.48 80.9697 256.415 80.9883 256.36 81.0261C256.305 81.064 256.263 81.1189 256.242 81.1825C256.229 81.2462 256.229 81.312 256.242 81.3758V81.5691C256.26 81.6072 256.287 81.6403 256.321 81.6656C256.354 81.6909 256.394 81.7075 256.435 81.7141H256.451ZM254.825 82.7288C254.749 82.7519 254.682 82.7967 254.631 82.8577C254.609 82.9257 254.609 82.9991 254.631 83.0671C254.633 83.1203 254.645 83.1726 254.669 83.2204C254.692 83.2681 254.725 83.3103 254.766 83.3439C254.808 83.3775 254.857 83.4019 254.908 83.4152C254.96 83.4286 255.013 83.4308 255.065 83.4215C255.102 83.4193 255.139 83.4097 255.172 83.393C255.206 83.3764 255.235 83.3532 255.259 83.3248V83.1799C255.259 83.0623 255.232 82.9464 255.179 82.8416C255.137 82.775 255.074 82.724 255.001 82.6966L254.825 82.7288Z" fill="#10204F"/>
<path d="M264.769 125.253C263.681 125.254 262.603 125.035 261.602 124.608C260.601 124.182 259.697 123.556 258.944 122.771C258.191 121.985 257.606 121.055 257.223 120.036C256.84 119.018 256.667 117.932 256.715 116.845C256.741 115.73 256.988 114.631 257.445 113.613C257.901 112.595 258.556 111.679 259.372 110.917C260.691 109.588 262.425 108.747 264.286 108.533C264.339 108.524 264.392 108.526 264.445 108.54C264.497 108.553 264.547 108.577 264.589 108.61C264.632 108.644 264.666 108.686 264.692 108.734C264.717 108.781 264.732 108.834 264.736 108.888C264.743 108.941 264.739 108.994 264.725 109.046C264.711 109.097 264.687 109.145 264.654 109.187C264.621 109.229 264.579 109.264 264.533 109.29C264.486 109.316 264.435 109.333 264.382 109.339C262.536 109.588 260.836 110.481 259.584 111.86C258.332 113.239 257.607 115.016 257.536 116.877C257.494 117.859 257.653 118.838 258.002 119.757C258.35 120.675 258.883 121.513 259.565 122.219C260.248 122.926 261.066 123.486 261.972 123.867C262.878 124.247 263.851 124.439 264.833 124.432C266.621 124.416 268.35 123.799 269.744 122.68C271.138 121.56 272.114 120.004 272.516 118.263C272.617 117.796 272.677 117.322 272.694 116.845C272.744 115.891 272.6 114.936 272.271 114.039C271.941 113.142 271.433 112.321 270.776 111.626C270.701 111.548 270.66 111.444 270.66 111.336C270.66 111.228 270.701 111.124 270.776 111.046C270.814 111.007 270.86 110.976 270.91 110.955C270.96 110.934 271.013 110.923 271.067 110.923C271.121 110.923 271.175 110.934 271.225 110.955C271.274 110.976 271.319 111.007 271.357 111.046C272.083 111.823 272.644 112.739 273.007 113.738C273.369 114.737 273.525 115.8 273.466 116.861C273.45 117.402 273.392 117.941 273.29 118.472C272.85 120.398 271.773 122.12 270.232 123.357C268.691 124.594 266.776 125.273 264.8 125.286L264.769 125.253Z" fill="#F04B4A"/>
<path d="M250.28 200.027L244.19 179.409L194.707 197.756L183.254 216.376C189.611 220.822 196.764 221.466 204.71 218.309L250.28 200.027ZM243 183.13C242.851 183.315 242.656 183.46 242.435 183.548C242 183.774 241.323 184.08 240.421 184.45L239.6 184.821C239.294 184.936 238.998 185.076 238.715 185.24C238.603 185.306 238.483 185.36 238.359 185.401C238.263 185.419 238.164 185.415 238.07 185.39C237.975 185.365 237.886 185.319 237.812 185.256C237.741 185.189 237.688 185.105 237.657 185.012C237.627 184.92 237.619 184.821 237.635 184.724C237.691 184.534 237.81 184.369 237.974 184.257C238.118 184.139 238.281 184.046 238.457 183.983L240.196 183.242C240.889 182.952 241.452 182.679 241.919 182.437C242.086 182.335 242.274 182.269 242.468 182.244C242.573 182.231 242.68 182.252 242.773 182.304C242.866 182.356 242.938 182.437 242.982 182.534C243.042 182.622 243.073 182.725 243.073 182.832C243.073 182.938 243.042 183.042 242.982 183.13H243ZM243.402 187.092C243.139 187.199 242.885 187.328 242.644 187.479C241.686 188.001 240.702 188.474 239.696 188.896C239.516 188.967 239.326 189.011 239.133 189.025C239.017 189.011 238.908 188.962 238.822 188.884C238.735 188.806 238.676 188.704 238.65 188.59C238.615 188.48 238.614 188.361 238.645 188.25C238.677 188.138 238.739 188.038 238.826 187.962C238.968 187.843 239.133 187.755 239.311 187.704C240.47 187.249 241.595 186.711 242.677 186.093L243.256 185.836C243.357 185.81 243.462 185.805 243.564 185.822C243.667 185.839 243.765 185.876 243.852 185.932C243.925 185.977 243.987 186.038 244.031 186.111C244.076 186.184 244.103 186.266 244.11 186.351C244.124 186.441 244.118 186.533 244.09 186.62C244.062 186.707 244.014 186.786 243.95 186.851C243.782 186.965 243.597 187.052 243.402 187.108V187.092ZM233.431 192.843L238.263 192.15L238.939 202.008L234.011 202.379L233.399 192.843H233.431ZM240.228 192.198C240.121 192.187 240.02 192.144 239.937 192.076C239.854 192.007 239.792 191.915 239.761 191.812C239.727 191.717 239.719 191.616 239.735 191.517C239.752 191.418 239.795 191.326 239.858 191.248C239.992 191.112 240.158 191.012 240.341 190.958C241.775 190.362 243.047 189.798 244.126 189.347C244.359 189.195 244.638 189.127 244.915 189.154C245.008 189.176 245.094 189.22 245.167 189.282C245.24 189.343 245.296 189.421 245.334 189.508C245.372 189.589 245.394 189.677 245.394 189.766C245.394 189.855 245.372 189.943 245.334 190.024C245.186 190.225 244.977 190.372 244.738 190.443L240.937 192.053C240.737 192.169 240.508 192.225 240.277 192.214L240.228 192.198ZM240.728 195.243C240.67 195.148 240.638 195.04 240.638 194.929C240.638 194.818 240.67 194.709 240.728 194.615C240.866 194.475 241.037 194.375 241.227 194.325L244.786 192.891L245.173 192.746C245.298 192.692 245.433 192.665 245.568 192.665C245.704 192.665 245.838 192.692 245.963 192.746C246.051 192.799 246.122 192.875 246.171 192.966C246.219 193.056 246.243 193.159 246.237 193.261C246.229 193.361 246.197 193.457 246.144 193.541C246.091 193.625 246.017 193.695 245.93 193.745C245.835 193.8 245.733 193.838 245.625 193.857C245.238 193.97 244.803 194.131 244.288 194.341L243.74 194.566C242.935 194.904 242.226 195.194 241.614 195.42C241.48 195.492 241.33 195.53 241.178 195.533C241.066 195.536 240.956 195.505 240.862 195.445C240.767 195.384 240.693 195.297 240.648 195.194L240.728 195.243ZM242.177 198.819L243.869 198.19C244.594 197.933 245.142 197.723 245.48 197.546L246.043 197.288L246.382 197.16C246.507 197.125 246.641 197.131 246.762 197.178C246.884 197.224 246.987 197.308 247.058 197.417C247.149 197.513 247.2 197.64 247.2 197.772C247.2 197.904 247.149 198.03 247.058 198.126C246.95 198.228 246.825 198.31 246.688 198.368C246.221 198.593 245.512 198.867 244.562 199.205C243.611 199.544 242.95 199.817 242.435 200.027C242.304 200.097 242.163 200.146 242.016 200.172C241.92 200.189 241.821 200.177 241.732 200.137C241.642 200.096 241.567 200.03 241.516 199.946C241.452 199.875 241.41 199.788 241.393 199.694C241.376 199.6 241.386 199.504 241.42 199.415C241.494 199.271 241.596 199.144 241.721 199.041C241.845 198.939 241.99 198.863 242.145 198.819H242.177ZM204.212 204.698L206.821 209.096L198.331 214.363L195.69 210.384L204.212 204.698ZM221.752 200.027L211.894 198.513L212.78 193.68L222.01 195.613L221.752 200.027Z" fill="#FF5B00"/>
<path d="M212.087 198.577L221.945 200.091L222.203 195.678L212.972 193.745L212.087 198.577ZM207.012 209.16L204.404 204.762L195.883 210.449L198.524 214.427L207.012 209.16ZM238.391 192.182L233.559 192.875L234.171 202.411L239.099 202.04L238.391 192.182Z" fill="#FDF6BA"/>
<path d="M243.944 198.255L242.253 198.883C242.097 198.928 241.953 199.003 241.828 199.106C241.703 199.208 241.601 199.336 241.527 199.479C241.493 199.568 241.484 199.665 241.501 199.759C241.518 199.853 241.56 199.94 241.623 200.011C241.674 200.095 241.75 200.161 241.839 200.201C241.928 200.242 242.027 200.254 242.124 200.236C242.27 200.211 242.411 200.162 242.542 200.092C242.993 199.887 243.702 199.614 244.669 199.27C245.619 198.932 246.279 198.658 246.794 198.432C246.931 198.375 247.057 198.293 247.165 198.191C247.256 198.095 247.305 197.968 247.305 197.836C247.305 197.705 247.256 197.578 247.165 197.482C247.095 197.373 246.99 197.289 246.868 197.242C246.746 197.196 246.614 197.19 246.489 197.224L246.151 197.353L245.586 197.611C245.183 197.788 244.636 197.997 243.975 198.255H243.944ZM240.754 194.631C240.695 194.725 240.664 194.834 240.664 194.945C240.664 195.056 240.695 195.165 240.754 195.259C240.798 195.362 240.873 195.449 240.967 195.509C241.062 195.57 241.173 195.6 241.285 195.597C241.437 195.595 241.587 195.556 241.721 195.485C242.333 195.259 243.041 194.969 243.846 194.631L244.394 194.405C244.909 194.196 245.344 194.035 245.731 193.922C245.838 193.903 245.943 193.865 246.037 193.809C246.124 193.76 246.196 193.69 246.25 193.606C246.303 193.522 246.335 193.426 246.343 193.326C246.348 193.223 246.326 193.121 246.278 193.03C246.23 192.939 246.157 192.863 246.069 192.811C245.944 192.757 245.811 192.729 245.676 192.729C245.54 192.729 245.405 192.757 245.281 192.811L244.894 192.956L241.334 194.389C241.145 194.44 240.971 194.54 240.834 194.679L240.754 194.631ZM239.836 191.893C239.868 191.996 239.928 192.088 240.011 192.156C240.094 192.225 240.195 192.268 240.302 192.279C240.533 192.29 240.763 192.234 240.963 192.118L244.765 190.507C245.004 190.436 245.213 190.289 245.361 190.088C245.4 190.008 245.419 189.92 245.419 189.831C245.419 189.742 245.4 189.653 245.361 189.573C245.324 189.485 245.265 189.408 245.193 189.346C245.12 189.285 245.035 189.241 244.943 189.219C244.665 189.191 244.386 189.26 244.153 189.412C243.074 189.927 241.8 190.491 240.367 191.023C240.184 191.077 240.018 191.177 239.884 191.313C239.82 191.39 239.778 191.483 239.761 191.582C239.744 191.681 239.754 191.782 239.788 191.876L239.836 191.893ZM242.638 187.56C242.879 187.409 243.133 187.279 243.396 187.173C243.591 187.116 243.776 187.029 243.944 186.915C244.008 186.85 244.056 186.772 244.084 186.685C244.112 186.598 244.118 186.506 244.104 186.416C244.097 186.331 244.07 186.249 244.025 186.176C243.981 186.103 243.919 186.042 243.846 185.997C243.759 185.941 243.661 185.903 243.558 185.887C243.456 185.87 243.351 185.875 243.25 185.9L242.671 186.158C241.589 186.776 240.464 187.314 239.305 187.769C239.127 187.82 238.962 187.908 238.82 188.027C238.733 188.103 238.671 188.203 238.639 188.314C238.608 188.426 238.609 188.544 238.644 188.655C238.67 188.768 238.729 188.871 238.816 188.949C238.902 189.027 239.011 189.076 239.127 189.09C239.32 189.076 239.51 189.032 239.69 188.961C240.696 188.538 241.68 188.065 242.638 187.543V187.56ZM242.413 183.613C242.634 183.524 242.827 183.38 242.976 183.194C243.036 183.106 243.067 183.003 243.067 182.896C243.067 182.79 243.036 182.686 242.976 182.598C242.932 182.501 242.86 182.421 242.767 182.369C242.674 182.317 242.567 182.295 242.462 182.308C242.268 182.333 242.08 182.399 241.913 182.502C241.446 182.743 240.883 183.017 240.19 183.307L238.451 184.048C238.275 184.111 238.112 184.203 237.968 184.322C237.804 184.434 237.685 184.599 237.63 184.789C237.613 184.885 237.621 184.984 237.652 185.077C237.682 185.17 237.735 185.253 237.806 185.321C237.88 185.384 237.969 185.43 238.064 185.455C238.158 185.48 238.257 185.483 238.353 185.465C238.477 185.425 238.597 185.371 238.709 185.304C238.992 185.141 239.288 185 239.594 184.886L240.415 184.515C241.317 184.129 241.994 183.822 242.429 183.597L242.413 183.613Z" fill="#10204F"/>
<path d="M281.345 167.102C281.85 165.909 282.181 164.651 282.328 163.365L279.107 163.816C279.107 164.234 278.946 164.669 278.849 165.153C278.702 165.773 278.599 166.402 278.542 167.037C278.542 167.472 278.639 167.73 278.865 167.827C279.126 167.869 279.393 167.869 279.654 167.827C279.969 167.855 280.286 167.797 280.57 167.658C280.854 167.519 281.095 167.304 281.265 167.037L281.345 167.102ZM292.541 181.534L293.829 177.346L290.703 178.071L289.657 182.775L292.541 181.534ZM293.829 177.346L294.087 176.058C293.294 176.215 292.492 176.323 291.686 176.38C291.526 176.399 291.364 176.371 291.219 176.299C291.219 176.299 291.219 176.09 291.219 175.848C291.246 174.824 291.371 173.805 291.591 172.804H279.735L271.069 175.107C270.8 174.903 270.913 173.679 271.407 171.435L282.972 169.018L284.583 162.994L282.328 163.3C282.181 164.586 281.85 165.845 281.345 167.037C281.175 167.304 280.934 167.519 280.65 167.658C280.366 167.797 280.05 167.855 279.735 167.827C279.473 167.869 279.206 167.869 278.945 167.827C278.719 167.73 278.622 167.472 278.622 167.037C278.679 166.402 278.782 165.773 278.929 165.153C279.026 164.669 279.107 164.234 279.187 163.816L266.301 165.636L263.32 172.353L244.266 179.456L250.353 200.075L257.473 197.223L276.609 190.184L292.058 183.29L292.556 181.599L289.673 182.839L277.543 188.139L268.797 190.619L277.543 188.139L289.673 182.839L290.721 178.136L270.248 183.065L290.721 178.136L293.845 177.411L293.829 177.346ZM294.103 176.122L294.715 172.901H291.493C291.241 173.871 291.079 174.864 291.01 175.864V176.315C291.155 176.387 291.317 176.415 291.477 176.396C292.331 176.361 293.181 176.269 294.022 176.122H294.103Z" fill="#A6394B"/>
<path d="M195.256 220.967C190.819 220.958 186.497 219.555 182.901 216.956C182.834 216.911 182.777 216.853 182.733 216.785C182.689 216.718 182.658 216.642 182.643 216.563C182.628 216.483 182.63 216.402 182.646 216.323C182.663 216.244 182.695 216.169 182.741 216.102C182.786 216.036 182.843 215.978 182.911 215.934C182.978 215.89 183.055 215.859 183.134 215.844C183.213 215.829 183.294 215.83 183.373 215.847C183.452 215.863 183.527 215.896 183.593 215.941C189.763 220.258 196.786 220.886 204.534 217.826L249.636 199.753L243.886 180.295L194.918 198.416C194.841 198.443 194.761 198.456 194.68 198.452C194.599 198.448 194.521 198.429 194.447 198.394C194.374 198.36 194.307 198.311 194.252 198.251C194.198 198.192 194.155 198.122 194.128 198.045C194.1 197.969 194.09 197.888 194.093 197.808C194.097 197.727 194.116 197.647 194.15 197.574C194.184 197.501 194.233 197.435 194.293 197.38C194.353 197.326 194.423 197.284 194.499 197.256L243.967 178.909C244.046 178.894 244.129 178.894 244.209 178.909C244.283 178.893 244.359 178.893 244.434 178.909C244.514 178.954 244.585 179.015 244.643 179.086C244.688 179.144 244.72 179.209 244.739 179.28L250.844 199.898C250.852 199.962 250.852 200.027 250.844 200.091C250.859 200.176 250.859 200.264 250.844 200.349C250.803 200.432 250.743 200.504 250.668 200.558C250.624 200.605 250.567 200.639 250.506 200.655L204.936 218.937C201.866 220.217 198.582 220.906 195.256 220.967V220.967ZM268.725 191.264C268.57 191.275 268.417 191.228 268.297 191.131C268.176 191.034 268.096 190.895 268.073 190.742C268.051 190.589 268.088 190.433 268.176 190.306C268.263 190.179 268.396 190.089 268.547 190.056L277.31 187.591L289.069 182.453L289.841 179.006L270.32 183.709C270.17 183.722 270.02 183.681 269.898 183.593C269.776 183.505 269.689 183.376 269.654 183.23C269.619 183.084 269.637 182.93 269.706 182.796C269.775 182.662 269.889 182.558 270.029 182.501L290.519 177.588L293.256 176.912C292.723 177.002 292.185 177.061 291.645 177.089C291.485 177.108 291.324 177.094 291.169 177.05C291.014 177.006 290.87 176.931 290.744 176.831C290.544 176.582 290.451 176.263 290.486 175.945C290.503 175.13 290.585 174.316 290.728 173.513H279.742L271.157 175.8C271.065 175.826 270.969 175.83 270.877 175.81C270.784 175.79 270.697 175.748 270.625 175.688C270.158 175.333 270.03 174.528 270.722 171.387C270.752 171.272 270.812 171.168 270.897 171.085C270.982 171.003 271.09 170.946 271.205 170.92L282.481 168.584L283.705 163.832L282.819 163.961C282.657 165.156 282.325 166.322 281.836 167.424C281.61 167.799 281.284 168.102 280.894 168.298C280.503 168.495 280.064 168.577 279.629 168.536C279.269 168.573 278.906 168.529 278.566 168.407C278.276 168.294 277.906 167.94 277.906 167.07C277.952 166.391 278.053 165.718 278.212 165.056L278.309 164.589L266.324 166.2C266.242 166.218 266.157 166.219 266.074 166.203C265.991 166.187 265.914 166.154 265.844 166.106C265.775 166.059 265.717 165.997 265.673 165.926C265.628 165.854 265.599 165.774 265.586 165.691C265.574 165.608 265.579 165.523 265.601 165.442C265.623 165.361 265.661 165.285 265.714 165.22C265.766 165.154 265.833 165.1 265.907 165.061C265.982 165.022 266.063 164.998 266.146 164.992L279.033 163.172L282.254 162.721L284.494 162.415C284.592 162.399 284.692 162.408 284.785 162.442C284.878 162.476 284.961 162.533 285.026 162.608C285.095 162.683 285.144 162.773 285.169 162.872C285.194 162.97 285.195 163.073 285.171 163.172L283.56 169.18C283.532 169.291 283.474 169.393 283.392 169.473C283.309 169.552 283.205 169.607 283.093 169.631L271.913 171.967C271.719 172.755 271.59 173.558 271.528 174.367L279.582 172.224H294.673C294.762 172.225 294.849 172.243 294.93 172.279C295.01 172.315 295.082 172.368 295.141 172.434C295.197 172.506 295.238 172.589 295.26 172.678C295.282 172.767 295.285 172.859 295.27 172.949L294.658 176.171L294.417 177.443C294.424 177.492 294.424 177.54 294.417 177.588L293.176 181.712L292.66 183.419C292.636 183.497 292.599 183.569 292.547 183.631C292.495 183.694 292.43 183.745 292.358 183.783C292.286 183.82 292.208 183.843 292.127 183.85C292.046 183.856 291.965 183.847 291.888 183.822C291.733 183.77 291.606 183.661 291.531 183.517C291.455 183.373 291.439 183.205 291.485 183.049L291.614 182.63L290.003 183.355L277.873 188.638L269.047 191.151L268.725 191.264ZM291.178 178.7L290.47 181.841L292.081 181.18L292.951 178.281L291.178 178.7ZM291.952 173.513C291.806 174.289 291.719 175.075 291.694 175.865C291.936 175.865 292.435 175.865 293.498 175.623L293.901 173.513H291.952ZM279.5 164.412L279.324 165.314C279.178 165.89 279.08 166.478 279.033 167.07C279.022 167.15 279.022 167.231 279.033 167.312H279.517C280.29 167.312 280.531 167.038 280.644 166.828C281.029 165.973 281.29 165.067 281.417 164.138L279.5 164.412Z" fill="#10204F"/>
<path d="M323.051 192.069C322.712 191.392 322.084 191.489 321.166 192.375L322.036 197.207L323.76 195.5L323.051 192.053V192.069ZM321.166 192.359C322.084 191.473 322.777 191.376 323.051 192.053L323.76 195.5L326.128 193.116L323.004 187.414L320.844 190.635L321.166 192.407V192.359ZM324.743 206.63L326.354 205.358L325.725 203.087L323.921 204.488L324.743 206.63ZM326.354 205.358L329.124 203.215L328.464 200.96L325.725 203.087L326.354 205.358ZM325.725 203.087L324.888 199.865C324.324 199.688 323.615 200.203 322.777 201.476L323.921 204.488L325.725 203.087ZM324.888 199.865L325.725 203.087L328.464 200.96L326.853 195.371L322.23 200.042L322.503 200.751L322.761 201.476C323.615 200.219 324.324 199.704 324.839 199.881L324.888 199.865Z" fill="#A6394B"/>
<path d="M320.898 203.473L322.783 201.443L322.525 200.718L320.898 203.473Z" fill="#E3E3E3"/>
<path d="M324.749 207.21H324.587C324.495 207.182 324.411 207.134 324.339 207.07C324.267 207.006 324.208 206.927 324.169 206.839L323.364 204.681L322.22 201.701L321.688 200.283C321.645 200.172 321.634 200.051 321.657 199.935C321.68 199.818 321.735 199.71 321.817 199.623L326.441 194.968C326.515 194.888 326.609 194.83 326.714 194.801C326.82 194.773 326.932 194.775 327.037 194.807C327.14 194.832 327.234 194.883 327.31 194.957C327.387 195.031 327.442 195.123 327.471 195.226L329.082 200.815L329.742 203.054C329.774 203.174 329.77 203.301 329.73 203.418C329.69 203.536 329.616 203.639 329.517 203.714L325.152 207.129C325.029 207.196 324.889 207.224 324.749 207.21V207.21ZM324.668 204.649L325.023 205.599L325.667 205.1L325.393 204.101L324.668 204.649ZM326.441 203.296L326.714 204.278L328.421 202.957L328.147 201.975L326.441 203.296ZM323.493 201.54L324.218 203.457L325.039 202.828L324.443 200.557C324.059 200.813 323.735 201.148 323.493 201.54V201.54ZM324.668 199.236C324.806 199.214 324.949 199.214 325.088 199.236C325.186 199.269 325.274 199.326 325.344 199.402C325.415 199.478 325.466 199.571 325.49 199.671L326.085 201.943L327.696 200.638L326.505 196.45L322.881 200.09C323.104 199.833 323.378 199.624 323.686 199.477C323.994 199.33 324.327 199.248 324.668 199.236V199.236ZM322.042 197.835H321.866C321.762 197.795 321.669 197.73 321.596 197.646C321.522 197.562 321.471 197.461 321.446 197.352L320.56 192.519L320.238 190.748C320.222 190.667 320.223 190.584 320.24 190.504C320.256 190.424 320.289 190.348 320.336 190.28L322.509 187.059C322.569 186.975 322.649 186.907 322.742 186.862C322.835 186.817 322.938 186.796 323.041 186.801C323.147 186.808 323.25 186.841 323.34 186.898C323.43 186.954 323.504 187.031 323.557 187.123L326.681 192.825C326.743 192.942 326.766 193.076 326.746 193.207C326.725 193.337 326.664 193.458 326.569 193.55L324.2 195.934L322.478 197.642C322.364 197.761 322.207 197.83 322.042 197.835ZM321.833 192.6L322.445 195.967L323.106 195.306L322.478 192.31C322.397 192.262 322.204 192.294 321.833 192.6V192.6ZM322.445 190.989H322.654C322.863 191.026 323.061 191.115 323.227 191.247C323.393 191.379 323.523 191.551 323.606 191.746V191.891L324.089 194.227L325.328 192.987L322.912 188.557L321.446 190.683L321.544 191.215C321.822 191.07 322.131 190.998 322.445 191.005V190.989Z" fill="#10204F"/>
</svg>
