<svg width="420" height="420" viewBox="0 0 420 420" fill="none" xmlns="http://www.w3.org/2000/svg">
<path d="M187.879 222.794H190.375H198.627L203.656 211.546L191.809 211.167L187.879 222.662V222.794ZM204.345 210.031L206.58 205.051H191.958L190.375 209.955L204.42 210.145L204.345 210.031ZM203.73 197.95L203.209 199.086H206.357L206.804 198.082L203.73 197.95ZM207.288 196.984L207.828 195.772L204.792 195.526L204.327 196.605L207.288 196.984ZM208.89 193.405L208.164 193.311L207.568 193.197L206.115 193.008L205.63 194.39H208.685L209.076 193.443L208.89 193.405ZM207.605 190.66H207.232L206.729 191.796L207.791 191.947L209.654 192.174L210.175 191.019L208.965 190.887H208.704H208.275H207.623L207.605 190.66ZM208.592 188.558H208.22L207.773 189.561H208.462H208.592H209.151L210.771 189.751L211.293 188.633H210.865L208.35 188.444H208.238L208.592 188.558ZM210.976 187.346H211.069H211.517L212.001 186.21H211.125H210.976L209.337 186.077H209.225H208.927L208.406 187.251H209.021H209.17L211.032 187.384L210.976 187.346ZM212.671 185.035L213.081 184.032L211.33 183.843H211.163L210.511 183.729H210.101L209.579 184.827L212.765 185.073L212.671 185.035ZM215.391 179.109H212.094L211.61 180.188H214.869L215.391 179.052V179.109ZM213.882 182.441L214.385 181.362L211.163 181.21L210.697 182.309L213.882 182.441ZM223.196 159.453C221.463 157.654 220.364 158.203 219.88 161.062C219.396 163.922 219.88 168.296 221.538 174.318L223.81 173.428C222.899 170.176 222.367 166.826 222.227 163.448C222.189 162.585 222.252 161.721 222.413 160.873C222.475 159.964 222.693 159.44 223.065 159.301L223.196 159.453Z" fill="#022782"/>
<path d="M223.166 172.467L220.912 173.362L206.003 179.316L196.673 204.577H206.206L203.989 209.58L190.133 209.371L189.652 210.645H191.629L203.379 211.026L198.391 222.325H190.207L187.879 228.659L206.853 236.268L228.302 170.394L227.193 170.87L223.24 172.582L223.166 172.467ZM214.002 180.609L213.503 181.693L210.344 181.56L210.806 180.457L214.002 180.609ZM211.73 178.288H215L214.483 179.43H211.25L211.73 178.345V178.288ZM212.801 183.329L212.395 184.337L209.236 184.09L209.753 182.987H210.16L210.806 183.101H210.972L212.709 183.291L212.801 183.329ZM210.862 186.658H210.769L208.922 186.525H208.774H208.164L208.682 185.346H208.977H209.088L210.714 185.479H210.862H211.73L211.25 186.62H210.806L210.862 186.658ZM207.628 187.666H207.998H208.109L210.603 187.857H210.714L210.196 188.979L208.589 188.789H208.035H207.906H207.222L207.665 187.78L207.628 187.666ZM207.037 190.177H207.684H208.109H208.367L209.568 190.31L209.051 191.471L207.204 191.243L206.15 191.09L206.649 189.949H207.019L207.037 190.177ZM207.795 192.65L208.515 192.745L208.127 193.696H205.097L205.578 192.308L207.019 192.498L207.61 192.612L207.795 192.65ZM207.277 195.085L206.742 196.302L203.804 195.922L204.266 194.838L207.277 195.085ZM202.696 198.414L203.213 197.273L206.261 197.406L205.818 198.414H202.696Z" fill="#0A80EA"/>
<path d="M223.033 159.914C222.69 160.038 222.45 160.484 222.312 161.251C223.456 162.489 225.109 166.036 227.272 171.891L228.301 171.427C227.086 167.326 225.31 163.446 223.033 159.914V159.914Z" fill="#10204F"/>
<path d="M227.244 360.531L225.309 375.503H265.731C264.14 374.247 262.399 373.171 260.546 372.296C254.663 369.278 251.296 365.357 250.445 360.531H227.244Z" fill="#10204F"/>
<path d="M225.8 375.503L225.309 378.497H267.229C266.969 377.347 266.307 376.299 265.338 375.503H225.8Z" fill="#F04B4A"/>
<path d="M150.163 360.531C149.623 361.998 149.214 363.124 148.953 363.907C150.201 368.308 151.802 373.172 153.813 378.497H156.439C154.353 372.991 152.261 367.002 150.163 360.531Z" fill="#F04B4A"/>
<path d="M170.382 354.757L155.417 350.051C153.154 355.061 151.512 358.875 150.453 361.532C152.509 367.642 154.559 373.297 156.603 378.497H172.864C173.138 376.504 172.189 374.417 170.017 372.216C167.846 370.015 166.732 367.984 166.732 366.276C166.857 364.774 167.208 363.301 167.773 361.912C168.758 359.312 169.634 356.921 170.382 354.757Z" fill="#10204F"/>
<path d="M200.174 264.628L192.269 266.346L144.461 355.922L181.164 364.759L223.796 280.149L225.678 276.372L223.796 280.149L234.618 302.713L218.77 365.023H256.565L271.622 305.847C272 302.683 271.254 299.487 269.514 296.821L243.352 251.297H207.195L200.174 264.628ZM207.195 251.24H200.268L192.269 266.346L200.174 264.628L207.195 251.24Z" fill="#022782"/>
<path d="M180.879 365.022H180.668C180.609 364.996 180.556 364.958 180.513 364.91C180.47 364.863 180.437 364.807 180.417 364.746C180.397 364.685 180.39 364.62 180.397 364.556C180.404 364.493 180.424 364.431 180.457 364.376L225.889 275.215C225.918 275.158 225.958 275.109 226.006 275.068C226.055 275.027 226.111 274.996 226.171 274.976C226.232 274.957 226.296 274.949 226.359 274.954C226.423 274.959 226.485 274.977 226.542 275.006C226.598 275.034 226.649 275.074 226.69 275.122C226.731 275.17 226.763 275.225 226.782 275.285C226.802 275.345 226.809 275.409 226.804 275.472C226.799 275.534 226.782 275.596 226.753 275.652L224.833 279.454L181.321 364.756C181.283 364.839 181.22 364.909 181.142 364.956C181.063 365.004 180.972 365.027 180.879 365.022V365.022ZM192.209 265.937C192.096 265.94 191.987 265.903 191.899 265.833C191.811 265.764 191.751 265.666 191.729 265.557C191.714 265.496 191.713 265.433 191.723 265.371C191.734 265.309 191.757 265.25 191.791 265.197C191.825 265.144 191.869 265.098 191.921 265.062C191.973 265.026 192.031 265 192.093 264.987L199.947 263.314L207.013 250.006C207.042 249.95 207.081 249.899 207.13 249.858C207.178 249.817 207.234 249.785 207.295 249.766C207.356 249.746 207.42 249.739 207.484 249.744C207.548 249.75 207.61 249.768 207.666 249.797C207.723 249.825 207.774 249.864 207.816 249.912C207.858 249.96 207.889 250.016 207.909 250.076C207.929 250.137 207.936 250.2 207.931 250.263C207.925 250.326 207.907 250.387 207.877 250.443L200.715 263.941C200.682 264.007 200.633 264.064 200.573 264.107C200.513 264.15 200.443 264.178 200.369 264.188L192.305 265.918L192.209 265.937Z" fill="#FDF6BA"/>
<path d="M218.258 253.949H226.899H218.164H218.258ZM232.679 253.949H236.588H232.754H232.679ZM331.605 234.801V215.615H292.775L287.351 203.989L286.379 206.668L282.638 205.566L284.789 198.727L270.686 168.504L263.204 195.099L280.767 234.839C281.085 235.428 281.422 236.017 281.74 236.549C281.727 236.598 281.727 236.651 281.74 236.701C282.618 238.397 283.982 239.785 285.651 240.68C287.32 241.575 289.217 241.936 291.092 241.716L331.605 234.801ZM272.743 185.05L276.11 187.063L271.322 194.225L267.824 191.565L272.743 185.05ZM328.295 217.343H328.444C328.685 217.35 328.913 217.452 329.08 217.628C329.108 217.681 329.123 217.74 329.123 217.799C329.123 217.859 329.108 217.918 329.08 217.97C329.057 218.086 328.99 218.189 328.893 218.255C328.77 218.331 328.625 218.364 328.482 218.35H324.741C324.386 218.35 324.161 218.35 324.068 218.103C324.04 218.051 324.025 217.992 324.023 217.933C324.021 217.873 324.032 217.814 324.055 217.759C324.078 217.705 324.113 217.656 324.158 217.617C324.202 217.578 324.254 217.549 324.311 217.533C324.523 217.419 324.763 217.367 325.003 217.381H328.145L328.295 217.343ZM328.706 219.87C328.734 219.933 328.748 220.001 328.748 220.069C328.748 220.138 328.734 220.206 328.706 220.269C328.62 220.391 328.494 220.478 328.351 220.516C328.227 220.539 328.1 220.539 327.977 220.516L325.152 220.801C324.976 220.858 324.786 220.858 324.61 220.801C324.517 220.791 324.432 220.747 324.369 220.677C324.307 220.607 324.273 220.515 324.273 220.421C324.258 220.323 324.273 220.223 324.317 220.134C324.361 220.046 324.43 219.973 324.516 219.927C324.707 219.849 324.91 219.81 325.115 219.813L328.164 219.471H328.407H328.557C328.669 219.471 328.744 219.585 328.818 219.756L328.706 219.87ZM328.818 223.555C328.818 223.688 328.538 223.783 328.164 223.859L325.152 223.992C324.985 224.01 324.815 224.01 324.647 223.992C324.565 223.965 324.489 223.921 324.424 223.862C324.36 223.803 324.309 223.731 324.273 223.65C324.253 223.593 324.246 223.531 324.253 223.47C324.26 223.41 324.28 223.351 324.313 223.3C324.345 223.249 324.389 223.206 324.441 223.174C324.492 223.143 324.55 223.123 324.61 223.118C324.82 223.081 325.036 223.081 325.246 223.118H325.433C326.184 223.183 326.941 223.132 327.677 222.966H328.126H328.5C328.652 223.039 328.776 223.159 328.856 223.308C328.904 223.43 328.904 223.566 328.856 223.688L328.818 223.555ZM328.164 226.633H328.594C328.644 226.663 328.686 226.703 328.719 226.752C328.751 226.801 328.773 226.856 328.782 226.914C328.791 226.972 328.787 227.032 328.771 227.088C328.754 227.144 328.726 227.196 328.688 227.24C328.611 227.336 328.506 227.403 328.388 227.43H328.014L324.928 227.62C324.785 227.644 324.64 227.644 324.498 227.62C324.45 227.639 324.396 227.639 324.348 227.62C324.251 227.504 324.197 227.356 324.197 227.202C324.197 227.049 324.251 226.901 324.348 226.785H325.377H325.844C326.548 226.738 327.254 226.738 327.958 226.785H328.257L328.164 226.633ZM328.575 230.337C328.761 230.303 328.951 230.303 329.136 230.337C329.38 230.337 329.511 230.527 329.511 230.717C329.511 230.907 329.51 231.116 329.174 231.249C329.035 231.319 328.88 231.352 328.725 231.344H328.201C327.315 231.371 326.433 231.472 325.564 231.648H325.47H324.965C324.857 231.628 324.756 231.579 324.674 231.505C324.591 231.432 324.53 231.336 324.498 231.23C324.504 231.126 324.539 231.027 324.599 230.943C324.658 230.859 324.74 230.794 324.834 230.755L325.021 230.66C325.139 230.637 325.259 230.637 325.377 230.66L328.164 230.337H328.538H328.575ZM328.949 234.345C328.837 234.516 328.557 234.611 328.126 234.611C327.079 234.611 326.256 234.744 325.676 234.839C325.358 234.839 325.152 234.839 325.04 234.839C324.928 234.839 324.722 234.402 325.04 234.193C325.201 234.035 325.415 233.946 325.639 233.946C325.653 233.938 325.669 233.933 325.685 233.933C325.702 233.933 325.718 233.938 325.732 233.946H325.863L328.407 233.718C328.578 233.67 328.759 233.67 328.931 233.718C329.035 233.784 329.114 233.885 329.155 234.003C329.191 234.134 329.191 234.272 329.155 234.402L328.949 234.345ZM289.951 215.805V224.98H286.098L286.622 216.09L289.951 215.805ZM299.715 232.901L296.872 229.748L303.1 223.821L305.962 226.652L299.715 232.901ZM292.476 234.611L290.774 238.695L283.012 235.808L284.115 232.009L292.476 234.649V234.611ZM318.512 216.868V221.314H310.32V217.286L318.512 216.868ZM317.016 228.266L315.146 236.34L311.18 235.542L313.219 227.259L316.96 228.266H317.016ZM275.343 210.961L271.415 203.362L274.614 201.463L278.766 208.757L275.343 211.113V210.961ZM196.505 254.234H192.371H196.505ZM200.975 254.234H214.068H200.975ZM250.074 158.588C246.183 158.588 243.995 159.063 243.49 160.108L241.096 167.459H229.985C228.115 167.459 226.375 169.15 224.524 172.721C223.439 174.887 222.41 176.995 221.4 179.047C219.542 182.745 217.828 186.247 216.256 189.552C214.218 193.75 212.403 197.606 210.795 201.083L212.665 203.552L208.27 206.876C207.091 209.498 206.081 211.853 205.258 213.943C205.249 213.974 205.249 214.007 205.258 214.038C204.118 216.696 203.144 219.424 202.34 222.206C201.532 226.047 201.726 230.034 202.902 233.775L192.558 254.158H196.692L200.171 247.813L202.958 250.074L201.087 254.158H214.18L212.684 247.32L216.256 246.066L218.276 254.158H227.011L233.165 249.01L235.915 251.689L232.866 254.158H236.7H246.688L262.306 198.575L259.014 200.608L255.273 193.237L258.434 191.091L262.306 198.461L263.223 195.213L270.704 168.618L263.709 168.276L265.243 161.931C264.513 160.659 262.587 159.766 259.407 159.253H259.183C258.621 159.253 258.023 159.101 257.312 159.044L250.092 158.417L250.074 158.588ZM243.696 164.116C243.831 164.192 243.937 164.312 243.995 164.458C243.99 164.508 243.99 164.559 243.995 164.61C244.003 164.717 244.003 164.825 243.995 164.933C243.955 165.051 243.924 165.171 243.901 165.294C243.661 166.062 243.486 166.85 243.378 167.649L243.228 168.143C243.116 168.409 242.966 168.504 242.779 168.428C242.688 168.433 242.598 168.403 242.528 168.343C242.459 168.283 242.414 168.197 242.405 168.105V167.535C242.561 166.504 242.799 165.488 243.116 164.496C243.108 164.433 243.108 164.369 243.116 164.306C243.116 164.192 243.116 164.097 243.265 164.078C243.32 164.038 243.385 164.016 243.452 164.016C243.52 164.016 243.585 164.038 243.639 164.078L243.696 164.116ZM247.025 164.572C247.085 164.593 247.138 164.631 247.178 164.681C247.217 164.732 247.242 164.793 247.249 164.857L246.613 168.2C246.599 168.341 246.554 168.477 246.482 168.599L246.183 168.732C245.94 168.732 245.79 168.58 245.734 168.257C245.695 168.024 245.695 167.787 245.734 167.554C245.865 166.908 245.996 166.319 246.09 165.788C246.081 165.693 246.081 165.597 246.09 165.503V165.408C246.115 165.216 246.172 165.029 246.258 164.857C246.292 164.796 246.337 164.742 246.392 164.7C246.447 164.657 246.509 164.627 246.576 164.61C246.627 164.571 246.69 164.55 246.754 164.55C246.818 164.55 246.88 164.571 246.931 164.61L247.025 164.572ZM226.619 182.58L223.514 180.073L228.919 173.196L232.155 175.704L226.544 182.58H226.619ZM217.828 190.369L221.774 189.514L223.645 198.062L219.604 198.898L217.902 190.369H217.828ZM249.7 169.169C249.656 168.962 249.656 168.749 249.7 168.542L250.448 165.066C250.453 164.956 250.481 164.849 250.53 164.751C250.578 164.653 250.645 164.566 250.728 164.496C250.787 164.467 250.851 164.452 250.915 164.452C250.98 164.452 251.044 164.467 251.102 164.496C251.161 164.514 251.216 164.546 251.261 164.589C251.306 164.632 251.342 164.684 251.364 164.743V165.256L250.635 168.865C250.635 169.302 250.41 169.53 250.13 169.568C249.849 169.606 249.793 169.435 249.662 169.169H249.7ZM248.783 174.716L246.8 177.812L239.749 172.227L241.245 169.188L248.97 174.469L248.783 174.716ZM240.628 182.998H244.687L244.144 191.888L239.562 191.641L240.703 182.998H240.628ZM254.095 165.142C254.096 164.962 254.141 164.786 254.226 164.629C254.262 164.532 254.326 164.447 254.409 164.387C254.492 164.326 254.591 164.291 254.694 164.287C254.792 164.281 254.889 164.313 254.965 164.376C255.041 164.44 255.091 164.53 255.105 164.629V164.99L254.357 168.789C254.357 169.188 254.189 169.397 254.002 169.435C253.941 169.459 253.876 169.468 253.812 169.462C253.748 169.456 253.685 169.434 253.631 169.399C253.576 169.364 253.53 169.316 253.497 169.26C253.464 169.203 253.445 169.139 253.44 169.074C253.397 168.816 253.397 168.553 253.44 168.295L254.058 165.256L254.095 165.142ZM258.715 165.028C258.761 165.202 258.761 165.385 258.715 165.56L258.191 168.789C258.143 168.904 258.111 169.026 258.098 169.15V169.302C257.986 169.511 257.836 169.606 257.705 169.587C257.574 169.568 257.406 169.473 257.275 169.245V168.694L257.368 168.2C257.555 167.25 257.705 166.509 257.798 165.94V165.408C257.798 165.218 257.798 165.047 257.798 164.933C257.845 164.812 257.933 164.712 258.047 164.652C258.161 164.593 258.292 164.578 258.416 164.61C258.565 164.61 258.678 164.781 258.715 165.028V165.028ZM262.456 165.218C262.292 165.843 262.16 166.477 262.063 167.117C262.035 167.387 261.985 167.654 261.913 167.915V168.01C261.842 168.321 261.748 168.625 261.633 168.922C261.633 169.074 261.633 169.188 261.483 169.226L261.39 169.34C261.374 169.376 261.351 169.408 261.322 169.435C261.293 169.462 261.259 169.482 261.222 169.494C261.185 169.507 261.146 169.511 261.107 169.508C261.069 169.504 261.031 169.492 260.997 169.473C260.772 169.473 260.66 169.283 260.66 168.96L260.81 168.333C260.962 167.802 261.086 167.263 261.184 166.718L261.539 164.819C261.598 164.728 261.675 164.65 261.765 164.591C261.856 164.532 261.957 164.493 262.063 164.477C262.325 164.477 262.475 164.591 262.512 164.781C262.561 164.961 262.561 165.151 262.512 165.332L262.456 165.218ZM264.569 171.031H267.768L267.057 179.579H264.008L264.569 171.031ZM253.74 176.729L257.481 175.685L259.519 184.081L255.778 184.993L253.796 176.729H253.74ZM207.484 214.893L210.683 213.088L215.041 220.25L211.842 222.586L207.484 214.893ZM253.459 203.362L250.915 211.417L246.857 210.524L249.587 202.735L253.459 203.362ZM236.139 206.743L240.217 205.813L241.563 214.646L237.392 215.368L236.139 206.743ZM242.816 244.166H246.557L245.996 252.468H241.975L242.816 244.166Z" fill="#FF5B00"/>
<path d="M217.444 252.662H213.269H217.425H217.444ZM215.366 244.657L211.725 245.897L213.25 252.662H217.425L215.366 244.657ZM232.219 252.737H226.252H232.219ZM232.219 252.737L235.327 250.294L232.524 247.645L226.252 252.737H232.219ZM262.227 197.833L258.376 190.505L255.154 192.628L258.967 199.919L262.303 197.833H262.227ZM286.858 205.969L287.849 203.32L285.333 198.021L283.14 204.785L286.953 205.875L286.858 205.969ZM271.702 202.493L275.705 210.009L279.194 207.679L274.886 200.539L271.625 202.418L271.702 202.493ZM316.16 235.093L318.067 227.108L314.254 226.112L312.176 234.304L316.217 235.093H316.16ZM319.63 220.287V215.89L311.28 216.304V220.287H319.63ZM291.357 237.517L293.092 233.477L284.57 230.866L283.446 234.624L291.357 237.48V237.517ZM297.572 228.63L300.47 231.749L306.838 225.567L303.921 222.767L297.572 228.63ZM290.518 223.838V214.932L287.125 215.214L286.591 224.007H290.518V223.838ZM276.487 186.541L273.055 184.549L268.041 190.994L271.606 193.624L276.487 186.541ZM195.367 252.699H199.886L201.792 248.66L198.951 246.424L195.405 252.699H195.367ZM199.924 252.699H195.405H199.943H199.924ZM209.913 200.201C208.941 202.23 208.007 204.147 207.283 205.932L211.763 202.643L209.856 200.201H209.913ZM246.289 242.985H242.476L241.77 251.196H245.869L246.441 242.985H246.289ZM239.826 204.842L235.67 205.763L236.947 214.293L241.198 213.579L239.826 204.842ZM250.731 210.479L253.323 202.512L249.377 201.892L246.594 209.596L250.731 210.479ZM209.723 212.132L206.463 213.917L210.905 221.527L214.165 219.216L209.723 212.132ZM257.384 175.135L253.571 176.169L255.592 184.342L259.405 183.44L257.327 175.135H257.384ZM267.908 170.532H264.648L264.076 178.987H267.183L267.908 170.532ZM244.382 182.557H240.321L239.158 191.107L243.829 191.351L244.382 182.557ZM246.613 177.428L248.824 174.121L240.951 168.897L239.425 171.903L246.613 177.428ZM221.371 188.701L217.349 189.547L219.084 197.984L223.201 197.157L221.295 188.701H221.371ZM222.992 179.306L226.156 181.787L231.876 174.985L228.578 172.505L222.992 179.306Z" fill="#FDF6BA"/>
<path d="M328.9 234.471C329.339 234.471 329.625 234.377 329.739 234.208C329.776 234.078 329.776 233.941 329.739 233.812C329.698 233.695 329.617 233.595 329.51 233.529C329.336 233.481 329.151 233.481 328.976 233.529L326.382 233.755H326.248C326.234 233.747 326.217 233.743 326.2 233.743C326.184 233.743 326.167 233.747 326.153 233.755C325.925 233.755 325.706 233.843 325.542 234C325.313 234.208 325.352 234.415 325.542 234.641C325.733 234.867 325.867 234.754 326.191 234.641C326.782 234.641 327.622 234.471 328.69 234.415L328.9 234.471ZM329.682 230.232C329.493 230.198 329.299 230.198 329.11 230.232H328.728L325.886 230.552C325.766 230.529 325.643 230.529 325.523 230.552L325.332 230.646C325.236 230.685 325.153 230.75 325.092 230.833C325.032 230.916 324.996 231.015 324.989 231.117C325.022 231.223 325.085 231.317 325.169 231.391C325.253 231.464 325.356 231.513 325.466 231.532H325.981H326.076C326.963 231.358 327.863 231.257 328.766 231.23H329.3C329.459 231.238 329.616 231.206 329.758 231.136C330.025 231.004 330.14 230.835 330.102 230.608C330.063 230.382 329.968 230.288 329.72 230.232H329.682ZM329.262 226.708H328.823H328.518C327.8 226.661 327.08 226.661 326.363 226.708H325.886H324.837C324.737 226.824 324.682 226.97 324.682 227.122C324.682 227.274 324.737 227.421 324.837 227.537C324.886 227.556 324.94 227.556 324.989 227.537C325.134 227.56 325.283 227.56 325.428 227.537L328.575 227.348H328.957C329.077 227.321 329.185 227.255 329.262 227.16C329.301 227.116 329.33 227.065 329.347 227.009C329.364 226.953 329.368 226.894 329.358 226.836C329.349 226.779 329.327 226.724 329.294 226.675C329.261 226.627 329.218 226.587 329.167 226.557L329.262 226.708ZM328.766 223.881C329.148 223.881 329.358 223.712 329.434 223.58C329.483 223.459 329.483 223.324 329.434 223.203C329.353 223.055 329.226 222.936 329.072 222.864H328.69H328.232C327.481 223.028 326.709 223.078 325.943 223.014H325.752C325.538 222.978 325.318 222.978 325.104 223.014C325.042 223.019 324.983 223.038 324.931 223.07C324.878 223.101 324.834 223.144 324.8 223.195C324.767 223.246 324.746 223.304 324.739 223.364C324.732 223.424 324.74 223.485 324.76 223.542C324.796 223.622 324.849 223.693 324.914 223.752C324.98 223.81 325.058 223.854 325.142 223.881C325.313 223.899 325.486 223.899 325.657 223.881L328.728 223.749L328.766 223.881ZM329.491 219.981C329.519 219.918 329.533 219.851 329.533 219.783C329.533 219.715 329.519 219.647 329.491 219.585C329.491 219.415 329.339 219.321 329.224 219.302H329.072H328.823L325.714 219.641C325.505 219.639 325.298 219.677 325.104 219.754C325.016 219.8 324.945 219.872 324.9 219.96C324.856 220.048 324.84 220.147 324.856 220.244C324.855 220.338 324.89 220.429 324.954 220.498C325.017 220.568 325.105 220.612 325.199 220.621C325.379 220.678 325.572 220.678 325.752 220.621L328.633 220.339C328.759 220.361 328.888 220.361 329.014 220.339C329.16 220.301 329.288 220.214 329.377 220.094L329.491 219.981ZM328.957 217.229H325.6C325.355 217.215 325.111 217.267 324.894 217.38C324.836 217.396 324.783 217.424 324.738 217.463C324.692 217.502 324.657 217.55 324.633 217.604C324.609 217.658 324.598 217.717 324.6 217.776C324.602 217.835 324.618 217.893 324.646 217.945C324.741 218.115 324.97 218.19 325.332 218.19H329.148C329.294 218.204 329.441 218.171 329.567 218.096C329.666 218.03 329.734 217.929 329.758 217.814C329.787 217.761 329.801 217.703 329.801 217.644C329.801 217.585 329.787 217.526 329.758 217.474C329.588 217.3 329.355 217.198 329.11 217.192L328.957 217.229ZM261.617 167.633C261.716 166.998 261.85 166.369 262.018 165.748C262.068 165.57 262.068 165.381 262.018 165.202C262.018 165.014 261.827 164.9 261.56 164.9C261.452 164.917 261.348 164.956 261.256 165.014C261.164 165.073 261.086 165.149 261.026 165.24L260.663 167.124C260.564 167.664 260.436 168.199 260.282 168.726L260.129 169.348C260.129 169.668 260.243 169.819 260.472 169.856C260.507 169.875 260.545 169.887 260.585 169.891C260.624 169.894 260.664 169.89 260.702 169.878C260.74 169.865 260.774 169.845 260.804 169.819C260.833 169.792 260.857 169.76 260.873 169.724L260.968 169.611C260.968 169.611 261.083 169.461 261.121 169.31C261.238 169.016 261.334 168.713 261.407 168.405V168.311C261.48 168.052 261.531 167.787 261.56 167.52L261.617 167.633ZM258.069 166.012C258.116 165.839 258.116 165.657 258.069 165.485C258.069 165.24 257.916 165.108 257.763 165.07C257.637 165.038 257.503 165.053 257.387 165.112C257.271 165.171 257.181 165.27 257.134 165.39V165.861V166.389C257.134 166.954 256.886 167.689 256.695 168.632L256.6 169.121V169.668C256.733 169.894 256.867 170.007 257.039 170.007C257.21 170.007 257.325 170.007 257.439 169.724V169.574C257.453 169.45 257.485 169.33 257.535 169.216L258.069 166.012ZM253.338 165.673L252.708 168.688C252.664 168.944 252.664 169.205 252.708 169.461C252.713 169.526 252.733 169.589 252.766 169.645C252.8 169.701 252.847 169.748 252.902 169.783C252.958 169.818 253.021 169.839 253.087 169.846C253.153 169.852 253.219 169.843 253.28 169.819C253.471 169.819 253.586 169.574 253.643 169.178L254.406 165.409V165.051C254.392 164.953 254.341 164.864 254.263 164.801C254.185 164.738 254.087 164.706 253.986 164.712C253.882 164.716 253.781 164.751 253.696 164.811C253.612 164.871 253.547 164.955 253.509 165.051C253.423 165.207 253.377 165.382 253.376 165.56L253.338 165.673ZM249.179 168.895C249.135 169.1 249.135 169.312 249.179 169.517C249.313 169.781 249.465 169.913 249.656 169.913C249.847 169.913 250.114 169.649 250.171 169.216L250.915 165.635V165.127C250.892 165.069 250.856 165.016 250.81 164.974C250.764 164.932 250.708 164.9 250.648 164.882C250.588 164.853 250.523 164.838 250.457 164.838C250.391 164.838 250.326 164.853 250.266 164.882C250.182 164.951 250.113 165.038 250.064 165.135C250.015 165.232 249.986 165.338 249.98 165.447L249.217 168.895H249.179ZM246.623 165.277C246.616 165.214 246.59 165.153 246.55 165.103C246.509 165.053 246.455 165.016 246.394 164.995C246.341 164.956 246.278 164.936 246.213 164.936C246.147 164.936 246.084 164.956 246.031 164.995C245.963 165.012 245.899 165.042 245.844 165.084C245.788 165.126 245.741 165.179 245.707 165.24C245.619 165.411 245.561 165.596 245.535 165.786V165.88C245.526 165.974 245.526 166.069 245.535 166.163C245.44 166.691 245.306 167.275 245.173 167.915C245.133 168.146 245.133 168.382 245.173 168.613C245.173 168.933 245.383 169.084 245.631 169.084L245.936 168.952C246.009 168.831 246.055 168.696 246.07 168.556L246.718 165.24L246.623 165.277ZM243.342 164.806C243.282 164.662 243.175 164.542 243.036 164.467C242.981 164.427 242.914 164.406 242.846 164.406C242.777 164.406 242.71 164.427 242.655 164.467C242.655 164.467 242.54 164.58 242.502 164.693C242.494 164.756 242.494 164.819 242.502 164.882C242.179 165.866 241.937 166.874 241.777 167.897V168.462C241.787 168.554 241.832 168.638 241.903 168.698C241.974 168.757 242.066 168.788 242.159 168.782C242.35 168.858 242.502 168.763 242.617 168.5L242.769 168.01C242.88 167.217 243.058 166.435 243.303 165.673C243.326 165.552 243.358 165.432 243.399 165.315C243.407 165.208 243.407 165.101 243.399 164.995C243.332 164.971 243.267 164.94 243.208 164.9L243.342 164.806Z" fill="#10204F"/>
<path d="M246.38 254.234H246.266H236.278H232.366H191.35C191.222 254.229 191.101 254.175 191.013 254.082C190.924 253.989 190.875 253.866 190.875 253.737C190.875 253.611 190.925 253.489 191.014 253.4C191.103 253.31 191.224 253.26 191.35 253.26H232.366H236.164H245.905L261.666 197.746L262.578 194.498L270.174 167.744C270.213 167.621 270.298 167.519 270.412 167.458C270.525 167.397 270.658 167.384 270.781 167.42C270.841 167.437 270.897 167.466 270.946 167.506C270.994 167.545 271.035 167.594 271.065 167.649C271.095 167.704 271.113 167.764 271.12 167.826C271.127 167.889 271.122 167.952 271.104 168.012L263.508 194.765L262.597 197.957V198.052L246.722 253.967C246.689 254.034 246.641 254.094 246.582 254.14C246.523 254.186 246.454 254.219 246.38 254.234V254.234ZM332.61 234.876C332.484 234.876 332.363 234.826 332.274 234.736C332.185 234.647 332.135 234.525 332.135 234.398V215.098C332.135 214.971 332.185 214.85 332.274 214.76C332.363 214.67 332.484 214.62 332.61 214.62C332.738 214.62 332.86 214.67 332.952 214.759C333.045 214.848 333.099 214.969 333.104 215.098V234.398C333.099 234.527 333.045 234.648 332.952 234.738C332.86 234.827 332.738 234.876 332.61 234.876V234.876Z" fill="#10204F"/>
<path d="M233.135 167.199H235.131L238.451 176.944L217.824 227.286L226.03 226.051L244.773 177.837L240.241 164.786C238.602 164.354 236.89 164.289 235.224 164.596C234.333 165.28 233.617 166.173 233.135 167.199V167.199Z" fill="#0A80EA"/>
<path d="M178.127 394.961C171.119 395.05 164.168 393.693 157.703 390.973C151.238 388.253 145.397 384.229 140.541 379.15C130.583 368.998 125 355.315 125 341.058C125 326.801 130.583 313.118 140.541 302.966C145.454 297.963 151.306 293.99 157.758 291.279C164.21 288.568 171.134 287.171 178.127 287.171C185.12 287.171 192.044 288.568 198.496 291.279C204.948 293.99 210.8 297.963 215.713 302.966C220.735 307.93 224.705 313.865 227.383 320.414C230.061 326.962 231.39 333.988 231.292 341.068C231.393 348.145 230.065 355.169 227.387 361.715C224.709 368.26 220.737 374.192 215.713 379.15C210.861 384.235 205.021 388.262 198.555 390.982C192.089 393.702 185.135 395.057 178.127 394.961ZM178.127 290.064C171.501 289.979 164.927 291.26 158.812 293.826C152.697 296.393 147.17 300.191 142.571 304.987C133.144 314.598 127.859 327.552 127.859 341.049C127.859 354.545 133.144 367.499 142.571 377.11C147.21 381.846 152.741 385.608 158.84 388.175C164.939 390.743 171.486 392.065 178.099 392.065C184.711 392.065 191.258 390.743 197.357 388.175C203.457 385.608 208.987 381.846 213.626 377.11C223.077 367.508 228.378 354.546 228.378 341.039C228.378 327.532 223.077 314.57 213.626 304.969C209.04 300.174 203.522 296.377 197.415 293.813C191.309 291.25 184.744 289.974 178.127 290.064V290.064Z" fill="#FF5B00"/>
<path d="M333.833 394.961C326.825 395.05 319.873 393.693 313.408 390.973C306.943 388.253 301.101 384.229 296.245 379.15C286.286 368.998 280.703 355.315 280.703 341.058C280.703 326.801 286.286 313.118 296.245 302.966C301.158 297.963 307.01 293.99 313.463 291.279C319.915 288.568 326.839 287.171 333.833 287.171C340.826 287.171 347.75 288.568 354.203 291.279C360.655 293.99 366.508 297.963 371.42 302.966C381.402 313.106 387 326.794 387 341.058C387 355.322 381.402 369.01 371.42 379.15C366.568 384.235 360.728 388.262 354.261 390.982C347.795 393.702 340.842 395.057 333.833 394.961V394.961ZM333.833 290.064C327.206 289.979 320.632 291.26 314.517 293.826C308.401 296.393 302.874 300.191 298.275 304.987C288.856 314.603 283.577 327.555 283.577 341.049C283.577 354.542 288.856 367.494 298.275 377.11C302.914 381.846 308.445 385.608 314.545 388.175C320.645 390.743 327.191 392.065 333.804 392.065C340.417 392.065 346.964 390.743 353.064 388.175C359.164 385.608 364.694 381.846 369.334 377.11C378.785 367.508 384.086 354.546 384.086 341.039C384.086 327.532 378.785 314.57 369.334 304.969C364.747 300.174 359.229 296.377 353.122 293.813C347.015 291.25 340.45 289.974 333.833 290.064V290.064Z" fill="#FF5B00"/>
<path d="M267.099 338.075L267.23 332.086H246.27L250.506 338.075H267.099Z" fill="#FF5B00"/>
<path d="M266.87 338.075H250.616C250.584 338.072 250.552 338.062 250.524 338.045C250.495 338.028 250.471 338.004 250.452 337.975L246.301 332.517C246.281 332.478 246.27 332.433 246.27 332.388C246.27 332.342 246.281 332.298 246.301 332.259C246.319 332.212 246.35 332.172 246.389 332.143C246.428 332.115 246.474 332.1 246.521 332.1H267.035C267.095 332.081 267.158 332.081 267.218 332.1C267.233 332.158 267.233 332.22 267.218 332.279L267.09 337.737C267.098 337.775 267.098 337.814 267.091 337.853C267.084 337.891 267.07 337.927 267.049 337.959C267.029 337.991 267.002 338.017 266.971 338.037C266.94 338.057 266.906 338.07 266.87 338.075V338.075ZM250.726 337.558H266.706L266.815 332.616H246.978L250.726 337.558Z" fill="#FF5B00"/>
<path d="M331.661 350.052C331.329 350.05 331.008 349.934 330.75 349.723C330.493 349.512 330.315 349.218 330.246 348.89L313.683 263.469C313.644 263.282 313.641 263.088 313.676 262.9C313.711 262.712 313.783 262.533 313.887 262.373C313.991 262.213 314.125 262.075 314.283 261.968C314.44 261.861 314.616 261.786 314.802 261.749C314.988 261.711 315.18 261.711 315.366 261.748C315.552 261.786 315.728 261.86 315.886 261.967C316.043 262.074 316.178 262.211 316.282 262.371C316.387 262.531 316.459 262.71 316.494 262.898L333.076 348.319C333.148 348.698 333.07 349.09 332.858 349.41C332.646 349.731 332.318 349.954 331.944 350.033L331.661 350.052ZM166.844 347.101C166.627 347.108 166.412 347.055 166.221 346.949C165.884 346.784 165.625 346.491 165.501 346.134C165.378 345.777 165.399 345.386 165.561 345.045L206.1 262.574C206.271 262.231 206.569 261.97 206.93 261.848C207.291 261.727 207.684 261.755 208.025 261.927C208.365 262.098 208.624 262.399 208.744 262.764C208.864 263.128 208.836 263.525 208.666 263.869L168.146 346.339C168.018 346.574 167.83 346.769 167.6 346.903C167.371 347.038 167.109 347.106 166.844 347.101V347.101Z" fill="#0A80EA"/>
<path d="M274.667 153.922C273.369 153.936 272.094 153.583 270.987 152.905C270.131 152.432 269.38 151.787 268.782 151.011C268.184 150.235 267.75 149.343 267.509 148.392C267.24 147.446 267.165 146.455 267.288 145.479C267.411 144.503 267.731 143.562 268.226 142.714C268.403 142.399 268.6 142.096 268.815 141.807C268.858 141.762 268.91 141.727 268.966 141.703C269.023 141.678 269.085 141.666 269.146 141.666C269.208 141.666 269.269 141.678 269.326 141.703C269.383 141.727 269.435 141.762 269.478 141.807C269.575 141.881 269.64 141.99 269.657 142.112C269.674 142.233 269.643 142.356 269.57 142.455C269.377 142.716 269.199 142.987 269.036 143.268C268.601 144.011 268.321 144.836 268.213 145.691C268.106 146.547 268.173 147.415 268.41 148.244C268.618 149.076 268.994 149.856 269.517 150.534C270.04 151.212 270.697 151.774 271.447 152.184C272.181 152.61 272.992 152.885 273.833 152.993C274.673 153.101 275.527 153.04 276.344 152.812C277.161 152.585 277.925 152.197 278.591 151.669C279.257 151.142 279.812 150.487 280.224 149.742C281.076 148.238 281.301 146.455 280.849 144.784C280.398 143.114 279.306 141.691 277.813 140.827C277.128 140.409 276.367 140.132 275.574 140.011C274.781 139.891 273.973 139.929 273.195 140.124C273.135 140.14 273.074 140.144 273.013 140.136C272.952 140.127 272.894 140.107 272.841 140.076C272.788 140.045 272.741 140.004 272.704 139.955C272.667 139.906 272.64 139.851 272.624 139.791C272.609 139.732 272.605 139.67 272.613 139.609C272.621 139.547 272.641 139.489 272.672 139.435C272.702 139.382 272.743 139.336 272.792 139.298C272.841 139.261 272.896 139.233 272.955 139.218C273.877 138.958 274.842 138.889 275.791 139.016C276.74 139.143 277.654 139.464 278.476 139.958C280.178 140.949 281.423 142.575 281.94 144.483C282.456 146.391 282.203 148.427 281.236 150.149C280.768 151.01 280.13 151.766 279.361 152.371C278.593 152.975 277.709 153.415 276.764 153.663C276.082 153.856 275.375 153.944 274.667 153.922V153.922Z" fill="#F04B4A"/>
<path d="M245.882 156.92C245.265 156.909 244.65 156.828 244.05 156.68C243.139 156.425 242.286 155.992 241.54 155.403C240.795 154.815 240.172 154.084 239.708 153.252C239.243 152.42 238.946 151.504 238.833 150.555C238.72 149.607 238.793 148.645 239.05 147.726C239.23 146.861 239.581 146.042 240.081 145.318C240.582 144.593 241.221 143.977 241.962 143.508C242.068 143.449 242.192 143.431 242.311 143.458C242.429 143.486 242.533 143.556 242.603 143.656C242.637 143.708 242.659 143.766 242.67 143.827C242.681 143.888 242.679 143.95 242.666 144.011C242.652 144.071 242.627 144.128 242.591 144.178C242.555 144.229 242.509 144.271 242.457 144.303C241.807 144.71 241.248 145.249 240.815 145.886C240.383 146.523 240.088 147.244 239.947 148.003C239.724 148.804 239.659 149.641 239.757 150.466C239.854 151.292 240.112 152.09 240.515 152.816C240.918 153.541 241.459 154.178 242.107 154.692C242.754 155.206 243.496 155.586 244.289 155.81C244.785 155.94 245.296 156.009 245.809 156.014C245.932 156.018 246.049 156.071 246.134 156.161C246.219 156.251 246.267 156.37 246.267 156.495C246.257 156.598 246.214 156.695 246.145 156.772C246.075 156.849 245.983 156.901 245.882 156.92V156.92Z" fill="#F04B4A"/>
<path d="M262.111 156.919L264.233 149.747L251.384 146.44L249.262 153.719C253.264 155.864 257.662 156.959 262.111 156.919V156.919Z" fill="#10204F"/>
<path d="M250.572 153.926L247.766 162.176L260.688 162.909L262.737 156.587C258.524 156.618 254.361 155.707 250.572 153.926V153.926Z" fill="#A6394B"/>
<path d="M262.235 162.908L260 162.837L243.736 162.146C243.607 162.139 243.486 162.094 243.4 162.022C243.314 161.949 243.268 161.855 243.274 161.758C243.274 161.71 243.287 161.663 243.312 161.619C243.338 161.575 243.376 161.536 243.423 161.503C243.47 161.471 243.525 161.446 243.586 161.43C243.647 161.415 243.711 161.409 243.775 161.413L246.55 161.528L262.273 162.175C262.403 162.182 262.523 162.227 262.61 162.299C262.696 162.372 262.741 162.466 262.736 162.563C262.733 162.611 262.718 162.657 262.692 162.7C262.665 162.743 262.628 162.781 262.581 162.813C262.535 162.845 262.48 162.87 262.421 162.887C262.361 162.903 262.298 162.91 262.235 162.908V162.908Z" fill="#10204F"/>
<path d="M277.71 135.96C277.102 135.965 276.502 136.057 275.945 136.232C275.393 136.369 274.891 136.593 274.478 136.887C274.065 137.182 273.751 137.54 273.559 137.933C273.335 138.298 273.219 138.692 273.219 139.09C273.219 139.489 273.335 139.883 273.559 140.247C273.756 140.626 274.058 140.971 274.448 141.264C274.837 141.556 275.306 141.789 275.826 141.949C275.826 141.949 275.826 141.949 275.826 141.949C275.802 141.923 275.79 141.894 275.79 141.863C275.79 141.833 275.802 141.804 275.826 141.778C276.048 141.338 276.239 140.889 276.398 140.434C276.971 139.018 277.347 137.565 277.519 136.096C277.563 136.085 277.604 136.067 277.637 136.044C277.67 136.02 277.695 135.991 277.71 135.96V135.96Z" fill="#FF5B00"/>
<path d="M254.52 121.801C253.238 124.292 252.58 127.065 252.602 129.875C252.419 131.516 251.906 133.102 251.095 134.534C250.284 135.967 249.192 137.215 247.886 138.202C246.598 137.811 245.22 137.852 243.956 138.319C243.095 138.695 242.409 139.391 242.039 140.264C241.687 141.15 241.69 142.141 242.049 143.025C242.407 143.908 243.091 144.614 243.956 144.992C244.333 145.151 244.737 145.232 245.145 145.232C245.553 145.232 245.957 145.151 246.333 144.992C248.187 148.531 251.217 151.288 254.884 152.775C256.968 153.652 259.222 154.036 261.474 153.898C263.726 153.76 265.917 153.103 267.882 151.977C271.693 149.883 274.588 146.41 275.992 142.249C275.574 142.067 275.197 141.8 274.884 141.466C274.571 141.131 274.328 140.736 274.17 140.303C273.99 139.886 273.897 139.436 273.897 138.98C273.897 138.525 273.99 138.074 274.17 137.657C274.324 137.207 274.577 136.798 274.909 136.461C275.241 136.124 275.644 135.868 276.088 135.712C276.535 135.512 277.018 135.406 277.506 135.4C277.556 135.384 277.61 135.384 277.66 135.4C277.813 133.06 277.606 130.71 277.046 128.435C276.436 126.1 275.472 123.875 274.19 121.839C273.62 121.017 272.979 120.248 272.272 119.544C271.358 120.142 270.372 120.619 269.339 120.964C268.917 121.061 268.515 121.159 268.131 121.217C265.79 121.501 263.417 121.131 261.268 120.147C259.926 119.494 258.405 119.322 256.954 119.66C256.565 119.793 256.197 119.983 255.862 120.225C255.313 120.651 254.856 121.187 254.52 121.801V121.801Z" fill="#A6394B"/>
<path d="M253.124 116.868C251.003 117.942 249.13 119.432 247.621 121.245C246.112 123.058 245 125.155 244.354 127.406C243.275 130.646 242.999 134.092 243.549 137.457C244.811 137.007 246.188 136.968 247.475 137.345C248.779 136.393 249.87 135.19 250.68 133.81C251.49 132.429 252.003 130.901 252.186 129.319C252.163 126.61 252.821 123.938 254.101 121.537C254.429 121.044 254.844 120.612 255.327 120.262C255.661 120.029 256.029 119.846 256.418 119.718C257.867 119.392 259.386 119.557 260.727 120.187C262.874 121.136 265.244 121.492 267.583 121.218C267.966 121.218 268.368 121.068 268.789 120.974C269.821 120.642 270.806 120.182 271.719 119.605C271.182 119.027 270.585 118.506 269.938 118.049C269.38 117.649 268.791 117.292 268.176 116.98C267.5 116.563 266.773 116.229 266.012 115.986C265.617 115.847 265.214 115.728 264.806 115.63C261.595 114.692 258.16 114.804 255.02 115.949L254.561 116.155L253.124 116.868Z" fill="#022782"/>
<path d="M259.187 131.545C258.999 131.579 258.827 131.632 258.683 131.702C258.539 131.771 258.426 131.855 258.351 131.948C258.276 132.04 258.24 132.14 258.247 132.24C258.254 132.34 258.302 132.438 258.39 132.528C258.46 132.62 258.57 132.704 258.711 132.773C258.852 132.842 259.022 132.895 259.208 132.928C259.485 132.973 259.781 132.978 260.063 132.943C260.345 132.908 260.602 132.834 260.804 132.729C261.006 132.624 261.145 132.493 261.206 132.351C261.267 132.208 261.247 132.06 261.147 131.923C260.983 131.74 260.681 131.597 260.307 131.524C260.13 131.484 259.936 131.465 259.742 131.469C259.548 131.473 259.358 131.499 259.187 131.545Z" fill="#10204F"/>
<path d="M259.711 132.962C259.531 132.96 259.353 132.943 259.184 132.913C258.998 132.879 258.828 132.825 258.687 132.755C258.545 132.685 258.435 132.601 258.363 132.508C258.286 132.418 258.246 132.32 258.246 132.222C258.246 132.124 258.286 132.026 258.363 131.936C258.437 131.845 258.546 131.763 258.683 131.693C258.821 131.624 258.984 131.569 259.164 131.532C259.338 131.49 259.528 131.469 259.721 131.469C259.913 131.469 260.103 131.49 260.277 131.532C260.467 131.563 260.642 131.616 260.789 131.684C260.937 131.753 261.053 131.837 261.131 131.931C261.208 132.024 261.246 132.125 261.24 132.226C261.234 132.327 261.185 132.427 261.097 132.518C260.958 132.698 260.684 132.843 260.336 132.922C260.136 132.96 259.922 132.973 259.711 132.962V132.962ZM258.559 131.975C258.496 132.05 258.464 132.131 258.464 132.212C258.464 132.293 258.496 132.374 258.559 132.449C258.614 132.526 258.703 132.596 258.817 132.654C258.932 132.712 259.07 132.756 259.223 132.784C259.374 132.816 259.537 132.832 259.701 132.832C259.865 132.832 260.028 132.816 260.179 132.784C260.324 132.751 260.454 132.703 260.561 132.644C260.668 132.584 260.751 132.515 260.804 132.439C260.867 132.362 260.899 132.28 260.899 132.197C260.899 132.114 260.867 132.032 260.804 131.956C260.737 131.88 260.64 131.812 260.519 131.756C260.398 131.701 260.256 131.658 260.101 131.63C259.961 131.596 259.808 131.578 259.652 131.578C259.497 131.578 259.343 131.596 259.203 131.63C258.905 131.702 258.674 131.829 258.559 131.985V131.975Z" fill="#10204F"/>
<path d="M271.826 131.945C271.895 131.851 272.003 131.765 272.143 131.693C272.283 131.622 272.452 131.565 272.638 131.528C272.817 131.489 273.01 131.469 273.205 131.469C273.4 131.469 273.592 131.489 273.771 131.528C274.134 131.601 274.426 131.742 274.583 131.921C274.669 132.011 274.713 132.109 274.713 132.209C274.713 132.309 274.669 132.407 274.583 132.497C274.524 132.588 274.425 132.672 274.293 132.742C274.161 132.812 273.999 132.867 273.82 132.902C273.639 132.942 273.445 132.964 273.247 132.966C273.049 132.968 272.852 132.95 272.669 132.913C272.485 132.877 272.318 132.822 272.177 132.753C272.037 132.683 271.926 132.601 271.851 132.509C271.768 132.421 271.723 132.326 271.719 132.229C271.715 132.131 271.751 132.035 271.826 131.945Z" fill="#10204F"/>
<path d="M273.172 132.953C272.995 132.969 272.814 132.969 272.638 132.953C272.454 132.915 272.287 132.859 272.149 132.786C272.011 132.713 271.904 132.626 271.837 132.531C271.759 132.439 271.719 132.34 271.719 132.24C271.719 132.14 271.759 132.042 271.837 131.95C271.907 131.855 272.014 131.769 272.152 131.696C272.29 131.624 272.455 131.567 272.638 131.528C272.817 131.489 273.01 131.469 273.205 131.469C273.4 131.469 273.593 131.489 273.773 131.528C273.957 131.564 274.126 131.619 274.267 131.69C274.409 131.76 274.521 131.845 274.596 131.938C274.673 132.032 274.713 132.133 274.713 132.235C274.713 132.337 274.673 132.437 274.596 132.531C274.533 132.625 274.431 132.71 274.296 132.781C274.162 132.852 273.998 132.907 273.817 132.941C273.606 132.97 273.386 132.974 273.172 132.953V132.953ZM273.172 131.562C273.01 131.565 272.851 131.584 272.705 131.619C272.556 131.65 272.422 131.696 272.311 131.755C272.199 131.814 272.114 131.884 272.059 131.961C271.999 132.035 271.967 132.115 271.967 132.195C271.967 132.275 271.999 132.355 272.059 132.428C272.121 132.505 272.211 132.575 272.326 132.634C272.441 132.692 272.577 132.739 272.727 132.77C273.025 132.827 273.355 132.821 273.645 132.755C273.936 132.689 274.165 132.568 274.285 132.417C274.406 132.264 274.406 132.092 274.285 131.938C274.226 131.864 274.139 131.796 274.028 131.739C273.917 131.682 273.785 131.638 273.639 131.608C273.491 131.576 273.332 131.561 273.172 131.562V131.562Z" fill="#10204F"/>
<path d="M268.218 135.959H268.097L264.615 135.164C264.551 135.15 264.49 135.125 264.436 135.089C264.382 135.053 264.337 135.006 264.303 134.953C264.269 134.9 264.247 134.841 264.239 134.779C264.23 134.718 264.235 134.655 264.253 134.595C264.267 134.534 264.294 134.477 264.332 134.425C264.37 134.374 264.419 134.331 264.475 134.297C264.531 134.264 264.594 134.241 264.659 134.23C264.725 134.22 264.792 134.222 264.857 134.236L267.594 134.861L266.688 129.027C266.671 128.9 266.708 128.77 266.79 128.668C266.873 128.565 266.995 128.497 267.131 128.478C267.261 128.462 267.394 128.494 267.499 128.569C267.604 128.643 267.675 128.753 267.694 128.876L268.721 135.429C268.732 135.505 268.724 135.583 268.695 135.656C268.667 135.728 268.621 135.794 268.56 135.845C268.514 135.885 268.46 135.915 268.401 135.935C268.342 135.955 268.28 135.963 268.218 135.959V135.959Z" fill="#10204F"/>
<path d="M272.856 123.983C272.085 123.983 271.7 123.983 271.722 124.222C271.704 124.413 271.758 124.603 271.881 124.776C271.994 124.926 272.38 125.031 273.06 125.121C273.74 125.211 274.76 125.33 276.21 125.48C275.916 125.031 275.621 124.642 275.349 124.282C274.329 124.133 273.49 124.043 272.856 123.983Z" fill="#022782"/>
<path d="M255.25 124.97C255.25 124.618 255.372 124.41 255.788 124.371L260.405 123.993C260.506 123.978 260.61 123.98 260.71 123.998C260.809 124.016 260.902 124.051 260.982 124.099C261.062 124.148 261.126 124.209 261.17 124.279C261.215 124.348 261.238 124.424 261.239 124.501C261.239 124.853 261.065 125.048 260.527 125.1C258.947 125.243 257.402 125.36 255.858 125.477C255.51 125.503 255.319 125.334 255.25 124.97Z" fill="#022782"/>
<path d="M268.719 140.856C268.739 141.272 268.696 141.688 268.592 142.089C268.47 142.611 268.242 143.095 267.926 143.505C267.609 143.915 267.212 144.239 266.765 144.453C265.88 144.927 264.878 145.062 263.916 144.837C263.462 144.742 263.033 144.54 262.658 144.243C262.282 143.947 261.97 143.563 261.742 143.119C261.51 142.699 261.355 142.232 261.285 141.745C261.223 141.317 261.223 140.88 261.285 140.452C263.716 141.119 266.241 141.256 268.719 140.856V140.856Z" fill="#F04B4A"/>
<path d="M261.238 141.176C261.238 141.019 261.238 140.884 261.238 140.727C261.324 140.272 261.473 139.839 261.679 139.447C262.005 138.798 262.476 138.276 263.036 137.942L263.403 137.92C264.218 137.428 265.153 137.324 266.027 137.628C266.88 137.894 267.62 138.543 268.1 139.447L268.229 139.716C268.515 140.336 268.684 141.027 268.724 141.737C266.223 142.149 263.68 141.958 261.238 141.176V141.176Z" fill="#FF5B00"/>
<path d="M266.089 141.949C264.251 141.941 262.421 141.793 260.635 141.507L258.553 141.134C258.435 141.096 258.341 141.032 258.29 140.952C258.238 140.872 258.232 140.782 258.273 140.699C258.314 140.616 258.398 140.546 258.511 140.502C258.624 140.458 258.757 140.442 258.886 140.458C259.531 140.596 260.198 140.72 260.843 140.817C263.563 141.278 266.395 141.372 269.17 141.093H269.607C269.742 141.077 269.882 141.097 269.995 141.148C270.108 141.2 270.186 141.279 270.211 141.369C270.226 141.414 270.227 141.461 270.214 141.507C270.201 141.553 270.175 141.596 270.136 141.635C270.097 141.673 270.047 141.706 269.988 141.732C269.929 141.757 269.864 141.775 269.795 141.783H269.357C268.277 141.897 267.184 141.952 266.089 141.949V141.949Z" fill="#10204F"/>
<path d="M252.601 134.761C252.957 134.565 253.342 134.463 253.732 134.463C254.121 134.463 254.506 134.565 254.862 134.761C255.597 135.122 256.187 135.833 256.502 136.738C256.818 137.643 256.833 138.667 256.545 139.586C256.256 140.505 255.688 141.243 254.965 141.638C254.241 142.033 253.422 142.052 252.688 141.691C252.32 141.517 251.983 141.253 251.697 140.915C251.411 140.577 251.181 140.172 251.021 139.722C250.861 139.273 250.773 138.788 250.763 138.296C250.753 137.804 250.82 137.315 250.962 136.856C251.103 136.382 251.321 135.951 251.604 135.591C251.886 135.23 252.226 134.947 252.601 134.761V134.761Z" fill="#FF5B00"/>
<path d="M262.302 118.924V119.185C262.289 119.234 262.265 119.28 262.232 119.319C262.199 119.357 262.157 119.388 262.11 119.409C262.095 119.416 262.078 119.419 262.062 119.419C262.045 119.419 262.029 119.416 262.014 119.409H261.879C261.861 119.375 261.851 119.336 261.851 119.297C261.851 119.258 261.861 119.22 261.879 119.185C261.854 119.119 261.854 119.046 261.879 118.98C261.899 118.946 261.927 118.916 261.96 118.893C261.993 118.871 262.031 118.856 262.071 118.849H262.264L262.302 118.924ZM260.457 116.648C260.495 116.683 260.524 116.727 260.541 116.776C260.558 116.825 260.562 116.877 260.553 116.928C260.545 117.004 260.511 117.076 260.457 117.133C260.401 117.151 260.34 117.151 260.284 117.133C260.216 117.159 260.141 117.159 260.073 117.133C260.048 117.126 260.025 117.114 260.005 117.098C259.986 117.081 259.969 117.062 259.958 117.039C259.958 117.039 259.958 116.89 259.958 116.741V116.629C260.02 116.609 260.087 116.609 260.15 116.629C260.232 116.61 260.317 116.61 260.4 116.629L260.457 116.648ZM267.106 117.357V117.245H267.26H267.394C267.434 117.255 267.47 117.277 267.497 117.306C267.524 117.336 267.542 117.373 267.548 117.413C267.572 117.452 267.584 117.497 267.584 117.543C267.584 117.589 267.572 117.634 267.548 117.674C267.535 117.704 267.514 117.73 267.487 117.75C267.46 117.77 267.428 117.782 267.394 117.786C267.353 117.809 267.307 117.821 267.26 117.821C267.213 117.821 267.166 117.809 267.125 117.786C267.087 117.765 267.055 117.735 267.032 117.699C267.009 117.664 266.994 117.623 266.991 117.581C266.978 117.507 266.978 117.431 266.991 117.357H267.106ZM264.397 117.581C264.404 117.624 264.404 117.668 264.397 117.711C264.394 117.752 264.382 117.791 264.362 117.826C264.342 117.862 264.315 117.892 264.281 117.916C264.24 117.938 264.194 117.949 264.147 117.949C264.1 117.949 264.054 117.938 264.012 117.916C263.973 117.915 263.935 117.904 263.901 117.885C263.868 117.865 263.84 117.838 263.82 117.805C263.79 117.733 263.79 117.652 263.82 117.581C263.803 117.52 263.803 117.455 263.82 117.394C263.868 117.344 263.927 117.306 263.993 117.282C264.074 117.256 264.162 117.256 264.243 117.282C264.304 117.336 264.356 117.399 264.397 117.469V117.581ZM266.856 120.286H266.683H266.53C266.489 120.239 266.467 120.18 266.467 120.118C266.467 120.057 266.489 119.997 266.53 119.95C266.543 119.886 266.579 119.829 266.632 119.788C266.685 119.747 266.75 119.725 266.818 119.726C266.881 119.721 266.944 119.739 266.994 119.777C267.044 119.815 267.077 119.871 267.087 119.932C267.106 119.97 267.115 120.011 267.115 120.053C267.115 120.095 267.106 120.136 267.087 120.174C267.077 120.215 267.056 120.253 267.025 120.282C266.995 120.312 266.956 120.333 266.914 120.342L266.856 120.286ZM269.816 119.279C269.804 119.223 269.804 119.166 269.816 119.111C269.839 119.062 269.878 119.021 269.926 118.995C269.974 118.968 270.029 118.956 270.085 118.961H270.2V119.073V119.223C270.214 119.252 270.221 119.284 270.221 119.316C270.221 119.348 270.214 119.38 270.2 119.409C270.137 119.455 270.065 119.487 269.989 119.503H269.854C269.831 119.491 269.811 119.475 269.794 119.456C269.778 119.437 269.765 119.415 269.758 119.391C269.743 119.336 269.743 119.278 269.758 119.223L269.816 119.279ZM245.103 135.102C245.186 135.086 245.271 135.086 245.353 135.102C245.401 135.145 245.439 135.197 245.465 135.255C245.492 135.312 245.506 135.375 245.507 135.438C245.516 135.506 245.516 135.575 245.507 135.643C245.458 135.724 245.393 135.794 245.315 135.848C245.24 135.873 245.159 135.873 245.084 135.848H244.873H244.776V135.736C244.767 135.631 244.767 135.525 244.776 135.419C244.781 135.358 244.799 135.298 244.829 135.243C244.859 135.188 244.9 135.14 244.949 135.102C245.037 135.075 245.131 135.075 245.218 135.102H245.103ZM246.717 131.613H246.89C246.949 131.63 247.002 131.662 247.044 131.706C247.057 131.774 247.057 131.843 247.044 131.911C247.053 131.948 247.053 131.986 247.044 132.023C247.04 132.065 247.026 132.106 247.003 132.142C246.979 132.178 246.947 132.207 246.91 132.228C246.856 132.29 246.781 132.33 246.698 132.34C246.655 132.343 246.612 132.335 246.572 132.319C246.532 132.303 246.496 132.278 246.468 132.247C246.406 132.188 246.372 132.107 246.371 132.023C246.359 131.994 246.352 131.962 246.352 131.93C246.352 131.898 246.359 131.866 246.371 131.837C246.432 131.826 246.495 131.835 246.551 131.862C246.606 131.889 246.651 131.932 246.679 131.986C246.7 131.977 246.723 131.973 246.746 131.973C246.769 131.973 246.792 131.977 246.813 131.986L246.717 131.613ZM246.218 130.12C246.143 130.147 246.061 130.147 245.987 130.12C245.872 130.12 245.814 130.12 245.776 130.12C245.737 130.12 245.641 130.027 245.603 129.915C245.594 129.859 245.594 129.802 245.603 129.747C245.607 129.687 245.626 129.629 245.658 129.578C245.69 129.526 245.734 129.483 245.787 129.452C245.84 129.421 245.899 129.403 245.961 129.399C246.023 129.395 246.084 129.405 246.141 129.429C246.209 129.446 246.268 129.485 246.31 129.539C246.352 129.594 246.374 129.66 246.371 129.728C246.379 129.784 246.379 129.84 246.371 129.896C246.346 129.965 246.307 130.029 246.256 130.083L246.218 130.12ZM248.332 135.289C248.388 135.271 248.448 135.271 248.505 135.289C248.505 135.289 248.62 135.289 248.639 135.289C248.65 135.331 248.65 135.376 248.639 135.419C248.656 135.474 248.656 135.532 248.639 135.587C248.649 135.649 248.649 135.712 248.639 135.774C248.653 135.829 248.653 135.886 248.639 135.942C248.558 135.966 248.471 135.966 248.389 135.942C248.262 135.928 248.145 135.868 248.063 135.774C248.014 135.733 247.98 135.679 247.963 135.62C247.946 135.56 247.947 135.497 247.966 135.438C248.01 135.343 248.076 135.26 248.159 135.195C248.216 135.152 248.281 135.121 248.351 135.102L248.332 135.289ZM250.445 131.781C250.533 131.752 250.627 131.752 250.714 131.781C250.77 131.794 250.817 131.828 250.849 131.874C250.88 131.952 250.88 132.038 250.849 132.116C250.849 132.229 250.816 132.339 250.753 132.434C250.72 132.479 250.677 132.515 250.627 132.541C250.577 132.567 250.521 132.581 250.465 132.583C250.405 132.585 250.346 132.57 250.295 132.541C250.244 132.511 250.202 132.467 250.176 132.415C250.146 132.324 250.146 132.226 250.176 132.135C250.165 132.086 250.165 132.035 250.176 131.986C250.213 131.902 250.282 131.835 250.369 131.799L250.445 131.781ZM250.522 128.254C250.515 128.204 250.515 128.154 250.522 128.105C250.602 128.072 250.692 128.072 250.772 128.105C250.841 128.124 250.907 128.156 250.964 128.198C250.988 128.264 250.988 128.337 250.964 128.403C250.971 128.44 250.971 128.478 250.964 128.515C250.975 128.564 250.975 128.615 250.964 128.664H250.83C250.755 128.692 250.673 128.692 250.599 128.664C250.557 128.663 250.517 128.651 250.483 128.627C250.448 128.604 250.422 128.572 250.407 128.534C250.377 128.424 250.377 128.308 250.407 128.198L250.522 128.254ZM248.082 127.004C248.033 127.062 247.965 127.101 247.89 127.116H247.678C247.607 127.075 247.547 127.017 247.505 126.948C247.452 126.906 247.418 126.846 247.409 126.78C247.39 126.725 247.39 126.666 247.409 126.612V126.463H247.563H247.717C247.788 126.453 247.86 126.463 247.925 126.493C247.99 126.523 248.045 126.571 248.082 126.631C248.09 126.68 248.09 126.73 248.082 126.78C248.092 126.842 248.092 126.905 248.082 126.966C248.082 126.966 248.082 127.097 247.986 127.116L248.082 127.004ZM250.887 125.586H250.714C250.672 125.566 250.635 125.537 250.605 125.501C250.575 125.466 250.553 125.425 250.541 125.38C250.534 125.325 250.534 125.268 250.541 125.212C250.531 125.189 250.525 125.163 250.525 125.138C250.525 125.112 250.531 125.087 250.541 125.063C250.587 124.993 250.655 124.94 250.734 124.909C250.814 124.879 250.901 124.874 250.983 124.895C251.037 124.909 251.086 124.937 251.123 124.977C251.161 125.017 251.186 125.066 251.195 125.119C251.214 125.157 251.223 125.198 251.223 125.24C251.223 125.282 251.214 125.324 251.195 125.362C251.183 125.406 251.161 125.447 251.131 125.483C251.102 125.518 251.064 125.547 251.022 125.567C250.995 125.58 250.965 125.587 250.935 125.587C250.905 125.587 250.876 125.58 250.849 125.567L250.887 125.586ZM249.158 122.619C249.221 122.591 249.29 122.577 249.36 122.577C249.429 122.577 249.498 122.591 249.561 122.619C249.576 122.655 249.576 122.695 249.561 122.731C249.579 122.804 249.579 122.881 249.561 122.955C249.561 123.067 249.561 123.141 249.427 123.16C249.371 123.18 249.31 123.18 249.254 123.16C249.208 123.162 249.162 123.155 249.119 123.139C249.076 123.123 249.037 123.098 249.004 123.067C248.982 123.013 248.982 122.952 249.004 122.899C248.985 122.825 248.985 122.748 249.004 122.675C249.033 122.607 249.089 122.554 249.158 122.525V122.619ZM253.097 121.891C253.119 121.958 253.119 122.029 253.097 122.096V122.264C253.049 122.326 252.982 122.372 252.905 122.395C252.866 122.413 252.823 122.422 252.78 122.422C252.737 122.422 252.694 122.413 252.655 122.395C252.59 122.36 252.537 122.309 252.502 122.245C252.49 122.203 252.49 122.158 252.502 122.115C252.496 122.04 252.513 121.964 252.55 121.898C252.588 121.832 252.644 121.777 252.713 121.742C252.8 121.715 252.894 121.715 252.982 121.742C253.05 121.77 253.11 121.815 253.155 121.872L253.097 121.891ZM250.618 120.809C250.635 120.768 250.664 120.733 250.702 120.71C250.74 120.686 250.785 120.675 250.83 120.678H250.964L251.118 120.79C251.138 120.851 251.138 120.916 251.118 120.977C251.091 121.06 251.045 121.137 250.983 121.201C250.93 121.228 250.871 121.243 250.81 121.243C250.75 121.243 250.691 121.228 250.638 121.201C250.607 121.212 250.572 121.212 250.541 121.201C250.541 121.201 250.541 121.201 250.541 121.07C250.522 121.026 250.512 120.978 250.512 120.93C250.512 120.882 250.522 120.834 250.541 120.79L250.618 120.809ZM253.674 118.924H253.808C253.84 118.916 253.873 118.916 253.904 118.924C253.904 118.924 253.904 118.924 253.904 118.924C253.904 118.924 253.904 118.924 253.904 119.017C253.899 119.061 253.899 119.105 253.904 119.148C253.889 119.216 253.848 119.276 253.789 119.316C253.726 119.335 253.66 119.335 253.597 119.316C253.527 119.318 253.459 119.297 253.403 119.256C253.347 119.216 253.307 119.158 253.289 119.092V118.98C253.291 118.927 253.304 118.875 253.327 118.827C253.35 118.779 253.383 118.736 253.424 118.7C253.449 118.669 253.481 118.644 253.518 118.628C253.555 118.612 253.595 118.605 253.635 118.607L253.674 118.924ZM256.037 117.151H255.864C255.768 117.151 255.711 117.058 255.672 116.946C255.658 116.904 255.658 116.858 255.672 116.816C255.663 116.795 255.659 116.773 255.659 116.75C255.659 116.728 255.663 116.706 255.672 116.685C255.699 116.628 255.742 116.58 255.797 116.546C255.852 116.513 255.915 116.496 255.98 116.498C256.04 116.492 256.101 116.508 256.151 116.542C256.2 116.577 256.235 116.627 256.249 116.685C256.261 116.74 256.261 116.798 256.249 116.853C256.261 116.908 256.261 116.965 256.249 117.021C256.235 117.056 256.212 117.087 256.181 117.11C256.151 117.133 256.114 117.147 256.076 117.151H256.037ZM257.44 118.103C257.509 118.131 257.568 118.176 257.613 118.234C257.63 118.295 257.63 118.359 257.613 118.42C257.601 118.496 257.568 118.567 257.517 118.626C257.478 118.671 257.426 118.704 257.368 118.72C257.31 118.737 257.248 118.736 257.19 118.719C257.123 118.71 257.061 118.677 257.017 118.626C257.024 118.582 257.024 118.538 257.017 118.495C257.029 118.39 257.062 118.289 257.114 118.196C257.162 118.147 257.221 118.108 257.286 118.084L257.44 118.103Z" fill="#10204F"/>
<path d="M246.231 156.92C245.583 156.909 244.939 156.824 244.309 156.668C243.353 156.402 242.458 155.948 241.676 155.332C240.894 154.716 240.241 153.951 239.753 153.079C239.266 152.208 238.954 151.248 238.835 150.255C238.717 149.262 238.794 148.255 239.063 147.292C239.21 146.614 239.456 145.961 239.793 145.355C239.823 145.297 239.865 145.245 239.915 145.203C239.966 145.161 240.025 145.13 240.088 145.112C240.151 145.094 240.217 145.089 240.282 145.097C240.347 145.106 240.409 145.128 240.466 145.162C240.575 145.226 240.654 145.332 240.686 145.455C240.719 145.578 240.702 145.71 240.639 145.82C240.353 146.364 240.14 146.944 240.004 147.544C239.77 148.382 239.703 149.259 239.805 150.124C239.907 150.988 240.177 151.824 240.6 152.583C241.024 153.343 241.591 154.01 242.27 154.548C242.949 155.087 243.727 155.484 244.559 155.719C245.08 155.855 245.616 155.927 246.154 155.932C247.352 155.926 248.526 155.598 249.556 154.983C250.297 154.549 250.946 153.971 251.464 153.283C251.981 152.595 252.359 151.809 252.573 150.973C252.987 149.245 252.733 147.424 251.862 145.878C251.461 145.142 250.912 144.498 250.25 143.988C249.588 143.478 248.828 143.112 248.019 142.914C247.957 142.898 247.899 142.869 247.848 142.83C247.797 142.791 247.754 142.742 247.722 142.686C247.69 142.631 247.669 142.569 247.661 142.505C247.652 142.441 247.656 142.376 247.673 142.314C247.689 142.252 247.717 142.193 247.756 142.142C247.795 142.091 247.844 142.048 247.899 142.015C247.954 141.983 248.015 141.962 248.079 141.953C248.142 141.945 248.207 141.949 248.268 141.965C249.201 142.201 250.076 142.627 250.84 143.217C251.603 143.807 252.239 144.548 252.708 145.394C253.722 147.15 254.012 149.237 253.515 151.205C253.27 152.169 252.838 153.074 252.245 153.869C251.651 154.664 250.907 155.332 250.056 155.835C248.897 156.528 247.578 156.903 246.231 156.92V156.92Z" fill="#F04B4A"/>
<path d="M235.329 229.286L232.176 221.755L227.841 222.543L232.214 231.319L235.329 229.322V229.286ZM230.074 237.219L226.078 238.593L225.946 242.257H226.64L229.924 242.019L230.074 237.292V237.219ZM257.396 230.861L253.643 231.906L255.52 239.088L259.742 238.446L257.396 230.861ZM204.348 235.112C204.945 236.009 205.665 236.823 206.487 237.53C206.791 237.817 207.117 238.08 207.463 238.318L210.653 231.393L206.9 229.56L204.366 235.057L204.348 235.112ZM244.129 232.071L240.264 230.477L237.58 238.08L241.333 239.454L244.223 232.125L244.129 232.071ZM215.062 231.173L216.676 234.745L223.882 232.913V229.029L215.062 231.228V231.173ZM256.552 225.42L256.983 221.297H248.277V225.42H256.552Z" fill="#FDF6BA"/>
<path d="M201.728 222.875C200.857 226.915 201.526 231.139 203.6 234.702L206.127 229.025L209.871 230.918L206.689 238.07C210.857 241.249 217.003 242.618 225.128 242.176L225.259 238.392L229.246 236.973L229.096 241.855C232.691 241.565 236.497 241.186 240.516 240.719C244.915 240.19 249.613 239.546 254.574 238.827L252.702 231.41L256.446 230.331L258.786 238.165L263.953 237.313L270.224 236.121V213.812L231.399 220.983L234.544 228.798L231.436 230.861L227.168 221.759L217.528 223.519L201.822 222.838L201.728 222.875ZM267.528 217.161C267.79 217.293 267.884 217.464 267.809 217.691C267.734 217.918 267.454 218.05 267.042 218.05C266.462 218.104 265.886 218.199 265.319 218.334H264.889C264.828 218.317 264.763 218.317 264.702 218.334L263.635 218.523H263.092C262.848 218.523 262.736 218.334 262.736 218.145C262.724 218.035 262.743 217.924 262.789 217.824C262.835 217.724 262.907 217.639 262.998 217.577H263.185C263.347 217.557 263.51 217.557 263.672 217.577L264.795 217.445C264.962 217.369 265.138 217.318 265.319 217.293C265.849 217.161 266.387 217.066 266.929 217.009C267.146 216.995 267.363 217.027 267.566 217.104L267.528 217.161ZM265.263 220.226L266.592 219.98C266.752 219.938 266.92 219.938 267.079 219.98C267.173 219.98 267.266 220.113 267.322 220.321C267.332 220.4 267.317 220.481 267.28 220.552C267.244 220.623 267.186 220.681 267.117 220.718C266.968 220.789 266.81 220.84 266.649 220.87L265.432 221.059H265.319H265.17L264.103 221.267H263.859H263.71L263.223 221.362C263.14 221.368 263.057 221.347 262.987 221.303C262.916 221.259 262.861 221.193 262.83 221.116C262.797 221.067 262.774 221.012 262.764 220.954C262.753 220.896 262.755 220.836 262.769 220.779C262.784 220.721 262.81 220.668 262.846 220.622C262.882 220.575 262.928 220.537 262.979 220.51C263.174 220.39 263.39 220.313 263.616 220.283H263.859L265.057 220.094H265.207L265.263 220.226ZM262.886 223.878L263.298 223.746L265.619 223.33H265.713C265.918 223.251 266.144 223.251 266.349 223.33C266.46 223.339 266.563 223.392 266.636 223.477C266.709 223.561 266.747 223.671 266.742 223.784C266.722 223.858 266.687 223.926 266.639 223.985C266.59 224.044 266.53 224.091 266.461 224.124C266.342 224.213 266.197 224.26 266.05 224.257H265.806H265.713L263.672 224.635C263.493 224.667 263.309 224.667 263.129 224.635C262.867 224.635 262.736 224.446 262.699 224.295C262.661 224.143 262.699 223.897 262.848 223.803L262.886 223.878ZM256.184 220.226L255.754 224.484H247.498V220.226H256.184ZM266.873 226.698C267.191 226.83 267.304 227.019 267.229 227.265C267.154 227.511 266.986 227.511 266.686 227.606H266.461H266.312L263.616 228.212H263.223C263.156 228.192 263.095 228.156 263.046 228.106C262.997 228.057 262.961 227.995 262.942 227.928C262.906 227.864 262.887 227.793 262.887 227.72C262.887 227.647 262.906 227.575 262.942 227.511C263.093 227.346 263.3 227.245 263.522 227.228L266.143 226.698H266.817H266.873ZM266.592 230.482H267.042C267.224 230.526 267.392 230.617 267.528 230.747C267.528 230.974 267.528 231.182 267.285 231.372C267.125 231.485 266.937 231.55 266.742 231.561L263.822 232.091C263.485 232.091 263.279 232.091 263.223 231.958C263.178 231.928 263.145 231.884 263.128 231.832C263.112 231.781 263.112 231.726 263.129 231.674C263.132 231.607 263.151 231.541 263.183 231.482C263.216 231.423 263.261 231.372 263.316 231.334C263.49 231.199 263.697 231.114 263.915 231.088H264.103C264.912 230.894 265.73 230.742 266.555 230.634L266.592 230.482ZM263.391 234.418C263.593 234.256 263.845 234.169 264.103 234.172C264.22 234.151 264.341 234.151 264.458 234.172L266.499 233.775L266.986 233.661C267.125 233.653 267.264 233.693 267.379 233.775C267.43 233.819 267.471 233.874 267.5 233.936C267.528 233.999 267.542 234.066 267.542 234.134C267.542 234.203 267.528 234.27 267.5 234.332C267.471 234.394 267.43 234.449 267.379 234.494C267.186 234.632 266.97 234.734 266.742 234.797L265.338 234.986L264.402 235.118L263.859 235.289C263.776 235.3 263.692 235.291 263.613 235.261C263.535 235.231 263.465 235.182 263.41 235.118C263.223 234.929 263.242 234.702 263.41 234.456L263.391 234.418ZM215.787 234.267L214.177 230.577L222.975 228.306V232.337L215.787 234.229V234.267ZM239.411 229.877L243.267 231.523L240.385 239.092L236.641 237.673L239.411 229.877Z" fill="#FF5B00"/>
<path d="M264.431 234.004C264.641 233.855 264.902 233.776 265.171 233.778H265.268C265.39 233.759 265.515 233.759 265.638 233.778L267.641 233.379L268.147 233.275C268.292 233.268 268.437 233.304 268.556 233.379C268.609 233.42 268.652 233.471 268.681 233.528C268.711 233.585 268.726 233.646 268.726 233.709C268.726 233.772 268.711 233.834 268.681 233.891C268.652 233.947 268.609 233.998 268.556 234.039C268.355 234.165 268.131 234.259 267.894 234.316L266.435 234.49L265.462 234.611L264.898 234.767C264.812 234.778 264.724 234.769 264.643 234.742C264.561 234.714 264.489 234.67 264.431 234.611C264.159 234.438 264.179 234.229 264.431 234.004Z" fill="#10204F"/>
<path d="M223.042 242.257C216.131 242.257 210.731 240.86 206.973 238.103C206.61 237.841 206.263 237.559 205.934 237.258C205.084 236.521 204.335 235.681 203.706 234.758C201.552 231.197 200.845 226.981 201.724 222.938C201.975 221.335 202.341 219.75 202.819 218.196C202.854 218.078 202.935 217.978 203.043 217.917C203.152 217.855 203.282 217.837 203.404 217.865C203.466 217.882 203.523 217.911 203.573 217.95C203.623 217.989 203.664 218.037 203.694 218.092C203.724 218.147 203.742 218.208 203.748 218.27C203.753 218.332 203.745 218.394 203.725 218.453C203.278 219.976 202.925 221.522 202.668 223.086C201.835 226.904 202.509 230.887 204.556 234.243C205.138 235.108 205.836 235.894 206.633 236.577C206.93 236.855 207.245 237.112 207.577 237.349C211.675 240.346 217.83 241.669 225.874 241.246C226.113 241.224 226.353 241.224 226.592 241.246L229.859 241.026C233.446 240.75 237.412 240.382 241.358 239.923C245.833 239.408 250.592 238.783 255.595 238.085L265.037 236.633C265.118 236.619 265.201 236.619 265.282 236.633L270.947 235.713V214.796L218.321 224.133C218.194 224.155 218.063 224.126 217.956 224.054C217.85 223.982 217.778 223.871 217.755 223.747C217.744 223.687 217.746 223.625 217.76 223.565C217.774 223.505 217.801 223.449 217.838 223.399C217.875 223.35 217.921 223.308 217.975 223.276C218.029 223.244 218.089 223.223 218.151 223.214L232.219 220.714L271.155 213.858C271.213 213.828 271.278 213.812 271.344 213.812C271.409 213.812 271.474 213.828 271.532 213.858C271.59 213.902 271.637 213.958 271.669 214.021C271.702 214.085 271.72 214.155 271.721 214.226V235.916C271.719 236.025 271.678 236.13 271.606 236.214C271.534 236.297 271.435 236.354 271.325 236.375L265.32 237.368C265.265 237.384 265.206 237.384 265.15 237.368L255.709 238.838C250.705 239.537 245.928 240.162 241.509 240.676C237.393 241.118 233.503 241.485 229.934 241.761C228.801 241.871 227.706 241.945 226.611 242H225.95C224.949 242.22 224.08 242.257 223.042 242.257V242.257Z" fill="#10204F"/>
<path d="M284.442 218.303V212.314H266.85C266.128 213.149 265.73 214.211 265.73 215.309C265.73 216.407 266.128 217.469 266.85 218.303H284.442ZM366.416 212.314H348.844V218.303H366.416C367.139 217.469 367.536 216.407 367.536 215.309C367.536 214.211 367.139 213.149 366.416 212.314V212.314Z" fill="#10204F"/>
<path d="M315.137 263.217H327.114L317.771 233.274L315.137 263.217Z" fill="#0A80EA"/>
<path d="M177.744 348.554C177.521 348.551 177.3 348.5 177.098 348.404C176.769 348.231 176.519 347.94 176.399 347.59C176.279 347.24 176.298 346.858 176.453 346.522L179.359 340.707H169.862C169.479 340.707 169.112 340.556 168.841 340.288C168.57 340.02 168.418 339.656 168.418 339.277C168.418 338.897 168.57 338.534 168.841 338.265C169.112 337.997 169.479 337.846 169.862 337.846H180.84L211.593 276.572L205.894 263.983L195.979 242.115C195.823 241.768 195.812 241.374 195.949 241.019C196.086 240.665 196.36 240.378 196.71 240.224C197.06 240.069 197.458 240.058 197.816 240.194C198.174 240.33 198.463 240.601 198.619 240.948L208.117 261.969H314.429L316.974 233.872L296.726 216.672H285.044C284.662 216.672 284.294 216.521 284.024 216.253C283.753 215.985 283.601 215.621 283.601 215.242C283.601 214.862 283.753 214.499 284.024 214.23C284.294 213.962 284.662 213.812 285.044 213.812H349.626C350.009 213.812 350.376 213.962 350.647 214.23C350.917 214.499 351.069 214.862 351.069 215.242C351.069 215.621 350.917 215.985 350.647 216.253C350.376 216.521 350.009 216.672 349.626 216.672H338.229L320.032 233.609L329.188 262.891C329.188 262.891 329.188 262.985 329.188 263.023L345.485 346.785C345.558 347.16 345.478 347.548 345.262 347.863C345.047 348.179 344.714 348.397 344.336 348.47C343.958 348.542 343.567 348.463 343.248 348.249C342.929 348.036 342.709 347.705 342.636 347.331L326.965 266.128L241.946 340.274C241.828 340.383 241.694 340.472 241.547 340.538C241.356 340.622 241.148 340.661 240.939 340.651H182.588L179.036 347.745C178.919 347.986 178.735 348.19 178.507 348.333C178.279 348.476 178.014 348.553 177.744 348.554V348.554ZM184.031 337.79H238.755L213.074 279.941L184.031 337.79ZM214.423 275.97L241.433 336.83L324.116 264.773H209.484L214.423 275.97ZM317.278 261.912H326.016L319.33 240.572L317.278 261.912ZM301.114 216.616L318.361 231.275L334.05 216.616H301.114Z" fill="#0A80EA"/>
<path d="M227.141 329.471C225.582 330.98 224.35 332.788 223.52 334.783C222.691 336.779 222.28 338.921 222.314 341.078C222.286 343.24 222.699 345.386 223.528 347.387C224.358 349.388 225.586 351.203 227.141 352.723C228.662 354.248 230.474 355.459 232.473 356.285C234.471 357.112 236.615 357.537 238.781 357.537C240.947 357.537 243.091 357.112 245.089 356.285C247.088 355.459 248.9 354.248 250.421 352.723C251.976 351.203 253.205 349.388 254.034 347.387C254.863 345.386 255.276 343.24 255.248 341.078C255.282 338.921 254.872 336.779 254.042 334.783C253.212 332.788 251.98 330.98 250.421 329.471C248.909 327.93 247.1 326.704 245.1 325.868C243.101 325.031 240.952 324.6 238.781 324.6C236.61 324.6 234.461 325.031 232.462 325.868C230.462 326.704 228.653 327.93 227.141 329.471V329.471Z" fill="#10204F"/>
<path d="M238.762 357.536C236.592 357.561 234.438 357.147 232.436 356.318C230.434 355.489 228.624 354.264 227.12 352.717C224.039 349.611 222.312 345.435 222.312 341.085C222.312 336.736 224.039 332.56 227.12 329.454C228.638 327.918 230.452 326.697 232.454 325.863C234.457 325.03 236.608 324.6 238.781 324.6C240.954 324.6 243.105 325.03 245.108 325.863C247.11 326.697 248.924 327.918 250.442 329.454C253.524 332.56 255.25 336.736 255.25 341.085C255.25 345.435 253.524 349.611 250.442 352.717C248.933 354.267 247.117 355.495 245.108 356.324C243.099 357.153 240.939 357.565 238.762 357.536V357.536ZM238.762 325.06C236.65 325.035 234.555 325.442 232.609 326.256C230.664 327.069 228.91 328.271 227.457 329.786C224.453 332.798 222.769 336.857 222.769 341.085C222.769 345.314 224.453 349.373 227.457 352.385C228.937 353.865 230.701 355.04 232.645 355.843C234.589 356.645 236.674 357.058 238.781 357.058C240.888 357.058 242.973 356.645 244.917 355.843C246.861 355.04 248.625 353.865 250.106 352.385C253.109 349.373 254.793 345.314 254.793 341.085C254.793 336.857 253.109 332.798 250.106 329.786C248.646 328.269 246.885 327.066 244.934 326.253C242.982 325.439 240.881 325.033 238.762 325.06V325.06Z" fill="#10204F"/>
<path d="M233.42 339.571L232.93 340.13L225.899 348.092H211.836L211.987 353.046H228.745L237.492 342.922C238.604 341.697 239.528 340.58 240.282 339.571H233.42Z" fill="#FF5B00"/>
<path d="M315.505 234.771L313.641 243.754H324.121L321.305 234.771H315.505Z" fill="#10204F"/>
<path d="M323.784 243.673H313.837C313.78 243.698 313.717 243.698 313.66 243.673C313.647 243.642 313.641 243.608 313.641 243.573C313.641 243.539 313.647 243.505 313.66 243.473L315.43 233.476C315.439 233.415 315.467 233.361 315.51 233.324C315.553 233.287 315.606 233.27 315.66 233.276H321.217C321.265 233.277 321.311 233.295 321.349 233.327C321.387 233.36 321.415 233.404 321.43 233.456L324.102 243.453C324.127 243.524 324.127 243.603 324.102 243.673C324.082 243.699 324.058 243.719 324.03 243.733C324.003 243.747 323.973 243.754 323.943 243.754C323.913 243.754 323.883 243.747 323.855 243.733C323.828 243.719 323.804 243.699 323.784 243.673V243.673ZM314.102 243.173H323.483L320.934 233.575H315.731L314.102 243.173Z" fill="#10204F"/>
<path d="M189.345 236.272C187.668 236.22 186.027 236.823 184.698 237.977C183.795 238.891 183.077 240.014 182.592 241.27C182.108 242.525 181.869 243.883 181.892 245.251H219.319C219.181 244.389 218.874 243.573 218.42 242.861C217.966 242.15 217.377 241.563 216.695 241.142C214.624 239.666 212.2 238.948 209.753 239.087C207.676 239.087 205.617 239.19 203.558 239.416C201.499 239.642 200.059 239.744 199.148 239.744C197.263 239.684 195.424 239.076 193.809 237.977C192.479 236.977 190.94 236.389 189.345 236.272V236.272Z" fill="#10204F"/>
<path d="M220.453 245.181H180.584C180.528 245.204 180.465 245.204 180.409 245.181C180.39 245.124 180.39 245.062 180.409 245.005C180.381 243.673 180.641 242.35 181.171 241.129C181.7 239.908 182.487 238.817 183.477 237.931C184.938 236.815 186.732 236.23 188.565 236.271C190.317 236.396 192.004 236.982 193.459 237.971C195.152 238.985 197.082 239.531 199.052 239.553C200.004 239.553 201.577 239.456 203.733 239.26C205.888 239.065 208.141 238.928 210.355 238.928C213.006 238.791 215.635 239.473 217.89 240.882C218.651 241.307 219.307 241.898 219.811 242.611C220.315 243.324 220.654 244.142 220.803 245.005C220.822 245.062 220.822 245.124 220.803 245.181C220.756 245.226 220.693 245.251 220.628 245.251C220.563 245.251 220.5 245.226 220.453 245.181V245.181ZM180.817 244.692H220.182C219.771 243.227 218.81 241.979 217.502 241.214C215.343 239.83 212.814 239.148 210.258 239.26C208.063 239.26 205.869 239.358 203.694 239.573C201.519 239.788 199.926 239.866 198.955 239.866C196.904 239.838 194.896 239.272 193.129 238.225C191.746 237.293 190.147 236.734 188.488 236.603C186.767 236.553 185.081 237.098 183.71 238.146C182.798 238.969 182.071 239.979 181.578 241.108C181.086 242.237 180.839 243.459 180.856 244.692H180.817Z" fill="#10204F"/>
<path d="M280.611 220.845L283.982 221.142L284.298 220.39L285.118 218.411L280.555 218.272C280.389 218.266 280.224 218.308 280.08 218.396C279.935 218.483 279.816 218.612 279.736 218.767C279.55 219.104 279.382 219.519 279.178 219.994C278.973 220.469 279.475 220.786 280.611 220.865V220.845ZM282.473 210.079L274.876 210.376C274.433 210.573 274.046 210.891 273.756 211.298C273.465 211.704 273.279 212.185 273.219 212.691H277.502C277.964 213.416 278.246 214.254 278.321 215.126C277.135 217.119 276.527 219.438 276.571 221.795C278.726 222.57 281.002 222.899 283.274 222.765L284 221.162L280.63 220.865C279.494 220.865 279.01 220.509 279.196 219.994C279.382 219.48 279.569 219.104 279.755 218.767C279.834 218.612 279.953 218.483 280.098 218.396C280.243 218.308 280.408 218.266 280.574 218.272L285.136 218.411L286.067 216.254L282.473 210.079ZM289.661 220.548L290.518 215.858L286.347 209.921L282.473 210.119L286.067 216.293L285.136 218.451L284.317 220.43L289.661 220.568V220.548ZM290.518 215.878L289.661 220.568L296.216 220.727L290.257 209.584L286.328 209.802L290.499 215.739L290.518 215.878ZM299.195 219.935C300.246 219.895 301.291 219.769 302.324 219.559L300.611 216.57C299.382 216.709 298.413 216.808 297.724 216.927C297.035 217.045 296.7 217.342 296.868 217.877C297.085 218.385 297.36 218.864 297.687 219.302C297.883 219.513 298.119 219.678 298.378 219.787C298.638 219.896 298.916 219.946 299.195 219.935V219.935ZM295.639 207.823L289.568 208.318L290.257 209.545L296.197 220.588L296.663 221.419L303.162 221.043L302.324 219.559C301.291 219.769 300.246 219.895 299.195 219.935C298.916 219.946 298.638 219.896 298.378 219.787C298.119 219.678 297.883 219.513 297.687 219.302C297.36 218.864 297.085 218.385 296.868 217.877C296.7 217.342 296.979 217.026 297.724 216.927C298.469 216.828 299.382 216.709 300.611 216.57L295.639 207.823Z" fill="#A6394B"/>
<path d="M283.595 222.78C283.531 222.799 283.462 222.799 283.398 222.78C283.343 222.754 283.293 222.716 283.252 222.67C283.212 222.623 283.18 222.569 283.16 222.51C283.14 222.45 283.131 222.387 283.135 222.324C283.139 222.261 283.155 222.2 283.182 222.144L283.595 221.246L280.991 221.021C280.075 221.021 279.536 220.759 279.303 220.366C279.24 220.242 279.207 220.104 279.207 219.964C279.207 219.824 279.24 219.686 279.303 219.562C279.5 219.075 279.68 218.682 279.842 218.345C279.961 218.122 280.136 217.937 280.347 217.809C280.559 217.68 280.8 217.614 281.045 217.616L285.158 217.747L285.822 216.231L282.482 210.618C282.45 210.565 282.428 210.506 282.418 210.445C282.408 210.383 282.41 210.32 282.423 210.26C282.437 210.199 282.462 210.141 282.496 210.09C282.531 210.04 282.575 209.996 282.625 209.963C282.676 209.93 282.733 209.908 282.792 209.897C282.851 209.887 282.911 209.888 282.97 209.902C283.028 209.916 283.083 209.942 283.132 209.978C283.181 210.014 283.222 210.06 283.254 210.113L286.72 215.969C286.755 216.039 286.773 216.116 286.773 216.194C286.773 216.272 286.755 216.349 286.72 216.418L284.745 221.021L284.044 222.518C284.001 222.601 283.935 222.67 283.856 222.716C283.777 222.762 283.686 222.784 283.595 222.78V222.78ZM280.003 219.861C280.314 219.979 280.643 220.037 280.973 220.029L283.919 220.291L284.08 219.898L284.601 218.663L280.883 218.551C280.8 218.55 280.718 218.571 280.645 218.614C280.572 218.657 280.512 218.719 280.47 218.794C280.434 219.075 280.273 219.431 280.093 219.861H280.003ZM302.705 221.264C302.629 221.265 302.554 221.245 302.488 221.205C302.421 221.166 302.366 221.109 302.328 221.04L301.664 219.917C300.744 220.088 299.813 220.188 298.88 220.216C298.547 220.226 298.216 220.164 297.907 220.035C297.599 219.907 297.318 219.714 297.084 219.468C296.732 219.019 296.442 218.522 296.222 217.99C296.149 217.839 296.111 217.672 296.111 217.503C296.111 217.335 296.149 217.168 296.222 217.017C296.355 216.836 296.526 216.688 296.722 216.584C296.918 216.481 297.134 216.424 297.353 216.418L299.436 216.175L295.108 208.541C295.075 208.489 295.053 208.43 295.042 208.368C295.032 208.306 295.033 208.243 295.047 208.182C295.06 208.121 295.085 208.063 295.12 208.012C295.156 207.962 295.2 207.919 295.252 207.886C295.357 207.824 295.481 207.807 295.599 207.838C295.716 207.869 295.817 207.947 295.88 208.055L300.676 216.306L302.292 219.225L303.1 220.628C303.16 220.738 303.177 220.867 303.147 220.99C303.116 221.112 303.042 221.217 302.939 221.283C302.89 221.284 302.842 221.278 302.795 221.264H302.705ZM297.048 217.522C297.044 217.566 297.044 217.61 297.048 217.653C297.232 218.086 297.474 218.489 297.766 218.851C298.07 219.138 298.469 219.292 298.88 219.281C299.632 219.249 300.382 219.168 301.125 219.038L299.993 217.073C298.952 217.185 298.197 217.279 297.515 217.372C296.832 217.466 297.138 217.522 297.138 217.522H297.048ZM295.988 220.834C295.909 220.838 295.83 220.819 295.76 220.78C295.69 220.74 295.633 220.681 295.593 220.609L289.864 210.169C289.804 210.059 289.787 209.93 289.817 209.807C289.847 209.685 289.922 209.58 290.025 209.514C290.133 209.453 290.259 209.439 290.376 209.474C290.494 209.509 290.593 209.59 290.654 209.701L296.383 220.123C296.441 220.235 296.455 220.366 296.422 220.489C296.388 220.611 296.31 220.715 296.204 220.778L295.988 220.834ZM289.666 220.703H289.72C289.661 220.694 289.605 220.673 289.554 220.64C289.504 220.607 289.46 220.564 289.426 220.513C289.393 220.462 289.369 220.405 289.358 220.344C289.347 220.283 289.348 220.221 289.361 220.16L290.133 215.913L286.128 210.412C286.055 210.31 286.024 210.182 286.041 210.056C286.058 209.93 286.121 209.816 286.218 209.739C286.266 209.703 286.32 209.677 286.378 209.663C286.436 209.65 286.496 209.648 286.554 209.658C286.613 209.669 286.669 209.691 286.719 209.724C286.769 209.757 286.812 209.8 286.846 209.851L290.869 215.464C290.896 215.522 290.91 215.586 290.91 215.651C290.91 215.716 290.896 215.78 290.869 215.838L290.061 220.273C290.051 220.371 290.013 220.465 289.953 220.541C289.892 220.618 289.811 220.674 289.72 220.703H289.666Z" fill="#10204F"/>
<path d="M350.596 221.271H355.49L352.367 210.23H346.633L350.687 221.271H350.596ZM345.318 220.819L344.496 218.205H342.524C341.917 218.151 341.306 218.151 340.698 218.205C340.169 218.299 339.913 218.562 339.913 218.976C339.894 219.241 339.93 219.507 340.018 219.756C340.106 220.006 340.245 220.234 340.424 220.424C340.577 220.567 340.755 220.677 340.95 220.748C341.144 220.82 341.35 220.85 341.556 220.838H343.383H345.209L345.318 220.819ZM333.102 214.104H336.389L339.438 222.794H345.811L345.336 221.289H350.577L346.633 210.23H342.013L344.496 218.205L345.318 220.819H343.492H341.666C341.46 220.831 341.254 220.801 341.059 220.73C340.865 220.659 340.686 220.548 340.534 220.405C340.354 220.215 340.216 219.987 340.128 219.738C340.039 219.488 340.004 219.222 340.023 218.957C340.023 218.543 340.278 218.28 340.808 218.186C341.415 218.132 342.026 218.132 342.634 218.186H344.606L342.123 210.211C342.123 209.553 341.903 209.27 341.465 209.327H336.845C335.313 210.587 334.103 212.215 333.321 214.067L333.102 214.104ZM355.891 210.305H352.568L355.69 221.346H357.59C358.466 221.214 358.74 220.669 358.43 219.691L355.891 210.305Z" fill="#A6394B"/>
<path d="M345.485 222.794C345.388 222.795 345.294 222.766 345.215 222.709C345.137 222.652 345.078 222.572 345.047 222.479L344.572 220.999C344.572 220.999 344.572 220.999 344.572 220.869H343.149H341.232C340.963 220.885 340.693 220.846 340.439 220.754C340.185 220.662 339.952 220.518 339.754 220.333C339.521 220.089 339.342 219.798 339.229 219.479C339.116 219.16 339.071 218.82 339.097 218.482C339.097 218.165 339.219 217.86 339.437 217.631C339.655 217.403 339.952 217.271 340.265 217.261C340.868 217.16 341.48 217.123 342.09 217.15H343.423L341.141 209.933C341.107 209.813 341.12 209.683 341.178 209.573C341.236 209.462 341.334 209.379 341.452 209.341C341.568 209.305 341.693 209.316 341.802 209.371C341.91 209.426 341.994 209.521 342.036 209.637L344.499 217.483L345.302 220.037C345.32 220.116 345.32 220.198 345.302 220.277C345.355 220.338 345.398 220.407 345.43 220.481L345.886 221.961C345.906 222.021 345.913 222.084 345.908 222.146C345.903 222.209 345.886 222.269 345.857 222.325C345.827 222.38 345.788 222.429 345.739 222.468C345.691 222.508 345.636 222.537 345.576 222.553L345.485 222.794ZM342.09 218.26C341.544 218.201 340.994 218.201 340.448 218.26C340.01 218.26 340.01 218.464 340.01 218.556C339.997 218.755 340.024 218.955 340.09 219.142C340.156 219.33 340.259 219.502 340.393 219.648C340.502 219.746 340.629 219.819 340.767 219.864C340.906 219.908 341.052 219.923 341.196 219.907H343.021H344.153L343.642 218.26H342.09ZM350.248 221.314C350.156 221.315 350.067 221.287 349.991 221.234C349.916 221.181 349.859 221.105 349.828 221.018L345.759 210.155C345.717 210.037 345.722 209.907 345.773 209.793C345.824 209.679 345.917 209.59 346.032 209.544C346.149 209.506 346.275 209.514 346.386 209.565C346.498 209.617 346.586 209.708 346.635 209.822L350.686 220.684C350.709 220.743 350.721 220.805 350.719 220.868C350.718 220.93 350.704 220.992 350.679 221.049C350.653 221.106 350.616 221.158 350.57 221.2C350.525 221.242 350.471 221.275 350.412 221.295L350.248 221.314ZM355.139 221.314C355.041 221.314 354.945 221.281 354.866 221.221C354.787 221.161 354.729 221.077 354.701 220.981L351.58 210.118C351.561 210.06 351.554 209.998 351.559 209.937C351.564 209.875 351.582 209.816 351.611 209.762C351.64 209.708 351.68 209.661 351.728 209.623C351.777 209.586 351.832 209.559 351.891 209.544C352.007 209.51 352.132 209.524 352.238 209.583C352.344 209.642 352.423 209.741 352.456 209.859L355.596 220.703C355.612 220.763 355.617 220.825 355.609 220.886C355.601 220.948 355.581 221.007 355.551 221.06C355.52 221.114 355.479 221.16 355.431 221.198C355.382 221.235 355.326 221.262 355.267 221.277L355.139 221.314ZM358.096 219.704C357.995 219.702 357.898 219.669 357.816 219.61C357.735 219.55 357.673 219.467 357.64 219.371L354.884 210.118C354.849 209.998 354.862 209.869 354.92 209.758C354.978 209.647 355.077 209.564 355.194 209.526C355.253 209.506 355.315 209.498 355.376 209.503C355.438 209.509 355.498 209.527 355.553 209.556C355.607 209.585 355.655 209.626 355.694 209.675C355.733 209.723 355.761 209.78 355.778 209.84L358.534 219.093C358.568 219.213 358.555 219.342 358.497 219.453C358.439 219.563 358.341 219.647 358.224 219.685L358.096 219.704Z" fill="#10204F"/>
<path d="M203.358 200.336H203.157C203.032 200.283 202.935 200.188 202.886 200.069C202.837 199.951 202.84 199.82 202.895 199.704L213.861 176.663C213.888 176.607 213.926 176.556 213.973 176.514C214.021 176.471 214.077 176.438 214.139 176.415C214.201 176.393 214.267 176.382 214.333 176.383C214.399 176.384 214.465 176.397 214.525 176.421C214.586 176.446 214.641 176.481 214.687 176.525C214.733 176.569 214.769 176.621 214.794 176.678C214.818 176.735 214.83 176.796 214.829 176.857C214.827 176.919 214.813 176.979 214.787 177.035L203.821 200.113C203.773 200.186 203.705 200.245 203.623 200.284C203.541 200.324 203.45 200.342 203.358 200.336V200.336Z" fill="#FDF6BA"/>
<path d="M202.965 200.337L201.355 203.144L203.915 203.331L204.35 200.337H202.965Z" fill="#10204F"/>
</svg>
