<svg width="24" height="24" viewBox="0 0 24 24" fill="none" xmlns="http://www.w3.org/2000/svg">
<path d="M16.14 12.5C16.14 13.5 16.04 14.35 15.84 15.05C15.64 15.75 15.36 16.32 15.01 16.75C14.65 17.19 14.22 17.5 13.71 17.7C13.2 17.9 12.64 18 12.01 18C11.39 18 10.83 17.9 10.32 17.7C9.80998 17.5 9.36999 17.19 9.00999 16.75C8.64999 16.31 8.35999 15.74 8.15999 15.05C7.95999 14.35 7.85999 13.5 7.85999 12.5V10.46C7.85999 9.46 7.95999 8.61 8.15999 7.91C8.35999 7.21 8.63999 6.65 8.99999 6.22C9.35999 5.79 9.79999 5.48 10.31 5.29C10.81 5.1 11.38 5 12 5C12.63 5 13.19 5.1 13.7 5.29C14.21 5.48 14.65 5.79 15.01 6.22C15.37 6.65 15.65 7.21 15.85 7.91C16.05 8.61 16.15 9.45 16.15 10.46V12.5H16.14ZM14.03 10.14C14.03 9.5 13.98 8.96 13.9 8.52C13.81 8.08 13.68 7.73 13.5 7.46C13.33 7.19 13.11 7 12.86 6.88C12.61 6.75 12.32 6.69 12 6.69C11.68 6.69 11.39 6.75 11.14 6.87C10.89 6.99 10.67 7.18 10.5 7.45C10.33 7.72 10.19 8.07 10.1 8.51C10.01 8.95 9.96999 9.49 9.96999 10.13V12.8C9.96999 13.44 10.02 13.98 10.11 14.42C10.2 14.87 10.34 15.23 10.51 15.51C10.68 15.79 10.9 15.99 11.15 16.12C11.4 16.25 11.69 16.31 12.02 16.31C12.35 16.31 12.64 16.25 12.89 16.12C13.14 15.99 13.35 15.79 13.52 15.51C13.69 15.23 13.82 14.87 13.91 14.42C14 13.97 14.04 13.43 14.04 12.8V10.14H14.03Z" fill="black"/>
</svg>
