<svg width="36" height="36" viewBox="0 0 36 36" fill="none" xmlns="http://www.w3.org/2000/svg">
<path fill-rule="evenodd" clip-rule="evenodd" d="M17.6799 18.7667C17.8623 18.9491 18.1441 18.9491 18.3265 18.7667L20.8681 16.2251C21.1509 15.9341 20.95 15.4422 20.5401 15.4422H18.9107V6.15017C18.9107 5.64698 18.5028 5.23911 17.9996 5.23911C17.4974 5.23911 17.0896 5.64698 17.0896 6.15017V15.4422H15.457C15.0471 15.4422 14.8462 15.9341 15.1383 16.2159L17.6799 18.7667Z" fill="black"/>
<mask id="path-2-inside-1" fill="white">
<path fill-rule="evenodd" clip-rule="evenodd" d="M25.9381 21H30H32V23V30C32 31.1046 31.1046 32 30 32H6C4.89543 32 4 31.1046 4 30V23V21H6H10.0619C10.021 20.6724 10 20.3387 10 20C10 19.6613 10.021 19.3276 10.0619 19H4H2V21V30C2 32.2091 3.79086 34 6 34H30C32.2091 34 34 32.2091 34 30V21V19H32H25.9381C25.979 19.3276 26 19.6613 26 20C26 20.3387 25.979 20.6724 25.9381 21Z"/>
</mask>
<path d="M25.9381 21L24.9458 20.8763L24.8057 22H25.9381V21ZM32 21H33V20H32V21ZM4 21V20H3V21H4ZM10.0619 21V22H11.1943L11.0542 20.8763L10.0619 21ZM10.0619 19L11.0542 19.1237L11.1943 18H10.0619V19ZM2 19V18H1V19H2ZM34 19H35V18H34V19ZM25.9381 19V18H24.8057L24.9458 19.1237L25.9381 19ZM30 20H25.9381V22H30V20ZM32 20H30V22H32V20ZM33 23V21H31V23H33ZM33 30V23H31V30H33ZM30 33C31.6569 33 33 31.6569 33 30H31C31 30.5523 30.5523 31 30 31V33ZM6 33H30V31H6V33ZM3 30C3 31.6569 4.34315 33 6 33V31C5.44772 31 5 30.5523 5 30H3ZM3 23V30H5V23H3ZM3 21V23H5V21H3ZM6 20H4V22H6V20ZM10.0619 20H6V22H10.0619V20ZM9 20C9 20.3801 9.02362 20.7552 9.06958 21.1237L11.0542 20.8763C11.0185 20.5896 11 20.2972 11 20H9ZM9.06958 18.8763C9.02362 19.2448 9 19.6199 9 20H11C11 19.7028 11.0185 19.4104 11.0542 19.1237L9.06958 18.8763ZM4 20H10.0619V18H4V20ZM2 20H4V18H2V20ZM3 21V19H1V21H3ZM3 30V21H1V30H3ZM6 33C4.34315 33 3 31.6569 3 30H1C1 32.7614 3.23858 35 6 35V33ZM30 33H6V35H30V33ZM33 30C33 31.6569 31.6569 33 30 33V35C32.7614 35 35 32.7614 35 30H33ZM33 21V30H35V21H33ZM33 19V21H35V19H33ZM32 20H34V18H32V20ZM25.9381 20H32V18H25.9381V20ZM27 20C27 19.6199 26.9764 19.2448 26.9304 18.8763L24.9458 19.1237C24.9815 19.4104 25 19.7028 25 20H27ZM26.9304 21.1237C26.9764 20.7552 27 20.3801 27 20H25C25 20.2972 24.9815 20.5896 24.9458 20.8763L26.9304 21.1237Z" fill="black" mask="url(#path-2-inside-1)"/>
<rect x="3" y="3" width="30" height="30" rx="3" stroke="black" stroke-width="2"/>
</svg>
