<svg width="24" height="24" viewBox="0 0 24 24" fill="none" xmlns="http://www.w3.org/2000/svg">
<rect width="24" height="24" fill="black"/>
<path fill-rule="evenodd" clip-rule="evenodd" d="M17 2C18.104 2 19 2.896 19 4C19 5.104 18.104 6 17 6C15.896 6 15 5.104 15 4C15 2.896 15.896 2 17 2Z" fill="white"/>
<path fill-rule="evenodd" clip-rule="evenodd" d="M12.0195 15.46H16.9995V19.46C16.9995 20.012 17.4475 20.46 17.9995 20.46C18.5525 20.46 18.9995 20.012 18.9995 19.46V14.96C18.9995 13.86 18.0995 12.96 16.9995 12.96H15.1395L16.8095 9.28996C17.4195 7.95996 16.4405 6.45996 14.9595 6.45996H9.7595C8.9505 6.45996 8.2195 6.92996 7.8895 7.65996L7.6005 8.43796C7.3955 8.98696 7.7065 9.59396 8.2715 9.75096L8.2955 9.75696C8.7795 9.88996 9.2865 9.64596 9.4825 9.18396L9.7905 8.45996H11.9995L10.1695 12.56L12.0195 15.46Z" fill="white"/>
<path fill-rule="evenodd" clip-rule="evenodd" d="M9 11.46C6.238 11.46 4 13.698 4 16.46C4 19.222 6.238 21.46 9 21.46C11.762 21.46 14 19.222 14 16.46C14 13.698 11.762 11.46 9 11.46ZM9 13.46C10.654 13.46 12 14.806 12 16.46C12 18.114 10.654 19.46 9 19.46C7.346 19.46 6 18.114 6 16.46C6 14.806 7.346 13.46 9 13.46Z" fill="white"/>
</svg>
