<svg width="24" height="24" viewBox="0 0 24 24" fill="none" xmlns="http://www.w3.org/2000/svg">
<rect width="24" height="24" fill="black"/>
<mask id="mask0" mask-type="alpha" maskUnits="userSpaceOnUse" x="17" y="2" width="5" height="5">
<path fill-rule="evenodd" clip-rule="evenodd" d="M17.0414 2H21.9999V6.9583H17.0414V2Z" fill="white"/>
</mask>
<g mask="url(#mask0)">
<path fill-rule="evenodd" clip-rule="evenodd" d="M21.6204 3.29526L20.7044 2.37926C20.1984 1.87326 19.3794 1.87326 18.8734 2.37926L17.0414 4.21126L19.7894 6.95826L21.6204 5.12726C22.1264 4.62126 22.1264 3.80126 21.6204 3.29526Z" fill="white"/>
</g>
<mask id="mask1" mask-type="alpha" maskUnits="userSpaceOnUse" x="2" y="5" width="17" height="17">
<path fill-rule="evenodd" clip-rule="evenodd" d="M2 5.12744H18.8729V22H2V5.12744Z" fill="white"/>
</mask>
<g mask="url(#mask1)">
<path fill-rule="evenodd" clip-rule="evenodd" d="M3.5149 17.7374C3.3719 17.8794 3.2659 18.0524 3.2029 18.2434L2.0069 21.8294C1.9729 21.9304 2.0699 22.0274 2.1709 21.9934L5.7559 20.7984C5.9479 20.7344 6.1199 20.6274 6.2629 20.4854L18.8729 7.87444L16.1249 5.12744L3.5149 17.7374Z" fill="white"/>
</g>
</svg>
