<svg width="24" height="24" viewBox="0 0 24 24" fill="none" xmlns="http://www.w3.org/2000/svg">
<rect width="24" height="24" fill="black"/>
<path d="M8.10001 13.34L10.93 10.51L3.91001 3.49996C2.35001 5.05996 2.35001 7.58996 3.91001 9.15996L8.10001 13.34V13.34ZM14.88 11.53C16.41 12.24 18.56 11.74 20.15 10.15C22.06 8.23996 22.43 5.49996 20.96 4.02996C19.5 2.56996 16.76 2.92996 14.84 4.83996C13.25 6.42996 12.75 8.57996 13.46 10.11L3.70001 19.87L5.11001 21.28L12 14.41L18.88 21.29L20.29 19.88L13.41 13L14.88 11.53V11.53Z" fill="white"/>
</svg>
