<svg width="24" height="24" viewBox="0 0 24 24" fill="none" xmlns="http://www.w3.org/2000/svg">
<rect width="24" height="24" fill="black"/>
<path fill-rule="evenodd" clip-rule="evenodd" d="M21.0021 14.335L16.9768 12L21.0021 9.665C21.4789 9.389 21.6411 8.777 21.3664 8.299L19.8733 5.701C19.5986 5.223 18.9905 5.059 18.5137 5.335L14.4884 7.67V3C14.4884 2.448 14.0425 2 13.4931 2H10.507C9.95756 2 9.51164 2.448 9.51164 3V7.67L5.4864 5.335C5.01062 5.059 4.40146 5.223 4.12575 5.701L2.6327 8.299C2.35898 8.777 2.52222 9.389 2.998 9.665L7.02324 12L2.998 14.335C2.52222 14.611 2.35898 15.223 2.6327 15.701L4.12575 18.299C4.40146 18.777 5.01062 18.941 5.4864 18.665L9.51164 16.33V21C9.51164 21.552 9.95756 22 10.507 22H13.4931C14.0425 22 14.4884 21.552 14.4884 21V16.33L18.5137 18.665C18.9905 18.941 19.5986 18.777 19.8733 18.299L21.3664 15.701C21.6411 15.223 21.4789 14.611 21.0021 14.335Z" fill="white"/>
</svg>
