<svg width="24" height="24" viewBox="0 0 24 24" fill="none" xmlns="http://www.w3.org/2000/svg">
<rect width="24" height="24" fill="black"/>
<mask id="mask0" mask-type="alpha" maskUnits="userSpaceOnUse" x="3" y="3" width="18" height="18">
<path fill-rule="evenodd" clip-rule="evenodd" d="M3.0004 3H20.3814V20.9996H3.0004V3Z" fill="white"/>
</mask>
<g mask="url(#mask0)">
<path fill-rule="evenodd" clip-rule="evenodd" d="M19.3374 4.66263L16.9494 7.05063L18.3634 5.63563C17.5384 4.80963 16.5754 4.16163 15.5044 3.70763C14.3934 3.23863 13.2134 2.99963 12.0004 2.99963C10.7854 2.99963 9.6074 3.23863 8.4964 3.70763C7.4244 4.16163 6.4624 4.80963 5.6364 5.63563C4.8104 6.46163 4.1614 7.42463 3.7084 8.49563C3.2384 9.60663 3.0004 10.7856 3.0004 11.9996C3.0004 13.2146 3.2384 14.3926 3.7084 15.5036C4.1614 16.5756 4.8104 17.5376 5.6364 18.3636C6.4624 19.1896 7.4244 19.8386 8.4964 20.2916C9.6074 20.7616 10.7854 20.9996 12.0004 20.9996C13.2134 20.9996 14.3934 20.7616 15.5044 20.2916C16.5754 19.8386 17.5384 19.1896 18.3634 18.3636C18.8764 17.8516 19.3194 17.2876 19.6914 16.6776C20.0044 16.1626 19.7924 15.4906 19.2414 15.2456L17.3934 14.4246C16.9484 14.2266 16.4274 14.3796 16.1554 14.7836C15.9754 15.0506 15.7684 15.3026 15.5354 15.5356C14.5914 16.4796 13.3354 16.9996 12.0004 16.9996C10.6644 16.9996 9.4084 16.4796 8.4644 15.5356C7.5204 14.5906 7.0004 13.3356 7.0004 11.9996C7.0004 10.6646 7.5204 9.40863 8.4644 8.46463C9.4084 7.51963 10.6644 6.99963 12.0004 6.99963C13.3354 6.99963 14.5914 7.51963 15.5354 8.46463L14.5624 9.43863C14.1764 9.82363 14.4504 10.4736 14.9894 10.4646L19.7744 10.4736C20.1164 10.4736 20.3814 10.2086 20.3814 9.86563V5.09063C20.3734 4.55163 19.7224 4.27763 19.3374 4.66263Z" fill="white"/>
</g>
</svg>
