<svg width="24" height="24" viewBox="0 0 24 24" fill="none" xmlns="http://www.w3.org/2000/svg">
<rect width="24" height="24" fill="black"/>
<mask id="mask0" mask-type="alpha" maskUnits="userSpaceOnUse" x="3" y="3" width="17" height="18">
<path fill-rule="evenodd" clip-rule="evenodd" d="M3 3.80872H19.9485V20.7567H3V3.80872Z" fill="white"/>
</mask>
<g mask="url(#mask0)">
<path fill-rule="evenodd" clip-rule="evenodd" d="M4.00589 3.80872C3.49289 3.80872 2.99989 4.20672 2.99989 4.80872V19.7587C2.99989 20.3097 3.44689 20.7567 3.99889 20.7567H18.9479C19.8379 20.7567 20.2829 19.6817 19.6539 19.0527L4.70489 4.10272C4.50189 3.89972 4.25189 3.80872 4.00589 3.80872ZM6.49489 10.8367L12.9209 17.2617H6.49489V10.8367Z" fill="white"/>
</g>
<mask id="mask1" mask-type="alpha" maskUnits="userSpaceOnUse" x="10" y="4" width="11" height="11">
<path fill-rule="evenodd" clip-rule="evenodd" d="M10.8816 4.58643H20.915V14.6189H10.8816V4.58643Z" fill="white"/>
</mask>
<g mask="url(#mask1)">
<path fill-rule="evenodd" clip-rule="evenodd" d="M19.9336 11.5524L20.9096 14.4794C20.9366 14.5624 20.8586 14.6404 20.7756 14.6134L17.8486 13.6374C17.6926 13.5854 17.5506 13.4984 17.4346 13.3824L10.8816 6.82943L13.1246 4.58643L19.6776 11.1394C19.7936 11.2554 19.8816 11.3964 19.9336 11.5524Z" fill="white"/>
</g>
<path fill-rule="evenodd" clip-rule="evenodd" d="M9.7607 3.46449C9.1417 4.08449 9.1417 5.08849 9.7607 5.70749L10.1347 6.08149L12.3777 3.83849L12.0037 3.46449C11.3837 2.84549 10.3797 2.84549 9.7607 3.46449Z" fill="white"/>
</svg>
