<svg width="24" height="24" viewBox="0 0 24 24" fill="none" xmlns="http://www.w3.org/2000/svg">
<rect width="24" height="24" fill="black"/>
<mask id="mask0" mask-type="alpha" maskUnits="userSpaceOnUse" x="3" y="2" width="18" height="21">
<path fill-rule="evenodd" clip-rule="evenodd" d="M3.00011 2.00024H21V22.0112H3.00011V2.00024Z" fill="white"/>
</mask>
<g mask="url(#mask0)">
<path fill-rule="evenodd" clip-rule="evenodd" d="M19.9971 14.4742H11.9531C11.3991 14.4742 10.9511 14.9233 10.9511 15.4773V15.9843C10.9511 16.5373 11.3991 16.9873 11.9531 16.9873H13.9841C13.8911 17.0553 13.7941 17.1202 13.6951 17.1823C12.9131 17.6702 12.0101 17.9292 11.0821 17.9292C10.4141 17.9292 9.76711 17.7983 9.15911 17.5413C8.57011 17.2923 8.04211 16.9363 7.58811 16.4823C7.13311 16.0273 6.77611 15.4983 6.52811 14.9113C6.27011 14.3022 6.14111 13.6552 6.14111 12.9882C6.14111 11.5922 6.72511 10.2823 7.73211 9.35325L9.02511 10.6462C9.41711 11.0372 10.0521 11.0372 10.4431 10.6462L11.6901 9.39925C12.0811 9.00725 12.0811 8.37225 11.6901 7.98225L6.00211 2.29325C5.61011 1.90225 4.97611 1.90225 4.58411 2.29325L3.33811 3.54025C2.94611 3.93225 2.94611 4.56725 3.33811 4.95825L5.51211 7.13225C4.91011 7.70525 4.39611 8.37025 3.99611 9.09725C3.67511 9.68125 3.42811 10.3042 3.26011 10.9482C3.08811 11.6112 3.00011 12.2972 3.00011 12.9882C3.00011 14.0782 3.21411 15.1363 3.63611 16.1333C4.04311 17.0963 4.62511 17.9602 5.36711 18.7022C5.65711 18.9932 5.96711 19.2582 6.29311 19.4982H4.19311C3.64011 19.4982 3.19111 19.9482 3.19111 20.5012V21.0082C3.19111 21.5623 3.64011 22.0112 4.19311 22.0112H17.2621C17.8151 22.0112 18.2651 21.5623 18.2651 21.0082V20.5012C18.2651 19.9482 17.8151 19.4982 17.2621 19.4982H15.8691C16.7811 18.8282 17.5441 17.9713 18.1051 16.9873H19.9971C20.5511 16.9873 21.0001 16.5373 21.0001 15.9843V15.4773C21.0001 14.9233 20.5511 14.4742 19.9971 14.4742Z" fill="white"/>
</g>
</svg>
