<svg width="24" height="24" viewBox="0 0 24 24" fill="none" xmlns="http://www.w3.org/2000/svg">
<rect width="24" height="24" fill="black"/>
<mask id="mask0" mask-type="alpha" maskUnits="userSpaceOnUse" x="3" y="7" width="18" height="9">
<path fill-rule="evenodd" clip-rule="evenodd" d="M3.0001 7.00024H21V16H3.0001V7.00024Z" fill="white"/>
</mask>
<g mask="url(#mask0)">
<path fill-rule="evenodd" clip-rule="evenodd" d="M16.5 8.8C17.994 8.8 19.2 10.006 19.2 11.5C19.2 12.994 17.994 14.2 16.5 14.2C15.006 14.2 13.8 12.994 13.8 11.5C13.8 10.006 15.006 8.8 16.5 8.8ZM7.5 16H16.5C18.984 16 21 13.984 21 11.5C21 9.016 18.984 7 16.5 7H7.5C5.016 7 3 9.016 3 11.5C3 13.984 5.016 16 7.5 16Z" fill="white"/>
</g>
</svg>
