<svg width="24" height="24" viewBox="0 0 24 24" fill="none" xmlns="http://www.w3.org/2000/svg">
<rect width="24" height="24" fill="black"/>
<path d="M10.6814 14.0142C10.6814 13.3421 10.8209 12.7611 11.1 12.271C11.393 11.7809 11.8953 11.2209 12.607 10.5908C13.0256 10.2127 13.3256 9.88369 13.507 9.60366C13.7023 9.32362 13.8 9.00158 13.8 8.63753C13.8 8.20348 13.6395 7.83943 13.3186 7.54539C12.9977 7.23735 12.5721 7.08333 12.0419 7.08333C11.4837 7.08333 11.0233 7.25136 10.6605 7.5874C10.3116 7.90944 10.0605 8.31549 9.90698 8.80556L7.5 7.79743C7.76512 6.90131 8.2814 6.13121 9.04884 5.48713C9.83023 4.82904 10.807 4.5 11.9791 4.5C12.8581 4.5 13.6395 4.67502 14.3233 5.02507C15.007 5.37511 15.5372 5.85818 15.914 6.47426C16.3047 7.07633 16.5 7.74842 16.5 8.49051C16.5 9.21861 16.3465 9.84169 16.0395 10.3598C15.7326 10.8778 15.2791 11.4239 14.6791 11.998C14.2047 12.446 13.8767 12.8311 13.6953 13.1531C13.5279 13.4752 13.4442 13.8812 13.4442 14.3713V14.7073H10.6814V14.0142ZM12.0419 20C11.5395 20 11.107 19.825 10.7442 19.4749C10.3953 19.1109 10.2209 18.6768 10.2209 18.1728C10.2209 17.6687 10.3953 17.2416 10.7442 16.8916C11.107 16.5416 11.5395 16.3665 12.0419 16.3665C12.5442 16.3665 12.9698 16.5416 13.3186 16.8916C13.6674 17.2416 13.8419 17.6687 13.8419 18.1728C13.8419 18.6768 13.6674 19.1109 13.3186 19.4749C12.9698 19.825 12.5442 20 12.0419 20Z" fill="white"/>
</svg>
