<svg width="24" height="24" viewBox="0 0 24 24" fill="none" xmlns="http://www.w3.org/2000/svg">
<mask id="mask0" mask-type="alpha" maskUnits="userSpaceOnUse" x="3" y="2" width="19" height="20">
<path fill-rule="evenodd" clip-rule="evenodd" d="M3 2.00012H21.8778V22H3V2.00012Z" fill="white"/>
</mask>
<g mask="url(#mask0)">
<path fill-rule="evenodd" clip-rule="evenodd" d="M18.3343 9.27105C17.5203 9.69205 16.5233 9.37505 16.1023 8.56005C15.6813 7.74705 15.9993 6.75005 16.8133 6.32905C17.6273 5.90805 18.6243 6.22505 19.0453 7.04005C19.4663 7.85305 19.1483 8.85005 18.3343 9.27105ZM13.3633 6.86905C12.5493 7.29005 11.5523 6.97205 11.1313 6.15905C10.7103 5.34405 11.0283 4.34705 11.8423 3.92605C12.6563 3.50505 13.6533 3.82305 14.0743 4.63705C14.4953 5.45205 14.1773 6.44805 13.3633 6.86905ZM8.45931 9.40505C7.64531 9.82605 6.64731 9.50805 6.22731 8.69405C5.80631 7.87905 6.12331 6.88305 6.93831 6.46205C7.75131 6.04205 8.74931 6.35905 9.16931 7.17205C9.59031 7.98705 9.27331 8.98405 8.45931 9.40505ZM7.54431 14.8491C6.73031 15.2701 5.73331 14.9531 5.31331 14.1391C4.89231 13.3251 5.20931 12.3281 6.02331 11.9071C6.83731 11.4861 7.83431 11.8031 8.25531 12.6181C8.67631 13.4311 8.35931 14.4281 7.54431 14.8491ZM8.37631 3.23305C3.50131 5.75205 1.59131 11.75 4.11131 16.625C6.63231 21.5 12.6283 23.409 17.5033 20.8881C18.3173 20.4671 18.6353 19.47 18.2143 18.656C18.0163 18.274 17.6913 18.0061 17.3193 17.863C16.9623 17.725 16.6373 17.458 16.4443 17.0841C16.0233 16.2711 16.3413 15.274 17.1553 14.853L18.8913 13.956C21.5993 12.5561 22.6603 9.22205 21.2603 6.51505C19.0193 2.18005 13.2513 0.71205 8.37631 3.23305Z" fill="black"/>
</g>
</svg>
