<svg width="24" height="24" viewBox="0 0 24 24" fill="none" xmlns="http://www.w3.org/2000/svg">
<mask id="mask0" mask-type="alpha" maskUnits="userSpaceOnUse" x="3" y="3" width="18" height="18">
<path fill-rule="evenodd" clip-rule="evenodd" d="M3 3H21V21H3V3Z" fill="white"/>
</mask>
<g mask="url(#mask0)">
<path fill-rule="evenodd" clip-rule="evenodd" d="M20.979 3.41065C20.969 3.19965 20.8 3.03065 20.589 3.02065C20.197 3.00065 10.938 2.58565 6.89001 6.63365C4.37101 9.15265 4.04901 13.0507 5.92501 15.9227L3.29301 18.5547C2.90201 18.9447 2.90201 19.5787 3.29301 19.9697L4.03101 20.7067C4.42101 21.0977 5.05501 21.0977 5.44601 20.7067L8.07801 18.0747C10.95 19.9507 14.847 19.6297 17.367 17.1097C21.415 13.0617 21 3.80365 20.979 3.41065Z" fill="black"/>
</g>
</svg>
