<svg width="24" height="24" viewBox="0 0 24 24" fill="none" xmlns="http://www.w3.org/2000/svg">
<path fill-rule="evenodd" clip-rule="evenodd" d="M19 8C19.6295 8 20.2223 8.29639 20.6 8.8L23 12V17H21C21 18.66 19.66 20 18 20C16.34 20 15 18.66 15 17H9C9 18.66 7.66 20 6 20C4.34 20 3 18.66 3 17H1V6C1 4.9 1.9 4 3 4H15C16.1046 4 17 4.89543 17 6V8H19ZM4.5 17C4.5 17.83 5.17 18.5 6 18.5C6.83 18.5 7.5 17.83 7.5 17C7.5 16.17 6.83 15.5 6 15.5C5.17 15.5 4.5 16.17 4.5 17ZM19.0133 9.5C19.3205 9.5 19.6107 9.64123 19.8003 9.88301L21.46 12H17V9.5H19.0133ZM16.5 17C16.5 17.83 17.17 18.5 18 18.5C18.83 18.5 19.5 17.83 19.5 17C19.5 16.17 18.83 15.5 18 15.5C17.17 15.5 16.5 16.17 16.5 17Z" fill="black"/>
</svg>
