<svg width="24" height="24" viewBox="0 0 24 24" fill="none" xmlns="http://www.w3.org/2000/svg">
<path fill-rule="evenodd" clip-rule="evenodd" d="M6.5 19.0044C6.5 20.1084 7.396 21.0044 8.5 21.0044H16.5C17.605 21.0044 18.5 20.1084 18.5 19.0044V7.00439H6.5V19.0044Z" fill="black"/>
<mask id="mask0" mask-type="alpha" maskUnits="userSpaceOnUse" x="5" y="3" width="15" height="4">
<path fill-rule="evenodd" clip-rule="evenodd" d="M5 3.00037H20V6.00437H5V3.00037Z" fill="white"/>
</mask>
<g mask="url(#mask0)">
<path fill-rule="evenodd" clip-rule="evenodd" d="M19.0576 4.00437H18.1256V3.94337C18.1256 3.42237 17.7026 3.00037 17.1816 3.00037H7.8186C7.2976 3.00037 6.8746 3.42237 6.8746 3.94337V4.00437H5.9426C5.4226 4.00437 4.9996 4.42637 4.9996 4.94737V5.06137C4.9996 5.58237 5.4226 6.00437 5.9426 6.00437H19.0576C19.5786 6.00437 20.0006 5.58237 20.0006 5.06137V4.94737C20.0006 4.42637 19.5786 4.00437 19.0576 4.00437Z" fill="black"/>
</g>
</svg>
