<svg width="36" height="36" viewBox="0 0 36 36" fill="none" xmlns="http://www.w3.org/2000/svg">
<path d="M19.1371 1.30488L19.1364 1.30444C18.4333 0.898519 17.5667 0.898519 16.8636 1.30444L16.8629 1.30487L4.13562 8.66747L4.13528 8.66767C3.43246 9.07461 3 9.82548 3 10.6378V25.3623C3 26.1737 3.43221 26.9254 4.13528 27.3325L4.13566 27.3327L16.8626 34.6944C17.5662 35.1019 18.4338 35.1019 19.1374 34.6944L31.8634 27.3329C31.8635 27.3328 31.8636 27.3328 31.8637 27.3327C32.5677 26.9256 33 26.1738 33 25.3623V10.6378C33 9.8254 32.5674 9.0744 31.8637 8.66748C31.8636 8.66742 31.8635 8.66736 31.8634 8.6673L19.1371 1.30488Z" fill="#FFDD00" stroke="#FFDD00" stroke-width="2"/>
<path fill-rule="evenodd" clip-rule="evenodd" d="M17 24.9291C13.6077 24.4439 11 21.5265 11 18C11 17.4477 11.4477 17 12 17C12.5523 17 13 17.4477 13 18C13 20.7614 15.2386 23 18 23C20.7614 23 23 20.7614 23 18C23 17.4477 23.4477 17 24 17C24.5523 17 25 17.4477 25 18C25 21.5265 22.3923 24.4439 19 24.9291V28H17V24.9291Z" fill="black"/>
<rect x="16" y="10" width="4" height="10" rx="2" stroke="black" stroke-width="2"/>
</svg>
