<svg width="36" height="36" viewBox="0 0 36 36" fill="none" xmlns="http://www.w3.org/2000/svg">
<path d="M19.1371 1.30488L19.1364 1.30444C18.4333 0.898519 17.5667 0.898519 16.8636 1.30444L16.8629 1.30487L4.13562 8.66747L4.13528 8.66767C3.43246 9.07461 3 9.82548 3 10.6378V25.3623C3 26.1737 3.43221 26.9254 4.13528 27.3325L4.13566 27.3327L16.8626 34.6944C17.5662 35.1019 18.4338 35.1019 19.1374 34.6944L31.8634 27.3329C31.8635 27.3328 31.8636 27.3328 31.8637 27.3327C32.5677 26.9256 33 26.1738 33 25.3623V10.6378C33 9.8254 32.5674 9.0744 31.8637 8.66748C31.8636 8.66742 31.8635 8.66736 31.8634 8.6673L19.1371 1.30488Z" fill="#FFDD00" stroke="#FFDD00" stroke-width="2"/>
<path fill-rule="evenodd" clip-rule="evenodd" d="M18 20C19.1046 20 20 19.1046 20 18C20 16.8954 19.1046 16 18 16C16.8954 16 16 16.8954 16 18C16 19.1046 16.8954 20 18 20Z" fill="black"/>
<path d="M22.2426 22.2426C21.8521 22.6332 21.219 22.6332 20.8284 22.2426C20.4379 21.8521 20.4379 21.219 20.8284 20.8284C22.3905 19.2663 22.3905 16.7337 20.8284 15.1716C19.2663 13.6095 16.7337 13.6095 15.1716 15.1716C13.6095 16.7337 13.6095 19.2663 15.1716 20.8284C15.5621 21.219 15.5621 21.8521 15.1716 22.2426C14.781 22.6332 14.1479 22.6332 13.7574 22.2426C11.4142 19.8995 11.4142 16.1005 13.7574 13.7574C16.1005 11.4142 19.8995 11.4142 22.2426 13.7574C24.5858 16.1005 24.5858 19.8995 22.2426 22.2426Z" fill="black"/>
<path d="M25.0711 25.0711C24.6805 25.4616 24.0474 25.4616 23.6569 25.0711C23.2663 24.6805 23.2663 24.0474 23.6569 23.6569C26.781 20.5327 26.781 15.4673 23.6569 12.3431C20.5327 9.21895 15.4673 9.21895 12.3431 12.3431C9.21895 15.4673 9.21895 20.5327 12.3431 23.6569C12.7337 24.0474 12.7337 24.6805 12.3431 25.0711C11.9526 25.4616 11.3195 25.4616 10.9289 25.0711C7.02369 21.1658 7.02369 14.8342 10.9289 10.9289C14.8342 7.02369 21.1658 7.02369 25.0711 10.9289C28.9763 14.8342 28.9763 21.1658 25.0711 25.0711Z" fill="black"/>
</svg>
